%TF.GenerationSoftware,KiCad,Pcbnew,10.0.5*%
%TF.CreationDate,2026-09-28T20:28:07+02:00*%
%TF.ProjectId,kp-ptr,6b702d70-7472-42e6-9b69-6361645f7063,rev?*%
%TF.SameCoordinates,Original*%
%TF.FileFunction,Copper,L1,Top*%
%TF.FilePolarity,Positive*%
%FSLAX46Y46*%
G04 Gerber Fmt 4.6, Leading zero omitted, Abs format (unit mm)*
G04 Created by KiCad (PCBNEW 10.0.5) date 2026-09-28 20:28:07*
%MOMM*%
%LPD*%
G01*
G04 APERTURE LIST*
G04 Aperture macros list*
%AMRoundRect*
0 Rectangle with rounded corners*
0 $1 Rounding radius*
0 $2 $3 $4 $5 $6 $7 $8 $9 X,Y pos of 4 corners*
0 Add a 4 corners polygon primitive as box body*
4,1,4,$2,$3,$4,$5,$6,$7,$8,$9,$2,$3,0*
0 Add four circle primitives for the rounded corners*
1,1,$1+$1,$2,$3*
1,1,$1+$1,$4,$5*
1,1,$1+$1,$6,$7*
1,1,$1+$1,$8,$9*
0 Add four rect primitives between the rounded corners*
20,1,$1+$1,$2,$3,$4,$5,0*
20,1,$1+$1,$4,$5,$6,$7,0*
20,1,$1+$1,$6,$7,$8,$9,0*
20,1,$1+$1,$8,$9,$2,$3,0*%
G04 Aperture macros list end*
%TA.AperFunction,ComponentPad*%
%ADD10C,0.700000*%
%TD*%
%TA.AperFunction,ComponentPad*%
%ADD11RoundRect,0.750000X-0.750000X-1.750000X0.750000X-1.750000X0.750000X1.750000X-0.750000X1.750000X0*%
%TD*%
%TA.AperFunction,ComponentPad*%
%ADD12RoundRect,0.250001X0.949999X-0.949999X0.949999X0.949999X-0.949999X0.949999X-0.949999X-0.949999X0*%
%TD*%
%TA.AperFunction,ComponentPad*%
%ADD13C,2.400000*%
%TD*%
%TA.AperFunction,SMDPad,CuDef*%
%ADD14R,1.150000X0.600000*%
%TD*%
%TA.AperFunction,SMDPad,CuDef*%
%ADD15R,1.150000X0.300000*%
%TD*%
%TA.AperFunction,ComponentPad*%
%ADD16O,2.100000X1.000000*%
%TD*%
%TA.AperFunction,ComponentPad*%
%ADD17O,1.800000X1.000000*%
%TD*%
%TA.AperFunction,SMDPad,CuDef*%
%ADD18R,0.736600X0.609600*%
%TD*%
%TA.AperFunction,SMDPad,CuDef*%
%ADD19R,1.100000X0.850000*%
%TD*%
%TA.AperFunction,SMDPad,CuDef*%
%ADD20R,1.100000X0.750000*%
%TD*%
%TA.AperFunction,SMDPad,CuDef*%
%ADD21R,1.000000X1.200000*%
%TD*%
%TA.AperFunction,SMDPad,CuDef*%
%ADD22R,1.350000X1.550000*%
%TD*%
%TA.AperFunction,SMDPad,CuDef*%
%ADD23R,1.350000X1.900000*%
%TD*%
%TA.AperFunction,SMDPad,CuDef*%
%ADD24R,1.800000X1.170000*%
%TD*%
%TA.AperFunction,ComponentPad*%
%ADD25C,6.000000*%
%TD*%
%TA.AperFunction,ComponentPad*%
%ADD26R,1.600000X1.600000*%
%TD*%
%TA.AperFunction,ComponentPad*%
%ADD27C,1.600000*%
%TD*%
%TA.AperFunction,SMDPad,CuDef*%
%ADD28RoundRect,0.150000X-0.150000X-0.700000X0.150000X-0.700000X0.150000X0.700000X-0.150000X0.700000X0*%
%TD*%
%TA.AperFunction,SMDPad,CuDef*%
%ADD29RoundRect,0.250000X-0.250000X-1.150000X0.250000X-1.150000X0.250000X1.150000X-0.250000X1.150000X0*%
%TD*%
%TA.AperFunction,ComponentPad*%
%ADD30RoundRect,0.250000X0.750000X0.750000X-0.750000X0.750000X-0.750000X-0.750000X0.750000X-0.750000X0*%
%TD*%
%TA.AperFunction,ComponentPad*%
%ADD31C,2.000000*%
%TD*%
%TA.AperFunction,ComponentPad*%
%ADD32R,1.700000X1.700000*%
%TD*%
%TA.AperFunction,ComponentPad*%
%ADD33C,1.700000*%
%TD*%
%TA.AperFunction,ComponentPad*%
%ADD34R,1.000000X1.000000*%
%TD*%
%TA.AperFunction,ComponentPad*%
%ADD35O,1.000000X1.000000*%
%TD*%
%TA.AperFunction,ComponentPad*%
%ADD36RoundRect,0.273403X-1.126597X-0.976597X1.126597X-0.976597X1.126597X0.976597X-1.126597X0.976597X0*%
%TD*%
%TA.AperFunction,ComponentPad*%
%ADD37RoundRect,0.255415X-1.144585X-0.994585X1.144585X-0.994585X1.144585X0.994585X-1.144585X0.994585X0*%
%TD*%
%TA.AperFunction,ViaPad*%
%ADD38C,0.700000*%
%TD*%
%TA.AperFunction,Conductor*%
%ADD39C,0.200000*%
%TD*%
%TA.AperFunction,Conductor*%
%ADD40C,0.400000*%
%TD*%
%TA.AperFunction,Conductor*%
%ADD41C,0.600000*%
%TD*%
%TA.AperFunction,Conductor*%
%ADD42C,0.250000*%
%TD*%
%TA.AperFunction,Conductor*%
%ADD43C,0.800000*%
%TD*%
G04 APERTURE END LIST*
D10*
%TO.P,J2,1,Pin_1_1*%
%TO.N,VCC*%
X7000000Y-62950000D03*
X7000000Y-65450000D03*
D11*
X8000000Y-64200000D03*
D10*
X9000000Y-62950000D03*
X9000000Y-65450000D03*
%TO.P,J2,2,Pin_2_2*%
%TO.N,Earth*%
X10500000Y-62950000D03*
X10500000Y-65450000D03*
D11*
X11500000Y-64200000D03*
D10*
X12500000Y-62950000D03*
X12500000Y-65450000D03*
%TD*%
D12*
%TO.P,J5,1,Pin_1_1*%
%TO.N,Net-(J5-Pin_1)*%
X18060000Y-58420000D03*
D13*
%TO.P,J5,2,Pin_2_2*%
%TO.N,Net-(J5-Pin_2)*%
X18060000Y-54920000D03*
%TO.P,J5,3,Pin_3_3*%
%TO.N,Net-(J5-Pin_3)*%
X18060000Y-51420000D03*
%TO.P,J5,4,Pin_4_4*%
%TO.N,Net-(J5-Pin_4)*%
X18060000Y-47920000D03*
%TO.P,J5,5,Pin_5_5*%
%TO.N,Net-(J5-Pin_5)*%
X18060000Y-44420000D03*
%TO.P,J5,6,Pin_6_6*%
%TO.N,Net-(J5-Pin_6)*%
X18060000Y-40920000D03*
%TD*%
D14*
%TO.P,J4,A1B12,GND_A1B12*%
%TO.N,Earth*%
X4375000Y-4966800D03*
%TO.P,J4,A4B9,VBUS_A4B9*%
%TO.N,VBUS*%
X4375000Y-5766800D03*
D15*
%TO.P,J4,A5,CC1_A5*%
%TO.N,Net-(J4-CC1)*%
X4375000Y-6916800D03*
%TO.P,J4,A6,D+_A6*%
%TO.N,Net-(J4-D+-PadA6)*%
X4375000Y-7916800D03*
%TO.P,J4,A7,D-_A7*%
%TO.N,Net-(J4-D--PadA7)*%
X4375000Y-8416800D03*
%TO.P,J4,A8,SBU1_A8*%
%TO.N,unconnected-(J4-SBU1-PadA8)*%
X4375000Y-9416800D03*
D14*
%TO.P,J4,B1A12,GND_B1A12*%
%TO.N,Earth*%
X4375000Y-11366800D03*
%TO.P,J4,B4A9,VBUS_B4A9*%
%TO.N,VBUS*%
X4375000Y-10566800D03*
D15*
%TO.P,J4,B5,CC2_B5*%
%TO.N,Net-(J4-CC2)*%
X4375000Y-9916800D03*
%TO.P,J4,B6,D+_B6*%
%TO.N,Net-(J4-D+-PadA6)*%
X4375000Y-8916800D03*
%TO.P,J4,B7,D-_B7*%
%TO.N,Net-(J4-D--PadA7)*%
X4375000Y-7416800D03*
%TO.P,J4,B8,SBU2_B8*%
%TO.N,unconnected-(J4-SBU2-PadB8)*%
X4375000Y-6416800D03*
D16*
%TO.P,J4,SH,SHIELD_SH*%
%TO.N,Earth*%
X3800000Y-3846800D03*
D17*
X-380000Y-3846800D03*
D16*
X3800000Y-12486800D03*
D17*
X-380000Y-12486800D03*
%TD*%
D18*
%TO.P,D12,1,DOUT_1*%
%TO.N,Net-(D12-DOUT)*%
X13793800Y-51424999D03*
%TO.P,D12,2,GND_2*%
%TO.N,Earth*%
X13793800Y-50425001D03*
%TO.P,D12,3,DIN_3*%
%TO.N,Net-(D11-DOUT)*%
X11406200Y-50425001D03*
%TO.P,D12,4,VDD_4*%
%TO.N,+3V3*%
X11406200Y-51424999D03*
%TD*%
%TO.P,D13,1,DOUT_1*%
%TO.N,unconnected-(D13-DOUT-Pad1)*%
X13793800Y-58549999D03*
%TO.P,D13,2,GND_2*%
%TO.N,Earth*%
X13793800Y-57550001D03*
%TO.P,D13,3,DIN_3*%
%TO.N,Net-(D12-DOUT)*%
X11406200Y-57550001D03*
%TO.P,D13,4,VDD_4*%
%TO.N,+3V3*%
X11406200Y-58549999D03*
%TD*%
D19*
%TO.P,J14,1,DAT2_1*%
%TO.N,Net-(J14-DAT2)*%
X1537500Y-26805000D03*
%TO.P,J14,2,DAT3/CD_2*%
%TO.N,SPI2_CS_SD*%
X1537500Y-25705000D03*
%TO.P,J14,3,CMD_3*%
%TO.N,SPI2_MOSI*%
X1537500Y-24605000D03*
%TO.P,J14,4,VDD_4*%
%TO.N,+3V3*%
X1537500Y-23505000D03*
%TO.P,J14,5,CLK_5*%
%TO.N,SPI2_SCK*%
X1537500Y-22405000D03*
%TO.P,J14,6,VSS_6*%
%TO.N,Earth*%
X1537500Y-21305000D03*
%TO.P,J14,7,DAT0_7*%
%TO.N,SPI2_MISO*%
X1537500Y-20205000D03*
D20*
%TO.P,J14,8,DAT1_8*%
%TO.N,Net-(J14-DAT1)*%
X1537500Y-19155000D03*
D21*
%TO.P,J14,9,DET_B_9*%
%TO.N,Earth*%
X7687500Y-29440000D03*
%TO.P,J14,10,DET_A_10*%
%TO.N,SPI2_DET*%
X11387500Y-29440000D03*
D22*
%TO.P,J14,SH,SHIELD_SH*%
%TO.N,Earth*%
X1662500Y-29265000D03*
D23*
X12362500Y-25940000D03*
X12362500Y-19970000D03*
D24*
X1887500Y-17945000D03*
%TD*%
D25*
%TO.P,H3,1,1_1*%
%TO.N,Earth*%
X19000000Y0D03*
%TD*%
D26*
%TO.P,LS1,1,+_1*%
%TO.N,+3V3*%
X1000000Y-35250000D03*
D27*
%TO.P,LS1,2,-_2*%
%TO.N,Net-(D14-A)*%
X6000000Y-35250000D03*
%TD*%
D25*
%TO.P,H4,1,1_1*%
%TO.N,Earth*%
X0Y0D03*
%TD*%
D28*
%TO.P,J8,1,Pin_1_1*%
%TO.N,+5V*%
X12750000Y-37250000D03*
%TO.P,J8,2,Pin_2_2*%
%TO.N,UART1_OUT*%
X14000000Y-37250000D03*
%TO.P,J8,3,Pin_3_3*%
%TO.N,UART1_IN*%
X15250000Y-37250000D03*
%TO.P,J8,4,Pin_4_4*%
%TO.N,I2C_SCL*%
X16500000Y-37250000D03*
%TO.P,J8,5,Pin_5_5*%
%TO.N,I2C_SDA*%
X17750000Y-37250000D03*
%TO.P,J8,6,Pin_6_6*%
%TO.N,Earth*%
X19000000Y-37250000D03*
D29*
%TO.P,J8,MP*%
%TO.N,N/C*%
X10900000Y-33900000D03*
X20850000Y-33900000D03*
%TD*%
D25*
%TO.P,H2,1,1_1*%
%TO.N,Earth*%
X19000000Y-68000000D03*
%TD*%
D30*
%TO.P,C61,1*%
%TO.N,VDD*%
X5017677Y-42750000D03*
D31*
%TO.P,C61,2*%
%TO.N,Earth*%
X17677Y-42750000D03*
%TD*%
D18*
%TO.P,D10,1,DOUT_1*%
%TO.N,Net-(D10-DOUT)*%
X8306200Y499999D03*
%TO.P,D10,2,GND_2*%
%TO.N,Earth*%
X8306200Y-499999D03*
%TO.P,D10,3,DIN_3*%
%TO.N,LED*%
X10693800Y-499999D03*
%TO.P,D10,4,VDD_4*%
%TO.N,+3V3*%
X10693800Y499999D03*
%TD*%
%TO.P,D11,1,DOUT_1*%
%TO.N,Net-(D11-DOUT)*%
X13793800Y-44299999D03*
%TO.P,D11,2,GND_2*%
%TO.N,Earth*%
X13793800Y-43300001D03*
%TO.P,D11,3,DIN_3*%
%TO.N,Net-(D10-DOUT)*%
X11406200Y-43300001D03*
%TO.P,D11,4,VDD_4*%
%TO.N,+3V3*%
X11406200Y-44299999D03*
%TD*%
D25*
%TO.P,H1,1,1_1*%
%TO.N,Earth*%
X0Y-68000000D03*
%TD*%
D32*
%TO.P,J3,1,Pin_1_1*%
%TO.N,Net-(J3-Pin_1)*%
X18210000Y-5800000D03*
D33*
%TO.P,J3,2,Pin_2_2*%
%TO.N,Earth*%
X20750000Y-5800000D03*
%TO.P,J3,3,Pin_3_3*%
%TO.N,Net-(J3-Pin_3)*%
X18210000Y-8340000D03*
%TO.P,J3,4,Pin_4_4*%
%TO.N,Earth*%
X20750000Y-8340000D03*
%TD*%
D34*
%TO.P,J1,1,3V3_1*%
%TO.N,+3V3*%
X20800000Y-25090000D03*
D35*
%TO.P,J1,2,RX0_2*%
%TO.N,U0RXD*%
X20800000Y-26360000D03*
%TO.P,J1,3,TX0_3*%
%TO.N,U0TXD*%
X20800000Y-27630000D03*
%TO.P,J1,4,BOOT_4*%
%TO.N,BOOT_PIN*%
X20800000Y-28900000D03*
%TO.P,J1,5,EN_5*%
%TO.N,Net-(J1-EN)*%
X20800000Y-30170000D03*
%TO.P,J1,6,GND_6*%
%TO.N,Earth*%
X20800000Y-31440000D03*
%TD*%
D10*
%TO.P,IC1,17,EP_17*%
%TO.N,Earth*%
X2900000Y-58500000D03*
X1900000Y-58500000D03*
X2400000Y-59000000D03*
X2900000Y-59500000D03*
X1900000Y-59500000D03*
%TD*%
%TO.P,U1,57,GND_57*%
%TO.N,Earth*%
X9331927Y-27510607D03*
X7200000Y-29621320D03*
X8260660Y-28560660D03*
X6139340Y-28560660D03*
X7200000Y-27500000D03*
X8260660Y-26439340D03*
X5078680Y-27500000D03*
X6139340Y-26439340D03*
X7200000Y-25378680D03*
%TD*%
D36*
%TO.P,J7,1,Pin_1_1*%
%TO.N,VCC*%
X17175000Y-61925000D03*
D37*
%TO.P,J7,2,Pin_2_2*%
%TO.N,Earth*%
X20415000Y-61925000D03*
%TD*%
D38*
%TO.N,Earth*%
X9050000Y-59400000D03*
X4970000Y-33330000D03*
%TO.N,VCC*%
X15020000Y-54790000D03*
X5685431Y-50930480D03*
X14940000Y-47055000D03*
X15100000Y-40800000D03*
X15020000Y-54040000D03*
X14940000Y-47830000D03*
X15100000Y-40050000D03*
%TO.N,Earth*%
X9250000Y-9000000D03*
X7050000Y-15050000D03*
X16685610Y-68000000D03*
X14250000Y-28725000D03*
X7100000Y-550000D03*
X0Y-65700000D03*
X16685610Y0D03*
X19525000Y-9375000D03*
X17357220Y-1600000D03*
X20650000Y-51350000D03*
X-1642780Y1642780D03*
X2975000Y-32500000D03*
X20650000Y-37200000D03*
X14940000Y-60540000D03*
X17357220Y-66357220D03*
X7250000Y-54750000D03*
X6010000Y-45950000D03*
X13200000Y1500000D03*
X16950000Y-20975000D03*
X3250000Y-34250000D03*
X5430000Y-4740000D03*
X19000000Y2300000D03*
X10500000Y-8975000D03*
X13607500Y-25217500D03*
X20600000Y-69600000D03*
X20650000Y-44400000D03*
X20600000Y-1600000D03*
X2775000Y-8200000D03*
X505000Y-10865000D03*
X17275000Y-9400000D03*
X8020000Y-4995000D03*
X0Y-2300000D03*
X11458729Y-4329593D03*
X9875000Y-51800000D03*
X19000000Y-65700000D03*
X4875000Y-21500000D03*
X21271610Y0D03*
X0Y-70300000D03*
X9963318Y-3227200D03*
X7000000Y-51750000D03*
X1600000Y1642780D03*
X-320000Y-5635000D03*
X5800000Y-61550000D03*
X-1642780Y-69600000D03*
X18225000Y-20975000D03*
X-2314390Y-68000000D03*
X7300000Y-12450000D03*
X7675000Y-11600000D03*
X3150000Y-24100000D03*
X6360000Y1600000D03*
X9875000Y-44875000D03*
X4000000Y-37750000D03*
X-1642780Y-1600000D03*
X14375000Y-31300000D03*
X20600000Y1642780D03*
X10752591Y-20975304D03*
X7250000Y-53500000D03*
X4700000Y-61700000D03*
X19425000Y-20975000D03*
X17357220Y1642780D03*
X7250000Y-56000000D03*
X5410000Y-11560000D03*
X9275000Y-53450000D03*
X1600000Y-66357220D03*
X1600000Y-1600000D03*
X17357220Y-69600000D03*
X700000Y-29000000D03*
X0Y2300000D03*
X4140000Y1010000D03*
X21350000Y-20975000D03*
X9875000Y-40950000D03*
X12730000Y-20080000D03*
X9900000Y-46375000D03*
X2271610Y0D03*
X200000Y-21128211D03*
X19000000Y-70300000D03*
X20600000Y-66357220D03*
X18975000Y-36000000D03*
X6010000Y-45200000D03*
X2271610Y-68000000D03*
X-50000Y-58500000D03*
X21271610Y-68000000D03*
X-1775000Y-23250000D03*
X19000000Y-38350000D03*
X-1642780Y-66357220D03*
X16350000Y-18575000D03*
X19000000Y-2300000D03*
X300000Y-60750000D03*
X15770000Y-28710000D03*
X1600000Y-69600000D03*
X14020000Y-18600000D03*
X-2314390Y0D03*
%TO.N,VBUS*%
X-1625309Y-31584983D03*
X5370000Y-10520000D03*
X-1635700Y-32319272D03*
X5370000Y-5760000D03*
X175000Y-8200000D03*
%TO.N,Net-(J4-CC1)*%
X2155000Y-5595000D03*
%TO.N,Net-(J4-D+-PadA6)*%
X2920000Y-9150000D03*
%TO.N,Net-(J4-D--PadA7)*%
X2900000Y-7260000D03*
%TO.N,Net-(J4-CC2)*%
X2910000Y-10150000D03*
%TO.N,+3V3*%
X5100000Y-52200000D03*
X5825000Y-20600000D03*
X10750000Y1450000D03*
X-100000Y-59500000D03*
X9650000Y-4100000D03*
X13025000Y575000D03*
X450000Y-23350000D03*
X1000000Y-13875000D03*
X12350000Y-35800000D03*
X12200000Y-27390002D03*
X11887334Y-8062800D03*
X6532694Y82979D03*
X6575000Y-7575000D03*
X4500000Y-31000000D03*
X7325000Y-8700000D03*
X14200000Y-34025000D03*
X18550000Y-33880000D03*
X14450000Y-32250000D03*
X6920000Y-36510000D03*
X8150000Y-16900000D03*
X10800000Y-58750000D03*
X12381765Y-22591765D03*
X7775000Y-2750000D03*
X16500000Y-31100000D03*
X5050000Y-54750000D03*
X-1775000Y-25617778D03*
X6000000Y-58725000D03*
X10825000Y-44825000D03*
X9525000Y-22850000D03*
X5050000Y-53450000D03*
X10850000Y-51800000D03*
X5000000Y-56000000D03*
X5600000Y-14050000D03*
X-1828186Y-21303186D03*
%TO.N,Net-(J14-DAT2)*%
X1383074Y-26630002D03*
%TO.N,SPI2_CS_SD*%
X683684Y-25675000D03*
X100000Y-27500000D03*
%TO.N,SPI2_MOSI*%
X700000Y-24600000D03*
X2850000Y-21075000D03*
%TO.N,SPI2_SCK*%
X975000Y-22400000D03*
X3895342Y-23629658D03*
X3897329Y-21745381D03*
%TO.N,SPI2_MISO*%
X800000Y-20200000D03*
X5900000Y-19700000D03*
%TO.N,Net-(J14-DAT1)*%
X-200000Y-18475000D03*
%TO.N,SPI2_DET*%
X11900000Y-33475000D03*
%TO.N,+5V*%
X3000000Y-40000000D03*
X2250000Y-40000000D03*
%TO.N,UART1_OUT*%
X14000000Y-38350000D03*
%TO.N,UART1_IN*%
X15250000Y-38350000D03*
%TO.N,I2C_SCL*%
X6959345Y-24148553D03*
X16500000Y-38375000D03*
%TO.N,I2C_SDA*%
X17750000Y-38350000D03*
X6300000Y-24825000D03*
%TO.N,VDD*%
X850000Y-63100000D03*
X2650000Y-63100000D03*
X-1650000Y-38750000D03*
X-1650000Y-37950000D03*
%TO.N,Net-(D10-DOUT)*%
X11775000Y-39200000D03*
X11325000Y-42175000D03*
%TO.N,LED*%
X11525000Y-22600000D03*
%TO.N,CFG_SEL1*%
X15233582Y-16889948D03*
X1426135Y-32591170D03*
%TO.N,IGN2_DET*%
X12030000Y-45610000D03*
X10700000Y-39200000D03*
%TO.N,SPI_SCK*%
X13845735Y-2904265D03*
X10500000Y-4250000D03*
X12275000Y-14100000D03*
X15075000Y-14100000D03*
%TO.N,SPI_MOSI*%
X14450000Y-12850000D03*
X12275000Y-12875000D03*
%TO.N,SPI_MISO*%
X11850000Y-3575000D03*
X13650000Y-6925000D03*
X13850000Y-11625000D03*
X12275000Y-11600000D03*
%TO.N,IO43*%
X17450000Y-27650000D03*
X11230000Y-23600000D03*
%TO.N,IO0*%
X17650000Y-28925000D03*
X18000000Y-31250000D03*
%TO.N,SPI2_CS_FLASH*%
X6375000Y-30300000D03*
X7575000Y-18800000D03*
%TO.N,IGN1_DET*%
X9775000Y-39200000D03*
X11520000Y-53160000D03*
%TO.N,CFG_SEL0*%
X14225000Y-17525000D03*
X2125000Y-33075000D03*
%TO.N,SPI_CS_LSM*%
X12875000Y-9175000D03*
X15450000Y-6600000D03*
%TO.N,SPI_CS_MS*%
X12275000Y-10375000D03*
X15500000Y-10400000D03*
%TO.N,LSM_INT*%
X9113414Y-3240000D03*
X15275000Y-16000000D03*
%TO.N,IO44*%
X10800000Y-24465687D03*
X17525000Y-26375000D03*
%TO.N,USB_DM*%
X450000Y-7275000D03*
X1575000Y-31425000D03*
%TO.N,USB_DP*%
X925000Y-30675000D03*
X500000Y-9150000D03*
%TO.N,Earth*%
X9149265Y-58075735D03*
%TD*%
%TO.N,Earth*%
D39*
X19000000Y-37250000D02*
X19000000Y-36025000D01*
X19000000Y-37250000D02*
X19000000Y-38350000D01*
X19000000Y-36025000D02*
X18975000Y-36000000D01*
X1537500Y-21305000D02*
X376789Y-21305000D01*
X376789Y-21305000D02*
X200000Y-21128211D01*
%TO.N,VBUS*%
D40*
X5316800Y-10566800D02*
X4375000Y-10566800D01*
D41*
X-1635700Y-32319272D02*
X-1635700Y-31595374D01*
X-1635700Y-31595374D02*
X-1625309Y-31584983D01*
D40*
X5363600Y-10520000D02*
X5316800Y-10566800D01*
X5370000Y-10520000D02*
X5363600Y-10520000D01*
X5363200Y-5766800D02*
X5370000Y-5760000D01*
X4375000Y-5766800D02*
X5363200Y-5766800D01*
%TO.N,Net-(J4-CC1)*%
D39*
X3476800Y-6916800D02*
X4375000Y-6916800D01*
X2155000Y-5595000D02*
X3476800Y-6916800D01*
%TO.N,Net-(J4-D+-PadA6)*%
X4950000Y-7916800D02*
X4375000Y-7916800D01*
X2920000Y-9150000D02*
X3153200Y-8916800D01*
X4375000Y-8916800D02*
X4950000Y-8916800D01*
X3153200Y-8916800D02*
X4375000Y-8916800D01*
X5350000Y-8516800D02*
X5350000Y-8316800D01*
X5350000Y-8316800D02*
G75*
G03*
X4950000Y-7916800I-400000J0D01*
G01*
X4950000Y-8916800D02*
G75*
G03*
X5350000Y-8516800I0J400000D01*
G01*
%TO.N,Net-(J4-D--PadA7)*%
X3523200Y-7416800D02*
X4375000Y-7416800D01*
X3523200Y-7416800D02*
X3056800Y-7416800D01*
X3520000Y-7420000D02*
X3523200Y-7416800D01*
X4375000Y-8416800D02*
X3920000Y-8416800D01*
X3056800Y-7416800D02*
X2900000Y-7260000D01*
X3520000Y-8016800D02*
X3520000Y-7420000D01*
X3920000Y-8416800D02*
G75*
G02*
X3520000Y-8016800I0J400000D01*
G01*
%TO.N,Net-(J4-CC2)*%
X4375000Y-9916800D02*
X3143200Y-9916800D01*
X3143200Y-9916800D02*
X2910000Y-10150000D01*
%TO.N,Net-(D12-DOUT)*%
X11406200Y-55593800D02*
X13793800Y-53206200D01*
X11406200Y-57550001D02*
X11406200Y-55593800D01*
X13793800Y-53206200D02*
X13793800Y-51424999D01*
%TO.N,Net-(D11-DOUT)*%
X11406200Y-50425001D02*
X11406200Y-49168800D01*
X13793800Y-46781200D02*
X13793800Y-44299999D01*
X11406200Y-49168800D02*
X13793800Y-46781200D01*
%TO.N,+3V3*%
X11406200Y-58549999D02*
X11000001Y-58549999D01*
X11031199Y-51800000D02*
X11406200Y-51424999D01*
D42*
X10743801Y550000D02*
X10693800Y499999D01*
D39*
X745000Y-23505000D02*
X1537500Y-23505000D01*
X10800000Y-58750000D02*
X6025000Y-58750000D01*
D42*
X10743801Y1443801D02*
X10743801Y550000D01*
X10750000Y1450000D02*
X10743801Y1443801D01*
D39*
X10825000Y-44825000D02*
X10881199Y-44825000D01*
X450000Y-23350000D02*
X590000Y-23350000D01*
X11000001Y-58549999D02*
X10800000Y-58750000D01*
X10850000Y-51800000D02*
X11031199Y-51800000D01*
X10881199Y-44825000D02*
X11406200Y-44299999D01*
X590000Y-23350000D02*
X745000Y-23505000D01*
X6025000Y-58750000D02*
X6000000Y-58725000D01*
%TO.N,SPI2_CS_SD*%
X683684Y-25675000D02*
X708684Y-25700000D01*
X100000Y-27500000D02*
X100000Y-26375000D01*
X708684Y-25700000D02*
X1532500Y-25700000D01*
X1532500Y-25700000D02*
X1537500Y-25705000D01*
X683684Y-25791316D02*
X683684Y-25675000D01*
X100000Y-26375000D02*
X683684Y-25791316D01*
%TO.N,SPI2_MOSI*%
X2395000Y-24605000D02*
X2550000Y-24450000D01*
X2550000Y-23125000D02*
X2850000Y-22825000D01*
X2850000Y-22825000D02*
X2850000Y-21075000D01*
X1532500Y-24600000D02*
X1537500Y-24605000D01*
X700000Y-24600000D02*
X1532500Y-24600000D01*
X1537500Y-24605000D02*
X2395000Y-24605000D01*
X2550000Y-24450000D02*
X2550000Y-23125000D01*
%TO.N,SPI2_SCK*%
X1532500Y-22400000D02*
X1537500Y-22405000D01*
X3895342Y-23629658D02*
X3895342Y-21747368D01*
X975000Y-22400000D02*
X1532500Y-22400000D01*
X3895342Y-21747368D02*
X3897329Y-21745381D01*
%TO.N,SPI2_MISO*%
X1537500Y-20205000D02*
X805000Y-20205000D01*
X4670000Y-20205000D02*
X1537500Y-20205000D01*
X5175000Y-19700000D02*
X4670000Y-20205000D01*
X5900000Y-19700000D02*
X5175000Y-19700000D01*
X805000Y-20205000D02*
X800000Y-20200000D01*
%TO.N,Net-(J14-DAT1)*%
X-200000Y-18475000D02*
X480000Y-19155000D01*
X480000Y-19155000D02*
X1537500Y-19155000D01*
%TO.N,SPI2_DET*%
X11900000Y-33475000D02*
X12075000Y-33300000D01*
X12075000Y-33300000D02*
X12075000Y-30127500D01*
X12075000Y-30127500D02*
X11387500Y-29440000D01*
%TO.N,+5V*%
D43*
X12750000Y-37250000D02*
X12750000Y-38300000D01*
X12750000Y-38300000D02*
X7200000Y-38300000D01*
X5500000Y-40000000D02*
X3000000Y-40000000D01*
X2250000Y-40000000D02*
X3000000Y-40000000D01*
X7200000Y-38300000D02*
X5500000Y-40000000D01*
%TO.N,UART1_OUT*%
D39*
X14000000Y-37250000D02*
X14000000Y-38350000D01*
%TO.N,UART1_IN*%
X15250000Y-37250000D02*
X15250000Y-38350000D01*
%TO.N,I2C_SCL*%
X13775000Y-33300000D02*
X15800000Y-33300000D01*
X7073553Y-24148553D02*
X11425000Y-28500000D01*
X16500000Y-34000000D02*
X16500000Y-37250000D01*
X15800000Y-33300000D02*
X16500000Y-34000000D01*
X6959345Y-24148553D02*
X7073553Y-24148553D01*
X11425000Y-28500000D02*
X12719974Y-28500000D01*
X13000000Y-32525000D02*
X13775000Y-33300000D01*
X12719974Y-28500000D02*
X13000000Y-28780026D01*
X13000000Y-28780026D02*
X13000000Y-32525000D01*
X16500000Y-37250000D02*
X16500000Y-38375000D01*
%TO.N,I2C_SDA*%
X13425000Y-32350000D02*
X13950000Y-32875000D01*
X7225000Y-23575000D02*
X7250000Y-23575000D01*
X13425000Y-28710052D02*
X13425000Y-32350000D01*
X17750000Y-38350000D02*
X17750000Y-37250000D01*
X12839948Y-28125000D02*
X13425000Y-28710052D01*
X6300000Y-23959369D02*
X6710816Y-23548553D01*
X6300000Y-24825000D02*
X6300000Y-23959369D01*
X7198553Y-23548553D02*
X7225000Y-23575000D01*
X11800000Y-28125000D02*
X12839948Y-28125000D01*
X13950000Y-32875000D02*
X16025000Y-32875000D01*
X16025000Y-32875000D02*
X17750000Y-34600000D01*
X17750000Y-34600000D02*
X17750000Y-37250000D01*
X6300000Y-24825000D02*
X6346320Y-24778680D01*
X7250000Y-23575000D02*
X11800000Y-28125000D01*
X6710816Y-23548553D02*
X7198553Y-23548553D01*
%TO.N,VDD*%
D43*
X-1650000Y-37950000D02*
X-1650000Y-38750000D01*
%TO.N,Net-(D10-DOUT)*%
D39*
X11406200Y-42256200D02*
X11325000Y-42175000D01*
X11325000Y2050000D02*
X12425000Y950000D01*
X13800000Y-250000D02*
X16450000Y-2900000D01*
X19325000Y-24900000D02*
X19325000Y-33975000D01*
X11406200Y-43300001D02*
X11406200Y-42256200D01*
X19825000Y-38775000D02*
X19425000Y-39175000D01*
X12425000Y950000D02*
X12425000Y326471D01*
X13001471Y-250000D02*
X13800000Y-250000D01*
X16450000Y-17422937D02*
X15500000Y-18372937D01*
X19825000Y-34475000D02*
X19825000Y-38775000D01*
X12425000Y326471D02*
X13001471Y-250000D01*
X8306200Y499999D02*
X8306200Y1504729D01*
X8851471Y2050000D02*
X11325000Y2050000D01*
X11800000Y-39175000D02*
X11775000Y-39200000D01*
X19425000Y-39175000D02*
X11800000Y-39175000D01*
X15500000Y-18372937D02*
X15500000Y-21075000D01*
X15500000Y-21075000D02*
X19325000Y-24900000D01*
X19325000Y-33975000D02*
X19825000Y-34475000D01*
X8306200Y1504729D02*
X8851471Y2050000D01*
X16450000Y-2900000D02*
X16450000Y-17422937D01*
%TO.N,LED*%
X13725000Y-700000D02*
X16100000Y-3075000D01*
X16100000Y-3075000D02*
X16100000Y-17147939D01*
X10893801Y-700000D02*
X13725000Y-700000D01*
X14520000Y-21430000D02*
X12695000Y-21430000D01*
X10693800Y-499999D02*
X10893801Y-700000D01*
X15000000Y-18247939D02*
X15000000Y-20950000D01*
X12695000Y-21430000D02*
X11525000Y-22600000D01*
X16100000Y-17147939D02*
X15000000Y-18247939D01*
X15000000Y-20950000D02*
X14520000Y-21430000D01*
%TO.N,CFG_SEL1*%
X15233582Y-16889948D02*
X12860052Y-16889948D01*
X7225000Y-17725000D02*
X6525000Y-18425000D01*
X2725000Y-25648529D02*
X2725000Y-31292305D01*
X2725000Y-31292305D02*
X1426135Y-32591170D01*
X6525000Y-20900000D02*
X6025000Y-21400000D01*
X12860052Y-16889948D02*
X12025000Y-17725000D01*
X12025000Y-17725000D02*
X7225000Y-17725000D01*
X6525000Y-18425000D02*
X6525000Y-20900000D01*
X6025000Y-22348529D02*
X2725000Y-25648529D01*
X6025000Y-21400000D02*
X6025000Y-22348529D01*
%TO.N,IGN2_DET*%
X12030000Y-45610000D02*
X12650000Y-44990000D01*
X12650000Y-41150000D02*
X10700000Y-39200000D01*
X12650000Y-44990000D02*
X12650000Y-41150000D01*
%TO.N,SPI_SCK*%
X15075000Y-14100000D02*
X12275000Y-14100000D01*
X11672206Y-2904265D02*
X13845735Y-2904265D01*
X10500000Y-4250000D02*
X11225000Y-3525000D01*
X11225000Y-3525000D02*
X11225000Y-3351471D01*
X11225000Y-3351471D02*
X11672206Y-2904265D01*
%TO.N,SPI_MOSI*%
X12275000Y-12875000D02*
X14425000Y-12875000D01*
X14425000Y-12875000D02*
X14450000Y-12850000D01*
%TO.N,SPI_MISO*%
X13650000Y-5375000D02*
X11850000Y-3575000D01*
X13825000Y-11600000D02*
X13850000Y-11625000D01*
X13650000Y-6925000D02*
X13650000Y-5375000D01*
X12275000Y-11600000D02*
X13825000Y-11600000D01*
%TO.N,IO43*%
X16140687Y-24115687D02*
X18250000Y-26225000D01*
X11230000Y-23600000D02*
X11745687Y-24115687D01*
X18250000Y-26850000D02*
X17450000Y-27650000D01*
X18250000Y-26225000D02*
X18250000Y-26850000D01*
X11745687Y-24115687D02*
X16140687Y-24115687D01*
%TO.N,IO0*%
X18000000Y-31250000D02*
X18000000Y-29275000D01*
X18000000Y-29275000D02*
X17650000Y-28925000D01*
%TO.N,SPI2_CS_FLASH*%
X6375000Y-30300000D02*
X5125000Y-30300000D01*
X7575000Y-22000000D02*
X7575000Y-18800000D01*
X3725000Y-28900000D02*
X3725000Y-25850000D01*
X5125000Y-30300000D02*
X3725000Y-28900000D01*
X3725000Y-25850000D02*
X7575000Y-22000000D01*
%TO.N,IGN1_DET*%
X11520000Y-53160000D02*
X10386471Y-53160000D01*
X10386471Y-53160000D02*
X9275000Y-52048529D01*
X9275000Y-39700000D02*
X9775000Y-39200000D01*
X9275000Y-52048529D02*
X9275000Y-39700000D01*
%TO.N,CFG_SEL0*%
X12275000Y-18075000D02*
X12825000Y-17525000D01*
X3100000Y-31450000D02*
X3100000Y-25850000D01*
X6375000Y-22575000D02*
X6375000Y-21600000D01*
X6900000Y-18575000D02*
X7400000Y-18075000D01*
X7400000Y-18075000D02*
X12275000Y-18075000D01*
X3100000Y-25850000D02*
X6375000Y-22575000D01*
X12825000Y-17525000D02*
X14225000Y-17525000D01*
X6900000Y-21075000D02*
X6900000Y-18575000D01*
X2125000Y-32425000D02*
X3100000Y-31450000D01*
X2125000Y-33075000D02*
X2125000Y-32425000D01*
X6375000Y-21600000D02*
X6900000Y-21075000D01*
%TO.N,SPI_CS_LSM*%
X15450000Y-6600000D02*
X12875000Y-9175000D01*
%TO.N,SPI_CS_MS*%
X15475000Y-10375000D02*
X15500000Y-10400000D01*
X12275000Y-10375000D02*
X15475000Y-10375000D01*
%TO.N,LSM_INT*%
X11625000Y-14625000D02*
X11625000Y-9325000D01*
X12750000Y-8200000D02*
X12750000Y-7375000D01*
X12725000Y-15000000D02*
X12000000Y-15000000D01*
X15275000Y-16000000D02*
X13725000Y-16000000D01*
X9775000Y-5525000D02*
X8775000Y-4525000D01*
X12000000Y-15000000D02*
X11625000Y-14625000D01*
X10900000Y-5525000D02*
X9775000Y-5525000D01*
X8775000Y-3578414D02*
X9113414Y-3240000D01*
X8775000Y-4525000D02*
X8775000Y-3578414D01*
X9113414Y-3240000D02*
X9113414Y-3161586D01*
X13725000Y-16000000D02*
X12725000Y-15000000D01*
X12750000Y-7375000D02*
X10900000Y-5525000D01*
X11625000Y-9325000D02*
X12750000Y-8200000D01*
%TO.N,IO44*%
X15615687Y-24465687D02*
X17525000Y-26375000D01*
X10800000Y-24465687D02*
X15615687Y-24465687D01*
%TO.N,USB_DM*%
X-287456Y-31417840D02*
X-338063Y-31404280D01*
X1575000Y-31425000D02*
X-209315Y-31425000D01*
X-1175000Y-30459315D02*
X-1175000Y-14680685D01*
X-1167863Y-30537460D02*
X-1174702Y-30485513D01*
X-1076157Y-30723422D02*
X-1108053Y-30681853D01*
X-473407Y-31326139D02*
X-492158Y-31307842D01*
X-1154302Y-30588070D02*
X-1167863Y-30537460D01*
X-1174702Y-30485513D02*
X-1175000Y-30459315D01*
X-1782842Y-8332842D02*
X-842157Y-7392157D01*
X-1108053Y-30681853D02*
X-1134251Y-30636477D01*
X-1900000Y-13624315D02*
X-1900000Y-8615685D01*
X-386468Y-31384230D02*
X-431841Y-31358033D01*
X-559315Y-7275000D02*
X450000Y-7275000D01*
X-338063Y-31404280D02*
X-386468Y-31384230D01*
X-1134251Y-30636477D02*
X-1154302Y-30588070D01*
X-492158Y-31307842D02*
X-1057843Y-30742157D01*
X-1292158Y-14397842D02*
X-1782843Y-13907157D01*
X-1057843Y-30742157D02*
X-1076157Y-30723422D01*
X-209315Y-31425000D02*
X-235511Y-31424679D01*
X-235511Y-31424679D02*
X-287456Y-31417840D01*
X-431841Y-31358033D02*
X-473407Y-31326139D01*
X-1175000Y-14680685D02*
G75*
G03*
X-1292158Y-14397842I-399993J2D01*
G01*
X-559315Y-7275000D02*
G75*
G03*
X-842157Y-7392157I-1J-399998D01*
G01*
X-1900000Y-13624315D02*
G75*
G03*
X-1782843Y-13907157I399998J-1D01*
G01*
X-1900000Y-8615685D02*
G75*
G02*
X-1782842Y-8332842I399993J2D01*
G01*
%TO.N,USB_DP*%
X-1250000Y-9630000D02*
X-1200000Y-9630000D01*
X-800000Y-30184315D02*
X-800000Y-30120000D01*
X-1200000Y-10190000D02*
X-1250000Y-10190000D01*
X-1530000Y-11468506D02*
X-1530000Y-13471775D01*
X-479999Y-29280000D02*
X-559999Y-29280000D01*
X-560000Y-28680000D02*
X-480000Y-28680000D01*
X-800000Y-27650000D02*
X-800000Y-14533145D01*
X500000Y-9150000D02*
X75685Y-9150000D01*
X-239999Y-28440000D02*
X-239999Y-28320000D01*
X-985685Y-8420000D02*
X-1074315Y-8420000D01*
X925000Y-30675000D02*
X-309315Y-30675000D01*
X-1357158Y-8537158D02*
X-1412843Y-8592843D01*
X-1530000Y-11080000D02*
X-1530000Y-11468506D01*
X-479999Y-28080000D02*
X-559999Y-28080000D01*
X-592157Y-30557843D02*
X-682842Y-30467158D01*
X-560000Y-29880000D02*
X-480000Y-29880000D01*
X-239999Y-29640000D02*
X-239999Y-29520000D01*
X-799999Y-29040000D02*
X-800000Y-28920000D01*
X-207158Y-9032842D02*
X-702843Y-8537157D01*
X-799999Y-27840000D02*
X-800000Y-27720000D01*
X-917158Y-14250302D02*
X-1412843Y-13754617D01*
X-800000Y-27720000D02*
X-800000Y-27650000D01*
X-1530000Y-8875685D02*
X-1530000Y-9350000D01*
X-1530000Y-10470000D02*
X-1530000Y-11080000D01*
X-1412843Y-8592843D02*
G75*
G03*
X-1530000Y-8875685I282841J-282841D01*
G01*
X-1357158Y-8537158D02*
G75*
G02*
X-1074315Y-8420000I282845J-282846D01*
G01*
X75685Y-9150000D02*
G75*
G02*
X-207158Y-9032842I-2J399993D01*
G01*
X-1530000Y-9350000D02*
G75*
G03*
X-1250000Y-9630000I280000J0D01*
G01*
X-682842Y-30467158D02*
G75*
G02*
X-800000Y-30184315I282846J282845D01*
G01*
X-559999Y-28080000D02*
G75*
G02*
X-799999Y-27840000I-1J239999D01*
G01*
X-917158Y-14250302D02*
G75*
G02*
X-800000Y-14533145I-282846J-282845D01*
G01*
X-800000Y-30120000D02*
G75*
G02*
X-560000Y-29880000I239999J1D01*
G01*
X-1250000Y-10190000D02*
G75*
G03*
X-1530000Y-10470000I0J-280000D01*
G01*
X-1200000Y-9630000D02*
G75*
G02*
X-920000Y-9910000I0J-280000D01*
G01*
X-480000Y-28680000D02*
G75*
G03*
X-239999Y-28440000I2J239999D01*
G01*
X-559999Y-29280000D02*
G75*
G02*
X-799999Y-29040000I-1J239999D01*
G01*
X-239999Y-29520000D02*
G75*
G03*
X-479999Y-29280000I-239999J1D01*
G01*
X-1412843Y-13754617D02*
G75*
G02*
X-1530000Y-13471775I282841J282841D01*
G01*
X-309315Y-30675000D02*
G75*
G02*
X-592157Y-30557843I-1J399998D01*
G01*
X-800000Y-28920000D02*
G75*
G02*
X-560000Y-28680000I239999J1D01*
G01*
X-239999Y-28320000D02*
G75*
G03*
X-479999Y-28080000I-239999J1D01*
G01*
X-702843Y-8537157D02*
G75*
G03*
X-985685Y-8420000I-282841J-282841D01*
G01*
X-920000Y-9910000D02*
G75*
G02*
X-1200000Y-10190000I-280000J0D01*
G01*
X-480000Y-29880000D02*
G75*
G03*
X-239999Y-29640000I2J239999D01*
G01*
%TD*%
%TA.AperFunction,Conductor*%
%TO.N,Earth*%
G36*
X-2494297Y-21422425D02*
G01*
X-2456523Y-21481203D01*
X-2453883Y-21491947D01*
X-2453687Y-21492930D01*
X-2404651Y-21611313D01*
X-2333462Y-21717855D01*
X-2242855Y-21808462D01*
X-2136313Y-21879651D01*
X-2017930Y-21928687D01*
X-1976801Y-21936868D01*
X-1892257Y-21953686D01*
X-1892255Y-21953686D01*
X-1764115Y-21953686D01*
X-1723692Y-21945645D01*
X-1654101Y-21951872D01*
X-1598923Y-21994734D01*
X-1575678Y-22060624D01*
X-1575500Y-22067262D01*
X-1575500Y-24843803D01*
X-1595185Y-24910842D01*
X-1647989Y-24956597D01*
X-1704839Y-24966074D01*
X-1704839Y-24967278D01*
X-1839071Y-24967278D01*
X-1964738Y-24992275D01*
X-1964744Y-24992277D01*
X-2083124Y-25041311D01*
X-2083133Y-25041316D01*
X-2189668Y-25112501D01*
X-2189672Y-25112504D01*
X-2280273Y-25203105D01*
X-2280276Y-25203109D01*
X-2351461Y-25309644D01*
X-2351464Y-25309650D01*
X-2351465Y-25309651D01*
X-2400501Y-25428034D01*
X-2400501Y-25428038D01*
X-2400502Y-25428039D01*
X-2425500Y-25553706D01*
X-2425500Y-25553709D01*
X-2425500Y-25681847D01*
X-2400501Y-25807522D01*
X-2351465Y-25925905D01*
X-2280276Y-26032447D01*
X-2189669Y-26123054D01*
X-2083127Y-26194243D01*
X-1964744Y-26243279D01*
X-1923615Y-26251460D01*
X-1839071Y-26268278D01*
X-1704839Y-26268278D01*
X-1704839Y-26269642D01*
X-1643011Y-26281366D01*
X-1592300Y-26329430D01*
X-1575500Y-26391752D01*
X-1575500Y-30398946D01*
X-1576099Y-30408958D01*
X-1576074Y-30411147D01*
X-1575600Y-30452699D01*
X-1576654Y-30470295D01*
X-1578658Y-30485511D01*
X-1578658Y-30485512D01*
X-1576561Y-30501440D01*
X-1576228Y-30506510D01*
X-1575844Y-30509425D01*
X-1574786Y-30524231D01*
X-1574576Y-30542792D01*
X-1572961Y-30548555D01*
X-1568363Y-30582010D01*
X-1568363Y-30590187D01*
X-1563611Y-30607917D01*
X-1560448Y-30623821D01*
X-1558054Y-30642012D01*
X-1554186Y-30651348D01*
X-1545811Y-30682608D01*
X-1544493Y-30692622D01*
X-1537472Y-30709570D01*
X-1532257Y-30724930D01*
X-1527508Y-30742658D01*
X-1527507Y-30742659D01*
X-1524143Y-30748487D01*
X-1507673Y-30816388D01*
X-1530527Y-30882414D01*
X-1585450Y-30925602D01*
X-1631532Y-30934483D01*
X-1689380Y-30934483D01*
X-1815047Y-30959480D01*
X-1815053Y-30959482D01*
X-1933433Y-31008516D01*
X-1933442Y-31008521D01*
X-2039977Y-31079706D01*
X-2039981Y-31079709D01*
X-2130582Y-31170310D01*
X-2130585Y-31170314D01*
X-2201770Y-31276849D01*
X-2201773Y-31276855D01*
X-2201774Y-31276856D01*
X-2250810Y-31395239D01*
X-2250810Y-31395243D01*
X-2250811Y-31395244D01*
X-2275809Y-31520911D01*
X-2275809Y-31649054D01*
X-2268123Y-31687690D01*
X-2250810Y-31774727D01*
X-2245638Y-31787212D01*
X-2236200Y-31834663D01*
X-2236200Y-32044505D01*
X-2245639Y-32091957D01*
X-2261201Y-32129528D01*
X-2261201Y-32129532D01*
X-2261202Y-32129533D01*
X-2286200Y-32255200D01*
X-2286200Y-32383343D01*
X-2271983Y-32454815D01*
X-2261201Y-32509016D01*
X-2212165Y-32627399D01*
X-2140976Y-32733941D01*
X-2050369Y-32824548D01*
X-1943827Y-32895737D01*
X-1825444Y-32944773D01*
X-1784315Y-32952954D01*
X-1699771Y-32969772D01*
X-1699769Y-32969772D01*
X-1571628Y-32969772D01*
X-1445961Y-32944774D01*
X-1445960Y-32944773D01*
X-1445956Y-32944773D01*
X-1336182Y-32899303D01*
X-1327575Y-32895738D01*
X-1327566Y-32895733D01*
X-1221031Y-32824548D01*
X-1221027Y-32824545D01*
X-1130426Y-32733944D01*
X-1130423Y-32733940D01*
X-1059238Y-32627405D01*
X-1059233Y-32627396D01*
X-1010199Y-32509016D01*
X-1010197Y-32509010D01*
X-985200Y-32383343D01*
X-985200Y-32255200D01*
X-985199Y-32255200D01*
X-1010197Y-32129533D01*
X-1010200Y-32129523D01*
X-1025761Y-32091957D01*
X-1035200Y-32044505D01*
X-1035200Y-31884835D01*
X-1030708Y-31868656D01*
X-1031159Y-31853436D01*
X-1025761Y-31837382D01*
X-1020571Y-31824854D01*
X-999808Y-31774727D01*
X-999806Y-31774721D01*
X-977894Y-31664565D01*
X-945509Y-31602654D01*
X-884792Y-31568080D01*
X-815023Y-31571821D01*
X-765964Y-31607197D01*
X-764797Y-31606030D01*
X-759047Y-31611777D01*
X-759044Y-31611782D01*
X-746451Y-31621443D01*
X-742397Y-31625000D01*
X-739779Y-31627010D01*
X-737364Y-31629101D01*
X-736877Y-31629307D01*
X-736511Y-31629840D01*
X-728678Y-31636625D01*
X-715374Y-31649608D01*
X-710437Y-31652378D01*
X-683423Y-31672843D01*
X-677759Y-31678509D01*
X-661857Y-31687690D01*
X-648377Y-31696697D01*
X-633815Y-31707871D01*
X-624498Y-31711729D01*
X-596455Y-31727919D01*
X-588446Y-31734066D01*
X-571495Y-31741086D01*
X-556956Y-31748255D01*
X-541060Y-31757435D01*
X-531304Y-31760048D01*
X-501392Y-31772439D01*
X-492650Y-31777487D01*
X-474921Y-31782236D01*
X-459556Y-31787452D01*
X-442614Y-31794471D01*
X-432611Y-31795787D01*
X-401334Y-31804168D01*
X-392010Y-31808031D01*
X-373800Y-31810427D01*
X-357913Y-31813588D01*
X-340182Y-31818340D01*
X-332162Y-31818340D01*
X-298606Y-31822967D01*
X-296686Y-31823506D01*
X-293141Y-31824503D01*
X-274564Y-31824730D01*
X-259877Y-31825785D01*
X-256686Y-31826205D01*
X-251266Y-31826560D01*
X-235513Y-31828635D01*
X-220517Y-31826660D01*
X-202827Y-31825608D01*
X-161499Y-31826116D01*
X-161494Y-31826114D01*
X-159696Y-31826137D01*
X-148970Y-31825500D01*
X992399Y-31825500D01*
X1059438Y-31845185D01*
X1105193Y-31897989D01*
X1115137Y-31967147D01*
X1086112Y-32030703D01*
X1061290Y-32052602D01*
X1011466Y-32085893D01*
X1011462Y-32085896D01*
X920861Y-32176497D01*
X920858Y-32176501D01*
X849673Y-32283036D01*
X849668Y-32283045D01*
X800634Y-32401425D01*
X800632Y-32401431D01*
X775635Y-32527098D01*
X775635Y-32527101D01*
X775635Y-32655239D01*
X775635Y-32655241D01*
X775634Y-32655241D01*
X800632Y-32780908D01*
X800634Y-32780914D01*
X849668Y-32899294D01*
X849673Y-32899303D01*
X920858Y-33005838D01*
X920861Y-33005842D01*
X1011462Y-33096443D01*
X1011466Y-33096446D01*
X1118001Y-33167631D01*
X1118007Y-33167634D01*
X1118008Y-33167635D01*
X1236391Y-33216671D01*
X1236395Y-33216671D01*
X1236396Y-33216672D01*
X1362063Y-33241670D01*
X1407087Y-33241670D01*
X1474126Y-33261355D01*
X1519881Y-33314159D01*
X1521648Y-33318217D01*
X1548533Y-33383123D01*
X1548538Y-33383133D01*
X1619723Y-33489668D01*
X1619726Y-33489672D01*
X1710327Y-33580273D01*
X1710331Y-33580276D01*
X1816866Y-33651461D01*
X1816872Y-33651464D01*
X1816873Y-33651465D01*
X1935256Y-33700501D01*
X1935260Y-33700501D01*
X1935261Y-33700502D01*
X2060928Y-33725500D01*
X2060931Y-33725500D01*
X2189071Y-33725500D01*
X2273615Y-33708682D01*
X2314744Y-33700501D01*
X2433127Y-33651465D01*
X2539669Y-33580276D01*
X2630276Y-33489669D01*
X2701465Y-33383127D01*
X2750501Y-33264744D01*
X2769819Y-33167631D01*
X2775500Y-33139071D01*
X2775500Y-33010928D01*
X2750502Y-32885261D01*
X2750501Y-32885260D01*
X2750501Y-32885256D01*
X2703813Y-32772541D01*
X2701466Y-32766875D01*
X2701461Y-32766866D01*
X2630276Y-32660331D01*
X2626411Y-32655621D01*
X2627484Y-32654740D01*
X2597365Y-32599581D01*
X2602349Y-32529889D01*
X2630848Y-32485544D01*
X3420480Y-31695913D01*
X3473207Y-31604588D01*
X3500500Y-31502727D01*
X3500500Y-31397273D01*
X3500500Y-29541255D01*
X3520185Y-29474216D01*
X3572989Y-29428461D01*
X3642147Y-29418517D01*
X3705703Y-29447542D01*
X3712181Y-29453574D01*
X4415501Y-30156894D01*
X4448986Y-30218217D01*
X4444002Y-30287909D01*
X4402130Y-30343842D01*
X4352013Y-30366192D01*
X4310260Y-30374497D01*
X4310255Y-30374499D01*
X4191875Y-30423533D01*
X4191866Y-30423538D01*
X4085331Y-30494723D01*
X4085327Y-30494726D01*
X3994726Y-30585327D01*
X3994723Y-30585331D01*
X3923538Y-30691866D01*
X3923533Y-30691875D01*
X3874499Y-30810255D01*
X3874497Y-30810261D01*
X3849500Y-30935928D01*
X3849500Y-30935931D01*
X3849500Y-31064069D01*
X3849500Y-31064071D01*
X3849499Y-31064071D01*
X3874497Y-31189738D01*
X3874499Y-31189744D01*
X3923533Y-31308124D01*
X3923538Y-31308133D01*
X3994723Y-31414668D01*
X3994726Y-31414672D01*
X4085327Y-31505273D01*
X4085331Y-31505276D01*
X4191866Y-31576461D01*
X4191872Y-31576464D01*
X4191873Y-31576465D01*
X4310256Y-31625501D01*
X4310260Y-31625501D01*
X4310261Y-31625502D01*
X4435928Y-31650500D01*
X4435931Y-31650500D01*
X4564071Y-31650500D01*
X4675562Y-31628322D01*
X4689744Y-31625501D01*
X4808127Y-31576465D01*
X4914669Y-31505276D01*
X5005276Y-31414669D01*
X5076465Y-31308127D01*
X5125501Y-31189744D01*
X5144457Y-31094449D01*
X5150500Y-31064071D01*
X5150500Y-30935928D01*
X5133147Y-30848692D01*
X5139374Y-30779100D01*
X5182237Y-30723923D01*
X5248126Y-30700678D01*
X5254764Y-30700500D01*
X5804193Y-30700500D01*
X5871232Y-30720185D01*
X5891869Y-30736814D01*
X5929555Y-30774500D01*
X5960332Y-30805277D01*
X6066866Y-30876461D01*
X6066875Y-30876466D01*
X6093692Y-30887574D01*
X6185256Y-30925501D01*
X6185260Y-30925501D01*
X6185261Y-30925502D01*
X6310928Y-30950500D01*
X6310931Y-30950500D01*
X6439071Y-30950500D01*
X6553352Y-30927767D01*
X6564744Y-30925501D01*
X6683127Y-30876465D01*
X6789669Y-30805276D01*
X6880276Y-30714669D01*
X6951465Y-30608127D01*
X7000501Y-30489744D01*
X7013672Y-30423533D01*
X7025500Y-30364071D01*
X7025500Y-30235928D01*
X7000502Y-30110261D01*
X7000501Y-30110260D01*
X7000501Y-30110256D01*
X6951465Y-29991873D01*
X6951464Y-29991872D01*
X6951461Y-29991866D01*
X6880276Y-29885331D01*
X6880273Y-29885327D01*
X6789672Y-29794726D01*
X6789668Y-29794723D01*
X6683133Y-29723538D01*
X6683124Y-29723533D01*
X6564744Y-29674499D01*
X6564738Y-29674497D01*
X6439071Y-29649500D01*
X6439069Y-29649500D01*
X6310931Y-29649500D01*
X6310929Y-29649500D01*
X6185261Y-29674497D01*
X6185255Y-29674499D01*
X6066875Y-29723533D01*
X6066866Y-29723538D01*
X5960332Y-29794722D01*
X5926103Y-29828951D01*
X5891872Y-29863182D01*
X5830552Y-29896666D01*
X5804193Y-29899500D01*
X5342255Y-29899500D01*
X5275216Y-29879815D01*
X5254574Y-29863181D01*
X4161819Y-28770426D01*
X4128334Y-28709103D01*
X4125500Y-28682745D01*
X4125500Y-26067255D01*
X4145185Y-26000216D01*
X4161819Y-25979574D01*
X5437819Y-24703574D01*
X5499142Y-24670089D01*
X5568834Y-24675073D01*
X5624767Y-24716945D01*
X5649184Y-24782409D01*
X5649500Y-24791255D01*
X5649500Y-24889069D01*
X5649500Y-24889071D01*
X5649499Y-24889071D01*
X5674497Y-25014738D01*
X5674499Y-25014744D01*
X5723533Y-25133124D01*
X5723538Y-25133133D01*
X5794723Y-25239668D01*
X5794726Y-25239672D01*
X5885327Y-25330273D01*
X5885331Y-25330276D01*
X5991866Y-25401461D01*
X5991875Y-25401466D01*
X6018692Y-25412574D01*
X6110256Y-25450501D01*
X6110260Y-25450501D01*
X6110261Y-25450502D01*
X6235928Y-25475500D01*
X6235931Y-25475500D01*
X6364071Y-25475500D01*
X6448615Y-25458682D01*
X6489744Y-25450501D01*
X6608127Y-25401465D01*
X6714669Y-25330276D01*
X6805276Y-25239669D01*
X6876465Y-25133127D01*
X6925501Y-25014744D01*
X6949975Y-24891706D01*
X6982360Y-24829796D01*
X7043075Y-24795222D01*
X7047379Y-24794285D01*
X7070381Y-24789710D01*
X7139972Y-24795937D01*
X7182253Y-24823646D01*
X10747443Y-28388836D01*
X10780928Y-28450159D01*
X10775944Y-28519851D01*
X10734072Y-28575784D01*
X10721722Y-28583007D01*
X10714734Y-28587794D01*
X10635294Y-28667234D01*
X10589915Y-28770006D01*
X10589915Y-28770008D01*
X10587000Y-28795131D01*
X10587000Y-30084856D01*
X10587002Y-30084882D01*
X10589913Y-30109987D01*
X10589915Y-30109991D01*
X10635293Y-30212764D01*
X10635294Y-30212765D01*
X10714735Y-30292206D01*
X10817509Y-30337585D01*
X10842635Y-30340500D01*
X11550500Y-30340499D01*
X11617539Y-30360183D01*
X11663294Y-30412987D01*
X11674500Y-30464499D01*
X11674500Y-32207202D01*
X11654815Y-32274241D01*
X11602011Y-32319996D01*
X11532853Y-32329940D01*
X11475575Y-32306006D01*
X11422343Y-32265639D01*
X11281561Y-32210122D01*
X11235926Y-32204642D01*
X11193102Y-32199500D01*
X10606898Y-32199500D01*
X10567853Y-32204188D01*
X10518438Y-32210122D01*
X10377656Y-32265639D01*
X10257077Y-32357077D01*
X10165639Y-32477656D01*
X10110122Y-32618438D01*
X10105092Y-32660331D01*
X10099500Y-32706898D01*
X10099500Y-35093102D01*
X10105126Y-35139954D01*
X10110122Y-35181561D01*
X10165639Y-35322343D01*
X10257077Y-35442922D01*
X10377656Y-35534360D01*
X10377657Y-35534360D01*
X10377658Y-35534361D01*
X10518436Y-35589877D01*
X10606898Y-35600500D01*
X10606903Y-35600500D01*
X11193097Y-35600500D01*
X11193102Y-35600500D01*
X11281564Y-35589877D01*
X11422342Y-35534361D01*
X11542922Y-35442922D01*
X11542923Y-35442919D01*
X11544118Y-35442014D01*
X11609430Y-35417191D01*
X11677794Y-35431619D01*
X11727505Y-35480716D01*
X11742781Y-35548895D01*
X11733606Y-35588268D01*
X11724500Y-35610251D01*
X11724497Y-35610261D01*
X11699500Y-35735928D01*
X11699500Y-35735931D01*
X11699500Y-35864069D01*
X11699500Y-35864071D01*
X11699499Y-35864071D01*
X11724497Y-35989738D01*
X11724499Y-35989744D01*
X11773533Y-36108124D01*
X11773538Y-36108133D01*
X11844723Y-36214668D01*
X11844726Y-36214672D01*
X11935327Y-36305273D01*
X11935331Y-36305276D01*
X12041866Y-36376461D01*
X12041870Y-36376463D01*
X12041873Y-36376465D01*
X12072951Y-36389338D01*
X12127355Y-36433177D01*
X12149421Y-36499470D01*
X12149500Y-36503899D01*
X12149500Y-36850230D01*
X12131253Y-36912369D01*
X12132095Y-36912819D01*
X12129935Y-36916859D01*
X12129815Y-36917269D01*
X12129278Y-36918087D01*
X12129223Y-36918190D01*
X12076421Y-37045667D01*
X12076418Y-37045677D01*
X12049500Y-37181004D01*
X12049500Y-37475500D01*
X12029815Y-37542539D01*
X11977011Y-37588294D01*
X11925500Y-37599500D01*
X7131004Y-37599500D01*
X6995677Y-37626418D01*
X6995667Y-37626421D01*
X6868192Y-37679222D01*
X6753454Y-37755887D01*
X6753453Y-37755888D01*
X5246162Y-39263181D01*
X5184839Y-39296666D01*
X5158481Y-39299500D01*
X2181005Y-39299500D01*
X2045677Y-39326418D01*
X2045667Y-39326421D01*
X1918195Y-39379221D01*
X1918182Y-39379228D01*
X1803458Y-39455885D01*
X1803454Y-39455888D01*
X1705888Y-39553454D01*
X1705885Y-39553458D01*
X1629228Y-39668182D01*
X1629221Y-39668195D01*
X1576421Y-39795667D01*
X1576418Y-39795677D01*
X1549500Y-39931004D01*
X1549500Y-39931007D01*
X1549500Y-40068993D01*
X1549500Y-40068995D01*
X1549499Y-40068995D01*
X1576418Y-40204322D01*
X1576421Y-40204332D01*
X1629221Y-40331804D01*
X1629228Y-40331817D01*
X1705885Y-40446541D01*
X1705888Y-40446545D01*
X1803454Y-40544111D01*
X1803458Y-40544114D01*
X1918182Y-40620771D01*
X1918195Y-40620778D01*
X2045667Y-40673578D01*
X2045672Y-40673580D01*
X2045676Y-40673580D01*
X2045677Y-40673581D01*
X2181004Y-40700500D01*
X2181007Y-40700500D01*
X5568996Y-40700500D01*
X5660040Y-40682389D01*
X5704328Y-40673580D01*
X5768069Y-40647177D01*
X5831807Y-40620777D01*
X5831808Y-40620776D01*
X5831811Y-40620775D01*
X5946543Y-40544114D01*
X7453838Y-39036819D01*
X7515161Y-39003334D01*
X7541519Y-39000500D01*
X9001026Y-39000500D01*
X9068065Y-39020185D01*
X9113820Y-39072989D01*
X9123293Y-39129839D01*
X9124500Y-39129839D01*
X9124500Y-39232744D01*
X9104815Y-39299783D01*
X9088185Y-39320421D01*
X9037836Y-39370771D01*
X8954519Y-39454088D01*
X8901794Y-39545410D01*
X8901793Y-39545412D01*
X8876580Y-39639511D01*
X8874500Y-39647273D01*
X8874500Y-51995802D01*
X8874500Y-52101256D01*
X8875845Y-52106274D01*
X8901793Y-52203118D01*
X8908464Y-52214672D01*
X8954520Y-52294442D01*
X10065990Y-53405912D01*
X10065991Y-53405913D01*
X10140558Y-53480480D01*
X10231884Y-53533207D01*
X10333744Y-53560500D01*
X10439198Y-53560500D01*
X10949193Y-53560500D01*
X11016232Y-53580185D01*
X11036869Y-53596814D01*
X11076712Y-53636657D01*
X11105332Y-53665277D01*
X11211866Y-53736461D01*
X11211872Y-53736464D01*
X11211873Y-53736465D01*
X11330256Y-53785501D01*
X11330260Y-53785501D01*
X11330261Y-53785502D01*
X11455928Y-53810500D01*
X11455931Y-53810500D01*
X11584071Y-53810500D01*
X11668615Y-53793682D01*
X11709744Y-53785501D01*
X11828127Y-53736465D01*
X11934669Y-53665276D01*
X12025276Y-53574669D01*
X12096465Y-53468127D01*
X12145501Y-53349744D01*
X12163566Y-53258927D01*
X12170500Y-53224071D01*
X12170500Y-53095928D01*
X12145502Y-52970261D01*
X12145501Y-52970260D01*
X12145501Y-52970256D01*
X12096465Y-52851873D01*
X12096464Y-52851872D01*
X12096461Y-52851866D01*
X12025276Y-52745331D01*
X12025273Y-52745327D01*
X11934672Y-52654726D01*
X11934668Y-52654723D01*
X11828133Y-52583538D01*
X11828124Y-52583533D01*
X11709744Y-52534499D01*
X11709738Y-52534497D01*
X11584071Y-52509500D01*
X11584069Y-52509500D01*
X11455931Y-52509500D01*
X11455926Y-52509500D01*
X11359809Y-52528619D01*
X11290217Y-52522392D01*
X11235040Y-52479529D01*
X11211796Y-52413639D01*
X11227864Y-52345642D01*
X11260849Y-52310222D01*
X11259961Y-52309140D01*
X11264665Y-52305278D01*
X11264669Y-52305276D01*
X11355276Y-52214669D01*
X11426465Y-52108127D01*
X11426997Y-52106841D01*
X11427454Y-52106274D01*
X11429335Y-52102756D01*
X11430002Y-52103112D01*
X11470839Y-52052440D01*
X11537134Y-52030377D01*
X11541557Y-52030298D01*
X11819356Y-52030298D01*
X11819364Y-52030298D01*
X11819379Y-52030296D01*
X11819382Y-52030296D01*
X11844487Y-52027385D01*
X11844488Y-52027384D01*
X11844491Y-52027384D01*
X11947265Y-51982005D01*
X12026706Y-51902564D01*
X12072085Y-51799790D01*
X12075000Y-51774664D01*
X12074999Y-51075335D01*
X12074222Y-51068631D01*
X12072086Y-51050211D01*
X12072085Y-51050210D01*
X12072085Y-51050208D01*
X12038914Y-50975083D01*
X12029843Y-50905809D01*
X12038912Y-50874921D01*
X12072085Y-50799792D01*
X12075000Y-50774666D01*
X12074999Y-50075337D01*
X12074997Y-50075318D01*
X12072086Y-50050213D01*
X12072085Y-50050211D01*
X12072085Y-50050210D01*
X12026706Y-49947436D01*
X11947265Y-49867995D01*
X11880613Y-49838565D01*
X11827237Y-49793479D01*
X11806710Y-49726692D01*
X11806700Y-49725131D01*
X11806700Y-49386055D01*
X11826385Y-49319016D01*
X11843019Y-49298374D01*
X12896725Y-48244668D01*
X14081134Y-47060258D01*
X14142455Y-47026775D01*
X14212147Y-47031759D01*
X14268080Y-47073631D01*
X14290430Y-47123749D01*
X14314497Y-47244738D01*
X14314499Y-47244744D01*
X14363534Y-47363126D01*
X14370541Y-47373613D01*
X14391416Y-47440291D01*
X14372929Y-47507671D01*
X14370541Y-47511387D01*
X14363534Y-47521873D01*
X14314499Y-47640255D01*
X14314497Y-47640261D01*
X14289500Y-47765928D01*
X14289500Y-47765931D01*
X14289500Y-47894069D01*
X14289500Y-47894071D01*
X14289499Y-47894071D01*
X14314497Y-48019738D01*
X14314499Y-48019744D01*
X14363533Y-48138124D01*
X14363538Y-48138133D01*
X14434723Y-48244668D01*
X14434726Y-48244672D01*
X14525327Y-48335273D01*
X14525331Y-48335276D01*
X14631866Y-48406461D01*
X14631872Y-48406464D01*
X14631873Y-48406465D01*
X14750256Y-48455501D01*
X14750260Y-48455501D01*
X14750261Y-48455502D01*
X14875928Y-48480500D01*
X14875931Y-48480500D01*
X15004071Y-48480500D01*
X15088615Y-48463682D01*
X15129744Y-48455501D01*
X15248127Y-48406465D01*
X15354669Y-48335276D01*
X15445276Y-48244669D01*
X15516465Y-48138127D01*
X15565501Y-48019744D01*
X15590500Y-47894069D01*
X15590500Y-47801902D01*
X16559500Y-47801902D01*
X16559500Y-48038097D01*
X16596446Y-48271368D01*
X16669433Y-48495996D01*
X16776657Y-48706433D01*
X16915483Y-48897510D01*
X17082490Y-49064517D01*
X17273567Y-49203343D01*
X17372991Y-49254002D01*
X17484003Y-49310566D01*
X17484005Y-49310566D01*
X17484008Y-49310568D01*
X17558257Y-49334693D01*
X17708631Y-49383553D01*
X17941903Y-49420500D01*
X17941908Y-49420500D01*
X18178097Y-49420500D01*
X18411368Y-49383553D01*
X18635992Y-49310568D01*
X18846433Y-49203343D01*
X19037510Y-49064517D01*
X19204517Y-48897510D01*
X19343343Y-48706433D01*
X19450568Y-48495992D01*
X19523553Y-48271368D01*
X19527782Y-48244668D01*
X19560500Y-48038097D01*
X19560500Y-47801902D01*
X19523553Y-47568631D01*
X19450566Y-47344003D01*
X19343342Y-47133566D01*
X19204517Y-46942490D01*
X19037510Y-46775483D01*
X18846433Y-46636657D01*
X18835299Y-46630984D01*
X18635996Y-46529433D01*
X18411368Y-46456446D01*
X18178097Y-46419500D01*
X18178092Y-46419500D01*
X17941908Y-46419500D01*
X17941903Y-46419500D01*
X17708631Y-46456446D01*
X17484003Y-46529433D01*
X17273566Y-46636657D01*
X17241069Y-46660268D01*
X17082490Y-46775483D01*
X17082488Y-46775485D01*
X17082487Y-46775485D01*
X16915485Y-46942487D01*
X16915485Y-46942488D01*
X16915483Y-46942490D01*
X16855862Y-47024550D01*
X16776657Y-47133566D01*
X16669433Y-47344003D01*
X16596446Y-47568631D01*
X16559500Y-47801902D01*
X15590500Y-47801902D01*
X15590500Y-47765931D01*
X15590500Y-47765928D01*
X15565502Y-47640261D01*
X15565501Y-47640260D01*
X15565501Y-47640256D01*
X15516465Y-47521873D01*
X15509461Y-47511390D01*
X15488582Y-47444718D01*
X15507064Y-47377337D01*
X15509458Y-47373613D01*
X15516465Y-47363127D01*
X15565501Y-47244744D01*
X15587616Y-47133567D01*
X15590500Y-47119071D01*
X15590500Y-46990928D01*
X15565502Y-46865261D01*
X15565501Y-46865260D01*
X15565501Y-46865256D01*
X15516465Y-46746873D01*
X15516464Y-46746872D01*
X15516461Y-46746866D01*
X15445276Y-46640331D01*
X15445273Y-46640327D01*
X15354672Y-46549726D01*
X15354668Y-46549723D01*
X15248133Y-46478538D01*
X15248124Y-46478533D01*
X15129744Y-46429499D01*
X15129738Y-46429497D01*
X15004071Y-46404500D01*
X15004069Y-46404500D01*
X14875931Y-46404500D01*
X14875929Y-46404500D01*
X14750261Y-46429497D01*
X14750255Y-46429499D01*
X14631875Y-46478533D01*
X14631866Y-46478538D01*
X14525331Y-46549723D01*
X14525327Y-46549726D01*
X14434726Y-46640327D01*
X14434723Y-46640331D01*
X14421402Y-46660268D01*
X14367789Y-46705073D01*
X14298464Y-46713780D01*
X14235437Y-46683625D01*
X14198718Y-46624182D01*
X14194300Y-46591377D01*
X14194300Y-44999868D01*
X14213985Y-44932829D01*
X14266789Y-44887074D01*
X14268070Y-44886497D01*
X14334865Y-44857005D01*
X14414306Y-44777564D01*
X14459685Y-44674790D01*
X14462600Y-44649664D01*
X14462600Y-44301902D01*
X16559500Y-44301902D01*
X16559500Y-44538097D01*
X16596446Y-44771368D01*
X16669433Y-44995996D01*
X16745144Y-45144586D01*
X16776657Y-45206433D01*
X16915483Y-45397510D01*
X17082490Y-45564517D01*
X17273567Y-45703343D01*
X17372991Y-45754002D01*
X17484003Y-45810566D01*
X17484005Y-45810566D01*
X17484008Y-45810568D01*
X17604412Y-45849689D01*
X17708631Y-45883553D01*
X17941903Y-45920500D01*
X17941908Y-45920500D01*
X18178097Y-45920500D01*
X18411368Y-45883553D01*
X18635992Y-45810568D01*
X18846433Y-45703343D01*
X19037510Y-45564517D01*
X19204517Y-45397510D01*
X19343343Y-45206433D01*
X19450568Y-44995992D01*
X19523553Y-44771368D01*
X19538849Y-44674792D01*
X19560500Y-44538097D01*
X19560500Y-44301902D01*
X19523553Y-44068631D01*
X19485116Y-43950335D01*
X19450568Y-43844008D01*
X19450566Y-43844005D01*
X19450566Y-43844003D01*
X19394002Y-43732991D01*
X19343343Y-43633567D01*
X19204517Y-43442490D01*
X19037510Y-43275483D01*
X18846433Y-43136657D01*
X18635996Y-43029433D01*
X18411368Y-42956446D01*
X18178097Y-42919500D01*
X18178092Y-42919500D01*
X17941908Y-42919500D01*
X17941903Y-42919500D01*
X17708631Y-42956446D01*
X17484003Y-43029433D01*
X17273566Y-43136657D01*
X17164550Y-43215862D01*
X17082490Y-43275483D01*
X17082488Y-43275485D01*
X17082487Y-43275485D01*
X16915485Y-43442487D01*
X16915485Y-43442488D01*
X16915483Y-43442490D01*
X16855862Y-43524550D01*
X16776657Y-43633566D01*
X16669433Y-43844003D01*
X16596446Y-44068631D01*
X16559500Y-44301902D01*
X14462600Y-44301902D01*
X14462599Y-43950335D01*
X14462597Y-43950316D01*
X14459686Y-43925211D01*
X14459685Y-43925209D01*
X14459685Y-43925208D01*
X14414306Y-43822434D01*
X14334865Y-43742993D01*
X14334858Y-43742990D01*
X14232092Y-43697614D01*
X14206965Y-43694699D01*
X13380643Y-43694699D01*
X13380617Y-43694701D01*
X13355512Y-43697612D01*
X13355508Y-43697614D01*
X13252739Y-43742990D01*
X13244576Y-43748583D01*
X13178144Y-43770228D01*
X13110555Y-43752522D01*
X13063268Y-43701086D01*
X13050500Y-43646282D01*
X13050500Y-41097275D01*
X13050500Y-41097273D01*
X13023207Y-40995413D01*
X12970480Y-40904087D01*
X12895913Y-40829520D01*
X12044455Y-39978062D01*
X12010970Y-39916739D01*
X12015954Y-39847047D01*
X12057826Y-39791114D01*
X12077933Y-39779665D01*
X12077757Y-39779335D01*
X12083120Y-39776467D01*
X12083127Y-39776465D01*
X12189669Y-39705276D01*
X12226763Y-39668182D01*
X12283127Y-39611819D01*
X12344450Y-39578334D01*
X12370808Y-39575500D01*
X14406870Y-39575500D01*
X14473909Y-39595185D01*
X14519664Y-39647989D01*
X14529608Y-39717147D01*
X14521431Y-39746951D01*
X14509206Y-39776466D01*
X14474499Y-39860255D01*
X14474497Y-39860261D01*
X14449500Y-39985928D01*
X14449500Y-39985931D01*
X14449500Y-40114069D01*
X14449500Y-40114071D01*
X14449499Y-40114071D01*
X14474497Y-40239738D01*
X14474499Y-40239744D01*
X14523533Y-40358124D01*
X14526408Y-40363502D01*
X14524778Y-40364372D01*
X14543064Y-40422813D01*
X14525684Y-40486111D01*
X14526408Y-40486498D01*
X14524702Y-40489689D01*
X14524565Y-40490189D01*
X14523794Y-40491388D01*
X14523533Y-40491875D01*
X14474499Y-40610255D01*
X14474497Y-40610261D01*
X14449500Y-40735928D01*
X14449500Y-40735931D01*
X14449500Y-40864069D01*
X14449500Y-40864071D01*
X14449499Y-40864071D01*
X14474497Y-40989738D01*
X14474499Y-40989744D01*
X14523533Y-41108124D01*
X14523538Y-41108133D01*
X14594723Y-41214668D01*
X14594726Y-41214672D01*
X14685327Y-41305273D01*
X14685331Y-41305276D01*
X14791866Y-41376461D01*
X14791872Y-41376464D01*
X14791873Y-41376465D01*
X14910256Y-41425501D01*
X14910260Y-41425501D01*
X14910261Y-41425502D01*
X15035928Y-41450500D01*
X15035931Y-41450500D01*
X15164071Y-41450500D01*
X15248615Y-41433682D01*
X15289744Y-41425501D01*
X15408127Y-41376465D01*
X15514669Y-41305276D01*
X15605276Y-41214669D01*
X15676465Y-41108127D01*
X15725501Y-40989744D01*
X15750500Y-40864069D01*
X15750500Y-40735931D01*
X15750500Y-40735928D01*
X15725502Y-40610261D01*
X15725501Y-40610260D01*
X15725501Y-40610256D01*
X15676465Y-40491873D01*
X15676462Y-40491869D01*
X15673596Y-40486506D01*
X15675227Y-40485633D01*
X15656935Y-40427215D01*
X15674310Y-40363875D01*
X15673596Y-40363494D01*
X15675278Y-40360346D01*
X15675419Y-40359835D01*
X15676210Y-40358603D01*
X15676459Y-40358134D01*
X15676465Y-40358127D01*
X15725501Y-40239744D01*
X15733682Y-40198615D01*
X15750500Y-40114071D01*
X15750500Y-39985928D01*
X15725502Y-39860261D01*
X15725501Y-39860260D01*
X15725501Y-39860256D01*
X15678568Y-39746952D01*
X15671100Y-39677484D01*
X15702375Y-39615004D01*
X15762464Y-39579352D01*
X15793130Y-39575500D01*
X16983111Y-39575500D01*
X17050150Y-39595185D01*
X17095905Y-39647989D01*
X17105849Y-39717147D01*
X17076824Y-39780703D01*
X17070792Y-39787181D01*
X16915485Y-39942487D01*
X16915485Y-39942488D01*
X16915483Y-39942490D01*
X16883921Y-39985931D01*
X16776657Y-40133566D01*
X16669433Y-40344003D01*
X16596446Y-40568631D01*
X16559500Y-40801902D01*
X16559500Y-41038097D01*
X16596446Y-41271368D01*
X16669433Y-41495996D01*
X16726033Y-41607078D01*
X16776657Y-41706433D01*
X16915483Y-41897510D01*
X17082490Y-42064517D01*
X17273567Y-42203343D01*
X17343687Y-42239071D01*
X17484003Y-42310566D01*
X17484005Y-42310566D01*
X17484008Y-42310568D01*
X17604412Y-42349689D01*
X17708631Y-42383553D01*
X17941903Y-42420500D01*
X17941908Y-42420500D01*
X18178097Y-42420500D01*
X18411368Y-42383553D01*
X18635992Y-42310568D01*
X18846433Y-42203343D01*
X19037510Y-42064517D01*
X19204517Y-41897510D01*
X19343343Y-41706433D01*
X19450568Y-41495992D01*
X19523553Y-41271368D01*
X19532533Y-41214669D01*
X19560500Y-41038097D01*
X19560500Y-40801902D01*
X19523553Y-40568631D01*
X19476173Y-40422813D01*
X19450568Y-40344008D01*
X19450566Y-40344005D01*
X19450566Y-40344003D01*
X19394002Y-40232991D01*
X19343343Y-40133567D01*
X19204517Y-39942490D01*
X19049208Y-39787181D01*
X19015723Y-39725858D01*
X19020707Y-39656166D01*
X19062579Y-39600233D01*
X19128043Y-39575816D01*
X19136889Y-39575500D01*
X19477725Y-39575500D01*
X19477727Y-39575500D01*
X19579588Y-39548207D01*
X19670913Y-39495480D01*
X20145480Y-39020913D01*
X20157265Y-39000500D01*
X20198207Y-38929587D01*
X20225500Y-38827727D01*
X20225500Y-35676268D01*
X20245185Y-35609229D01*
X20297989Y-35563474D01*
X20367147Y-35553530D01*
X20394986Y-35560912D01*
X20468436Y-35589877D01*
X20556898Y-35600500D01*
X20556903Y-35600500D01*
X21143097Y-35600500D01*
X21143102Y-35600500D01*
X21231564Y-35589877D01*
X21372342Y-35534361D01*
X21428380Y-35491866D01*
X21499681Y-35437797D01*
X21501692Y-35440450D01*
X21549142Y-35414541D01*
X21618834Y-35419525D01*
X21674767Y-35461397D01*
X21699184Y-35526861D01*
X21699500Y-35535707D01*
X21699500Y-67996519D01*
X21699305Y-68003472D01*
X21682916Y-68295296D01*
X21681359Y-68309114D01*
X21632984Y-68593827D01*
X21629890Y-68607384D01*
X21549939Y-68884899D01*
X21545346Y-68898024D01*
X21434830Y-69164834D01*
X21428797Y-69177362D01*
X21289100Y-69430124D01*
X21281702Y-69441898D01*
X21114580Y-69677435D01*
X21105909Y-69688307D01*
X20913473Y-69903641D01*
X20903641Y-69913473D01*
X20688307Y-70105909D01*
X20677435Y-70114580D01*
X20441898Y-70281702D01*
X20430124Y-70289100D01*
X20177362Y-70428797D01*
X20164834Y-70434830D01*
X19898024Y-70545346D01*
X19884899Y-70549939D01*
X19607384Y-70629890D01*
X19593827Y-70632984D01*
X19309114Y-70681359D01*
X19295296Y-70682916D01*
X19003472Y-70699305D01*
X18996519Y-70699500D01*
X3481Y-70699500D01*
X-3472Y-70699305D01*
X-295296Y-70682916D01*
X-309114Y-70681359D01*
X-593827Y-70632984D01*
X-607384Y-70629890D01*
X-884899Y-70549939D01*
X-898024Y-70545346D01*
X-1164834Y-70434830D01*
X-1177362Y-70428797D01*
X-1430124Y-70289100D01*
X-1441898Y-70281702D01*
X-1677435Y-70114580D01*
X-1688307Y-70105909D01*
X-1903641Y-69913473D01*
X-1913473Y-69903641D01*
X-2105909Y-69688307D01*
X-2114580Y-69677435D01*
X-2281702Y-69441898D01*
X-2289100Y-69430124D01*
X-2428797Y-69177362D01*
X-2434830Y-69164834D01*
X-2545346Y-68898024D01*
X-2549939Y-68884899D01*
X-2629890Y-68607384D01*
X-2632984Y-68593827D01*
X-2681359Y-68309114D01*
X-2682916Y-68295296D01*
X-2699305Y-68003472D01*
X-2699500Y-67996519D01*
X-2699500Y-63164071D01*
X199499Y-63164071D01*
X224497Y-63289738D01*
X224499Y-63289744D01*
X273533Y-63408124D01*
X273538Y-63408133D01*
X344723Y-63514668D01*
X344726Y-63514672D01*
X435327Y-63605273D01*
X435331Y-63605276D01*
X541866Y-63676461D01*
X541872Y-63676464D01*
X541873Y-63676465D01*
X660256Y-63725501D01*
X660260Y-63725501D01*
X660261Y-63725502D01*
X785928Y-63750500D01*
X785931Y-63750500D01*
X914071Y-63750500D01*
X998615Y-63733682D01*
X1039744Y-63725501D01*
X1158127Y-63676465D01*
X1264669Y-63605276D01*
X1355276Y-63514669D01*
X1426465Y-63408127D01*
X1475501Y-63289744D01*
X1500500Y-63164071D01*
X1999499Y-63164071D01*
X2024497Y-63289738D01*
X2024499Y-63289744D01*
X2073533Y-63408124D01*
X2073538Y-63408133D01*
X2144723Y-63514668D01*
X2144726Y-63514672D01*
X2235327Y-63605273D01*
X2235331Y-63605276D01*
X2341866Y-63676461D01*
X2341872Y-63676464D01*
X2341873Y-63676465D01*
X2460256Y-63725501D01*
X2460260Y-63725501D01*
X2460261Y-63725502D01*
X2585928Y-63750500D01*
X2585931Y-63750500D01*
X2714071Y-63750500D01*
X2798615Y-63733682D01*
X2839744Y-63725501D01*
X2958127Y-63676465D01*
X3064669Y-63605276D01*
X3155276Y-63514669D01*
X3226465Y-63408127D01*
X3275501Y-63289744D01*
X3300500Y-63164069D01*
X3300500Y-63035931D01*
X3300500Y-63035928D01*
X3275502Y-62910261D01*
X3275501Y-62910260D01*
X3275501Y-62910256D01*
X3226465Y-62791873D01*
X3226464Y-62791872D01*
X3226461Y-62791866D01*
X3155276Y-62685331D01*
X3155273Y-62685327D01*
X3064672Y-62594726D01*
X3064668Y-62594723D01*
X2958133Y-62523538D01*
X2958120Y-62523531D01*
X2925232Y-62509909D01*
X2925231Y-62509909D01*
X2839744Y-62474499D01*
X2839738Y-62474497D01*
X2714071Y-62449500D01*
X2714069Y-62449500D01*
X2585931Y-62449500D01*
X2585929Y-62449500D01*
X2460261Y-62474497D01*
X2460255Y-62474499D01*
X2341875Y-62523533D01*
X2341866Y-62523538D01*
X2235331Y-62594723D01*
X2235327Y-62594726D01*
X2144726Y-62685327D01*
X2144723Y-62685331D01*
X2073538Y-62791866D01*
X2073533Y-62791875D01*
X2024499Y-62910255D01*
X2024497Y-62910261D01*
X1999500Y-63035928D01*
X1999500Y-63035931D01*
X1999500Y-63164069D01*
X1999500Y-63164071D01*
X1999499Y-63164071D01*
X1500500Y-63164071D01*
X1500500Y-63164069D01*
X1500500Y-63035931D01*
X1500500Y-63035928D01*
X1475502Y-62910261D01*
X1475501Y-62910260D01*
X1475501Y-62910256D01*
X1426465Y-62791873D01*
X1426464Y-62791872D01*
X1426461Y-62791866D01*
X1355276Y-62685331D01*
X1355273Y-62685327D01*
X1264672Y-62594726D01*
X1264668Y-62594723D01*
X1158133Y-62523538D01*
X1158124Y-62523533D01*
X1039744Y-62474499D01*
X1039738Y-62474497D01*
X914071Y-62449500D01*
X914069Y-62449500D01*
X785931Y-62449500D01*
X785929Y-62449500D01*
X660261Y-62474497D01*
X660255Y-62474499D01*
X541875Y-62523533D01*
X541866Y-62523538D01*
X435331Y-62594723D01*
X435327Y-62594726D01*
X344726Y-62685327D01*
X344723Y-62685331D01*
X273538Y-62791866D01*
X273533Y-62791875D01*
X224499Y-62910255D01*
X224497Y-62910261D01*
X199500Y-63035928D01*
X199500Y-63035931D01*
X199500Y-63164069D01*
X199500Y-63164071D01*
X199499Y-63164071D01*
X-2699500Y-63164071D01*
X-2699500Y-62398395D01*
X6199500Y-62398395D01*
X6199500Y-66001604D01*
X6214699Y-66155932D01*
X6214700Y-66155934D01*
X6274768Y-66353954D01*
X6372315Y-66536450D01*
X6372317Y-66536452D01*
X6503589Y-66696410D01*
X6589311Y-66766759D01*
X6663550Y-66827685D01*
X6838883Y-66921403D01*
X6888726Y-66970365D01*
X6904186Y-67038502D01*
X6880354Y-67104182D01*
X6868110Y-67118441D01*
X6779200Y-67207351D01*
X6631132Y-67411151D01*
X6516760Y-67635616D01*
X6438910Y-67875214D01*
X6438910Y-67875215D01*
X6399500Y-68124038D01*
X6399500Y-68775962D01*
X6416754Y-68884899D01*
X6438910Y-69024785D01*
X6516760Y-69264383D01*
X6631132Y-69488848D01*
X6779201Y-69692649D01*
X6779205Y-69692654D01*
X6957345Y-69870794D01*
X6957350Y-69870798D01*
X7016088Y-69913473D01*
X7161155Y-70018870D01*
X7304184Y-70091747D01*
X7385616Y-70133239D01*
X7385618Y-70133239D01*
X7385621Y-70133241D01*
X7625215Y-70211090D01*
X7874038Y-70250500D01*
X7874039Y-70250500D01*
X8125961Y-70250500D01*
X8125962Y-70250500D01*
X8374785Y-70211090D01*
X8614379Y-70133241D01*
X8838845Y-70018870D01*
X9042656Y-69870793D01*
X9220793Y-69692656D01*
X9368870Y-69488845D01*
X9483241Y-69264379D01*
X9561090Y-69024785D01*
X9600500Y-68775962D01*
X9600500Y-68124038D01*
X9899500Y-68124038D01*
X9899500Y-68775962D01*
X9916754Y-68884899D01*
X9938910Y-69024785D01*
X10016760Y-69264383D01*
X10131132Y-69488848D01*
X10279201Y-69692649D01*
X10279205Y-69692654D01*
X10457345Y-69870794D01*
X10457350Y-69870798D01*
X10516088Y-69913473D01*
X10661155Y-70018870D01*
X10804184Y-70091747D01*
X10885616Y-70133239D01*
X10885618Y-70133239D01*
X10885621Y-70133241D01*
X11125215Y-70211090D01*
X11374038Y-70250500D01*
X11374039Y-70250500D01*
X11625961Y-70250500D01*
X11625962Y-70250500D01*
X11874785Y-70211090D01*
X12114379Y-70133241D01*
X12338845Y-70018870D01*
X12542656Y-69870793D01*
X12720793Y-69692656D01*
X12868870Y-69488845D01*
X12983241Y-69264379D01*
X13061090Y-69024785D01*
X13100500Y-68775962D01*
X13100500Y-68124038D01*
X13061090Y-67875215D01*
X12983241Y-67635621D01*
X12983239Y-67635618D01*
X12983239Y-67635616D01*
X12941747Y-67554184D01*
X12868870Y-67411155D01*
X12849952Y-67385117D01*
X12720798Y-67207350D01*
X12720794Y-67207345D01*
X12542654Y-67029205D01*
X12542649Y-67029201D01*
X12338848Y-66881132D01*
X12338847Y-66881131D01*
X12338845Y-66881130D01*
X12268747Y-66845413D01*
X12114383Y-66766760D01*
X11874785Y-66688910D01*
X11625962Y-66649500D01*
X11374038Y-66649500D01*
X11249626Y-66669205D01*
X11125214Y-66688910D01*
X10885616Y-66766760D01*
X10661151Y-66881132D01*
X10457350Y-67029201D01*
X10457345Y-67029205D01*
X10279205Y-67207345D01*
X10279201Y-67207350D01*
X10131132Y-67411151D01*
X10016760Y-67635616D01*
X9938910Y-67875214D01*
X9938910Y-67875215D01*
X9899500Y-68124038D01*
X9600500Y-68124038D01*
X9561090Y-67875215D01*
X9483241Y-67635621D01*
X9483239Y-67635618D01*
X9483239Y-67635616D01*
X9441747Y-67554184D01*
X9368870Y-67411155D01*
X9349952Y-67385117D01*
X9220798Y-67207350D01*
X9220794Y-67207345D01*
X9131890Y-67118441D01*
X9098405Y-67057118D01*
X9103389Y-66987426D01*
X9145261Y-66931493D01*
X9161110Y-66921406D01*
X9336450Y-66827685D01*
X9496410Y-66696410D01*
X9627685Y-66536450D01*
X9725232Y-66353954D01*
X9785300Y-66155934D01*
X9800500Y-66001608D01*
X9800500Y-62398392D01*
X9785300Y-62244066D01*
X9725232Y-62046046D01*
X9627685Y-61863550D01*
X9575702Y-61800209D01*
X9496410Y-61703589D01*
X9336452Y-61572317D01*
X9336453Y-61572317D01*
X9336450Y-61572315D01*
X9153954Y-61474768D01*
X8955934Y-61414700D01*
X8955932Y-61414699D01*
X8955934Y-61414699D01*
X8836805Y-61402966D01*
X8801608Y-61399500D01*
X7198392Y-61399500D01*
X7160298Y-61403251D01*
X7044067Y-61414699D01*
X6846043Y-61474769D01*
X6735898Y-61533643D01*
X6663550Y-61572315D01*
X6663548Y-61572316D01*
X6663547Y-61572317D01*
X6503589Y-61703589D01*
X6372317Y-61863547D01*
X6274769Y-62046043D01*
X6214699Y-62244067D01*
X6199500Y-62398395D01*
X-2699500Y-62398395D01*
X-2699500Y-60910781D01*
X15474500Y-60910781D01*
X15474500Y-62939213D01*
X15489269Y-63051407D01*
X15489273Y-63051419D01*
X15547097Y-63191020D01*
X15547100Y-63191026D01*
X15639090Y-63310908D01*
X15639091Y-63310909D01*
X15758973Y-63402899D01*
X15758979Y-63402902D01*
X15828779Y-63431814D01*
X15898584Y-63460728D01*
X16010789Y-63475500D01*
X18339210Y-63475499D01*
X18339213Y-63475499D01*
X18451407Y-63460730D01*
X18451411Y-63460728D01*
X18451416Y-63460728D01*
X18591025Y-63402900D01*
X18710909Y-63310909D01*
X18802900Y-63191025D01*
X18860728Y-63051416D01*
X18875500Y-62939211D01*
X18875499Y-60910790D01*
X18875499Y-60910789D01*
X18875499Y-60910786D01*
X18860730Y-60798592D01*
X18860728Y-60798587D01*
X18860728Y-60798584D01*
X18802900Y-60658975D01*
X18802899Y-60658973D01*
X18710909Y-60539091D01*
X18710908Y-60539090D01*
X18591026Y-60447100D01*
X18591020Y-60447097D01*
X18451419Y-60389273D01*
X18451417Y-60389272D01*
X18451416Y-60389272D01*
X18339211Y-60374500D01*
X16010786Y-60374500D01*
X15898592Y-60389269D01*
X15898580Y-60389273D01*
X15758979Y-60447097D01*
X15758973Y-60447100D01*
X15639091Y-60539090D01*
X15639090Y-60539091D01*
X15547100Y-60658973D01*
X15547097Y-60658979D01*
X15489273Y-60798580D01*
X15489272Y-60798584D01*
X15474500Y-60910781D01*
X-2699500Y-60910781D01*
X-2699500Y-59435928D01*
X-750500Y-59435928D01*
X-750500Y-59435931D01*
X-750500Y-59564069D01*
X-725501Y-59689744D01*
X-676465Y-59808127D01*
X-605276Y-59914669D01*
X-514669Y-60005276D01*
X-408127Y-60076465D01*
X-289744Y-60125501D01*
X-248615Y-60133682D01*
X-164071Y-60150500D01*
X-164069Y-60150500D01*
X-35928Y-60150500D01*
X58966Y-60131623D01*
X89744Y-60125501D01*
X208127Y-60076465D01*
X314669Y-60005276D01*
X405276Y-59914669D01*
X476465Y-59808127D01*
X525501Y-59689744D01*
X550500Y-59564069D01*
X550500Y-59435931D01*
X550500Y-59435928D01*
X525502Y-59310261D01*
X525501Y-59310260D01*
X525501Y-59310256D01*
X476465Y-59191873D01*
X476464Y-59191872D01*
X476461Y-59191866D01*
X405276Y-59085331D01*
X405273Y-59085327D01*
X314672Y-58994726D01*
X314668Y-58994723D01*
X208133Y-58923538D01*
X208124Y-58923533D01*
X89744Y-58874499D01*
X89738Y-58874497D01*
X-35929Y-58849500D01*
X-35931Y-58849500D01*
X-164069Y-58849500D01*
X-164071Y-58849500D01*
X-289738Y-58874497D01*
X-289744Y-58874499D01*
X-408124Y-58923533D01*
X-408133Y-58923538D01*
X-514668Y-58994723D01*
X-514672Y-58994726D01*
X-605273Y-59085327D01*
X-605276Y-59085331D01*
X-676461Y-59191866D01*
X-676464Y-59191872D01*
X-676465Y-59191873D01*
X-725501Y-59310256D01*
X-725501Y-59310260D01*
X-725502Y-59310261D01*
X-750500Y-59435928D01*
X-2699500Y-59435928D01*
X-2699500Y-58789071D01*
X5349499Y-58789071D01*
X5374497Y-58914738D01*
X5374499Y-58914744D01*
X5423533Y-59033124D01*
X5423538Y-59033133D01*
X5494723Y-59139668D01*
X5494726Y-59139672D01*
X5585327Y-59230273D01*
X5585331Y-59230276D01*
X5691866Y-59301461D01*
X5691872Y-59301464D01*
X5691873Y-59301465D01*
X5810256Y-59350501D01*
X5810260Y-59350501D01*
X5810261Y-59350502D01*
X5935928Y-59375500D01*
X5935931Y-59375500D01*
X6064071Y-59375500D01*
X6148615Y-59358682D01*
X6189744Y-59350501D01*
X6308127Y-59301465D01*
X6414669Y-59230276D01*
X6458125Y-59186820D01*
X6519448Y-59153334D01*
X6545807Y-59150500D01*
X10229193Y-59150500D01*
X10296232Y-59170185D01*
X10316869Y-59186814D01*
X10360328Y-59230273D01*
X10385332Y-59255277D01*
X10491866Y-59326461D01*
X10491872Y-59326464D01*
X10491873Y-59326465D01*
X10610256Y-59375501D01*
X10610260Y-59375501D01*
X10610261Y-59375502D01*
X10735928Y-59400500D01*
X10735931Y-59400500D01*
X10864071Y-59400500D01*
X10948615Y-59383682D01*
X10989744Y-59375501D01*
X11108127Y-59326465D01*
X11214669Y-59255276D01*
X11239672Y-59230273D01*
X11278329Y-59191617D01*
X11339652Y-59158132D01*
X11366010Y-59155298D01*
X11819356Y-59155298D01*
X11819364Y-59155298D01*
X11819379Y-59155296D01*
X11819382Y-59155296D01*
X11844487Y-59152385D01*
X11844488Y-59152384D01*
X11844491Y-59152384D01*
X11947265Y-59107005D01*
X12026706Y-59027564D01*
X12072085Y-58924790D01*
X12075000Y-58899664D01*
X12074999Y-58200335D01*
X12074999Y-58200334D01*
X12074999Y-58200330D01*
X13125000Y-58200330D01*
X13125000Y-58899655D01*
X13125002Y-58899681D01*
X13127913Y-58924786D01*
X13127915Y-58924790D01*
X13173293Y-59027563D01*
X13173294Y-59027564D01*
X13252735Y-59107005D01*
X13355509Y-59152384D01*
X13380635Y-59155299D01*
X14206964Y-59155298D01*
X14206979Y-59155296D01*
X14206982Y-59155296D01*
X14232087Y-59152385D01*
X14232088Y-59152384D01*
X14232091Y-59152384D01*
X14334865Y-59107005D01*
X14414306Y-59027564D01*
X14459685Y-58924790D01*
X14462600Y-58899664D01*
X14462599Y-58200335D01*
X14462597Y-58200316D01*
X14459686Y-58175211D01*
X14459685Y-58175209D01*
X14459685Y-58175208D01*
X14414306Y-58072434D01*
X14334865Y-57992993D01*
X14334863Y-57992992D01*
X14232092Y-57947614D01*
X14206965Y-57944699D01*
X13380643Y-57944699D01*
X13380617Y-57944701D01*
X13355512Y-57947612D01*
X13355508Y-57947614D01*
X13252735Y-57992992D01*
X13173294Y-58072433D01*
X13127915Y-58175205D01*
X13127915Y-58175207D01*
X13125000Y-58200330D01*
X12074999Y-58200330D01*
X12074999Y-58200329D01*
X12072086Y-58175211D01*
X12072085Y-58175210D01*
X12072085Y-58175208D01*
X12038914Y-58100083D01*
X12029843Y-58030809D01*
X12038912Y-57999921D01*
X12072085Y-57924792D01*
X12075000Y-57899666D01*
X12074999Y-57426900D01*
X16559500Y-57426900D01*
X16559500Y-59413091D01*
X16570123Y-59501562D01*
X16625639Y-59642342D01*
X16625640Y-59642344D01*
X16717077Y-59762922D01*
X16776697Y-59808133D01*
X16837658Y-59854361D01*
X16978436Y-59909876D01*
X17066901Y-59920500D01*
X19053098Y-59920499D01*
X19141564Y-59909876D01*
X19282342Y-59854361D01*
X19402922Y-59762922D01*
X19494361Y-59642342D01*
X19549876Y-59501564D01*
X19560500Y-59413099D01*
X19560499Y-57426902D01*
X19549876Y-57338436D01*
X19494361Y-57197658D01*
X19494359Y-57197655D01*
X19402922Y-57077077D01*
X19282344Y-56985640D01*
X19282342Y-56985639D01*
X19141564Y-56930124D01*
X19141561Y-56930123D01*
X19053099Y-56919500D01*
X17066908Y-56919500D01*
X16978437Y-56930123D01*
X16837657Y-56985639D01*
X16837655Y-56985640D01*
X16717077Y-57077077D01*
X16625640Y-57197655D01*
X16570124Y-57338437D01*
X16570123Y-57338438D01*
X16559500Y-57426900D01*
X12074999Y-57426900D01*
X12074999Y-57200337D01*
X12074997Y-57200318D01*
X12072086Y-57175213D01*
X12072085Y-57175211D01*
X12072085Y-57175210D01*
X12026706Y-57072436D01*
X11947265Y-56992995D01*
X11880613Y-56963565D01*
X11827237Y-56918479D01*
X11806710Y-56851692D01*
X11806700Y-56850131D01*
X11806700Y-55811055D01*
X11826385Y-55744016D01*
X11843019Y-55723374D01*
X13462322Y-54104071D01*
X14369499Y-54104071D01*
X14394497Y-54229738D01*
X14394499Y-54229744D01*
X14443533Y-54348124D01*
X14446408Y-54353502D01*
X14444778Y-54354372D01*
X14463064Y-54412813D01*
X14445684Y-54476111D01*
X14446408Y-54476498D01*
X14444702Y-54479689D01*
X14444565Y-54480189D01*
X14443794Y-54481388D01*
X14443533Y-54481875D01*
X14394499Y-54600255D01*
X14394497Y-54600261D01*
X14369500Y-54725928D01*
X14369500Y-54725931D01*
X14369500Y-54854069D01*
X14369500Y-54854071D01*
X14369499Y-54854071D01*
X14394497Y-54979738D01*
X14394499Y-54979744D01*
X14443533Y-55098124D01*
X14443538Y-55098133D01*
X14514723Y-55204668D01*
X14514726Y-55204672D01*
X14605327Y-55295273D01*
X14605331Y-55295276D01*
X14711866Y-55366461D01*
X14711875Y-55366466D01*
X14731269Y-55374499D01*
X14830256Y-55415501D01*
X14830260Y-55415501D01*
X14830261Y-55415502D01*
X14955928Y-55440500D01*
X14955931Y-55440500D01*
X15084071Y-55440500D01*
X15169355Y-55423535D01*
X15209744Y-55415501D01*
X15328127Y-55366465D01*
X15434669Y-55295276D01*
X15525276Y-55204669D01*
X15596465Y-55098127D01*
X15645501Y-54979744D01*
X15670500Y-54854069D01*
X15670500Y-54801902D01*
X16559500Y-54801902D01*
X16559500Y-55038097D01*
X16596446Y-55271368D01*
X16669433Y-55495996D01*
X16714950Y-55585327D01*
X16776657Y-55706433D01*
X16915483Y-55897510D01*
X17082490Y-56064517D01*
X17273567Y-56203343D01*
X17372991Y-56254002D01*
X17484003Y-56310566D01*
X17484005Y-56310566D01*
X17484008Y-56310568D01*
X17604412Y-56349689D01*
X17708631Y-56383553D01*
X17941903Y-56420500D01*
X17941908Y-56420500D01*
X18178097Y-56420500D01*
X18411368Y-56383553D01*
X18635992Y-56310568D01*
X18846433Y-56203343D01*
X19037510Y-56064517D01*
X19204517Y-55897510D01*
X19343343Y-55706433D01*
X19450568Y-55495992D01*
X19523553Y-55271368D01*
X19540452Y-55164672D01*
X19560500Y-55038097D01*
X19560500Y-54801902D01*
X19523553Y-54568631D01*
X19453774Y-54353875D01*
X19450568Y-54344008D01*
X19450566Y-54344005D01*
X19450566Y-54344003D01*
X19378773Y-54203102D01*
X19343343Y-54133567D01*
X19204517Y-53942490D01*
X19037510Y-53775483D01*
X18846433Y-53636657D01*
X18635996Y-53529433D01*
X18411368Y-53456446D01*
X18178097Y-53419500D01*
X18178092Y-53419500D01*
X17941908Y-53419500D01*
X17941903Y-53419500D01*
X17708631Y-53456446D01*
X17484003Y-53529433D01*
X17273566Y-53636657D01*
X17164550Y-53715862D01*
X17082490Y-53775483D01*
X17082488Y-53775485D01*
X17082487Y-53775485D01*
X16915485Y-53942487D01*
X16915485Y-53942488D01*
X16915483Y-53942490D01*
X16891189Y-53975928D01*
X16776657Y-54133566D01*
X16669433Y-54344003D01*
X16596446Y-54568631D01*
X16559500Y-54801902D01*
X15670500Y-54801902D01*
X15670500Y-54725931D01*
X15670500Y-54725928D01*
X15645502Y-54600261D01*
X15645501Y-54600260D01*
X15645501Y-54600256D01*
X15596465Y-54481873D01*
X15596462Y-54481869D01*
X15593596Y-54476506D01*
X15595227Y-54475633D01*
X15576935Y-54417215D01*
X15594310Y-54353875D01*
X15593596Y-54353494D01*
X15595278Y-54350346D01*
X15595419Y-54349835D01*
X15596210Y-54348603D01*
X15596459Y-54348134D01*
X15596465Y-54348127D01*
X15645501Y-54229744D01*
X15661465Y-54149491D01*
X15670500Y-54104071D01*
X15670500Y-53975928D01*
X15645502Y-53850261D01*
X15645501Y-53850260D01*
X15645501Y-53850256D01*
X15607339Y-53758124D01*
X15596466Y-53731875D01*
X15596461Y-53731866D01*
X15525276Y-53625331D01*
X15525273Y-53625327D01*
X15434672Y-53534726D01*
X15434668Y-53534723D01*
X15328133Y-53463538D01*
X15328124Y-53463533D01*
X15209744Y-53414499D01*
X15209738Y-53414497D01*
X15084071Y-53389500D01*
X15084069Y-53389500D01*
X14955931Y-53389500D01*
X14955929Y-53389500D01*
X14830261Y-53414497D01*
X14830255Y-53414499D01*
X14711875Y-53463533D01*
X14711866Y-53463538D01*
X14605331Y-53534723D01*
X14605327Y-53534726D01*
X14514726Y-53625327D01*
X14514723Y-53625331D01*
X14443538Y-53731866D01*
X14443533Y-53731875D01*
X14394499Y-53850255D01*
X14394497Y-53850261D01*
X14369500Y-53975928D01*
X14369500Y-53975931D01*
X14369500Y-54104069D01*
X14369500Y-54104071D01*
X14369499Y-54104071D01*
X13462322Y-54104071D01*
X13684235Y-53882158D01*
X13834527Y-53731866D01*
X14114280Y-53452113D01*
X14167007Y-53360788D01*
X14194300Y-53258927D01*
X14194300Y-53153473D01*
X14194300Y-52124868D01*
X14213985Y-52057829D01*
X14266789Y-52012074D01*
X14268070Y-52011497D01*
X14334865Y-51982005D01*
X14414306Y-51902564D01*
X14459685Y-51799790D01*
X14462600Y-51774664D01*
X14462599Y-51301902D01*
X16559500Y-51301902D01*
X16559500Y-51538097D01*
X16596446Y-51771368D01*
X16669433Y-51995996D01*
X16740733Y-52135928D01*
X16776657Y-52206433D01*
X16915483Y-52397510D01*
X17082490Y-52564517D01*
X17273567Y-52703343D01*
X17355965Y-52745327D01*
X17484003Y-52810566D01*
X17484005Y-52810566D01*
X17484008Y-52810568D01*
X17549646Y-52831895D01*
X17708631Y-52883553D01*
X17941903Y-52920500D01*
X17941908Y-52920500D01*
X18178097Y-52920500D01*
X18411368Y-52883553D01*
X18442200Y-52873535D01*
X18635992Y-52810568D01*
X18846433Y-52703343D01*
X19037510Y-52564517D01*
X19204517Y-52397510D01*
X19343343Y-52206433D01*
X19450568Y-51995992D01*
X19523553Y-51771368D01*
X19535692Y-51694724D01*
X19560500Y-51538097D01*
X19560500Y-51301902D01*
X19523553Y-51068631D01*
X19484173Y-50947433D01*
X19450568Y-50844008D01*
X19450566Y-50844005D01*
X19450566Y-50844003D01*
X19343342Y-50633566D01*
X19335197Y-50622355D01*
X19204517Y-50442490D01*
X19037510Y-50275483D01*
X18846433Y-50136657D01*
X18635996Y-50029433D01*
X18411368Y-49956446D01*
X18178097Y-49919500D01*
X18178092Y-49919500D01*
X17941908Y-49919500D01*
X17941903Y-49919500D01*
X17708631Y-49956446D01*
X17484003Y-50029433D01*
X17273566Y-50136657D01*
X17164550Y-50215862D01*
X17082490Y-50275483D01*
X17082488Y-50275485D01*
X17082487Y-50275485D01*
X16915485Y-50442487D01*
X16915485Y-50442488D01*
X16915483Y-50442490D01*
X16862215Y-50515807D01*
X16776657Y-50633566D01*
X16669433Y-50844003D01*
X16596446Y-51068631D01*
X16559500Y-51301902D01*
X14462599Y-51301902D01*
X14462599Y-51075335D01*
X14461822Y-51068631D01*
X14459686Y-51050211D01*
X14459685Y-51050209D01*
X14459685Y-51050208D01*
X14414306Y-50947434D01*
X14334865Y-50867993D01*
X14280533Y-50844003D01*
X14232092Y-50822614D01*
X14206965Y-50819699D01*
X13380643Y-50819699D01*
X13380617Y-50819701D01*
X13355512Y-50822612D01*
X13355508Y-50822614D01*
X13252735Y-50867992D01*
X13173294Y-50947433D01*
X13127915Y-51050205D01*
X13127915Y-51050207D01*
X13125000Y-51075330D01*
X13125000Y-51774655D01*
X13125002Y-51774681D01*
X13127913Y-51799786D01*
X13127915Y-51799790D01*
X13173293Y-51902563D01*
X13173294Y-51902564D01*
X13252735Y-51982005D01*
X13319388Y-52011435D01*
X13372762Y-52056519D01*
X13393290Y-52123305D01*
X13393300Y-52124868D01*
X13393300Y-52988945D01*
X13373615Y-53055984D01*
X13356981Y-53076626D01*
X11085722Y-55347884D01*
X11085718Y-55347890D01*
X11032992Y-55439212D01*
X11032993Y-55439213D01*
X11005700Y-55541073D01*
X11005700Y-56850131D01*
X10986015Y-56917170D01*
X10933211Y-56962925D01*
X10931787Y-56963565D01*
X10865134Y-56992995D01*
X10785694Y-57072435D01*
X10740315Y-57175207D01*
X10740315Y-57175209D01*
X10737400Y-57200332D01*
X10737400Y-57899657D01*
X10737402Y-57899683D01*
X10740313Y-57924788D01*
X10740314Y-57924789D01*
X10748386Y-57943071D01*
X10757457Y-58012349D01*
X10727633Y-58075534D01*
X10668383Y-58112564D01*
X10659145Y-58114773D01*
X10610259Y-58124498D01*
X10610255Y-58124499D01*
X10491875Y-58173533D01*
X10491866Y-58173538D01*
X10385332Y-58244722D01*
X10351103Y-58278951D01*
X10316872Y-58313182D01*
X10255552Y-58346666D01*
X10229193Y-58349500D01*
X6595808Y-58349500D01*
X6528769Y-58329815D01*
X6508127Y-58313181D01*
X6414672Y-58219726D01*
X6414668Y-58219723D01*
X6308133Y-58148538D01*
X6308124Y-58148533D01*
X6189744Y-58099499D01*
X6189738Y-58099497D01*
X6064071Y-58074500D01*
X6064069Y-58074500D01*
X5935931Y-58074500D01*
X5935929Y-58074500D01*
X5810261Y-58099497D01*
X5810255Y-58099499D01*
X5691875Y-58148533D01*
X5691866Y-58148538D01*
X5585331Y-58219723D01*
X5585327Y-58219726D01*
X5494726Y-58310327D01*
X5494723Y-58310331D01*
X5423538Y-58416866D01*
X5423533Y-58416875D01*
X5374499Y-58535255D01*
X5374497Y-58535261D01*
X5349500Y-58660928D01*
X5349500Y-58660931D01*
X5349500Y-58789069D01*
X5349500Y-58789071D01*
X5349499Y-58789071D01*
X-2699500Y-58789071D01*
X-2699500Y-56064071D01*
X4349499Y-56064071D01*
X4374497Y-56189738D01*
X4374499Y-56189744D01*
X4423533Y-56308124D01*
X4423538Y-56308133D01*
X4494723Y-56414668D01*
X4494726Y-56414672D01*
X4585327Y-56505273D01*
X4585331Y-56505276D01*
X4691866Y-56576461D01*
X4691872Y-56576464D01*
X4691873Y-56576465D01*
X4810256Y-56625501D01*
X4810260Y-56625501D01*
X4810261Y-56625502D01*
X4935928Y-56650500D01*
X4935931Y-56650500D01*
X5064071Y-56650500D01*
X5148615Y-56633682D01*
X5189744Y-56625501D01*
X5308127Y-56576465D01*
X5414669Y-56505276D01*
X5505276Y-56414669D01*
X5576465Y-56308127D01*
X5625501Y-56189744D01*
X5650411Y-56064517D01*
X5650500Y-56064071D01*
X5650500Y-55935928D01*
X5625502Y-55810261D01*
X5625501Y-55810260D01*
X5625501Y-55810256D01*
X5576465Y-55691873D01*
X5576464Y-55691872D01*
X5576461Y-55691866D01*
X5505276Y-55585331D01*
X5505273Y-55585327D01*
X5414672Y-55494726D01*
X5409961Y-55490860D01*
X5410720Y-55489935D01*
X5369985Y-55441186D01*
X5361282Y-55371860D01*
X5391442Y-55308835D01*
X5414792Y-55288602D01*
X5464669Y-55255276D01*
X5555276Y-55164669D01*
X5626465Y-55058127D01*
X5675501Y-54939744D01*
X5700500Y-54814069D01*
X5700500Y-54685931D01*
X5700500Y-54685928D01*
X5675502Y-54560261D01*
X5675501Y-54560260D01*
X5675501Y-54560256D01*
X5626465Y-54441873D01*
X5626464Y-54441872D01*
X5626461Y-54441866D01*
X5555276Y-54335331D01*
X5555273Y-54335327D01*
X5464671Y-54244725D01*
X5438486Y-54227229D01*
X5402377Y-54203101D01*
X5357572Y-54149491D01*
X5348865Y-54080166D01*
X5379019Y-54017138D01*
X5402377Y-53996898D01*
X5464669Y-53955276D01*
X5555276Y-53864669D01*
X5626465Y-53758127D01*
X5675501Y-53639744D01*
X5696391Y-53534726D01*
X5700500Y-53514071D01*
X5700500Y-53385928D01*
X5675502Y-53260261D01*
X5675501Y-53260260D01*
X5675501Y-53260256D01*
X5626465Y-53141873D01*
X5626464Y-53141872D01*
X5626461Y-53141866D01*
X5555276Y-53035331D01*
X5555273Y-53035327D01*
X5464672Y-52944726D01*
X5459961Y-52940860D01*
X5460720Y-52939935D01*
X5419985Y-52891186D01*
X5411282Y-52821860D01*
X5441442Y-52758835D01*
X5464792Y-52738602D01*
X5514669Y-52705276D01*
X5605276Y-52614669D01*
X5676465Y-52508127D01*
X5725501Y-52389744D01*
X5736882Y-52332528D01*
X5750500Y-52264071D01*
X5750500Y-52135928D01*
X5725502Y-52010261D01*
X5725501Y-52010260D01*
X5725501Y-52010256D01*
X5676465Y-51891873D01*
X5676464Y-51891872D01*
X5676461Y-51891866D01*
X5605276Y-51785331D01*
X5603891Y-51783643D01*
X5603441Y-51782585D01*
X5601892Y-51780266D01*
X5602331Y-51779972D01*
X5576579Y-51719332D01*
X5588372Y-51650465D01*
X5635526Y-51598906D01*
X5699746Y-51580980D01*
X5749502Y-51580980D01*
X5834046Y-51564162D01*
X5875175Y-51555981D01*
X5993558Y-51506945D01*
X6100100Y-51435756D01*
X6190707Y-51345149D01*
X6261896Y-51238607D01*
X6310932Y-51120224D01*
X6324859Y-51050210D01*
X6335931Y-50994551D01*
X6335931Y-50866408D01*
X6310933Y-50740741D01*
X6310932Y-50740740D01*
X6310932Y-50740736D01*
X6261896Y-50622353D01*
X6261895Y-50622352D01*
X6261892Y-50622346D01*
X6190707Y-50515811D01*
X6190704Y-50515807D01*
X6100103Y-50425206D01*
X6100099Y-50425203D01*
X5993564Y-50354018D01*
X5993555Y-50354013D01*
X5875175Y-50304979D01*
X5875169Y-50304977D01*
X5749502Y-50279980D01*
X5749500Y-50279980D01*
X5621362Y-50279980D01*
X5621360Y-50279980D01*
X5495692Y-50304977D01*
X5495686Y-50304979D01*
X5377306Y-50354013D01*
X5377297Y-50354018D01*
X5270762Y-50425203D01*
X5270758Y-50425206D01*
X5180157Y-50515807D01*
X5180154Y-50515811D01*
X5108969Y-50622346D01*
X5108964Y-50622355D01*
X5059930Y-50740735D01*
X5059928Y-50740741D01*
X5034931Y-50866408D01*
X5034931Y-50866411D01*
X5034931Y-50994549D01*
X5034931Y-50994551D01*
X5034930Y-50994551D01*
X5059928Y-51120218D01*
X5059930Y-51120224D01*
X5108964Y-51238604D01*
X5108969Y-51238613D01*
X5180154Y-51345148D01*
X5181540Y-51346837D01*
X5181989Y-51347894D01*
X5183539Y-51350214D01*
X5183099Y-51350507D01*
X5208852Y-51411148D01*
X5197059Y-51480015D01*
X5149905Y-51531574D01*
X5085685Y-51549500D01*
X5035929Y-51549500D01*
X4910261Y-51574497D01*
X4910255Y-51574499D01*
X4791875Y-51623533D01*
X4791866Y-51623538D01*
X4685331Y-51694723D01*
X4685327Y-51694726D01*
X4594726Y-51785327D01*
X4594723Y-51785331D01*
X4523538Y-51891866D01*
X4523533Y-51891875D01*
X4474499Y-52010255D01*
X4474497Y-52010261D01*
X4449500Y-52135928D01*
X4449500Y-52135931D01*
X4449500Y-52264069D01*
X4449500Y-52264071D01*
X4449499Y-52264071D01*
X4474497Y-52389738D01*
X4474499Y-52389744D01*
X4523533Y-52508124D01*
X4523538Y-52508133D01*
X4594723Y-52614668D01*
X4594726Y-52614672D01*
X4685327Y-52705273D01*
X4690039Y-52709140D01*
X4689278Y-52710067D01*
X4730009Y-52758798D01*
X4738721Y-52828122D01*
X4708570Y-52891151D01*
X4685207Y-52911397D01*
X4635331Y-52944723D01*
X4635327Y-52944726D01*
X4544726Y-53035327D01*
X4544723Y-53035331D01*
X4473538Y-53141866D01*
X4473533Y-53141875D01*
X4424499Y-53260255D01*
X4424497Y-53260261D01*
X4399500Y-53385928D01*
X4399500Y-53385931D01*
X4399500Y-53514069D01*
X4399500Y-53514071D01*
X4399499Y-53514071D01*
X4424497Y-53639738D01*
X4424499Y-53639744D01*
X4473533Y-53758124D01*
X4473538Y-53758133D01*
X4544723Y-53864668D01*
X4544726Y-53864672D01*
X4635327Y-53955273D01*
X4635331Y-53955276D01*
X4697622Y-53996898D01*
X4742427Y-54050510D01*
X4751134Y-54119835D01*
X4720979Y-54182863D01*
X4697622Y-54203102D01*
X4635331Y-54244723D01*
X4635327Y-54244726D01*
X4544726Y-54335327D01*
X4544723Y-54335331D01*
X4473538Y-54441866D01*
X4473533Y-54441875D01*
X4424499Y-54560255D01*
X4424497Y-54560261D01*
X4399500Y-54685928D01*
X4399500Y-54685931D01*
X4399500Y-54814069D01*
X4399500Y-54814071D01*
X4399499Y-54814071D01*
X4424497Y-54939738D01*
X4424499Y-54939744D01*
X4473533Y-55058124D01*
X4473538Y-55058133D01*
X4544723Y-55164668D01*
X4544726Y-55164672D01*
X4635327Y-55255273D01*
X4640039Y-55259140D01*
X4639278Y-55260067D01*
X4680009Y-55308798D01*
X4688721Y-55378122D01*
X4658570Y-55441151D01*
X4635207Y-55461397D01*
X4585331Y-55494723D01*
X4585327Y-55494726D01*
X4494726Y-55585327D01*
X4494723Y-55585331D01*
X4423538Y-55691866D01*
X4423533Y-55691875D01*
X4374499Y-55810255D01*
X4374497Y-55810261D01*
X4349500Y-55935928D01*
X4349500Y-55935931D01*
X4349500Y-56064069D01*
X4349500Y-56064071D01*
X4349499Y-56064071D01*
X-2699500Y-56064071D01*
X-2699500Y-41956898D01*
X3717177Y-41956898D01*
X3717177Y-43543102D01*
X3722803Y-43589954D01*
X3727799Y-43631561D01*
X3727799Y-43631563D01*
X3727800Y-43631564D01*
X3728590Y-43633567D01*
X3783316Y-43772343D01*
X3874754Y-43892922D01*
X3995333Y-43984360D01*
X3995334Y-43984360D01*
X3995335Y-43984361D01*
X4136113Y-44039877D01*
X4224575Y-44050500D01*
X4224580Y-44050500D01*
X5810774Y-44050500D01*
X5810779Y-44050500D01*
X5899241Y-44039877D01*
X6040019Y-43984361D01*
X6160599Y-43892922D01*
X6252038Y-43772342D01*
X6307554Y-43631564D01*
X6318177Y-43543102D01*
X6318177Y-41956898D01*
X6307554Y-41868436D01*
X6252038Y-41727658D01*
X6252037Y-41727657D01*
X6252037Y-41727656D01*
X6160599Y-41607077D01*
X6040020Y-41515639D01*
X5899238Y-41460122D01*
X5853603Y-41454642D01*
X5810779Y-41449500D01*
X4224575Y-41449500D01*
X4185530Y-41454188D01*
X4136115Y-41460122D01*
X3995333Y-41515639D01*
X3874754Y-41607077D01*
X3783316Y-41727656D01*
X3727799Y-41868438D01*
X3724308Y-41897512D01*
X3717177Y-41956898D01*
X-2699500Y-41956898D01*
X-2699500Y-37881004D01*
X-2350500Y-37881004D01*
X-2350500Y-37881007D01*
X-2350500Y-38818993D01*
X-2323580Y-38954328D01*
X-2270775Y-39081811D01*
X-2194114Y-39196542D01*
X-2096542Y-39294114D01*
X-1981811Y-39370775D01*
X-1981804Y-39370777D01*
X-1981804Y-39370778D01*
X-1961411Y-39379225D01*
X-1854328Y-39423580D01*
X-1810041Y-39432389D01*
X-1718995Y-39450500D01*
X-1718993Y-39450500D01*
X-1581004Y-39450500D01*
X-1445677Y-39423581D01*
X-1445676Y-39423580D01*
X-1445672Y-39423580D01*
X-1445667Y-39423578D01*
X-1318195Y-39370778D01*
X-1318182Y-39370771D01*
X-1203458Y-39294114D01*
X-1203454Y-39294111D01*
X-1105888Y-39196545D01*
X-1105885Y-39196541D01*
X-1029228Y-39081817D01*
X-1029221Y-39081804D01*
X-976421Y-38954332D01*
X-976418Y-38954322D01*
X-949500Y-38818995D01*
X-949500Y-37881004D01*
X-949499Y-37881004D01*
X-976418Y-37745677D01*
X-976421Y-37745667D01*
X-1029221Y-37618195D01*
X-1029228Y-37618182D01*
X-1105885Y-37503458D01*
X-1105888Y-37503454D01*
X-1203454Y-37405888D01*
X-1203458Y-37405885D01*
X-1318182Y-37329228D01*
X-1318195Y-37329221D01*
X-1445667Y-37276421D01*
X-1445677Y-37276418D01*
X-1581005Y-37249500D01*
X-1581007Y-37249500D01*
X-1718993Y-37249500D01*
X-1718995Y-37249500D01*
X-1854322Y-37276418D01*
X-1854332Y-37276421D01*
X-1981804Y-37329221D01*
X-1981817Y-37329228D01*
X-2096541Y-37405885D01*
X-2096545Y-37405888D01*
X-2194111Y-37503454D01*
X-2194114Y-37503458D01*
X-2270771Y-37618182D01*
X-2270778Y-37618195D01*
X-2274185Y-37626421D01*
X-2323580Y-37745672D01*
X-2323580Y-37745676D01*
X-2323581Y-37745677D01*
X-2350500Y-37881004D01*
X-2699500Y-37881004D01*
X-2699500Y-34405135D01*
X-100500Y-34405135D01*
X-100499Y-36094864D01*
X-100497Y-36094879D01*
X-100497Y-36094882D01*
X-97586Y-36119987D01*
X-97585Y-36119988D01*
X-97585Y-36119991D01*
X-52206Y-36222765D01*
X27235Y-36302206D01*
X130009Y-36347585D01*
X155135Y-36350500D01*
X1844864Y-36350499D01*
X1844879Y-36350497D01*
X1844882Y-36350497D01*
X1869987Y-36347586D01*
X1869988Y-36347585D01*
X1869991Y-36347585D01*
X1972765Y-36302206D01*
X2052206Y-36222765D01*
X2097585Y-36119991D01*
X2100500Y-36094865D01*
X2100499Y-35163389D01*
X4899500Y-35163389D01*
X4899500Y-35336611D01*
X4926598Y-35507701D01*
X4980127Y-35672445D01*
X5058768Y-35826788D01*
X5160586Y-35966928D01*
X5283072Y-36089414D01*
X5423212Y-36191232D01*
X5577555Y-36269873D01*
X5742299Y-36323402D01*
X5913389Y-36350500D01*
X5913390Y-36350500D01*
X6086610Y-36350500D01*
X6086611Y-36350500D01*
X6126102Y-36344245D01*
X6195395Y-36353199D01*
X6248847Y-36398196D01*
X6269487Y-36464947D01*
X6269500Y-36466718D01*
X6269500Y-36574069D01*
X6269500Y-36574071D01*
X6269499Y-36574071D01*
X6294497Y-36699738D01*
X6294499Y-36699744D01*
X6343533Y-36818124D01*
X6343538Y-36818133D01*
X6414723Y-36924668D01*
X6414726Y-36924672D01*
X6505327Y-37015273D01*
X6505331Y-37015276D01*
X6611866Y-37086461D01*
X6611872Y-37086464D01*
X6611873Y-37086465D01*
X6730256Y-37135501D01*
X6730260Y-37135501D01*
X6730261Y-37135502D01*
X6855928Y-37160500D01*
X6855931Y-37160500D01*
X6984071Y-37160500D01*
X7068615Y-37143682D01*
X7109744Y-37135501D01*
X7228127Y-37086465D01*
X7334669Y-37015276D01*
X7425276Y-36924669D01*
X7496465Y-36818127D01*
X7545501Y-36699744D01*
X7570500Y-36574069D01*
X7570500Y-36445931D01*
X7570500Y-36445928D01*
X7545502Y-36320261D01*
X7545501Y-36320260D01*
X7545501Y-36320256D01*
X7496465Y-36201873D01*
X7496464Y-36201872D01*
X7496461Y-36201866D01*
X7425276Y-36095331D01*
X7425273Y-36095327D01*
X7334672Y-36004726D01*
X7334668Y-36004723D01*
X7228133Y-35933538D01*
X7228124Y-35933533D01*
X7109744Y-35884499D01*
X7109741Y-35884498D01*
X7090698Y-35880710D01*
X7028788Y-35848323D01*
X6994215Y-35787607D01*
X6997956Y-35717837D01*
X7004408Y-35702797D01*
X7019871Y-35672449D01*
X7019872Y-35672447D01*
X7019873Y-35672445D01*
X7073402Y-35507701D01*
X7100500Y-35336611D01*
X7100500Y-35163389D01*
X7073402Y-34992299D01*
X7019873Y-34827555D01*
X6941232Y-34673212D01*
X6839414Y-34533072D01*
X6716928Y-34410586D01*
X6576788Y-34308768D01*
X6422445Y-34230127D01*
X6257701Y-34176598D01*
X6257699Y-34176597D01*
X6257698Y-34176597D01*
X6126271Y-34155781D01*
X6086611Y-34149500D01*
X5913389Y-34149500D01*
X5873728Y-34155781D01*
X5742302Y-34176597D01*
X5577552Y-34230128D01*
X5423211Y-34308768D01*
X5376993Y-34342348D01*
X5283072Y-34410586D01*
X5283070Y-34410588D01*
X5283069Y-34410588D01*
X5160588Y-34533069D01*
X5160588Y-34533070D01*
X5160586Y-34533072D01*
X5148857Y-34549216D01*
X5058768Y-34673211D01*
X4980128Y-34827552D01*
X4926597Y-34992302D01*
X4910633Y-35093096D01*
X4899500Y-35163389D01*
X2100499Y-35163389D01*
X2100499Y-34405136D01*
X2098196Y-34385276D01*
X2097586Y-34380012D01*
X2097585Y-34380010D01*
X2097585Y-34380009D01*
X2052206Y-34277235D01*
X1972765Y-34197794D01*
X1936848Y-34181935D01*
X1869992Y-34152415D01*
X1844865Y-34149500D01*
X155143Y-34149500D01*
X155117Y-34149502D01*
X130012Y-34152413D01*
X130008Y-34152415D01*
X27235Y-34197793D01*
X27234Y-34197794D01*
X-23945Y-34248974D01*
X-52206Y-34277235D01*
X-97585Y-34380009D01*
X-100500Y-34405135D01*
X-2699500Y-34405135D01*
X-2699500Y-21516138D01*
X-2679815Y-21449099D01*
X-2627011Y-21403344D01*
X-2557853Y-21393400D01*
X-2494297Y-21422425D01*
G37*
%TD.AperFunction*%
%TA.AperFunction,Conductor*%
G36*
X10302667Y-39716954D02*
G01*
X10306391Y-39719348D01*
X10391866Y-39776461D01*
X10391875Y-39776466D01*
X10399598Y-39779665D01*
X10510256Y-39825501D01*
X10510260Y-39825501D01*
X10510261Y-39825502D01*
X10635928Y-39850500D01*
X10732745Y-39850500D01*
X10799784Y-39870185D01*
X10820426Y-39886819D01*
X12213181Y-41279574D01*
X12246666Y-41340897D01*
X12249500Y-41367255D01*
X12249500Y-42747242D01*
X12229815Y-42814281D01*
X12177011Y-42860036D01*
X12107853Y-42869980D01*
X12044297Y-42840955D01*
X12034930Y-42830461D01*
X12034831Y-42830561D01*
X11947265Y-42742995D01*
X11912827Y-42727789D01*
X11859451Y-42682702D01*
X11838924Y-42615916D01*
X11857763Y-42548634D01*
X11859813Y-42545463D01*
X11901460Y-42483134D01*
X11901461Y-42483133D01*
X11901465Y-42483127D01*
X11950501Y-42364744D01*
X11975500Y-42239069D01*
X11975500Y-42110931D01*
X11975500Y-42110928D01*
X11950502Y-41985261D01*
X11950501Y-41985260D01*
X11950501Y-41985256D01*
X11902113Y-41868438D01*
X11901466Y-41866875D01*
X11901461Y-41866866D01*
X11830276Y-41760331D01*
X11830273Y-41760327D01*
X11739672Y-41669726D01*
X11739668Y-41669723D01*
X11633133Y-41598538D01*
X11633124Y-41598533D01*
X11514744Y-41549499D01*
X11514738Y-41549497D01*
X11389071Y-41524500D01*
X11389069Y-41524500D01*
X11260931Y-41524500D01*
X11260929Y-41524500D01*
X11135261Y-41549497D01*
X11135255Y-41549499D01*
X11016875Y-41598533D01*
X11016866Y-41598538D01*
X10910331Y-41669723D01*
X10910327Y-41669726D01*
X10819726Y-41760327D01*
X10819723Y-41760331D01*
X10748538Y-41866866D01*
X10748533Y-41866875D01*
X10699499Y-41985255D01*
X10699497Y-41985261D01*
X10674500Y-42110928D01*
X10674500Y-42110931D01*
X10674500Y-42239069D01*
X10674500Y-42239071D01*
X10674499Y-42239071D01*
X10699497Y-42364738D01*
X10699499Y-42364744D01*
X10748533Y-42483124D01*
X10748538Y-42483133D01*
X10819723Y-42589668D01*
X10819726Y-42589672D01*
X10831411Y-42601357D01*
X10864896Y-42662680D01*
X10859912Y-42732372D01*
X10831411Y-42776719D01*
X10785694Y-42822435D01*
X10740315Y-42925207D01*
X10740315Y-42925209D01*
X10737400Y-42950332D01*
X10737400Y-43649657D01*
X10737402Y-43649683D01*
X10740313Y-43674788D01*
X10740314Y-43674792D01*
X10773484Y-43749913D01*
X10782556Y-43819191D01*
X10773485Y-43850085D01*
X10740315Y-43925208D01*
X10737400Y-43950330D01*
X10737400Y-44077416D01*
X10717715Y-44144455D01*
X10664911Y-44190210D01*
X10637603Y-44199031D01*
X10635264Y-44199496D01*
X10635257Y-44199498D01*
X10516875Y-44248533D01*
X10516866Y-44248538D01*
X10410331Y-44319723D01*
X10410327Y-44319726D01*
X10319726Y-44410327D01*
X10319723Y-44410331D01*
X10248538Y-44516866D01*
X10248533Y-44516875D01*
X10199499Y-44635255D01*
X10199497Y-44635261D01*
X10174500Y-44760928D01*
X10174500Y-44760931D01*
X10174500Y-44889069D01*
X10174500Y-44889071D01*
X10174499Y-44889071D01*
X10199497Y-45014738D01*
X10199499Y-45014744D01*
X10248533Y-45133124D01*
X10248538Y-45133133D01*
X10319723Y-45239668D01*
X10319726Y-45239672D01*
X10410327Y-45330273D01*
X10410331Y-45330276D01*
X10516866Y-45401461D01*
X10516872Y-45401464D01*
X10516873Y-45401465D01*
X10635256Y-45450501D01*
X10635260Y-45450501D01*
X10635261Y-45450502D01*
X10760928Y-45475500D01*
X10760931Y-45475500D01*
X10889071Y-45475500D01*
X10973615Y-45458682D01*
X11014744Y-45450501D01*
X11133127Y-45401465D01*
X11201494Y-45355784D01*
X11268171Y-45334906D01*
X11335552Y-45353390D01*
X11382242Y-45405369D01*
X11393418Y-45474339D01*
X11392002Y-45483078D01*
X11379500Y-45545928D01*
X11379500Y-45545931D01*
X11379500Y-45674069D01*
X11379500Y-45674071D01*
X11379499Y-45674071D01*
X11404497Y-45799738D01*
X11404499Y-45799744D01*
X11453533Y-45918124D01*
X11453538Y-45918133D01*
X11524723Y-46024668D01*
X11524726Y-46024672D01*
X11615327Y-46115273D01*
X11615331Y-46115276D01*
X11721866Y-46186461D01*
X11721872Y-46186464D01*
X11721873Y-46186465D01*
X11840256Y-46235501D01*
X11840260Y-46235501D01*
X11840261Y-46235502D01*
X11965928Y-46260500D01*
X11965931Y-46260500D01*
X12094071Y-46260500D01*
X12178615Y-46243682D01*
X12219744Y-46235501D01*
X12338127Y-46186465D01*
X12444669Y-46115276D01*
X12535276Y-46024669D01*
X12606465Y-45918127D01*
X12655501Y-45799744D01*
X12680500Y-45674069D01*
X12680500Y-45577254D01*
X12700185Y-45510215D01*
X12716814Y-45489577D01*
X12970480Y-45235913D01*
X12976492Y-45225500D01*
X13023207Y-45144587D01*
X13050500Y-45042727D01*
X13050500Y-44953715D01*
X13070185Y-44886676D01*
X13122989Y-44840921D01*
X13192147Y-44830977D01*
X13244580Y-44851417D01*
X13252729Y-44856999D01*
X13252735Y-44857005D01*
X13319388Y-44886435D01*
X13372762Y-44931519D01*
X13393290Y-44998305D01*
X13393300Y-44999868D01*
X13393300Y-46563945D01*
X13373615Y-46630984D01*
X13356981Y-46651626D01*
X11085722Y-48922884D01*
X11085718Y-48922890D01*
X11032992Y-49014212D01*
X11032993Y-49014213D01*
X11005700Y-49116073D01*
X11005700Y-49725131D01*
X10986015Y-49792170D01*
X10933211Y-49837925D01*
X10931787Y-49838565D01*
X10865134Y-49867995D01*
X10785694Y-49947435D01*
X10740315Y-50050207D01*
X10740315Y-50050209D01*
X10737400Y-50075332D01*
X10737400Y-50774657D01*
X10737402Y-50774683D01*
X10740313Y-50799788D01*
X10740314Y-50799792D01*
X10773484Y-50874913D01*
X10782556Y-50944191D01*
X10773485Y-50975085D01*
X10740315Y-51050207D01*
X10737606Y-51073556D01*
X10710325Y-51137880D01*
X10661885Y-51173824D01*
X10541876Y-51223533D01*
X10541866Y-51223538D01*
X10435331Y-51294723D01*
X10435327Y-51294726D01*
X10344726Y-51385327D01*
X10344723Y-51385331D01*
X10273538Y-51491866D01*
X10273533Y-51491875D01*
X10224499Y-51610255D01*
X10224497Y-51610261D01*
X10199500Y-51735928D01*
X10199500Y-51735931D01*
X10199500Y-51864069D01*
X10199500Y-51864071D01*
X10199499Y-51864071D01*
X10224497Y-51989738D01*
X10224499Y-51989744D01*
X10273533Y-52108124D01*
X10273538Y-52108133D01*
X10317470Y-52173882D01*
X10317473Y-52173885D01*
X10344724Y-52214669D01*
X10435331Y-52305276D01*
X10476114Y-52332526D01*
X10476116Y-52332528D01*
X10541866Y-52376461D01*
X10541872Y-52376464D01*
X10541873Y-52376465D01*
X10660256Y-52425501D01*
X10660260Y-52425501D01*
X10660261Y-52425502D01*
X10785928Y-52450500D01*
X10785931Y-52450500D01*
X10914070Y-52450500D01*
X11010189Y-52431380D01*
X11079780Y-52437607D01*
X11134958Y-52480469D01*
X11158203Y-52546359D01*
X11142136Y-52614356D01*
X11109155Y-52649783D01*
X11110039Y-52650860D01*
X11105333Y-52654721D01*
X11071104Y-52688951D01*
X11036872Y-52723182D01*
X10975552Y-52756666D01*
X10949193Y-52759500D01*
X10603726Y-52759500D01*
X10536687Y-52739815D01*
X10516045Y-52723181D01*
X9711819Y-51918955D01*
X9678334Y-51857632D01*
X9675500Y-51831274D01*
X9675500Y-39974500D01*
X9695185Y-39907461D01*
X9747989Y-39861706D01*
X9799500Y-39850500D01*
X9839071Y-39850500D01*
X9923615Y-39833682D01*
X9964744Y-39825501D01*
X10083127Y-39776465D01*
X10168609Y-39719348D01*
X10235286Y-39698470D01*
X10302667Y-39716954D01*
G37*
%TD.AperFunction*%
%TA.AperFunction,Conductor*%
G36*
X19110106Y-34342348D02*
G01*
X19154457Y-34370850D01*
X19388181Y-34604573D01*
X19421666Y-34665896D01*
X19424500Y-34692254D01*
X19424500Y-38557745D01*
X19404815Y-38624784D01*
X19388181Y-38645426D01*
X19295426Y-38738181D01*
X19234103Y-38771666D01*
X19207745Y-38774500D01*
X18463841Y-38774500D01*
X18396802Y-38754815D01*
X18351047Y-38702011D01*
X18341103Y-38632853D01*
X18349280Y-38603047D01*
X18358295Y-38581282D01*
X18375501Y-38539744D01*
X18400500Y-38414069D01*
X18400500Y-38285931D01*
X18400500Y-38285928D01*
X18375502Y-38160261D01*
X18375500Y-38160253D01*
X18354188Y-38108803D01*
X18347028Y-38042221D01*
X18346942Y-38042213D01*
X18346981Y-38041787D01*
X18346718Y-38039334D01*
X18347607Y-38034874D01*
X18347642Y-38034709D01*
X18347646Y-38034699D01*
X18350500Y-38004266D01*
X18350500Y-36495734D01*
X18347646Y-36465301D01*
X18347646Y-36465300D01*
X18347646Y-36465298D01*
X18308420Y-36353199D01*
X18302793Y-36337118D01*
X18222150Y-36227850D01*
X18200865Y-36212141D01*
X18158615Y-36156494D01*
X18150500Y-36112372D01*
X18150500Y-34604196D01*
X18170185Y-34537157D01*
X18222989Y-34491402D01*
X18292147Y-34481458D01*
X18321950Y-34489634D01*
X18360256Y-34505501D01*
X18360260Y-34505501D01*
X18360261Y-34505502D01*
X18485928Y-34530500D01*
X18485931Y-34530500D01*
X18614071Y-34530500D01*
X18698615Y-34513682D01*
X18739744Y-34505501D01*
X18858127Y-34456465D01*
X18964669Y-34385276D01*
X18979094Y-34370850D01*
X19040415Y-34337365D01*
X19110106Y-34342348D01*
G37*
%TD.AperFunction*%
%TA.AperFunction,Conductor*%
G36*
X13721232Y-17945185D02*
G01*
X13741869Y-17961814D01*
X13782081Y-18002026D01*
X13810332Y-18030277D01*
X13916866Y-18101461D01*
X13916872Y-18101464D01*
X13916873Y-18101465D01*
X14035256Y-18150501D01*
X14035260Y-18150501D01*
X14035261Y-18150502D01*
X14160928Y-18175500D01*
X14160931Y-18175500D01*
X14289071Y-18175500D01*
X14373615Y-18158682D01*
X14414744Y-18150501D01*
X14428046Y-18144990D01*
X14497514Y-18137521D01*
X14559994Y-18168794D01*
X14595648Y-18228882D01*
X14599500Y-18259551D01*
X14599500Y-20732745D01*
X14579815Y-20799784D01*
X14563181Y-20820426D01*
X14390426Y-20993181D01*
X14329103Y-21026666D01*
X14302745Y-21029500D01*
X12642273Y-21029500D01*
X12540410Y-21056793D01*
X12449087Y-21109520D01*
X12449084Y-21109522D01*
X11645425Y-21913181D01*
X11584102Y-21946666D01*
X11557744Y-21949500D01*
X11460929Y-21949500D01*
X11335261Y-21974497D01*
X11335255Y-21974499D01*
X11216875Y-22023533D01*
X11216866Y-22023538D01*
X11110331Y-22094723D01*
X11110327Y-22094726D01*
X11019726Y-22185327D01*
X11019723Y-22185331D01*
X10948538Y-22291866D01*
X10948533Y-22291875D01*
X10899499Y-22410255D01*
X10899497Y-22410261D01*
X10874500Y-22535928D01*
X10874500Y-22535931D01*
X10874500Y-22664069D01*
X10874500Y-22664071D01*
X10874499Y-22664071D01*
X10899497Y-22789738D01*
X10899500Y-22789748D01*
X10941252Y-22890547D01*
X10948721Y-22960016D01*
X10917445Y-23022495D01*
X10895582Y-23041101D01*
X10815331Y-23094723D01*
X10815327Y-23094726D01*
X10724726Y-23185327D01*
X10724723Y-23185331D01*
X10653538Y-23291866D01*
X10653533Y-23291875D01*
X10604499Y-23410255D01*
X10604497Y-23410261D01*
X10579500Y-23535928D01*
X10579500Y-23664073D01*
X10594352Y-23738740D01*
X10588125Y-23808332D01*
X10545261Y-23863509D01*
X10520192Y-23877490D01*
X10491880Y-23889218D01*
X10491866Y-23889225D01*
X10385331Y-23960410D01*
X10385327Y-23960413D01*
X10294726Y-24051014D01*
X10294723Y-24051018D01*
X10223538Y-24157553D01*
X10223533Y-24157562D01*
X10174499Y-24275942D01*
X10174497Y-24275948D01*
X10149500Y-24401615D01*
X10149500Y-24401618D01*
X10149500Y-24529756D01*
X10149500Y-24529758D01*
X10149499Y-24529758D01*
X10174497Y-24655425D01*
X10174499Y-24655431D01*
X10223533Y-24773811D01*
X10223538Y-24773820D01*
X10294723Y-24880355D01*
X10294726Y-24880359D01*
X10385327Y-24970960D01*
X10385331Y-24970963D01*
X10491866Y-25042148D01*
X10491872Y-25042151D01*
X10491873Y-25042152D01*
X10610256Y-25091188D01*
X10610260Y-25091188D01*
X10610261Y-25091189D01*
X10735928Y-25116187D01*
X10735931Y-25116187D01*
X10864071Y-25116187D01*
X10948615Y-25099369D01*
X10989744Y-25091188D01*
X11108127Y-25042152D01*
X11214669Y-24970963D01*
X11283127Y-24902504D01*
X11344448Y-24869021D01*
X11370807Y-24866187D01*
X15398432Y-24866187D01*
X15465471Y-24885872D01*
X15486113Y-24902506D01*
X16838181Y-26254574D01*
X16871666Y-26315897D01*
X16874500Y-26342255D01*
X16874500Y-26439069D01*
X16874500Y-26439071D01*
X16874499Y-26439071D01*
X16899497Y-26564738D01*
X16899499Y-26564744D01*
X16948533Y-26683124D01*
X16948538Y-26683133D01*
X17019723Y-26789668D01*
X17019726Y-26789672D01*
X17110327Y-26880273D01*
X17116415Y-26884341D01*
X17161219Y-26937954D01*
X17169926Y-27007279D01*
X17139771Y-27070306D01*
X17116414Y-27090545D01*
X17035331Y-27144723D01*
X17035327Y-27144726D01*
X16944726Y-27235327D01*
X16944723Y-27235331D01*
X16873538Y-27341866D01*
X16873533Y-27341875D01*
X16824499Y-27460255D01*
X16824497Y-27460261D01*
X16799500Y-27585928D01*
X16799500Y-27585931D01*
X16799500Y-27714069D01*
X16799500Y-27714071D01*
X16799499Y-27714071D01*
X16824497Y-27839738D01*
X16824499Y-27839744D01*
X16873533Y-27958124D01*
X16873538Y-27958133D01*
X16944723Y-28064668D01*
X16944726Y-28064672D01*
X17035327Y-28155273D01*
X17035331Y-28155276D01*
X17141866Y-28226461D01*
X17141879Y-28226468D01*
X17173158Y-28239424D01*
X17227562Y-28283264D01*
X17249627Y-28349558D01*
X17232348Y-28417258D01*
X17213388Y-28441666D01*
X17144723Y-28510331D01*
X17073538Y-28616866D01*
X17073533Y-28616875D01*
X17024499Y-28735255D01*
X17024497Y-28735261D01*
X16999500Y-28860928D01*
X16999500Y-28860931D01*
X16999500Y-28989069D01*
X16999500Y-28989071D01*
X16999499Y-28989071D01*
X17024497Y-29114738D01*
X17024499Y-29114744D01*
X17073533Y-29233124D01*
X17073538Y-29233133D01*
X17144723Y-29339668D01*
X17144726Y-29339672D01*
X17235327Y-29430273D01*
X17235331Y-29430276D01*
X17341866Y-29501461D01*
X17341872Y-29501464D01*
X17341873Y-29501465D01*
X17460256Y-29550501D01*
X17499693Y-29558345D01*
X17561601Y-29590729D01*
X17596176Y-29651444D01*
X17599500Y-29679962D01*
X17599500Y-30679192D01*
X17579815Y-30746231D01*
X17563181Y-30766873D01*
X17494726Y-30835327D01*
X17494723Y-30835331D01*
X17423538Y-30941866D01*
X17423533Y-30941876D01*
X17382870Y-31040046D01*
X17339029Y-31094449D01*
X17272735Y-31116514D01*
X17205035Y-31099235D01*
X17157425Y-31048097D01*
X17146692Y-31016785D01*
X17125502Y-30910261D01*
X17125501Y-30910260D01*
X17125501Y-30910256D01*
X17082017Y-30805276D01*
X17076466Y-30791875D01*
X17076461Y-30791866D01*
X17005276Y-30685331D01*
X17005273Y-30685327D01*
X16914672Y-30594726D01*
X16914668Y-30594723D01*
X16808133Y-30523538D01*
X16808124Y-30523533D01*
X16689744Y-30474499D01*
X16689738Y-30474497D01*
X16564071Y-30449500D01*
X16564069Y-30449500D01*
X16435931Y-30449500D01*
X16435929Y-30449500D01*
X16310261Y-30474497D01*
X16310255Y-30474499D01*
X16191875Y-30523533D01*
X16191866Y-30523538D01*
X16085331Y-30594723D01*
X16085327Y-30594726D01*
X15994726Y-30685327D01*
X15994723Y-30685331D01*
X15923538Y-30791866D01*
X15923533Y-30791875D01*
X15874499Y-30910255D01*
X15874497Y-30910261D01*
X15849500Y-31035928D01*
X15849500Y-31035931D01*
X15849500Y-31164069D01*
X15849500Y-31164071D01*
X15849499Y-31164071D01*
X15874497Y-31289738D01*
X15874499Y-31289744D01*
X15923533Y-31408124D01*
X15923538Y-31408133D01*
X15994723Y-31514668D01*
X15994726Y-31514672D01*
X16085327Y-31605273D01*
X16085331Y-31605276D01*
X16191866Y-31676461D01*
X16191875Y-31676466D01*
X16218692Y-31687574D01*
X16310256Y-31725501D01*
X16310260Y-31725501D01*
X16310261Y-31725502D01*
X16435928Y-31750500D01*
X16435931Y-31750500D01*
X16564071Y-31750500D01*
X16669630Y-31729502D01*
X16689744Y-31725501D01*
X16808127Y-31676465D01*
X16914669Y-31605276D01*
X17005276Y-31514669D01*
X17076465Y-31408127D01*
X17117131Y-31309949D01*
X17160969Y-31255551D01*
X17227263Y-31233485D01*
X17294962Y-31250764D01*
X17342573Y-31301900D01*
X17353307Y-31333213D01*
X17374497Y-31439739D01*
X17374499Y-31439744D01*
X17423533Y-31558124D01*
X17423538Y-31558133D01*
X17494723Y-31664668D01*
X17494726Y-31664672D01*
X17585327Y-31755273D01*
X17585331Y-31755276D01*
X17691866Y-31826461D01*
X17691875Y-31826466D01*
X17711665Y-31834663D01*
X17810256Y-31875501D01*
X17810260Y-31875501D01*
X17810261Y-31875502D01*
X17935928Y-31900500D01*
X17935931Y-31900500D01*
X18064071Y-31900500D01*
X18148615Y-31883682D01*
X18189744Y-31875501D01*
X18308127Y-31826465D01*
X18414669Y-31755276D01*
X18505276Y-31664669D01*
X18576465Y-31558127D01*
X18625501Y-31439744D01*
X18650500Y-31314069D01*
X18650500Y-31185931D01*
X18650500Y-31185928D01*
X18625502Y-31060261D01*
X18625501Y-31060260D01*
X18625501Y-31060256D01*
X18583758Y-30959480D01*
X18576466Y-30941875D01*
X18576461Y-30941866D01*
X18505276Y-30835331D01*
X18505273Y-30835327D01*
X18436819Y-30766873D01*
X18403334Y-30705550D01*
X18400500Y-30679192D01*
X18400500Y-29337729D01*
X18400501Y-29337716D01*
X18400501Y-29222275D01*
X18400501Y-29222273D01*
X18373207Y-29120412D01*
X18346843Y-29074750D01*
X18336689Y-29057162D01*
X18317112Y-29023252D01*
X18300500Y-28961254D01*
X18300500Y-28860928D01*
X18275502Y-28735261D01*
X18275501Y-28735260D01*
X18275501Y-28735256D01*
X18226465Y-28616873D01*
X18226464Y-28616872D01*
X18226461Y-28616866D01*
X18155276Y-28510331D01*
X18155273Y-28510327D01*
X18064672Y-28419726D01*
X18064668Y-28419723D01*
X17958133Y-28348538D01*
X17958127Y-28348535D01*
X17926839Y-28335575D01*
X17872436Y-28291733D01*
X17850372Y-28225439D01*
X17867652Y-28157740D01*
X17886608Y-28133336D01*
X17955276Y-28064669D01*
X18026465Y-27958127D01*
X18075501Y-27839744D01*
X18092996Y-27751793D01*
X18100500Y-27714071D01*
X18100500Y-27617254D01*
X18120185Y-27550215D01*
X18136819Y-27529573D01*
X18324526Y-27341866D01*
X18570480Y-27095913D01*
X18623207Y-27004588D01*
X18650500Y-26902727D01*
X18650500Y-26797273D01*
X18650500Y-26172273D01*
X18648423Y-26164523D01*
X18639149Y-26129910D01*
X18623208Y-26070413D01*
X18591730Y-26015893D01*
X18570480Y-25979087D01*
X16386600Y-23795207D01*
X16333707Y-23764669D01*
X16295276Y-23742480D01*
X16244344Y-23728833D01*
X16193414Y-23715187D01*
X16193413Y-23715187D01*
X12004500Y-23715187D01*
X11937461Y-23695502D01*
X11891706Y-23642698D01*
X11880500Y-23591187D01*
X11880500Y-23535928D01*
X11855502Y-23410261D01*
X11855501Y-23410260D01*
X11855501Y-23410256D01*
X11813747Y-23309453D01*
X11806278Y-23239983D01*
X11837553Y-23177504D01*
X11859412Y-23158901D01*
X11890656Y-23138025D01*
X11957331Y-23117149D01*
X12024711Y-23135634D01*
X12028435Y-23138027D01*
X12073631Y-23168226D01*
X12073637Y-23168229D01*
X12073638Y-23168230D01*
X12192021Y-23217266D01*
X12192025Y-23217266D01*
X12192026Y-23217267D01*
X12317693Y-23242265D01*
X12317696Y-23242265D01*
X12445836Y-23242265D01*
X12540456Y-23223443D01*
X12571509Y-23217266D01*
X12689892Y-23168230D01*
X12796434Y-23097041D01*
X12887041Y-23006434D01*
X12958230Y-22899892D01*
X13007266Y-22781509D01*
X13019085Y-22722092D01*
X13032265Y-22655836D01*
X13032265Y-22527693D01*
X13007267Y-22402026D01*
X13007266Y-22402025D01*
X13007266Y-22402021D01*
X12958230Y-22283638D01*
X12958229Y-22283637D01*
X12958226Y-22283631D01*
X12887041Y-22177096D01*
X12887038Y-22177092D01*
X12792127Y-22082181D01*
X12793090Y-22081217D01*
X12757660Y-22029202D01*
X12755789Y-21959358D01*
X12787978Y-21903414D01*
X12824575Y-21866818D01*
X12885899Y-21833333D01*
X12912255Y-21830500D01*
X14572725Y-21830500D01*
X14572727Y-21830500D01*
X14674588Y-21803207D01*
X14765913Y-21750480D01*
X15099820Y-21416571D01*
X15161140Y-21383088D01*
X15230832Y-21388072D01*
X15275180Y-21416573D01*
X18888181Y-25029574D01*
X18921666Y-25090897D01*
X18924500Y-25117255D01*
X18924500Y-33145448D01*
X18904815Y-33212487D01*
X18852011Y-33258242D01*
X18782853Y-33268186D01*
X18753050Y-33260010D01*
X18739748Y-33254500D01*
X18739738Y-33254497D01*
X18614071Y-33229500D01*
X18614069Y-33229500D01*
X18485931Y-33229500D01*
X18485929Y-33229500D01*
X18360261Y-33254497D01*
X18360255Y-33254499D01*
X18241875Y-33303533D01*
X18241866Y-33303538D01*
X18135331Y-33374723D01*
X18135327Y-33374726D01*
X18044726Y-33465327D01*
X18044723Y-33465331D01*
X17973538Y-33571866D01*
X17973533Y-33571875D01*
X17924499Y-33690255D01*
X17924497Y-33690261D01*
X17899500Y-33815928D01*
X17899500Y-33883745D01*
X17879815Y-33950784D01*
X17827011Y-33996539D01*
X17757853Y-34006483D01*
X17694297Y-33977458D01*
X17687819Y-33971426D01*
X16270915Y-32554522D01*
X16270913Y-32554520D01*
X16223417Y-32527098D01*
X16179589Y-32501793D01*
X16118937Y-32485542D01*
X16077727Y-32474500D01*
X16077726Y-32474500D01*
X15219683Y-32474500D01*
X15152644Y-32454815D01*
X15106889Y-32402011D01*
X15096945Y-32332853D01*
X15098066Y-32326309D01*
X15100499Y-32314073D01*
X15100500Y-32314071D01*
X15100500Y-32185928D01*
X15075502Y-32060261D01*
X15075501Y-32060260D01*
X15075501Y-32060256D01*
X15026465Y-31941873D01*
X15026464Y-31941872D01*
X15026461Y-31941866D01*
X14955276Y-31835331D01*
X14955273Y-31835327D01*
X14864672Y-31744726D01*
X14864668Y-31744723D01*
X14758133Y-31673538D01*
X14758124Y-31673533D01*
X14639744Y-31624499D01*
X14639738Y-31624497D01*
X14514071Y-31599500D01*
X14514069Y-31599500D01*
X14385931Y-31599500D01*
X14385929Y-31599500D01*
X14260261Y-31624497D01*
X14260255Y-31624499D01*
X14141875Y-31673533D01*
X14141866Y-31673538D01*
X14035331Y-31744723D01*
X14030621Y-31748589D01*
X14029411Y-31747115D01*
X13975858Y-31776358D01*
X13906166Y-31771374D01*
X13850233Y-31729502D01*
X13825816Y-31664038D01*
X13825500Y-31655192D01*
X13825500Y-28657327D01*
X13825500Y-28657325D01*
X13798207Y-28555465D01*
X13745480Y-28464139D01*
X13670913Y-28389572D01*
X13085861Y-27804520D01*
X13040198Y-27778156D01*
X12994537Y-27751793D01*
X12950010Y-27739862D01*
X12913700Y-27730133D01*
X12854040Y-27693769D01*
X12823511Y-27630922D01*
X12826397Y-27586134D01*
X12824313Y-27585720D01*
X12850500Y-27454073D01*
X12850500Y-27325930D01*
X12825502Y-27200263D01*
X12825501Y-27200262D01*
X12825501Y-27200258D01*
X12776465Y-27081875D01*
X12776464Y-27081874D01*
X12776461Y-27081868D01*
X12705276Y-26975333D01*
X12705273Y-26975329D01*
X12614672Y-26884728D01*
X12614668Y-26884725D01*
X12508133Y-26813540D01*
X12508124Y-26813535D01*
X12389744Y-26764501D01*
X12389738Y-26764499D01*
X12264071Y-26739502D01*
X12264069Y-26739502D01*
X12135931Y-26739502D01*
X12135929Y-26739502D01*
X12010261Y-26764499D01*
X12010255Y-26764501D01*
X11891875Y-26813535D01*
X11891866Y-26813540D01*
X11785331Y-26884725D01*
X11785327Y-26884728D01*
X11694726Y-26975329D01*
X11694723Y-26975333D01*
X11623538Y-27081868D01*
X11623533Y-27081878D01*
X11606606Y-27122744D01*
X11562764Y-27177148D01*
X11496470Y-27199212D01*
X11428771Y-27181932D01*
X11404364Y-27162972D01*
X9501723Y-25260331D01*
X7495913Y-23254520D01*
X7427437Y-23214985D01*
X7404587Y-23201792D01*
X7397082Y-23198684D01*
X7397352Y-23198030D01*
X7379928Y-23190811D01*
X7353141Y-23175346D01*
X7288900Y-23158133D01*
X7255304Y-23149131D01*
X7195644Y-23112766D01*
X7165115Y-23049919D01*
X7173410Y-22980543D01*
X7199714Y-22941678D01*
X7227321Y-22914071D01*
X8874499Y-22914071D01*
X8899497Y-23039738D01*
X8899499Y-23039744D01*
X8948533Y-23158124D01*
X8948538Y-23158133D01*
X9019723Y-23264668D01*
X9019726Y-23264672D01*
X9110327Y-23355273D01*
X9110331Y-23355276D01*
X9216866Y-23426461D01*
X9216872Y-23426464D01*
X9216873Y-23426465D01*
X9335256Y-23475501D01*
X9335260Y-23475501D01*
X9335261Y-23475502D01*
X9460928Y-23500500D01*
X9460931Y-23500500D01*
X9589071Y-23500500D01*
X9673615Y-23483682D01*
X9714744Y-23475501D01*
X9833127Y-23426465D01*
X9939669Y-23355276D01*
X10030276Y-23264669D01*
X10101465Y-23158127D01*
X10150501Y-23039744D01*
X10162467Y-22979588D01*
X10175500Y-22914071D01*
X10175500Y-22785928D01*
X10150502Y-22660261D01*
X10150501Y-22660260D01*
X10150501Y-22660256D01*
X10101465Y-22541873D01*
X10101464Y-22541872D01*
X10101461Y-22541866D01*
X10030276Y-22435331D01*
X10030273Y-22435327D01*
X9939672Y-22344726D01*
X9939668Y-22344723D01*
X9833133Y-22273538D01*
X9833124Y-22273533D01*
X9714744Y-22224499D01*
X9714738Y-22224497D01*
X9589071Y-22199500D01*
X9589069Y-22199500D01*
X9460931Y-22199500D01*
X9460929Y-22199500D01*
X9335261Y-22224497D01*
X9335255Y-22224499D01*
X9216875Y-22273533D01*
X9216866Y-22273538D01*
X9110331Y-22344723D01*
X9110327Y-22344726D01*
X9019726Y-22435327D01*
X9019723Y-22435331D01*
X8948538Y-22541866D01*
X8948533Y-22541875D01*
X8899499Y-22660255D01*
X8899497Y-22660261D01*
X8874500Y-22785928D01*
X8874500Y-22785931D01*
X8874500Y-22914069D01*
X8874500Y-22914071D01*
X8874499Y-22914071D01*
X7227321Y-22914071D01*
X7895480Y-22245913D01*
X7948207Y-22154588D01*
X7975500Y-22052727D01*
X7975500Y-21947273D01*
X7975500Y-19370807D01*
X7995185Y-19303768D01*
X8011814Y-19283130D01*
X8080276Y-19214669D01*
X8151465Y-19108127D01*
X8200501Y-18989744D01*
X8225500Y-18864069D01*
X8225500Y-18735931D01*
X8225500Y-18735928D01*
X8203174Y-18623692D01*
X8209401Y-18554100D01*
X8252264Y-18498923D01*
X8318153Y-18475678D01*
X8324791Y-18475500D01*
X12327725Y-18475500D01*
X12327727Y-18475500D01*
X12429588Y-18448207D01*
X12520913Y-18395480D01*
X12954574Y-17961819D01*
X13015897Y-17928334D01*
X13042255Y-17925500D01*
X13654193Y-17925500D01*
X13721232Y-17945185D01*
G37*
%TD.AperFunction*%
%TA.AperFunction,Conductor*%
G36*
X16642632Y-17899212D02*
G01*
X16698565Y-17941084D01*
X16722982Y-18006548D01*
X16723298Y-18015394D01*
X16723298Y-20595000D01*
X21575500Y-20595000D01*
X21642539Y-20614685D01*
X21688294Y-20667489D01*
X21699500Y-20719000D01*
X21699500Y-24265167D01*
X21679815Y-24332206D01*
X21627011Y-24377961D01*
X21557853Y-24387905D01*
X21494297Y-24358880D01*
X21487819Y-24352848D01*
X21472765Y-24337794D01*
X21369992Y-24292415D01*
X21344865Y-24289500D01*
X20255143Y-24289500D01*
X20255117Y-24289502D01*
X20230012Y-24292413D01*
X20230008Y-24292415D01*
X20127235Y-24337793D01*
X20047794Y-24417234D01*
X20002415Y-24520006D01*
X20002415Y-24520008D01*
X19999500Y-24545131D01*
X19999500Y-25634856D01*
X19999502Y-25634882D01*
X20002413Y-25659987D01*
X20002415Y-25659991D01*
X20047793Y-25762764D01*
X20088840Y-25803811D01*
X20122325Y-25865134D01*
X20117341Y-25934826D01*
X20104262Y-25960381D01*
X20090611Y-25980811D01*
X20090602Y-25980827D01*
X20030264Y-26126498D01*
X20030261Y-26126510D01*
X19999500Y-26281153D01*
X19999500Y-26438846D01*
X20030261Y-26593489D01*
X20030264Y-26593501D01*
X20090602Y-26739172D01*
X20090609Y-26739185D01*
X20178210Y-26870288D01*
X20178213Y-26870292D01*
X20215240Y-26907319D01*
X20248725Y-26968642D01*
X20243741Y-27038334D01*
X20215240Y-27082681D01*
X20178213Y-27119707D01*
X20178210Y-27119711D01*
X20090609Y-27250814D01*
X20090602Y-27250827D01*
X20030264Y-27396498D01*
X20030261Y-27396510D01*
X19999500Y-27551153D01*
X19999500Y-27708846D01*
X20030261Y-27863489D01*
X20030264Y-27863501D01*
X20090602Y-28009172D01*
X20090609Y-28009185D01*
X20178210Y-28140288D01*
X20178213Y-28140292D01*
X20215240Y-28177319D01*
X20248725Y-28238642D01*
X20243741Y-28308334D01*
X20215240Y-28352681D01*
X20178213Y-28389707D01*
X20178210Y-28389711D01*
X20090609Y-28520814D01*
X20090602Y-28520827D01*
X20030264Y-28666498D01*
X20030261Y-28666510D01*
X19999500Y-28821153D01*
X19999500Y-28978846D01*
X20030261Y-29133489D01*
X20030264Y-29133501D01*
X20090602Y-29279172D01*
X20090609Y-29279185D01*
X20178210Y-29410288D01*
X20178213Y-29410292D01*
X20215240Y-29447319D01*
X20248725Y-29508642D01*
X20243741Y-29578334D01*
X20215240Y-29622681D01*
X20178213Y-29659707D01*
X20178210Y-29659711D01*
X20090609Y-29790814D01*
X20090602Y-29790827D01*
X20030264Y-29936498D01*
X20030261Y-29936510D01*
X19999500Y-30091153D01*
X19999500Y-30248846D01*
X20030261Y-30403489D01*
X20030264Y-30403501D01*
X20090602Y-30549172D01*
X20090609Y-30549185D01*
X20178210Y-30680288D01*
X20178213Y-30680292D01*
X20289707Y-30791786D01*
X20289711Y-30791789D01*
X20420814Y-30879390D01*
X20420827Y-30879397D01*
X20557307Y-30935928D01*
X20566503Y-30939737D01*
X20703884Y-30967064D01*
X20721153Y-30970499D01*
X20721156Y-30970500D01*
X20721158Y-30970500D01*
X20878844Y-30970500D01*
X20878845Y-30970499D01*
X21033497Y-30939737D01*
X21179179Y-30879394D01*
X21310289Y-30791789D01*
X21421789Y-30680289D01*
X21468135Y-30610928D01*
X21472398Y-30604548D01*
X21526010Y-30559743D01*
X21595335Y-30551036D01*
X21658363Y-30581190D01*
X21695082Y-30640634D01*
X21699500Y-30673439D01*
X21699500Y-32264293D01*
X21679815Y-32331332D01*
X21627011Y-32377087D01*
X21557853Y-32387031D01*
X21500660Y-32360911D01*
X21499681Y-32362203D01*
X21372343Y-32265639D01*
X21231561Y-32210122D01*
X21185926Y-32204642D01*
X21143102Y-32199500D01*
X20556898Y-32199500D01*
X20517853Y-32204188D01*
X20468438Y-32210122D01*
X20327656Y-32265639D01*
X20207077Y-32357077D01*
X20115639Y-32477656D01*
X20060122Y-32618438D01*
X20055092Y-32660331D01*
X20049500Y-32706898D01*
X20049500Y-32706903D01*
X20049500Y-33833745D01*
X20029815Y-33900784D01*
X19977011Y-33946539D01*
X19907853Y-33956483D01*
X19844297Y-33927458D01*
X19837819Y-33921426D01*
X19761819Y-33845426D01*
X19728334Y-33784103D01*
X19725500Y-33757745D01*
X19725500Y-24847276D01*
X19725500Y-24847273D01*
X19711301Y-24794281D01*
X19704924Y-24770479D01*
X19704924Y-24770478D01*
X19698207Y-24745413D01*
X19698207Y-24745412D01*
X19681771Y-24716945D01*
X19645480Y-24654087D01*
X15936819Y-20945426D01*
X15903334Y-20884103D01*
X15900500Y-20857745D01*
X15900500Y-18590192D01*
X15920185Y-18523153D01*
X15936819Y-18502511D01*
X16511617Y-17927713D01*
X16572940Y-17894228D01*
X16642632Y-17899212D01*
G37*
%TD.AperFunction*%
%TA.AperFunction,Conductor*%
G36*
X903344Y-27521728D02*
G01*
X912179Y-27525231D01*
X917509Y-27527585D01*
X942635Y-27530500D01*
X2132364Y-27530499D01*
X2132379Y-27530497D01*
X2132382Y-27530497D01*
X2157487Y-27527586D01*
X2166489Y-27525137D01*
X2167400Y-27528486D01*
X2219684Y-27521637D01*
X2282871Y-27551456D01*
X2319906Y-27610703D01*
X2324500Y-27644144D01*
X2324500Y-30967064D01*
X2304815Y-31034103D01*
X2252011Y-31079858D01*
X2182853Y-31089802D01*
X2119297Y-31060777D01*
X2097398Y-31035955D01*
X2080276Y-31010331D01*
X2080273Y-31010327D01*
X1989672Y-30919726D01*
X1989668Y-30919723D01*
X1883133Y-30848538D01*
X1883124Y-30848533D01*
X1764744Y-30799499D01*
X1764738Y-30799497D01*
X1675308Y-30781708D01*
X1613397Y-30749323D01*
X1578823Y-30688607D01*
X1575500Y-30660091D01*
X1575500Y-30610928D01*
X1550502Y-30485261D01*
X1550501Y-30485260D01*
X1550501Y-30485256D01*
X1501465Y-30366873D01*
X1501464Y-30366872D01*
X1501461Y-30366866D01*
X1430276Y-30260331D01*
X1430273Y-30260327D01*
X1339672Y-30169726D01*
X1339668Y-30169723D01*
X1233133Y-30098538D01*
X1233124Y-30098533D01*
X1114744Y-30049499D01*
X1114738Y-30049497D01*
X989071Y-30024500D01*
X989069Y-30024500D01*
X860931Y-30024500D01*
X860929Y-30024500D01*
X735261Y-30049497D01*
X735255Y-30049499D01*
X616875Y-30098533D01*
X616866Y-30098538D01*
X510332Y-30169722D01*
X478044Y-30202011D01*
X441872Y-30238182D01*
X380552Y-30271666D01*
X354193Y-30274500D01*
X90723Y-30274500D01*
X23684Y-30254815D01*
X-22071Y-30202011D01*
X-32015Y-30132853D01*
X-6224Y-30073188D01*
X65760Y-29982923D01*
X128384Y-29852882D01*
X160502Y-29712165D01*
X160501Y-29639998D01*
X160501Y-29615689D01*
X160501Y-29492727D01*
X160502Y-29447835D01*
X160384Y-29447319D01*
X128385Y-29307118D01*
X65762Y-29177080D01*
X31006Y-29133497D01*
X-24231Y-29064232D01*
X-24232Y-29064230D01*
X-28573Y-29058788D01*
X-26534Y-29057162D01*
X-54276Y-29006316D01*
X-49268Y-28936626D01*
X-27197Y-28902310D01*
X-28574Y-28901213D01*
X-24233Y-28895770D01*
X-24232Y-28895769D01*
X65760Y-28782923D01*
X128384Y-28652882D01*
X160502Y-28512165D01*
X160501Y-28439998D01*
X160501Y-28414142D01*
X160501Y-28295768D01*
X160501Y-28252969D01*
X180186Y-28185934D01*
X232990Y-28140179D01*
X260304Y-28131356D01*
X289744Y-28125501D01*
X408127Y-28076465D01*
X514669Y-28005276D01*
X605276Y-27914669D01*
X676465Y-27808127D01*
X725501Y-27689744D01*
X740474Y-27614473D01*
X772859Y-27552562D01*
X833575Y-27517988D01*
X903344Y-27521728D01*
G37*
%TD.AperFunction*%
%TA.AperFunction,Conductor*%
G36*
X3419654Y-22793713D02*
G01*
X3473532Y-22838198D01*
X3494807Y-22904750D01*
X3494842Y-22907702D01*
X3494842Y-23058850D01*
X3475157Y-23125889D01*
X3458523Y-23146531D01*
X3390068Y-23214985D01*
X3390065Y-23214989D01*
X3318880Y-23321524D01*
X3318875Y-23321533D01*
X3269841Y-23439913D01*
X3269839Y-23439919D01*
X3244842Y-23565586D01*
X3244842Y-23565589D01*
X3244842Y-23693727D01*
X3244842Y-23693729D01*
X3244841Y-23693729D01*
X3269839Y-23819396D01*
X3269841Y-23819402D01*
X3318875Y-23937782D01*
X3318880Y-23937791D01*
X3390065Y-24044326D01*
X3390068Y-24044330D01*
X3484980Y-24139242D01*
X3484014Y-24140207D01*
X3519443Y-24192212D01*
X3521317Y-24262057D01*
X3489127Y-24318007D01*
X3148190Y-24658944D01*
X3086867Y-24692429D01*
X3017175Y-24687445D01*
X2961242Y-24645573D01*
X2936825Y-24580109D01*
X2940734Y-24539173D01*
X2950500Y-24502727D01*
X2950500Y-24397273D01*
X2950500Y-23342255D01*
X2970185Y-23275216D01*
X2986819Y-23254574D01*
X3073167Y-23168226D01*
X3170480Y-23070913D01*
X3223207Y-22979588D01*
X3250500Y-22877727D01*
X3250500Y-22877725D01*
X3251067Y-22875609D01*
X3287432Y-22815949D01*
X3350278Y-22785419D01*
X3419654Y-22793713D01*
G37*
%TD.AperFunction*%
%TA.AperFunction,Conductor*%
G36*
X5093834Y-20450073D02*
G01*
X5149767Y-20491945D01*
X5174184Y-20557409D01*
X5174500Y-20566255D01*
X5174500Y-20664069D01*
X5174500Y-20664071D01*
X5174499Y-20664071D01*
X5199497Y-20789738D01*
X5199499Y-20789744D01*
X5248533Y-20908124D01*
X5248538Y-20908133D01*
X5319723Y-21014668D01*
X5319726Y-21014672D01*
X5410327Y-21105273D01*
X5410331Y-21105276D01*
X5516866Y-21176461D01*
X5516873Y-21176465D01*
X5554476Y-21192040D01*
X5608878Y-21235879D01*
X5630944Y-21302173D01*
X5626800Y-21338687D01*
X5624500Y-21347270D01*
X5624500Y-22131274D01*
X5604815Y-22198313D01*
X5588181Y-22218955D01*
X4583692Y-23223443D01*
X4522369Y-23256928D01*
X4452677Y-23251944D01*
X4405777Y-23218444D01*
X4404926Y-23219296D01*
X4332161Y-23146531D01*
X4298676Y-23085208D01*
X4295842Y-23058850D01*
X4295842Y-22318176D01*
X4315527Y-22251137D01*
X4332161Y-22230495D01*
X4402602Y-22160053D01*
X4402605Y-22160050D01*
X4473794Y-22053508D01*
X4522830Y-21935125D01*
X4535700Y-21870426D01*
X4547829Y-21809452D01*
X4547829Y-21681309D01*
X4522831Y-21555642D01*
X4522830Y-21555641D01*
X4522830Y-21555637D01*
X4473794Y-21437254D01*
X4473793Y-21437253D01*
X4473790Y-21437247D01*
X4402605Y-21330712D01*
X4402602Y-21330708D01*
X4312001Y-21240107D01*
X4311997Y-21240104D01*
X4205462Y-21168919D01*
X4205453Y-21168914D01*
X4087073Y-21119880D01*
X4087067Y-21119878D01*
X3961400Y-21094881D01*
X3961398Y-21094881D01*
X3833260Y-21094881D01*
X3833258Y-21094881D01*
X3707590Y-21119878D01*
X3707589Y-21119879D01*
X3707588Y-21119879D01*
X3707585Y-21119880D01*
X3671951Y-21134640D01*
X3602482Y-21142108D01*
X3540003Y-21110832D01*
X3504351Y-21050743D01*
X3500500Y-21020078D01*
X3500500Y-21010928D01*
X3475502Y-20885261D01*
X3475501Y-20885260D01*
X3475501Y-20885256D01*
X3430639Y-20776952D01*
X3423171Y-20707484D01*
X3454446Y-20645004D01*
X3514535Y-20609352D01*
X3545201Y-20605500D01*
X4722725Y-20605500D01*
X4722727Y-20605500D01*
X4824588Y-20578207D01*
X4915913Y-20525480D01*
X4962819Y-20478574D01*
X5024142Y-20445089D01*
X5093834Y-20450073D01*
G37*
%TD.AperFunction*%
%TA.AperFunction,Conductor*%
G36*
X-100215Y-19145185D02*
G01*
X-79573Y-19161818D01*
X234087Y-19475480D01*
X325412Y-19528207D01*
X325413Y-19528207D01*
X329017Y-19530288D01*
X377232Y-19580856D01*
X390454Y-19649463D01*
X364486Y-19714327D01*
X354698Y-19725356D01*
X294723Y-19785331D01*
X223538Y-19891866D01*
X223533Y-19891875D01*
X174499Y-20010255D01*
X174497Y-20010261D01*
X149500Y-20135928D01*
X149500Y-20135931D01*
X149500Y-20264069D01*
X149500Y-20264071D01*
X149499Y-20264071D01*
X174497Y-20389738D01*
X174499Y-20389744D01*
X223533Y-20508124D01*
X223538Y-20508133D01*
X294723Y-20614668D01*
X294726Y-20614672D01*
X385327Y-20705273D01*
X385331Y-20705276D01*
X491866Y-20776461D01*
X491872Y-20776464D01*
X491873Y-20776465D01*
X610256Y-20825501D01*
X610260Y-20825501D01*
X610261Y-20825502D01*
X735928Y-20850500D01*
X741991Y-20851097D01*
X741758Y-20853463D01*
X798706Y-20870185D01*
X807320Y-20877127D01*
X814734Y-20882205D01*
X814735Y-20882206D01*
X917509Y-20927585D01*
X942635Y-20930500D01*
X2075500Y-20930499D01*
X2142539Y-20950184D01*
X2188294Y-21002987D01*
X2199500Y-21054499D01*
X2199500Y-21139069D01*
X2199500Y-21139071D01*
X2199499Y-21139071D01*
X2224497Y-21264738D01*
X2224499Y-21264744D01*
X2273533Y-21383124D01*
X2273538Y-21383133D01*
X2344723Y-21489668D01*
X2344726Y-21489672D01*
X2368846Y-21513792D01*
X2402331Y-21575115D01*
X2397347Y-21644807D01*
X2355475Y-21700740D01*
X2290011Y-21725157D01*
X2231079Y-21714907D01*
X2198993Y-21700740D01*
X2157492Y-21682415D01*
X2132365Y-21679500D01*
X942643Y-21679500D01*
X942617Y-21679502D01*
X917512Y-21682413D01*
X917508Y-21682415D01*
X814734Y-21727793D01*
X773289Y-21769238D01*
X733064Y-21796116D01*
X666875Y-21823534D01*
X666873Y-21823535D01*
X656451Y-21830499D01*
X560328Y-21894725D01*
X469726Y-21985327D01*
X469723Y-21985331D01*
X398538Y-22091866D01*
X398533Y-22091875D01*
X349499Y-22210255D01*
X349497Y-22210261D01*
X324500Y-22335928D01*
X324500Y-22335931D01*
X324500Y-22464069D01*
X324500Y-22464071D01*
X324499Y-22464071D01*
X347773Y-22581071D01*
X341546Y-22650663D01*
X298683Y-22705840D01*
X265852Y-22722092D01*
X265884Y-22722168D01*
X264763Y-22722632D01*
X262160Y-22723921D01*
X260260Y-22724497D01*
X141875Y-22773533D01*
X141866Y-22773538D01*
X35331Y-22844723D01*
X35327Y-22844726D01*
X-55273Y-22935327D01*
X-55276Y-22935331D01*
X-126461Y-23041866D01*
X-126463Y-23041870D01*
X-126465Y-23041873D01*
X-126466Y-23041876D01*
X-160939Y-23125100D01*
X-204780Y-23179503D01*
X-271074Y-23201568D01*
X-338774Y-23184289D01*
X-386384Y-23133151D01*
X-399500Y-23077647D01*
X-399500Y-19248974D01*
X-379815Y-19181935D01*
X-327011Y-19136180D01*
X-270161Y-19126707D01*
X-270161Y-19125500D01*
X-167254Y-19125500D01*
X-100215Y-19145185D01*
G37*
%TD.AperFunction*%
%TA.AperFunction,Conductor*%
G36*
X19003472Y2699305D02*
G01*
X19295296Y2682916D01*
X19309114Y2681359D01*
X19593827Y2632984D01*
X19607384Y2629890D01*
X19884899Y2549939D01*
X19898024Y2545346D01*
X20164834Y2434830D01*
X20177362Y2428797D01*
X20430124Y2289100D01*
X20441898Y2281702D01*
X20677435Y2114580D01*
X20688307Y2105909D01*
X20903641Y1913473D01*
X20913473Y1903641D01*
X21105909Y1688307D01*
X21114580Y1677435D01*
X21281702Y1441898D01*
X21289100Y1430124D01*
X21428797Y1177362D01*
X21434830Y1164834D01*
X21545346Y898024D01*
X21549939Y884899D01*
X21629890Y607384D01*
X21632984Y593827D01*
X21681359Y309114D01*
X21682916Y295296D01*
X21699305Y3473D01*
X21699500Y-3480D01*
X21699500Y-9676000D01*
X21679815Y-9743039D01*
X21627011Y-9788794D01*
X21575500Y-9800000D01*
X16974500Y-9800000D01*
X16907461Y-9780315D01*
X16861706Y-9727511D01*
X16850500Y-9676000D01*
X16850500Y-8661891D01*
X16870185Y-8594852D01*
X16922989Y-8549097D01*
X16992147Y-8539153D01*
X17055703Y-8568178D01*
X17092431Y-8623574D01*
X17143786Y-8781633D01*
X17143788Y-8781639D01*
X17226006Y-8942997D01*
X17332441Y-9089494D01*
X17332445Y-9089499D01*
X17460500Y-9217554D01*
X17460505Y-9217558D01*
X17588287Y-9310396D01*
X17607006Y-9323996D01*
X17686978Y-9364744D01*
X17768360Y-9406211D01*
X17768363Y-9406212D01*
X17828555Y-9425769D01*
X17940591Y-9462171D01*
X18023429Y-9475291D01*
X18119449Y-9490500D01*
X18119454Y-9490500D01*
X18300551Y-9490500D01*
X18387259Y-9476765D01*
X18479409Y-9462171D01*
X18651639Y-9406211D01*
X18812994Y-9323996D01*
X18959501Y-9217553D01*
X19087553Y-9089501D01*
X19193996Y-8942994D01*
X19276211Y-8781639D01*
X19332171Y-8609409D01*
X19347730Y-8511174D01*
X19360500Y-8430551D01*
X19360500Y-8249448D01*
X19341085Y-8126871D01*
X19332171Y-8070591D01*
X19276211Y-7898361D01*
X19276211Y-7898360D01*
X19229748Y-7807173D01*
X19193996Y-7737006D01*
X19179568Y-7717147D01*
X19087558Y-7590505D01*
X19087554Y-7590500D01*
X18959499Y-7462445D01*
X18959494Y-7462441D01*
X18812997Y-7356006D01*
X18812996Y-7356005D01*
X18812994Y-7356004D01*
X18761300Y-7329664D01*
X18651639Y-7273788D01*
X18651636Y-7273787D01*
X18479410Y-7217829D01*
X18347728Y-7196972D01*
X18284594Y-7167042D01*
X18247663Y-7107731D01*
X18248661Y-7037868D01*
X18287271Y-6979636D01*
X18351235Y-6951522D01*
X18367120Y-6950499D01*
X19104864Y-6950499D01*
X19104879Y-6950497D01*
X19104882Y-6950497D01*
X19129987Y-6947586D01*
X19129988Y-6947585D01*
X19129991Y-6947585D01*
X19232765Y-6902206D01*
X19312206Y-6822765D01*
X19357585Y-6719991D01*
X19360500Y-6694865D01*
X19360499Y-4905136D01*
X19360497Y-4905117D01*
X19357586Y-4880012D01*
X19357585Y-4880010D01*
X19357585Y-4880009D01*
X19312206Y-4777235D01*
X19232765Y-4697794D01*
X19207252Y-4686529D01*
X19129992Y-4652415D01*
X19104865Y-4649500D01*
X17315143Y-4649500D01*
X17315117Y-4649502D01*
X17290012Y-4652413D01*
X17290008Y-4652415D01*
X17187235Y-4697793D01*
X17107794Y-4777234D01*
X17087934Y-4822213D01*
X17042847Y-4875589D01*
X16976061Y-4896116D01*
X16908779Y-4877277D01*
X16862363Y-4825053D01*
X16850500Y-4772126D01*
X16850500Y-2847275D01*
X16850500Y-2847273D01*
X16823207Y-2745413D01*
X16823207Y-2745412D01*
X16770480Y-2654087D01*
X14045913Y70480D01*
X13954588Y123207D01*
X13852727Y150500D01*
X13852725Y150500D01*
X13738841Y150500D01*
X13671802Y170185D01*
X13626047Y222989D01*
X13616103Y292147D01*
X13624280Y321953D01*
X13626130Y326419D01*
X13650501Y385256D01*
X13672858Y497648D01*
X13675500Y510928D01*
X13675500Y639071D01*
X13650502Y764738D01*
X13650501Y764744D01*
X13601465Y883127D01*
X13530276Y989669D01*
X13439669Y1080276D01*
X13333127Y1151465D01*
X13214744Y1200501D01*
X13161833Y1211026D01*
X13089071Y1225500D01*
X13089069Y1225500D01*
X12960931Y1225500D01*
X12960929Y1225500D01*
X12835260Y1200502D01*
X12835258Y1200501D01*
X12835256Y1200501D01*
X12835254Y1200500D01*
X12833994Y1200118D01*
X12833296Y1200111D01*
X12829281Y1199313D01*
X12829129Y1200073D01*
X12764128Y1199484D01*
X12710301Y1231092D01*
X12141345Y1800048D01*
X11570913Y2370480D01*
X11479588Y2423207D01*
X11377727Y2450500D01*
X11377725Y2450500D01*
X8911810Y2450500D01*
X8911794Y2450501D01*
X8904198Y2450501D01*
X8798744Y2450501D01*
X8696884Y2423207D01*
X8605558Y2370480D01*
X8530991Y2295913D01*
X8526660Y2291582D01*
X8526650Y2291571D01*
X7985720Y1750642D01*
X7932993Y1659317D01*
X7920914Y1614237D01*
X7920914Y1614236D01*
X7920913Y1614236D01*
X7905700Y1557457D01*
X7905700Y1199868D01*
X7886015Y1132829D01*
X7833211Y1087074D01*
X7831929Y1086497D01*
X7765135Y1057005D01*
X7765133Y1057003D01*
X7685694Y977564D01*
X7640315Y874792D01*
X7640315Y874790D01*
X7637400Y849667D01*
X7637400Y150342D01*
X7637402Y150316D01*
X7640313Y125211D01*
X7640315Y125207D01*
X7685693Y22434D01*
X7685694Y22433D01*
X7727320Y-19192D01*
X7765135Y-57007D01*
X7867909Y-102386D01*
X7893035Y-105301D01*
X8719364Y-105300D01*
X8719379Y-105298D01*
X8719382Y-105298D01*
X8744487Y-102387D01*
X8744488Y-102386D01*
X8744491Y-102386D01*
X8847265Y-57007D01*
X8926706Y22434D01*
X8971201Y123206D01*
X8972084Y125205D01*
X8972085Y125208D01*
X8975000Y150334D01*
X8974999Y849663D01*
X8972086Y874785D01*
X8972086Y874786D01*
X8972085Y874787D01*
X8972085Y874790D01*
X8926706Y977564D01*
X8847265Y1057005D01*
X8780611Y1086435D01*
X8727238Y1131519D01*
X8706710Y1198305D01*
X8706700Y1199868D01*
X8706700Y1287474D01*
X8726385Y1354513D01*
X8743019Y1375155D01*
X8981044Y1613181D01*
X9042367Y1646666D01*
X9068725Y1649500D01*
X9976026Y1649500D01*
X10043065Y1629815D01*
X10088820Y1577011D01*
X10098293Y1520161D01*
X10099500Y1520161D01*
X10099500Y1385928D01*
X10099499Y1385928D01*
X10124497Y1260261D01*
X10124500Y1260251D01*
X10160593Y1173116D01*
X10168062Y1103647D01*
X10136787Y1041168D01*
X10133713Y1037983D01*
X10073294Y977564D01*
X10027915Y874792D01*
X10027915Y874790D01*
X10025000Y849667D01*
X10025000Y150342D01*
X10025002Y150316D01*
X10027913Y125212D01*
X10028799Y123206D01*
X10061085Y50084D01*
X10070156Y-19192D01*
X10061084Y-50086D01*
X10027916Y-125203D01*
X10027915Y-125207D01*
X10025000Y-150330D01*
X10025000Y-849655D01*
X10025002Y-849681D01*
X10027913Y-874786D01*
X10027915Y-874790D01*
X10073293Y-977563D01*
X10073294Y-977564D01*
X10152735Y-1057005D01*
X10255509Y-1102384D01*
X10280635Y-1105299D01*
X11106964Y-1105298D01*
X11115080Y-1104356D01*
X11141218Y-1101326D01*
X11155503Y-1100500D01*
X13507745Y-1100500D01*
X13574784Y-1120185D01*
X13595426Y-1136819D01*
X15663181Y-3204574D01*
X15696666Y-3265897D01*
X15699500Y-3292255D01*
X15699500Y-5835290D01*
X15679815Y-5902329D01*
X15627011Y-5948084D01*
X15557853Y-5958028D01*
X15551308Y-5956907D01*
X15514071Y-5949500D01*
X15514069Y-5949500D01*
X15385931Y-5949500D01*
X15385929Y-5949500D01*
X15260261Y-5974497D01*
X15260255Y-5974499D01*
X15141875Y-6023533D01*
X15141866Y-6023538D01*
X15035331Y-6094723D01*
X15035327Y-6094726D01*
X14944726Y-6185327D01*
X14944723Y-6185331D01*
X14873538Y-6291866D01*
X14873533Y-6291875D01*
X14824499Y-6410255D01*
X14824497Y-6410261D01*
X14799500Y-6535928D01*
X14799500Y-6632744D01*
X14779815Y-6699783D01*
X14763181Y-6720425D01*
X14512181Y-6971425D01*
X14450858Y-7004910D01*
X14381166Y-6999926D01*
X14325233Y-6958054D01*
X14300816Y-6892590D01*
X14300500Y-6883744D01*
X14300500Y-6860928D01*
X14275502Y-6735261D01*
X14275501Y-6735260D01*
X14275501Y-6735256D01*
X14226465Y-6616873D01*
X14226464Y-6616872D01*
X14226461Y-6616866D01*
X14155276Y-6510331D01*
X14155273Y-6510327D01*
X14086819Y-6441873D01*
X14053334Y-6380550D01*
X14050500Y-6354192D01*
X14050500Y-5322275D01*
X14050500Y-5322273D01*
X14023207Y-5220413D01*
X13970480Y-5129087D01*
X13895913Y-5054520D01*
X12536819Y-3695426D01*
X12503334Y-3634103D01*
X12500500Y-3607745D01*
X12500500Y-3510929D01*
X12488968Y-3452958D01*
X12495195Y-3383366D01*
X12538057Y-3328188D01*
X12603947Y-3304943D01*
X12610585Y-3304765D01*
X13274928Y-3304765D01*
X13341967Y-3324450D01*
X13362604Y-3341079D01*
X13397025Y-3375500D01*
X13431067Y-3409542D01*
X13537601Y-3480726D01*
X13537607Y-3480729D01*
X13537608Y-3480730D01*
X13655991Y-3529766D01*
X13655995Y-3529766D01*
X13655996Y-3529767D01*
X13781663Y-3554765D01*
X13781666Y-3554765D01*
X13909806Y-3554765D01*
X13994350Y-3537947D01*
X14035479Y-3529766D01*
X14153862Y-3480730D01*
X14260404Y-3409541D01*
X14351011Y-3318934D01*
X14422200Y-3212392D01*
X14471236Y-3094009D01*
X14496235Y-2968334D01*
X14496235Y-2840196D01*
X14496235Y-2840193D01*
X14471237Y-2714526D01*
X14471236Y-2714525D01*
X14471236Y-2714521D01*
X14422200Y-2596138D01*
X14422199Y-2596137D01*
X14422196Y-2596131D01*
X14351011Y-2489596D01*
X14351008Y-2489592D01*
X14260407Y-2398991D01*
X14260403Y-2398988D01*
X14153868Y-2327803D01*
X14153859Y-2327798D01*
X14035479Y-2278764D01*
X14035473Y-2278762D01*
X13909806Y-2253765D01*
X13909804Y-2253765D01*
X13781666Y-2253765D01*
X13781664Y-2253765D01*
X13655996Y-2278762D01*
X13655990Y-2278764D01*
X13537610Y-2327798D01*
X13537601Y-2327803D01*
X13431067Y-2398987D01*
X13396838Y-2433216D01*
X13362607Y-2467447D01*
X13301287Y-2500931D01*
X13274928Y-2503765D01*
X11619479Y-2503765D01*
X11517618Y-2531058D01*
X11517615Y-2531059D01*
X11471956Y-2557420D01*
X11471956Y-2557421D01*
X11426293Y-2583785D01*
X11426290Y-2583787D01*
X10904522Y-3105555D01*
X10904520Y-3105558D01*
X10851792Y-3196884D01*
X10830200Y-3277470D01*
X10824500Y-3298741D01*
X10824500Y-3307744D01*
X10804815Y-3374783D01*
X10788181Y-3395425D01*
X10620425Y-3563181D01*
X10559102Y-3596666D01*
X10532744Y-3599500D01*
X10435929Y-3599500D01*
X10310261Y-3624497D01*
X10310256Y-3624499D01*
X10234199Y-3656002D01*
X10164730Y-3663470D01*
X10102251Y-3632194D01*
X10099067Y-3629121D01*
X10064672Y-3594726D01*
X10064668Y-3594723D01*
X9958133Y-3523538D01*
X9958124Y-3523533D01*
X9834116Y-3472168D01*
X9835021Y-3469981D01*
X9785350Y-3437415D01*
X9756906Y-3373597D01*
X9758182Y-3332880D01*
X9763914Y-3304069D01*
X9763914Y-3175931D01*
X9763914Y-3175928D01*
X9738916Y-3050261D01*
X9738915Y-3050260D01*
X9738915Y-3050256D01*
X9689879Y-2931873D01*
X9689878Y-2931872D01*
X9689875Y-2931866D01*
X9618690Y-2825331D01*
X9618687Y-2825327D01*
X9528086Y-2734726D01*
X9528082Y-2734723D01*
X9421547Y-2663538D01*
X9421538Y-2663533D01*
X9303158Y-2614499D01*
X9303152Y-2614497D01*
X9177485Y-2589500D01*
X9177483Y-2589500D01*
X9049345Y-2589500D01*
X9049343Y-2589500D01*
X8923675Y-2614497D01*
X8923669Y-2614499D01*
X8805289Y-2663533D01*
X8805280Y-2663538D01*
X8698745Y-2734723D01*
X8698741Y-2734726D01*
X8637181Y-2796287D01*
X8575858Y-2829772D01*
X8506166Y-2824788D01*
X8450233Y-2782916D01*
X8425816Y-2717452D01*
X8425500Y-2708606D01*
X8425500Y-2685928D01*
X8400502Y-2560261D01*
X8400501Y-2560260D01*
X8400501Y-2560256D01*
X8351465Y-2441873D01*
X8351464Y-2441872D01*
X8351461Y-2441866D01*
X8280276Y-2335331D01*
X8280273Y-2335327D01*
X8189672Y-2244726D01*
X8189668Y-2244723D01*
X8083133Y-2173538D01*
X8083124Y-2173533D01*
X7964744Y-2124499D01*
X7964738Y-2124497D01*
X7839071Y-2099500D01*
X7839069Y-2099500D01*
X7710931Y-2099500D01*
X7710929Y-2099500D01*
X7585261Y-2124497D01*
X7585255Y-2124499D01*
X7466875Y-2173533D01*
X7466866Y-2173538D01*
X7360331Y-2244723D01*
X7360327Y-2244726D01*
X7269726Y-2335327D01*
X7269723Y-2335331D01*
X7198538Y-2441866D01*
X7198533Y-2441875D01*
X7149499Y-2560255D01*
X7149497Y-2560261D01*
X7124500Y-2685928D01*
X7124500Y-2685931D01*
X7124500Y-2814069D01*
X7124500Y-2814071D01*
X7124499Y-2814071D01*
X7149497Y-2939738D01*
X7149499Y-2939744D01*
X7198533Y-3058124D01*
X7198538Y-3058133D01*
X7269723Y-3164668D01*
X7269726Y-3164672D01*
X7360327Y-3255273D01*
X7360331Y-3255276D01*
X7466866Y-3326461D01*
X7466875Y-3326466D01*
X7481445Y-3332501D01*
X7585256Y-3375501D01*
X7585260Y-3375501D01*
X7585261Y-3375502D01*
X7710928Y-3400500D01*
X7710931Y-3400500D01*
X7839071Y-3400500D01*
X7925205Y-3383366D01*
X7964744Y-3375501D01*
X8083127Y-3326465D01*
X8189669Y-3255276D01*
X8204052Y-3240893D01*
X8251233Y-3193713D01*
X8312556Y-3160228D01*
X8382248Y-3165212D01*
X8438181Y-3207084D01*
X8462598Y-3272548D01*
X8462914Y-3281394D01*
X8462914Y-3284735D01*
X8446301Y-3346735D01*
X8401794Y-3423822D01*
X8401793Y-3423826D01*
X8385157Y-3485913D01*
X8385157Y-3485914D01*
X8385156Y-3485913D01*
X8374500Y-3525683D01*
X8374500Y-4577726D01*
X8401793Y-4679589D01*
X8423857Y-4717804D01*
X8454520Y-4770913D01*
X8454521Y-4770914D01*
X8454522Y-4770915D01*
X9450179Y-5766571D01*
X9450200Y-5766594D01*
X9529081Y-5845475D01*
X9529083Y-5845476D01*
X9529087Y-5845480D01*
X9540900Y-5852300D01*
X9620413Y-5898207D01*
X9722273Y-5925501D01*
X9722275Y-5925501D01*
X9835323Y-5925501D01*
X9835339Y-5925500D01*
X10682745Y-5925500D01*
X10749784Y-5945185D01*
X10770426Y-5961819D01*
X12009226Y-7200619D01*
X12042711Y-7261942D01*
X12037727Y-7331634D01*
X11995855Y-7387567D01*
X11930391Y-7411984D01*
X11921545Y-7412300D01*
X11823263Y-7412300D01*
X11697595Y-7437297D01*
X11697589Y-7437299D01*
X11579209Y-7486333D01*
X11579200Y-7486338D01*
X11472665Y-7557523D01*
X11472661Y-7557526D01*
X11382060Y-7648127D01*
X11382057Y-7648131D01*
X11310872Y-7754666D01*
X11310867Y-7754675D01*
X11261833Y-7873055D01*
X11261831Y-7873061D01*
X11236834Y-7998728D01*
X11236834Y-7998731D01*
X11236834Y-8126869D01*
X11236834Y-8126871D01*
X11236833Y-8126871D01*
X11261831Y-8252538D01*
X11261833Y-8252544D01*
X11310867Y-8370924D01*
X11310872Y-8370933D01*
X11382057Y-8477468D01*
X11382060Y-8477472D01*
X11472664Y-8568076D01*
X11552567Y-8621465D01*
X11597372Y-8675077D01*
X11606079Y-8744402D01*
X11575925Y-8807429D01*
X11571358Y-8812248D01*
X11304519Y-9079088D01*
X11304518Y-9079090D01*
X11251792Y-9170413D01*
X11251791Y-9170413D01*
X11237813Y-9222587D01*
X11237813Y-9222588D01*
X11230443Y-9250094D01*
X11224500Y-9272273D01*
X11224500Y-14572273D01*
X11224500Y-14677727D01*
X11226707Y-14685962D01*
X11251793Y-14779589D01*
X11278156Y-14825250D01*
X11304520Y-14870913D01*
X11754087Y-15320480D01*
X11845412Y-15373207D01*
X11947273Y-15400500D01*
X12052727Y-15400500D01*
X12507745Y-15400500D01*
X12574784Y-15420185D01*
X12595426Y-15436819D01*
X13400179Y-16241571D01*
X13400200Y-16241594D01*
X13436373Y-16277767D01*
X13469858Y-16339090D01*
X13464874Y-16408782D01*
X13423002Y-16464715D01*
X13357538Y-16489132D01*
X13348692Y-16489448D01*
X12807325Y-16489448D01*
X12705462Y-16516741D01*
X12614139Y-16569468D01*
X12614136Y-16569470D01*
X11895426Y-17288181D01*
X11834103Y-17321666D01*
X11807745Y-17324500D01*
X8863841Y-17324500D01*
X8796802Y-17304815D01*
X8751047Y-17252011D01*
X8741103Y-17182853D01*
X8749280Y-17153047D01*
X8750396Y-17150351D01*
X8775501Y-17089744D01*
X8800500Y-16964069D01*
X8800500Y-16835931D01*
X8800500Y-16835928D01*
X8775502Y-16710261D01*
X8775501Y-16710260D01*
X8775501Y-16710256D01*
X8726465Y-16591873D01*
X8726464Y-16591872D01*
X8726461Y-16591866D01*
X8655276Y-16485331D01*
X8655273Y-16485327D01*
X8564672Y-16394726D01*
X8564668Y-16394723D01*
X8458133Y-16323538D01*
X8458124Y-16323533D01*
X8339744Y-16274499D01*
X8339738Y-16274497D01*
X8214071Y-16249500D01*
X8214069Y-16249500D01*
X8085931Y-16249500D01*
X8085929Y-16249500D01*
X7960261Y-16274497D01*
X7960255Y-16274499D01*
X7841875Y-16323533D01*
X7841866Y-16323538D01*
X7735331Y-16394723D01*
X7735327Y-16394726D01*
X7644726Y-16485327D01*
X7644723Y-16485331D01*
X7573538Y-16591866D01*
X7573533Y-16591875D01*
X7524499Y-16710255D01*
X7524497Y-16710261D01*
X7499500Y-16835928D01*
X7499500Y-16835931D01*
X7499500Y-16964069D01*
X7499500Y-16964071D01*
X7499499Y-16964071D01*
X7524497Y-17089738D01*
X7524499Y-17089744D01*
X7550720Y-17153047D01*
X7558189Y-17222517D01*
X7526914Y-17284996D01*
X7466825Y-17320648D01*
X7436159Y-17324500D01*
X7172273Y-17324500D01*
X7070413Y-17351793D01*
X7070412Y-17351793D01*
X7070410Y-17351794D01*
X7070409Y-17351794D01*
X6997566Y-17393851D01*
X6997565Y-17393852D01*
X6979088Y-17404519D01*
X6979085Y-17404521D01*
X6204522Y-18179084D01*
X6204520Y-18179087D01*
X6175771Y-18228882D01*
X6151793Y-18270412D01*
X6130602Y-18349500D01*
X6130601Y-18349499D01*
X6124500Y-18372268D01*
X6124500Y-18930317D01*
X6104815Y-18997356D01*
X6052011Y-19043111D01*
X5982853Y-19053055D01*
X5976309Y-19051934D01*
X5964072Y-19049500D01*
X5964069Y-19049500D01*
X5835931Y-19049500D01*
X5835929Y-19049500D01*
X5710261Y-19074497D01*
X5710255Y-19074499D01*
X5591875Y-19123533D01*
X5591866Y-19123538D01*
X5485332Y-19194722D01*
X5465388Y-19214667D01*
X5416872Y-19263182D01*
X5355552Y-19296666D01*
X5329193Y-19299500D01*
X5122273Y-19299500D01*
X5020410Y-19326793D01*
X4929087Y-19379520D01*
X4929084Y-19379522D01*
X4540426Y-19768181D01*
X4479103Y-19801666D01*
X4452745Y-19804500D01*
X2505564Y-19804500D01*
X2438525Y-19784815D01*
X2392770Y-19732011D01*
X2385914Y-19713055D01*
X2385086Y-19710015D01*
X2385085Y-19710014D01*
X2385085Y-19710009D01*
X2382911Y-19705086D01*
X2373839Y-19635812D01*
X2382912Y-19604911D01*
X2385085Y-19599991D01*
X2388000Y-19574865D01*
X2387999Y-18735136D01*
X2387997Y-18735117D01*
X2385086Y-18710012D01*
X2385085Y-18710010D01*
X2385085Y-18710009D01*
X2339706Y-18607235D01*
X2260265Y-18527794D01*
X2249754Y-18523153D01*
X2157492Y-18482415D01*
X2132365Y-18479500D01*
X942643Y-18479500D01*
X942617Y-18479502D01*
X917512Y-18482413D01*
X917508Y-18482415D01*
X814735Y-18527793D01*
X735294Y-18607234D01*
X728801Y-18616714D01*
X727480Y-18615809D01*
X690834Y-18659194D01*
X624048Y-18679721D01*
X556766Y-18660883D01*
X534805Y-18643412D01*
X486819Y-18595426D01*
X453334Y-18534103D01*
X450500Y-18507745D01*
X450500Y-18410928D01*
X425502Y-18285261D01*
X425501Y-18285260D01*
X425501Y-18285256D01*
X381523Y-18179084D01*
X376466Y-18166875D01*
X376461Y-18166866D01*
X305276Y-18060331D01*
X305273Y-18060327D01*
X214672Y-17969726D01*
X214668Y-17969723D01*
X108133Y-17898538D01*
X108124Y-17898533D01*
X-10255Y-17849499D01*
X-10261Y-17849497D01*
X-135929Y-17824500D01*
X-135931Y-17824500D01*
X-264069Y-17824500D01*
X-270161Y-17824500D01*
X-270161Y-17823139D01*
X-332009Y-17811400D01*
X-382712Y-17763327D01*
X-399500Y-17701025D01*
X-399500Y-14470145D01*
X-399501Y-14470138D01*
X-419211Y-14345698D01*
X-419211Y-14345696D01*
X-419212Y-14345693D01*
X-458149Y-14225859D01*
X-458150Y-14225856D01*
X-458151Y-14225854D01*
X-515352Y-14113590D01*
X-589417Y-14011650D01*
X-603724Y-13997339D01*
X-603744Y-13997322D01*
X-661995Y-13939071D01*
X349499Y-13939071D01*
X374497Y-14064738D01*
X374499Y-14064744D01*
X423533Y-14183124D01*
X423538Y-14183133D01*
X494723Y-14289668D01*
X494726Y-14289672D01*
X585327Y-14380273D01*
X585331Y-14380276D01*
X691866Y-14451461D01*
X691872Y-14451464D01*
X691873Y-14451465D01*
X810256Y-14500501D01*
X810260Y-14500501D01*
X810261Y-14500502D01*
X935928Y-14525500D01*
X935931Y-14525500D01*
X1064071Y-14525500D01*
X1148615Y-14508682D01*
X1189744Y-14500501D01*
X1308127Y-14451465D01*
X1414669Y-14380276D01*
X1505276Y-14289669D01*
X1576465Y-14183127D01*
X1605069Y-14114071D01*
X4949499Y-14114071D01*
X4974497Y-14239738D01*
X4974499Y-14239744D01*
X5023533Y-14358124D01*
X5023538Y-14358133D01*
X5094723Y-14464668D01*
X5094726Y-14464672D01*
X5185327Y-14555273D01*
X5185331Y-14555276D01*
X5291866Y-14626461D01*
X5291875Y-14626466D01*
X5318692Y-14637574D01*
X5410256Y-14675501D01*
X5410260Y-14675501D01*
X5410261Y-14675502D01*
X5535928Y-14700500D01*
X5535931Y-14700500D01*
X5664071Y-14700500D01*
X5762637Y-14680893D01*
X5789744Y-14675501D01*
X5908127Y-14626465D01*
X6014669Y-14555276D01*
X6105276Y-14464669D01*
X6176465Y-14358127D01*
X6225501Y-14239744D01*
X6242742Y-14153070D01*
X6250500Y-14114071D01*
X6250500Y-13985928D01*
X6225502Y-13860261D01*
X6225501Y-13860260D01*
X6225501Y-13860256D01*
X6176465Y-13741873D01*
X6176464Y-13741872D01*
X6176461Y-13741866D01*
X6105276Y-13635331D01*
X6105273Y-13635327D01*
X6014672Y-13544726D01*
X6014668Y-13544723D01*
X5908133Y-13473538D01*
X5908124Y-13473533D01*
X5789744Y-13424499D01*
X5789738Y-13424497D01*
X5664071Y-13399500D01*
X5664069Y-13399500D01*
X5535931Y-13399500D01*
X5535929Y-13399500D01*
X5410261Y-13424497D01*
X5410255Y-13424499D01*
X5291875Y-13473533D01*
X5291866Y-13473538D01*
X5185331Y-13544723D01*
X5185327Y-13544726D01*
X5094726Y-13635327D01*
X5094723Y-13635331D01*
X5023538Y-13741866D01*
X5023533Y-13741875D01*
X4974499Y-13860255D01*
X4974497Y-13860261D01*
X4949500Y-13985928D01*
X4949500Y-13985931D01*
X4949500Y-14114069D01*
X4949500Y-14114071D01*
X4949499Y-14114071D01*
X1605069Y-14114071D01*
X1625501Y-14064744D01*
X1630421Y-14040005D01*
X1647203Y-13955647D01*
X1647203Y-13955646D01*
X1650499Y-13939073D01*
X1650500Y-13939071D01*
X1650500Y-13810928D01*
X1625502Y-13685261D01*
X1625501Y-13685260D01*
X1625501Y-13685256D01*
X1586295Y-13590604D01*
X1576466Y-13566875D01*
X1576461Y-13566866D01*
X1505276Y-13460331D01*
X1505273Y-13460327D01*
X1414672Y-13369726D01*
X1414668Y-13369723D01*
X1308133Y-13298538D01*
X1308124Y-13298533D01*
X1189744Y-13249499D01*
X1189738Y-13249497D01*
X1064071Y-13224500D01*
X1064069Y-13224500D01*
X935931Y-13224500D01*
X935929Y-13224500D01*
X810261Y-13249497D01*
X810255Y-13249499D01*
X691875Y-13298533D01*
X691866Y-13298538D01*
X585331Y-13369723D01*
X585327Y-13369726D01*
X494726Y-13460327D01*
X494723Y-13460331D01*
X423538Y-13566866D01*
X423533Y-13566875D01*
X374499Y-13685255D01*
X374497Y-13685261D01*
X349500Y-13810928D01*
X349500Y-13810931D01*
X349500Y-13939069D01*
X349500Y-13939071D01*
X349499Y-13939071D01*
X-661995Y-13939071D01*
X-708546Y-13892520D01*
X-1093181Y-13507886D01*
X-1126666Y-13446563D01*
X-1129500Y-13420205D01*
X-1129500Y-10690796D01*
X-1109815Y-10623757D01*
X-1057011Y-10578002D01*
X-1033092Y-10569905D01*
X-973830Y-10556379D01*
X-973826Y-10556377D01*
X-973823Y-10556377D01*
X-973818Y-10556375D01*
X-973816Y-10556374D01*
X-835664Y-10489844D01*
X-835661Y-10489842D01*
X-715769Y-10394231D01*
X-620158Y-10274339D01*
X-620157Y-10274338D01*
X-620155Y-10274335D01*
X-553625Y-10136183D01*
X-553620Y-10136168D01*
X-519500Y-9986679D01*
X-519500Y-9833320D01*
X-553620Y-9683831D01*
X-553625Y-9683816D01*
X-620155Y-9545664D01*
X-654426Y-9502689D01*
X-654431Y-9502683D01*
X-715769Y-9425769D01*
X-792683Y-9364431D01*
X-792689Y-9364426D01*
X-835664Y-9330155D01*
X-973816Y-9263625D01*
X-973829Y-9263620D01*
X-1033093Y-9250094D01*
X-1094072Y-9215985D01*
X-1126929Y-9154323D01*
X-1129500Y-9129203D01*
X-1129500Y-8976255D01*
X-1109815Y-8909216D01*
X-1057011Y-8863461D01*
X-987853Y-8853517D01*
X-924297Y-8882542D01*
X-917819Y-8888574D01*
X-453071Y-9353322D01*
X-453069Y-9353323D01*
X-445808Y-9360584D01*
X-343871Y-9434648D01*
X-231601Y-9491852D01*
X-111766Y-9530789D01*
X-65284Y-9538150D01*
X-2153Y-9568078D01*
X2980Y-9572925D01*
X56080Y-9626025D01*
X85332Y-9655277D01*
X191866Y-9726461D01*
X191872Y-9726464D01*
X191873Y-9726465D01*
X310256Y-9775501D01*
X310260Y-9775501D01*
X310261Y-9775502D01*
X435928Y-9800500D01*
X435931Y-9800500D01*
X564071Y-9800500D01*
X674466Y-9778540D01*
X689744Y-9775501D01*
X808127Y-9726465D01*
X914669Y-9655276D01*
X1005276Y-9564669D01*
X1076465Y-9458127D01*
X1125501Y-9339744D01*
X1138922Y-9272273D01*
X1150500Y-9214071D01*
X1150500Y-9085928D01*
X1125502Y-8960261D01*
X1125501Y-8960260D01*
X1125501Y-8960256D01*
X1076465Y-8841873D01*
X1076464Y-8841872D01*
X1076461Y-8841866D01*
X1005276Y-8735331D01*
X1005273Y-8735327D01*
X914672Y-8644726D01*
X914668Y-8644723D01*
X827141Y-8586239D01*
X782336Y-8532627D01*
X773629Y-8463302D01*
X781472Y-8435683D01*
X800499Y-8389749D01*
X800499Y-8389748D01*
X800501Y-8389744D01*
X821271Y-8285331D01*
X825500Y-8264071D01*
X825500Y-8135928D01*
X800502Y-8010261D01*
X800501Y-8010260D01*
X800501Y-8010256D01*
X778742Y-7957727D01*
X771274Y-7888260D01*
X802549Y-7825781D01*
X824411Y-7807175D01*
X864669Y-7780276D01*
X955276Y-7689669D01*
X1026465Y-7583127D01*
X1075501Y-7464744D01*
X1097131Y-7356006D01*
X1100500Y-7339071D01*
X1100500Y-7210928D01*
X1075502Y-7085261D01*
X1075501Y-7085260D01*
X1075501Y-7085256D01*
X1026465Y-6966873D01*
X1026464Y-6966872D01*
X1026461Y-6966866D01*
X955276Y-6860331D01*
X955273Y-6860327D01*
X864672Y-6769726D01*
X864668Y-6769723D01*
X758133Y-6698538D01*
X758124Y-6698533D01*
X639744Y-6649499D01*
X639738Y-6649497D01*
X514071Y-6624500D01*
X514069Y-6624500D01*
X385931Y-6624500D01*
X385929Y-6624500D01*
X260261Y-6649497D01*
X260255Y-6649499D01*
X141875Y-6698533D01*
X141866Y-6698538D01*
X35332Y-6769722D01*
X7190Y-6797865D01*
X-33127Y-6838182D01*
X-94448Y-6871666D01*
X-120807Y-6874500D01*
X-559314Y-6874500D01*
X-622315Y-6874500D01*
X-651163Y-6879069D01*
X-746762Y-6894210D01*
X-746765Y-6894211D01*
X-866600Y-6933148D01*
X-866601Y-6933148D01*
X-866602Y-6933149D01*
X-900655Y-6950500D01*
X-978868Y-6990351D01*
X-1080805Y-7064413D01*
X-1088068Y-7071675D01*
X-1088070Y-7071677D01*
X-2103322Y-8086929D01*
X-2103323Y-8086930D01*
X-2110584Y-8094192D01*
X-2184648Y-8196129D01*
X-2186876Y-8200502D01*
X-2241850Y-8308394D01*
X-2241850Y-8308396D01*
X-2241852Y-8308399D01*
X-2261328Y-8368339D01*
X-2280789Y-8428233D01*
X-2300500Y-8552680D01*
X-2300500Y-8552686D01*
X-2300500Y-8562958D01*
X-2300500Y-13598387D01*
X-2300500Y-13624314D01*
X-2300500Y-13687315D01*
X-2280789Y-13811765D01*
X-2241852Y-13931600D01*
X-2184649Y-14043868D01*
X-2110587Y-14145805D01*
X-2110401Y-14145990D01*
X-2110392Y-14146003D01*
X-2110391Y-14146002D01*
X-1611819Y-14644574D01*
X-1578334Y-14705897D01*
X-1575500Y-14732255D01*
X-1575500Y-20539109D01*
X-1595185Y-20606148D01*
X-1647989Y-20651903D01*
X-1717147Y-20661847D01*
X-1723690Y-20660727D01*
X-1764117Y-20652686D01*
X-1892255Y-20652686D01*
X-1892257Y-20652686D01*
X-2017924Y-20677683D01*
X-2017930Y-20677685D01*
X-2136310Y-20726719D01*
X-2136319Y-20726724D01*
X-2242854Y-20797909D01*
X-2242858Y-20797912D01*
X-2333459Y-20888513D01*
X-2333462Y-20888517D01*
X-2404647Y-20995052D01*
X-2404650Y-20995058D01*
X-2404651Y-20995059D01*
X-2453687Y-21113442D01*
X-2453687Y-21113444D01*
X-2453883Y-21114427D01*
X-2454127Y-21114893D01*
X-2455456Y-21119274D01*
X-2456286Y-21119021D01*
X-2486270Y-21176337D01*
X-2546986Y-21210910D01*
X-2616756Y-21207169D01*
X-2673427Y-21166301D01*
X-2699007Y-21101282D01*
X-2699500Y-21090233D01*
X-2699500Y-5659071D01*
X1504499Y-5659071D01*
X1529497Y-5784738D01*
X1529499Y-5784744D01*
X1578533Y-5903124D01*
X1578538Y-5903133D01*
X1649723Y-6009668D01*
X1649726Y-6009672D01*
X1740327Y-6100273D01*
X1740331Y-6100276D01*
X1846866Y-6171461D01*
X1846875Y-6171466D01*
X1854608Y-6174669D01*
X1965256Y-6220501D01*
X1965260Y-6220501D01*
X1965261Y-6220502D01*
X2090928Y-6245500D01*
X2187745Y-6245500D01*
X2254784Y-6265185D01*
X2275426Y-6281819D01*
X2536147Y-6542540D01*
X2569632Y-6603863D01*
X2564648Y-6673555D01*
X2522776Y-6729488D01*
X2517360Y-6733321D01*
X2485332Y-6754722D01*
X2485327Y-6754726D01*
X2394726Y-6845327D01*
X2394723Y-6845331D01*
X2323538Y-6951866D01*
X2323533Y-6951875D01*
X2274499Y-7070255D01*
X2274497Y-7070261D01*
X2249500Y-7195928D01*
X2249500Y-7195931D01*
X2249500Y-7324069D01*
X2249500Y-7324071D01*
X2249499Y-7324071D01*
X2274497Y-7449738D01*
X2274499Y-7449744D01*
X2323533Y-7568124D01*
X2323538Y-7568133D01*
X2394723Y-7674668D01*
X2394726Y-7674672D01*
X2485327Y-7765273D01*
X2485331Y-7765276D01*
X2591866Y-7836461D01*
X2591872Y-7836464D01*
X2591873Y-7836465D01*
X2710256Y-7885501D01*
X2710260Y-7885501D01*
X2710261Y-7885502D01*
X2835928Y-7910500D01*
X2835931Y-7910500D01*
X2964070Y-7910500D01*
X2971304Y-7909061D01*
X3040896Y-7915285D01*
X3096075Y-7958146D01*
X3119322Y-8024035D01*
X3119500Y-8030677D01*
X3119500Y-8095646D01*
X3150261Y-8250289D01*
X3150264Y-8250301D01*
X3188899Y-8343574D01*
X3196368Y-8413043D01*
X3165093Y-8475522D01*
X3105004Y-8511174D01*
X3050147Y-8512643D01*
X2984073Y-8499500D01*
X2984069Y-8499500D01*
X2855931Y-8499500D01*
X2855929Y-8499500D01*
X2730261Y-8524497D01*
X2730255Y-8524499D01*
X2611875Y-8573533D01*
X2611866Y-8573538D01*
X2505331Y-8644723D01*
X2505327Y-8644726D01*
X2414726Y-8735327D01*
X2414723Y-8735331D01*
X2343538Y-8841866D01*
X2343533Y-8841875D01*
X2294499Y-8960255D01*
X2294497Y-8960261D01*
X2269500Y-9085928D01*
X2269500Y-9085931D01*
X2269500Y-9214069D01*
X2269500Y-9214071D01*
X2269499Y-9214071D01*
X2294497Y-9339738D01*
X2294499Y-9339744D01*
X2343533Y-9458124D01*
X2343538Y-9458133D01*
X2414725Y-9564672D01*
X2415849Y-9566041D01*
X2416212Y-9566897D01*
X2418108Y-9569734D01*
X2417569Y-9570093D01*
X2443158Y-9630353D01*
X2431363Y-9699220D01*
X2407678Y-9732375D01*
X2404729Y-9735323D01*
X2404723Y-9735331D01*
X2333538Y-9841866D01*
X2333533Y-9841875D01*
X2284499Y-9960255D01*
X2284497Y-9960261D01*
X2259500Y-10085928D01*
X2259500Y-10085931D01*
X2259500Y-10214069D01*
X2259500Y-10214071D01*
X2259499Y-10214071D01*
X2284497Y-10339738D01*
X2284499Y-10339744D01*
X2333533Y-10458124D01*
X2333538Y-10458133D01*
X2404723Y-10564668D01*
X2404726Y-10564672D01*
X2495327Y-10655273D01*
X2495331Y-10655276D01*
X2601866Y-10726461D01*
X2601875Y-10726466D01*
X2673179Y-10756001D01*
X2727582Y-10799842D01*
X2749647Y-10866136D01*
X2745501Y-10902654D01*
X2724500Y-10981032D01*
X2724500Y-10981034D01*
X2724500Y-11132566D01*
X2734664Y-11170500D01*
X2763719Y-11278936D01*
X2785624Y-11316875D01*
X2839485Y-11410165D01*
X2946635Y-11517315D01*
X3077865Y-11593081D01*
X3224234Y-11632300D01*
X3224236Y-11632300D01*
X3375764Y-11632300D01*
X3375766Y-11632300D01*
X3522135Y-11593081D01*
X3653365Y-11517315D01*
X3760515Y-11410165D01*
X3836281Y-11278935D01*
X3841567Y-11259205D01*
X3877932Y-11199545D01*
X3940779Y-11169016D01*
X3961342Y-11167299D01*
X4994856Y-11167299D01*
X4994864Y-11167299D01*
X4994879Y-11167297D01*
X4994882Y-11167297D01*
X5019987Y-11164386D01*
X5019987Y-11164385D01*
X5019991Y-11164385D01*
X5071103Y-11141816D01*
X5140377Y-11132744D01*
X5168641Y-11140689D01*
X5180256Y-11145501D01*
X5180260Y-11145501D01*
X5180261Y-11145502D01*
X5305928Y-11170500D01*
X5305931Y-11170500D01*
X5434071Y-11170500D01*
X5518615Y-11153682D01*
X5559744Y-11145501D01*
X5678127Y-11096465D01*
X5784669Y-11025276D01*
X5875276Y-10934669D01*
X5946465Y-10828127D01*
X5995501Y-10709744D01*
X6006336Y-10655273D01*
X6020500Y-10584071D01*
X6020500Y-10455928D01*
X5995502Y-10330261D01*
X5995501Y-10330260D01*
X5995501Y-10330256D01*
X5957574Y-10238692D01*
X5946466Y-10211875D01*
X5946461Y-10211866D01*
X5875276Y-10105331D01*
X5875273Y-10105327D01*
X5784672Y-10014726D01*
X5784668Y-10014723D01*
X5678133Y-9943538D01*
X5678124Y-9943533D01*
X5559744Y-9894499D01*
X5559738Y-9894497D01*
X5434071Y-9869500D01*
X5434069Y-9869500D01*
X5374499Y-9869500D01*
X5307460Y-9849815D01*
X5261705Y-9797011D01*
X5250499Y-9745500D01*
X5250499Y-9721943D01*
X5250499Y-9721936D01*
X5247865Y-9699220D01*
X5246511Y-9687542D01*
X5248280Y-9687336D01*
X5248282Y-9646260D01*
X5246510Y-9646055D01*
X5247585Y-9636791D01*
X5250500Y-9611665D01*
X5250499Y-9341637D01*
X5270183Y-9274599D01*
X5322987Y-9228844D01*
X5327009Y-9227092D01*
X5329179Y-9226194D01*
X5460289Y-9138589D01*
X5571789Y-9027089D01*
X5659394Y-8895979D01*
X5719737Y-8750297D01*
X5750500Y-8595642D01*
X5750500Y-8516799D01*
X5750500Y-8499500D01*
X5750500Y-8264073D01*
X5750500Y-8237958D01*
X5750500Y-8237955D01*
X5750499Y-8237953D01*
X5742179Y-8196128D01*
X5719737Y-8083303D01*
X5716090Y-8074499D01*
X5659397Y-7937627D01*
X5659390Y-7937614D01*
X5571789Y-7806511D01*
X5571786Y-7806507D01*
X5460292Y-7695013D01*
X5460288Y-7695010D01*
X5376571Y-7639071D01*
X5924499Y-7639071D01*
X5949497Y-7764738D01*
X5949499Y-7764744D01*
X5998533Y-7883124D01*
X5998538Y-7883133D01*
X6069723Y-7989668D01*
X6069726Y-7989672D01*
X6160327Y-8080273D01*
X6160331Y-8080276D01*
X6266866Y-8151461D01*
X6266872Y-8151464D01*
X6266873Y-8151465D01*
X6385256Y-8200501D01*
X6385260Y-8200501D01*
X6385261Y-8200502D01*
X6510928Y-8225500D01*
X6631870Y-8225500D01*
X6698909Y-8245185D01*
X6744664Y-8297989D01*
X6754608Y-8367147D01*
X6746431Y-8396953D01*
X6699499Y-8510255D01*
X6699497Y-8510261D01*
X6674500Y-8635928D01*
X6674500Y-8635931D01*
X6674500Y-8764069D01*
X6674500Y-8764071D01*
X6674499Y-8764071D01*
X6699497Y-8889738D01*
X6699499Y-8889744D01*
X6748533Y-9008124D01*
X6748538Y-9008133D01*
X6819723Y-9114668D01*
X6819726Y-9114672D01*
X6910327Y-9205273D01*
X6910331Y-9205276D01*
X7016866Y-9276461D01*
X7016872Y-9276464D01*
X7016873Y-9276465D01*
X7135256Y-9325501D01*
X7135260Y-9325501D01*
X7135261Y-9325502D01*
X7260928Y-9350500D01*
X7260931Y-9350500D01*
X7389071Y-9350500D01*
X7491347Y-9330155D01*
X7514744Y-9325501D01*
X7633127Y-9276465D01*
X7739669Y-9205276D01*
X7830276Y-9114669D01*
X7901465Y-9008127D01*
X7950501Y-8889744D01*
X7964275Y-8820500D01*
X7975500Y-8764071D01*
X7975500Y-8635928D01*
X7950502Y-8510261D01*
X7950501Y-8510260D01*
X7950501Y-8510256D01*
X7901465Y-8391873D01*
X7901464Y-8391872D01*
X7901461Y-8391866D01*
X7830276Y-8285331D01*
X7830273Y-8285327D01*
X7739672Y-8194726D01*
X7739668Y-8194723D01*
X7633133Y-8123538D01*
X7633124Y-8123533D01*
X7514744Y-8074499D01*
X7514738Y-8074497D01*
X7389071Y-8049500D01*
X7389069Y-8049500D01*
X7268130Y-8049500D01*
X7201091Y-8029815D01*
X7155336Y-7977011D01*
X7145392Y-7907853D01*
X7153569Y-7878047D01*
X7155634Y-7873061D01*
X7200501Y-7764744D01*
X7218419Y-7674668D01*
X7225500Y-7639071D01*
X7225500Y-7510928D01*
X7200502Y-7385261D01*
X7200501Y-7385260D01*
X7200501Y-7385256D01*
X7151465Y-7266873D01*
X7151464Y-7266872D01*
X7151461Y-7266866D01*
X7080276Y-7160331D01*
X7080273Y-7160327D01*
X6989672Y-7069726D01*
X6989668Y-7069723D01*
X6883133Y-6998538D01*
X6883124Y-6998533D01*
X6764744Y-6949499D01*
X6764738Y-6949497D01*
X6639071Y-6924500D01*
X6639069Y-6924500D01*
X6510931Y-6924500D01*
X6510929Y-6924500D01*
X6385261Y-6949497D01*
X6385255Y-6949499D01*
X6266875Y-6998533D01*
X6266866Y-6998538D01*
X6160331Y-7069723D01*
X6160327Y-7069726D01*
X6069726Y-7160327D01*
X6069723Y-7160331D01*
X5998538Y-7266866D01*
X5998533Y-7266875D01*
X5949499Y-7385255D01*
X5949497Y-7385261D01*
X5924500Y-7510928D01*
X5924500Y-7510931D01*
X5924500Y-7639069D01*
X5924500Y-7639071D01*
X5924499Y-7639071D01*
X5376571Y-7639071D01*
X5335295Y-7611491D01*
X5335283Y-7611485D01*
X5329179Y-7607406D01*
X5321698Y-7604307D01*
X5316570Y-7601598D01*
X5295511Y-7581109D01*
X5272637Y-7562673D01*
X5270757Y-7557025D01*
X5266492Y-7552875D01*
X5259852Y-7524251D01*
X5250578Y-7496377D01*
X5250499Y-7491961D01*
X5250499Y-7221943D01*
X5250499Y-7221936D01*
X5249223Y-7210931D01*
X5246511Y-7187542D01*
X5248280Y-7187336D01*
X5248282Y-7146260D01*
X5246510Y-7146055D01*
X5247585Y-7136791D01*
X5250500Y-7111665D01*
X5250499Y-6721936D01*
X5250274Y-6719993D01*
X5246511Y-6687542D01*
X5248280Y-6687336D01*
X5248282Y-6646260D01*
X5246510Y-6646055D01*
X5247585Y-6636791D01*
X5250500Y-6611665D01*
X5250500Y-6534500D01*
X5270185Y-6467461D01*
X5322989Y-6421706D01*
X5374500Y-6410500D01*
X5434071Y-6410500D01*
X5518615Y-6393682D01*
X5559744Y-6385501D01*
X5678127Y-6336465D01*
X5784669Y-6265276D01*
X5875276Y-6174669D01*
X5946465Y-6068127D01*
X5995501Y-5949744D01*
X6005753Y-5898206D01*
X6020500Y-5824071D01*
X6020500Y-5695928D01*
X5995502Y-5570261D01*
X5995501Y-5570260D01*
X5995501Y-5570256D01*
X5946465Y-5451873D01*
X5946464Y-5451872D01*
X5946461Y-5451866D01*
X5875276Y-5345331D01*
X5875273Y-5345327D01*
X5784672Y-5254726D01*
X5784668Y-5254723D01*
X5678133Y-5183538D01*
X5678124Y-5183533D01*
X5559744Y-5134499D01*
X5559738Y-5134497D01*
X5434071Y-5109500D01*
X5434069Y-5109500D01*
X5305931Y-5109500D01*
X5305929Y-5109500D01*
X5180261Y-5134497D01*
X5180251Y-5134500D01*
X5105268Y-5165559D01*
X5035798Y-5173028D01*
X5025266Y-5170650D01*
X5019992Y-5169215D01*
X4994868Y-5166300D01*
X4994865Y-5166300D01*
X3961342Y-5166300D01*
X3894303Y-5146615D01*
X3848548Y-5093811D01*
X3841567Y-5074394D01*
X3836280Y-5054663D01*
X3794820Y-4982853D01*
X3760515Y-4923435D01*
X3653365Y-4816285D01*
X3547690Y-4755273D01*
X3522136Y-4740519D01*
X3437360Y-4717804D01*
X3375766Y-4701300D01*
X3224234Y-4701300D01*
X3077863Y-4740519D01*
X2946635Y-4816285D01*
X2946632Y-4816287D01*
X2839487Y-4923432D01*
X2839485Y-4923435D01*
X2760659Y-5059965D01*
X2710092Y-5108180D01*
X2641484Y-5121402D01*
X2576620Y-5095434D01*
X2574447Y-5093505D01*
X2574379Y-5093589D01*
X2569668Y-5089723D01*
X2463133Y-5018538D01*
X2463124Y-5018533D01*
X2344744Y-4969499D01*
X2344738Y-4969497D01*
X2219071Y-4944500D01*
X2219069Y-4944500D01*
X2090931Y-4944500D01*
X2090929Y-4944500D01*
X1965261Y-4969497D01*
X1965255Y-4969499D01*
X1846875Y-5018533D01*
X1846866Y-5018538D01*
X1740331Y-5089723D01*
X1740327Y-5089726D01*
X1649726Y-5180327D01*
X1649723Y-5180331D01*
X1578538Y-5286866D01*
X1578533Y-5286875D01*
X1529499Y-5405255D01*
X1529497Y-5405261D01*
X1504500Y-5530928D01*
X1504500Y-5530931D01*
X1504500Y-5659069D01*
X1504500Y-5659071D01*
X1504499Y-5659071D01*
X-2699500Y-5659071D01*
X-2699500Y-3480D01*
X-2699305Y3473D01*
X-2698438Y18907D01*
X5882193Y18907D01*
X5907191Y-106759D01*
X5907193Y-106765D01*
X5956227Y-225145D01*
X5956232Y-225154D01*
X6027417Y-331689D01*
X6027420Y-331693D01*
X6118021Y-422294D01*
X6118025Y-422297D01*
X6224560Y-493482D01*
X6224566Y-493485D01*
X6224567Y-493486D01*
X6342950Y-542522D01*
X6342954Y-542522D01*
X6342955Y-542523D01*
X6468622Y-567521D01*
X6468625Y-567521D01*
X6596765Y-567521D01*
X6681309Y-550703D01*
X6722438Y-542522D01*
X6840821Y-493486D01*
X6947363Y-422297D01*
X7037970Y-331690D01*
X7109159Y-225148D01*
X7158195Y-106765D01*
X7169469Y-50087D01*
X7183194Y18907D01*
X7183194Y147050D01*
X7158196Y272717D01*
X7158195Y272723D01*
X7109159Y391106D01*
X7037970Y497648D01*
X6947363Y588255D01*
X6840821Y659444D01*
X6722438Y708480D01*
X6681309Y716661D01*
X6596765Y733479D01*
X6596763Y733479D01*
X6468625Y733479D01*
X6468623Y733479D01*
X6342955Y708481D01*
X6342950Y708480D01*
X6251386Y670553D01*
X6224569Y659445D01*
X6224560Y659440D01*
X6118025Y588255D01*
X6118021Y588252D01*
X6027420Y497651D01*
X6027417Y497647D01*
X5956232Y391112D01*
X5956227Y391103D01*
X5907193Y272723D01*
X5907191Y272717D01*
X5882194Y147050D01*
X5882194Y18907D01*
X5882193Y18907D01*
X-2698438Y18907D01*
X-2690509Y160093D01*
X-2682916Y295296D01*
X-2681359Y309114D01*
X-2632984Y593830D01*
X-2629890Y607386D01*
X-2549941Y884897D01*
X-2545348Y898023D01*
X-2434831Y1164835D01*
X-2428798Y1177363D01*
X-2289101Y1430125D01*
X-2281703Y1441899D01*
X-2114581Y1677436D01*
X-2105910Y1688308D01*
X-1913474Y1903642D01*
X-1903642Y1913474D01*
X-1688308Y2105910D01*
X-1677436Y2114581D01*
X-1441899Y2281703D01*
X-1430125Y2289101D01*
X-1177363Y2428798D01*
X-1164835Y2434831D01*
X-898023Y2545348D01*
X-884897Y2549941D01*
X-607386Y2629890D01*
X-593830Y2632984D01*
X-309114Y2681359D01*
X-295296Y2682916D01*
X-3472Y2699305D01*
X3481Y2699500D01*
X47594Y2699500D01*
X18952405Y2699500D01*
X18996519Y2699500D01*
X19003472Y2699305D01*
G37*
%TD.AperFunction*%
%TA.AperFunction,Conductor*%
G36*
X11379056Y-4039848D02*
G01*
X11423404Y-4068349D01*
X11435331Y-4080276D01*
X11435332Y-4080277D01*
X11541866Y-4151461D01*
X11541872Y-4151464D01*
X11541873Y-4151465D01*
X11660256Y-4200501D01*
X11660260Y-4200501D01*
X11660261Y-4200502D01*
X11785928Y-4225500D01*
X11882745Y-4225500D01*
X11949784Y-4245185D01*
X11970426Y-4261819D01*
X13213181Y-5504574D01*
X13246666Y-5565897D01*
X13249500Y-5592255D01*
X13249500Y-6354192D01*
X13229815Y-6421231D01*
X13213181Y-6441873D01*
X13144726Y-6510327D01*
X13144723Y-6510331D01*
X13073538Y-6616866D01*
X13073533Y-6616875D01*
X13024499Y-6735255D01*
X13024497Y-6735260D01*
X13012044Y-6797865D01*
X12979658Y-6859776D01*
X12918942Y-6894349D01*
X12849172Y-6890608D01*
X12802746Y-6861353D01*
X11145915Y-5204522D01*
X11145913Y-5204520D01*
X11079715Y-5166300D01*
X11054589Y-5151793D01*
X10990048Y-5134500D01*
X10952727Y-5124500D01*
X10952726Y-5124500D01*
X10696936Y-5124500D01*
X10629897Y-5104815D01*
X10584142Y-5052011D01*
X10574198Y-4982853D01*
X10603223Y-4919297D01*
X10662001Y-4881523D01*
X10672744Y-4878883D01*
X10684165Y-4876610D01*
X10689744Y-4875501D01*
X10808127Y-4826465D01*
X10914669Y-4755276D01*
X11005276Y-4664669D01*
X11076465Y-4558127D01*
X11125501Y-4439744D01*
X11150500Y-4314069D01*
X11150500Y-4217254D01*
X11170185Y-4150215D01*
X11186813Y-4129578D01*
X11248045Y-4068346D01*
X11309364Y-4034864D01*
X11379056Y-4039848D01*
G37*
%TD.AperFunction*%
%TD*%
M02*
