%TF.GenerationSoftware,KiCad,Pcbnew,10.0.5*%
%TF.CreationDate,2026-09-28T20:28:07+02:00*%
%TF.ProjectId,kp-ptr,6b702d70-7472-42e6-9b69-6361645f7063,rev?*%
%TF.SameCoordinates,Original*%
%TF.FileFunction,Paste,Bot*%
%TF.FilePolarity,Positive*%
%FSLAX46Y46*%
G04 Gerber Fmt 4.6, Leading zero omitted, Abs format (unit mm)*
G04 Created by KiCad (PCBNEW 10.0.5) date 2026-09-28 20:28:07*
%MOMM*%
%LPD*%
G01*
G04 APERTURE LIST*
G04 Aperture macros list*
%AMRoundRect*
0 Rectangle with rounded corners*
0 $1 Rounding radius*
0 $2 $3 $4 $5 $6 $7 $8 $9 X,Y pos of 4 corners*
0 Add a 4 corners polygon primitive as box body*
4,1,4,$2,$3,$4,$5,$6,$7,$8,$9,$2,$3,0*
0 Add four circle primitives for the rounded corners*
1,1,$1+$1,$2,$3*
1,1,$1+$1,$4,$5*
1,1,$1+$1,$6,$7*
1,1,$1+$1,$8,$9*
0 Add four rect primitives between the rounded corners*
20,1,$1+$1,$2,$3,$4,$5,0*
20,1,$1+$1,$4,$5,$6,$7,0*
20,1,$1+$1,$6,$7,$8,$9,0*
20,1,$1+$1,$8,$9,$2,$3,0*%
%AMRotRect*
0 Rectangle, with rotation*
0 The origin of the aperture is its center*
0 $1 length*
0 $2 width*
0 $3 Rotation angle, in degrees counterclockwise*
0 Add horizontal line*
21,1,$1,$2,0,0,$3*%
G04 Aperture macros list end*
%ADD10C,0.010000*%
%ADD11RoundRect,0.135000X0.185000X-0.135000X0.185000X0.135000X-0.185000X0.135000X-0.185000X-0.135000X0*%
%ADD12RoundRect,0.135000X0.135000X0.185000X-0.135000X0.185000X-0.135000X-0.185000X0.135000X-0.185000X0*%
%ADD13RoundRect,0.135000X-0.135000X-0.185000X0.135000X-0.185000X0.135000X0.185000X-0.135000X0.185000X0*%
%ADD14RoundRect,0.135000X-0.185000X0.135000X-0.185000X-0.135000X0.185000X-0.135000X0.185000X0.135000X0*%
%ADD15RoundRect,0.225000X0.250000X-0.225000X0.250000X0.225000X-0.250000X0.225000X-0.250000X-0.225000X0*%
%ADD16R,0.300000X0.800000*%
%ADD17R,0.800000X0.300000*%
%ADD18R,1.750000X1.750000*%
%ADD19RoundRect,0.140000X0.170000X-0.140000X0.170000X0.140000X-0.170000X0.140000X-0.170000X-0.140000X0*%
%ADD20RoundRect,0.140000X0.140000X0.170000X-0.140000X0.170000X-0.140000X-0.170000X0.140000X-0.170000X0*%
%ADD21R,0.250000X0.728000*%
%ADD22R,0.728000X0.250000*%
%ADD23R,0.728000X0.252000*%
%ADD24R,0.728000X0.260000*%
%ADD25R,0.252000X0.728000*%
%ADD26RoundRect,0.175000X-0.325000X-0.175000X0.325000X-0.175000X0.325000X0.175000X-0.325000X0.175000X0*%
%ADD27RoundRect,0.250000X0.375000X0.625000X-0.375000X0.625000X-0.375000X-0.625000X0.375000X-0.625000X0*%
%ADD28RoundRect,0.140000X-0.021213X0.219203X-0.219203X0.021213X0.021213X-0.219203X0.219203X-0.021213X0*%
%ADD29RoundRect,0.140000X-0.170000X0.140000X-0.170000X-0.140000X0.170000X-0.140000X0.170000X0.140000X0*%
%ADD30RoundRect,0.225000X-0.225000X-0.250000X0.225000X-0.250000X0.225000X0.250000X-0.225000X0.250000X0*%
%ADD31RotRect,0.450000X0.950000X45.000000*%
%ADD32RotRect,3.450000X4.350000X135.000000*%
%ADD33RoundRect,0.140000X-0.140000X-0.170000X0.140000X-0.170000X0.140000X0.170000X-0.140000X0.170000X0*%
%ADD34RoundRect,0.147500X0.147500X0.172500X-0.147500X0.172500X-0.147500X-0.172500X0.147500X-0.172500X0*%
%ADD35RoundRect,0.200000X0.600000X-0.200000X0.600000X0.200000X-0.600000X0.200000X-0.600000X-0.200000X0*%
%ADD36R,1.200000X0.900000*%
%ADD37RoundRect,0.225000X0.225000X0.250000X-0.225000X0.250000X-0.225000X-0.250000X0.225000X-0.250000X0*%
%ADD38RoundRect,0.140000X0.021213X-0.219203X0.219203X-0.021213X-0.021213X0.219203X-0.219203X0.021213X0*%
%ADD39RoundRect,0.006600X0.354826X-0.208597X-0.208597X0.354826X-0.354826X0.208597X0.208597X-0.354826X0*%
%ADD40RoundRect,0.022000X0.333047X0.208597X0.208597X0.333047X-0.333047X-0.208597X-0.208597X-0.333047X0*%
%ADD41RoundRect,0.135000X0.035355X-0.226274X0.226274X-0.035355X-0.035355X0.226274X-0.226274X0.035355X0*%
%ADD42RoundRect,0.200000X-0.200000X0.300000X-0.200000X-0.300000X0.200000X-0.300000X0.200000X0.300000X0*%
%ADD43RoundRect,0.021200X-0.633800X-0.243800X0.633800X-0.243800X0.633800X0.243800X-0.633800X0.243800X0*%
%ADD44R,0.900000X1.200000*%
%ADD45R,1.900000X2.200000*%
%ADD46R,1.761200X0.850800*%
%ADD47R,1.761200X3.150799*%
%ADD48RoundRect,0.150000X0.512500X0.150000X-0.512500X0.150000X-0.512500X-0.150000X0.512500X-0.150000X0*%
%ADD49RoundRect,0.031500X0.143500X-0.430000X0.143500X0.430000X-0.143500X0.430000X-0.143500X-0.430000X0*%
%ADD50RoundRect,0.031500X-0.428000X-0.143500X0.428000X-0.143500X0.428000X0.143500X-0.428000X0.143500X0*%
%ADD51RoundRect,0.031500X-0.143500X0.430000X-0.143500X-0.430000X0.143500X-0.430000X0.143500X0.430000X0*%
%ADD52RoundRect,0.031500X0.428000X0.143500X-0.428000X0.143500X-0.428000X-0.143500X0.428000X-0.143500X0*%
%ADD53RoundRect,0.135000X-0.226274X-0.035355X-0.035355X-0.226274X0.226274X0.035355X0.035355X0.226274X0*%
G04 APERTURE END LIST*
D10*
%TO.C,U1*%
X6853518Y-27500000D02*
X5955492Y-26601974D01*
X5057466Y-27500000D01*
X5955492Y-28398026D01*
X6853518Y-27500000D01*
G36*
X6853518Y-27500000D02*
G01*
X5955492Y-28398026D01*
X5057466Y-27500000D01*
X5955492Y-26601974D01*
X6853518Y-27500000D01*
G37*
X8098026Y-26255492D02*
X7200000Y-25357466D01*
X6301974Y-26255492D01*
X7200000Y-27153518D01*
X8098026Y-26255492D01*
G36*
X8098026Y-26255492D02*
G01*
X7200000Y-27153518D01*
X6301974Y-26255492D01*
X7200000Y-25357466D01*
X8098026Y-26255492D01*
G37*
X8098026Y-28744508D02*
X7200000Y-27846482D01*
X6301974Y-28744508D01*
X7200000Y-29642534D01*
X8098026Y-28744508D01*
G36*
X8098026Y-28744508D02*
G01*
X7200000Y-29642534D01*
X6301974Y-28744508D01*
X7200000Y-27846482D01*
X8098026Y-28744508D01*
G37*
X9342534Y-27500000D02*
X8444508Y-26601974D01*
X7546482Y-27500000D01*
X8444508Y-28398026D01*
X9342534Y-27500000D01*
G36*
X9342534Y-27500000D02*
G01*
X8444508Y-28398026D01*
X7546482Y-27500000D01*
X8444508Y-26601974D01*
X9342534Y-27500000D01*
G37*
%TD*%
D11*
%TO.C,R50*%
X16500000Y-35560000D03*
X16500000Y-34540000D03*
%TD*%
D12*
%TO.C,R78*%
X13235000Y-33975000D03*
X12215000Y-33975000D03*
%TD*%
D13*
%TO.C,R66*%
X-960000Y-20175000D03*
X60000Y-20175000D03*
%TD*%
D14*
%TO.C,R44*%
X6920000Y-37300000D03*
X6920000Y-38320000D03*
%TD*%
%TO.C,R43*%
X3250000Y-34990000D03*
X3250000Y-36010000D03*
%TD*%
D11*
%TO.C,R19*%
X12603200Y-8160000D03*
X12603200Y-7140000D03*
%TD*%
D15*
%TO.C,C5*%
X16610000Y-30255000D03*
X16610000Y-28705000D03*
%TD*%
D13*
%TO.C,R64*%
X-960000Y-21950000D03*
X60000Y-21950000D03*
%TD*%
D16*
%TO.C,IC1*%
X1650000Y-57500000D03*
X2150000Y-57500000D03*
X2650000Y-57500000D03*
X3150000Y-57500000D03*
D17*
X3900000Y-58250000D03*
X3900000Y-58750000D03*
X3900000Y-59250000D03*
X3900000Y-59750000D03*
D16*
X3150000Y-60500000D03*
X2650000Y-60500000D03*
X2150000Y-60500000D03*
X1650000Y-60500000D03*
D17*
X900000Y-59750000D03*
X900000Y-59250000D03*
X900000Y-58750000D03*
X900000Y-58250000D03*
D18*
X2400000Y-59000000D03*
%TD*%
D13*
%TO.C,R73*%
X-960000Y-26550000D03*
X60000Y-26550000D03*
%TD*%
D12*
%TO.C,R84*%
X1340000Y-5250000D03*
X320000Y-5250000D03*
%TD*%
D14*
%TO.C,R54*%
X12740000Y-46290000D03*
X12740000Y-47310000D03*
%TD*%
D19*
%TO.C,C7*%
X14700000Y-30410000D03*
X14700000Y-29450000D03*
%TD*%
D20*
%TO.C,C52*%
X10805000Y-52462500D03*
X9845000Y-52462500D03*
%TD*%
%TO.C,C53*%
X10805000Y-59425000D03*
X9845000Y-59425000D03*
%TD*%
D14*
%TO.C,R7*%
X14000000Y-36690000D03*
X14000000Y-37710000D03*
%TD*%
%TO.C,R14*%
X16450000Y-5440000D03*
X16450000Y-6460000D03*
%TD*%
D11*
%TO.C,R77*%
X20650000Y-38935000D03*
X20650000Y-37915000D03*
%TD*%
%TO.C,R65*%
X20650000Y-46073800D03*
X20650000Y-45053800D03*
%TD*%
D13*
%TO.C,R59*%
X-960000Y-25630000D03*
X60000Y-25630000D03*
%TD*%
D14*
%TO.C,R67*%
X12760000Y-39340000D03*
X12760000Y-40360000D03*
%TD*%
D21*
%TO.C,U3*%
X9000000Y-5186000D03*
X9500000Y-5186000D03*
X10000000Y-5186000D03*
X10500000Y-5186000D03*
X11000000Y-5186000D03*
D22*
X11414000Y-6100000D03*
D23*
X11414000Y-6601000D03*
D24*
X11414000Y-7105000D03*
D21*
X11000000Y-8014000D03*
X10500000Y-8014000D03*
D25*
X9999000Y-8014000D03*
D21*
X9500000Y-8014000D03*
X9000000Y-8014000D03*
D24*
X8586000Y-7105000D03*
D22*
X8586000Y-6600000D03*
X8586000Y-6100000D03*
%TD*%
D26*
%TO.C,Q4*%
X13850000Y-48950000D03*
X13850000Y-47050000D03*
X16250000Y-48000000D03*
%TD*%
D13*
%TO.C,R13*%
X18380000Y-27679269D03*
X19400000Y-27679269D03*
%TD*%
D27*
%TO.C,F2*%
X16180000Y-58450000D03*
X13380000Y-58450000D03*
%TD*%
D28*
%TO.C,C14*%
X4109403Y-31371169D03*
X3430581Y-32049991D03*
%TD*%
D19*
%TO.C,C56*%
X12750000Y-49870000D03*
X12750000Y-48910000D03*
%TD*%
D29*
%TO.C,C17*%
X6325000Y-14020000D03*
X6325000Y-14980000D03*
%TD*%
D13*
%TO.C,R10*%
X18380000Y-28930000D03*
X19400000Y-28930000D03*
%TD*%
%TO.C,R60*%
X-960000Y-24710000D03*
X60000Y-24710000D03*
%TD*%
D20*
%TO.C,C11*%
X13680000Y-31300000D03*
X12720000Y-31300000D03*
%TD*%
D12*
%TO.C,R82*%
X2179999Y-10440000D03*
X1160001Y-10440000D03*
%TD*%
D30*
%TO.C,C66*%
X1065000Y-23570000D03*
X2615000Y-23570000D03*
%TD*%
D31*
%TO.C,U13*%
X8204755Y-19435678D03*
X7306729Y-20333704D03*
X6408704Y-21231729D03*
X5510678Y-22129755D03*
X-4755Y-16614322D03*
X893271Y-15716296D03*
X1791296Y-14818271D03*
X2689322Y-13920245D03*
D32*
X4100000Y-18025000D03*
%TD*%
D33*
%TO.C,C26*%
X13410000Y-23450000D03*
X14370000Y-23450000D03*
%TD*%
D34*
%TO.C,L1*%
X20370000Y-22500000D03*
X19400000Y-22500000D03*
%TD*%
D14*
%TO.C,R62*%
X20650000Y-46979600D03*
X20650000Y-47999600D03*
%TD*%
D27*
%TO.C,F4*%
X16180000Y-44450000D03*
X13380000Y-44450000D03*
%TD*%
D26*
%TO.C,Q2*%
X13850000Y-55950000D03*
X13850000Y-54050000D03*
X16250000Y-55000000D03*
%TD*%
D35*
%TO.C,AE1*%
X20400000Y-19400000D03*
X20400000Y-16200000D03*
%TD*%
D11*
%TO.C,R51*%
X17750000Y-35560000D03*
X17750000Y-34540000D03*
%TD*%
D12*
%TO.C,R81*%
X1340000Y-6060000D03*
X320000Y-6060000D03*
%TD*%
D36*
%TO.C,D3*%
X-1650000Y-36750000D03*
X-1650000Y-33450000D03*
%TD*%
D37*
%TO.C,C21*%
X5675000Y100000D03*
X4125000Y100000D03*
%TD*%
D38*
%TO.C,C15*%
X9685589Y-22064411D03*
X10364411Y-21385589D03*
%TD*%
D29*
%TO.C,C3*%
X1875000Y-27345000D03*
X1875000Y-28305000D03*
%TD*%
D14*
%TO.C,R53*%
X12740000Y-53260000D03*
X12740000Y-54280000D03*
%TD*%
D39*
%TO.C,U1*%
X11474460Y-28097505D03*
X11191618Y-28380348D03*
X10908775Y-28663191D03*
X10625932Y-28946033D03*
X10343090Y-29228876D03*
X10060247Y-29511719D03*
X9777404Y-29794562D03*
X9494562Y-30077404D03*
X9211719Y-30360247D03*
X8928876Y-30643090D03*
X8646033Y-30925932D03*
X8363191Y-31208775D03*
X8080348Y-31491618D03*
X7797505Y-31774460D03*
D40*
X6602495Y-31774460D03*
X6319652Y-31491618D03*
X6036809Y-31208775D03*
X5753967Y-30925932D03*
X5471124Y-30643090D03*
X5188281Y-30360247D03*
X4905438Y-30077404D03*
X4622596Y-29794562D03*
X4339753Y-29511719D03*
X4056910Y-29228876D03*
X3774068Y-28946033D03*
X3491225Y-28663191D03*
X3208382Y-28380348D03*
X2925540Y-28097505D03*
D39*
X2925540Y-26902495D03*
X3208382Y-26619652D03*
X3491225Y-26336809D03*
X3774068Y-26053967D03*
X4056910Y-25771124D03*
X4339753Y-25488281D03*
X4622596Y-25205438D03*
X4905438Y-24922596D03*
X5188281Y-24639753D03*
X5471124Y-24356910D03*
X5753967Y-24074068D03*
X6036809Y-23791225D03*
X6319652Y-23508382D03*
X6602495Y-23225540D03*
D40*
X7797505Y-23225540D03*
X8080348Y-23508382D03*
X8363191Y-23791225D03*
X8646033Y-24074068D03*
X8928876Y-24356910D03*
X9211719Y-24639753D03*
X9494562Y-24922596D03*
X9777404Y-25205438D03*
X10060247Y-25488281D03*
X10343090Y-25771124D03*
X10625932Y-26053967D03*
X10908775Y-26336809D03*
X11191618Y-26619652D03*
X11474460Y-26902495D03*
%TD*%
D13*
%TO.C,R12*%
X18380000Y-26390000D03*
X19400000Y-26390000D03*
%TD*%
D20*
%TO.C,C20*%
X8980000Y-4050000D03*
X8020000Y-4050000D03*
%TD*%
D33*
%TO.C,C69*%
X2920000Y-61700000D03*
X3880000Y-61700000D03*
%TD*%
D26*
%TO.C,Q8*%
X13850000Y-41960000D03*
X13850000Y-40060000D03*
X16250000Y-41010000D03*
%TD*%
D28*
%TO.C,C49*%
X464411Y-14435589D03*
X-214411Y-15114411D03*
%TD*%
D41*
%TO.C,R5*%
X2139376Y-30910624D03*
X2860624Y-30189376D03*
%TD*%
D42*
%TO.C,Y2*%
X13540000Y-20830000D03*
X15640000Y-20830000D03*
X15640000Y-22230000D03*
X13540000Y-22230000D03*
%TD*%
D26*
%TO.C,Q6*%
X9900000Y-56050000D03*
X9900000Y-54150000D03*
X12300000Y-55100000D03*
%TD*%
D37*
%TO.C,C44*%
X1850000Y-61650000D03*
X300000Y-61650000D03*
%TD*%
D14*
%TO.C,R61*%
X20650000Y-53940000D03*
X20650000Y-54960000D03*
%TD*%
D30*
%TO.C,C43*%
X5050000Y-56600000D03*
X6600000Y-56600000D03*
%TD*%
D19*
%TO.C,C24*%
X12390000Y-21820000D03*
X12390000Y-20860000D03*
%TD*%
D30*
%TO.C,C42*%
X5050000Y-54100000D03*
X6600000Y-54100000D03*
%TD*%
D43*
%TO.C,U2*%
X8800000Y-14100000D03*
X8800000Y-12850000D03*
X8800000Y-11600000D03*
X8800000Y-10350000D03*
X11200000Y-10350000D03*
X11200000Y-11600000D03*
X11200000Y-12850000D03*
X11200000Y-14100000D03*
%TD*%
D44*
%TO.C,D4*%
X1800000Y-63100000D03*
X5100000Y-63100000D03*
%TD*%
D38*
%TO.C,C13*%
X12835589Y-26689411D03*
X13514411Y-26010589D03*
%TD*%
D12*
%TO.C,R31*%
X14860000Y-62360000D03*
X13840000Y-62360000D03*
%TD*%
D20*
%TO.C,C59*%
X10000Y-22870000D03*
X-950000Y-22870000D03*
%TD*%
%TO.C,C39*%
X6580000Y-33310000D03*
X5620000Y-33310000D03*
%TD*%
D33*
%TO.C,C25*%
X13410000Y-24350000D03*
X14370000Y-24350000D03*
%TD*%
D13*
%TO.C,R33*%
X13840001Y-61400000D03*
X14859999Y-61400000D03*
%TD*%
%TO.C,R11*%
X18380000Y-30200000D03*
X19400000Y-30200000D03*
%TD*%
%TO.C,R74*%
X-960000Y-19225000D03*
X60000Y-19225000D03*
%TD*%
D34*
%TO.C,L2*%
X13685000Y-30350000D03*
X12715000Y-30350000D03*
%TD*%
D19*
%TO.C,C19*%
X7550000Y-6830000D03*
X7550000Y-5870000D03*
%TD*%
D20*
%TO.C,C1*%
X20380000Y-21600000D03*
X19420000Y-21600000D03*
%TD*%
D19*
%TO.C,C6*%
X15600000Y-30410000D03*
X15600000Y-29450000D03*
%TD*%
D14*
%TO.C,R17*%
X12250000Y560000D03*
X12250000Y-460000D03*
%TD*%
D15*
%TO.C,C18*%
X6500000Y-6635000D03*
X6500000Y-5085000D03*
%TD*%
D20*
%TO.C,C45*%
X5780000Y-60700000D03*
X4820000Y-60700000D03*
%TD*%
D41*
%TO.C,R6*%
X1420956Y-30192204D03*
X2142204Y-29470956D03*
%TD*%
D12*
%TO.C,R83*%
X2180000Y-11240000D03*
X1160000Y-11240000D03*
%TD*%
D29*
%TO.C,C4*%
X925000Y-27345000D03*
X925000Y-28305000D03*
%TD*%
D14*
%TO.C,R58*%
X9875000Y-50090000D03*
X9875000Y-51110000D03*
%TD*%
%TO.C,R8*%
X15250000Y-36690000D03*
X15250000Y-37710000D03*
%TD*%
D33*
%TO.C,C51*%
X11448296Y1450421D03*
X12408296Y1450421D03*
%TD*%
D45*
%TO.C,L4*%
X-625000Y-54525000D03*
X3275000Y-54525000D03*
%TD*%
D11*
%TO.C,R63*%
X20650000Y-53029600D03*
X20650000Y-52009600D03*
%TD*%
D13*
%TO.C,R15*%
X12740000Y-32250000D03*
X13760000Y-32250000D03*
%TD*%
D11*
%TO.C,R20*%
X17990000Y-33200000D03*
X17990000Y-32180000D03*
%TD*%
D27*
%TO.C,F3*%
X16180000Y-51550000D03*
X13380000Y-51550000D03*
%TD*%
D19*
%TO.C,C40*%
X6500000Y-50980000D03*
X6500000Y-50020000D03*
%TD*%
D44*
%TO.C,D14*%
X1850000Y-37250000D03*
X5150000Y-37250000D03*
%TD*%
D14*
%TO.C,R75*%
X20650000Y-39947000D03*
X20650000Y-40967000D03*
%TD*%
D46*
%TO.C,U10*%
X4525000Y-46289000D03*
X4525000Y-48589000D03*
X4525000Y-50889000D03*
D47*
X-1525000Y-48589000D03*
%TD*%
D14*
%TO.C,R57*%
X9875000Y-57065000D03*
X9875000Y-58085000D03*
%TD*%
D19*
%TO.C,C23*%
X7775000Y-1880000D03*
X7775000Y-920000D03*
%TD*%
D28*
%TO.C,C50*%
X-135589Y-13835589D03*
X-814411Y-14514411D03*
%TD*%
D30*
%TO.C,C67*%
X5050000Y-52850000D03*
X6600000Y-52850000D03*
%TD*%
D26*
%TO.C,Q7*%
X9900000Y-49050000D03*
X9900000Y-47150000D03*
X12300000Y-48100000D03*
%TD*%
D33*
%TO.C,C8*%
X12720000Y-29400000D03*
X13680000Y-29400000D03*
%TD*%
D19*
%TO.C,C57*%
X12750000Y-42760000D03*
X12750000Y-41800000D03*
%TD*%
D20*
%TO.C,C54*%
X10805000Y-45500000D03*
X9845000Y-45500000D03*
%TD*%
D48*
%TO.C,U11*%
X1850000Y-7250000D03*
X1850000Y-8200000D03*
X1850000Y-9150000D03*
X-425000Y-9150000D03*
X-425000Y-8200000D03*
X-425000Y-7250000D03*
%TD*%
D30*
%TO.C,C68*%
X5050000Y-55350000D03*
X6600000Y-55350000D03*
%TD*%
D26*
%TO.C,Q1*%
X4300000Y-40700000D03*
X4300000Y-38800000D03*
X6700000Y-39750000D03*
%TD*%
D20*
%TO.C,C22*%
X8036953Y1567264D03*
X7076953Y1567264D03*
%TD*%
D11*
%TO.C,R9*%
X15250000Y-35560000D03*
X15250000Y-34540000D03*
%TD*%
D49*
%TO.C,U4*%
X10750000Y-2316500D03*
X10250000Y-2316500D03*
X9750000Y-2316500D03*
X9250000Y-2316500D03*
D50*
X8935500Y-1500000D03*
X8935500Y-1000000D03*
X8935500Y-500000D03*
D51*
X9250000Y316500D03*
X9750000Y316500D03*
X10250000Y316500D03*
X10750000Y316500D03*
D52*
X11064500Y-500000D03*
X11064500Y-1000000D03*
X11064500Y-1500000D03*
%TD*%
D14*
%TO.C,R24*%
X16450000Y-7740000D03*
X16450000Y-8760000D03*
%TD*%
D19*
%TO.C,C16*%
X7300000Y-13980000D03*
X7300000Y-13020000D03*
%TD*%
D20*
%TO.C,C60*%
X10000Y-23790000D03*
X-950000Y-23790000D03*
%TD*%
D26*
%TO.C,Q12*%
X9900000Y-42050000D03*
X9900000Y-40150000D03*
X12300000Y-41100000D03*
%TD*%
D14*
%TO.C,R16*%
X7325000Y-9340000D03*
X7325000Y-10360000D03*
%TD*%
D19*
%TO.C,C2*%
X18550000Y-22530000D03*
X18550000Y-21570000D03*
%TD*%
%TO.C,C55*%
X12750000Y-56890000D03*
X12750000Y-55930000D03*
%TD*%
D38*
%TO.C,C12*%
X12171589Y-26009411D03*
X12850411Y-25330589D03*
%TD*%
D12*
%TO.C,R18*%
X13985000Y-35775000D03*
X12965000Y-35775000D03*
%TD*%
D15*
%TO.C,C41*%
X6250000Y-48405000D03*
X6250000Y-46855000D03*
%TD*%
D11*
%TO.C,R32*%
X7500000Y-34334999D03*
X7500000Y-33315001D03*
%TD*%
D53*
%TO.C,R41*%
X8639376Y-17389376D03*
X9360624Y-18110624D03*
%TD*%
D14*
%TO.C,R71*%
X9875000Y-43115000D03*
X9875000Y-44135000D03*
%TD*%
M02*
