%TF.GenerationSoftware,KiCad,Pcbnew,10.0.5*%
%TF.CreationDate,2026-09-28T20:28:07+02:00*%
%TF.ProjectId,kp-ptr,6b702d70-7472-42e6-9b69-6361645f7063,rev?*%
%TF.SameCoordinates,Original*%
%TF.FileFunction,Soldermask,Top*%
%TF.FilePolarity,Negative*%
%FSLAX46Y46*%
G04 Gerber Fmt 4.6, Leading zero omitted, Abs format (unit mm)*
G04 Created by KiCad (PCBNEW 10.0.5) date 2026-09-28 20:28:07*
%MOMM*%
%LPD*%
G01*
G04 APERTURE LIST*
G04 Aperture macros list*
%AMRoundRect*
0 Rectangle with rounded corners*
0 $1 Rounding radius*
0 $2 $3 $4 $5 $6 $7 $8 $9 X,Y pos of 4 corners*
0 Add a 4 corners polygon primitive as box body*
4,1,4,$2,$3,$4,$5,$6,$7,$8,$9,$2,$3,0*
0 Add four circle primitives for the rounded corners*
1,1,$1+$1,$2,$3*
1,1,$1+$1,$4,$5*
1,1,$1+$1,$6,$7*
1,1,$1+$1,$8,$9*
0 Add four rect primitives between the rounded corners*
20,1,$1+$1,$2,$3,$4,$5,0*
20,1,$1+$1,$4,$5,$6,$7,0*
20,1,$1+$1,$6,$7,$8,$9,0*
20,1,$1+$1,$8,$9,$2,$3,0*%
G04 Aperture macros list end*
%ADD10O,2.000000X2.500000*%
%ADD11O,2.000000X3.000000*%
%ADD12C,0.700000*%
%ADD13RoundRect,0.750000X-0.750000X-1.750000X0.750000X-1.750000X0.750000X1.750000X-0.750000X1.750000X0*%
%ADD14RoundRect,0.250001X0.949999X-0.949999X0.949999X0.949999X-0.949999X0.949999X-0.949999X-0.949999X0*%
%ADD15C,2.400000*%
%ADD16R,1.150000X0.600000*%
%ADD17R,1.150000X0.300000*%
%ADD18O,2.100000X1.000000*%
%ADD19O,1.800000X1.000000*%
%ADD20R,0.736600X0.609600*%
%ADD21R,1.100000X0.850000*%
%ADD22R,1.100000X0.750000*%
%ADD23R,1.000000X1.200000*%
%ADD24R,1.350000X1.550000*%
%ADD25R,1.350000X1.900000*%
%ADD26R,1.800000X1.170000*%
%ADD27C,6.000000*%
%ADD28R,1.600000X1.600000*%
%ADD29C,1.600000*%
%ADD30RoundRect,0.150000X-0.150000X-0.700000X0.150000X-0.700000X0.150000X0.700000X-0.150000X0.700000X0*%
%ADD31RoundRect,0.250000X-0.250000X-1.150000X0.250000X-1.150000X0.250000X1.150000X-0.250000X1.150000X0*%
%ADD32RoundRect,0.250000X0.750000X0.750000X-0.750000X0.750000X-0.750000X-0.750000X0.750000X-0.750000X0*%
%ADD33C,2.000000*%
%ADD34R,1.700000X1.700000*%
%ADD35C,1.700000*%
%ADD36R,1.000000X1.000000*%
%ADD37O,1.000000X1.000000*%
%ADD38RoundRect,0.273403X-1.126597X-0.976597X1.126597X-0.976597X1.126597X0.976597X-1.126597X0.976597X0*%
%ADD39RoundRect,0.255415X-1.144585X-0.994585X1.144585X-0.994585X1.144585X0.994585X-1.144585X0.994585X0*%
G04 APERTURE END LIST*
D10*
%TO.C,J2*%
X8000000Y-68450000D03*
D11*
X11500000Y-68450000D03*
D12*
X7000000Y-62950000D03*
X7000000Y-65450000D03*
D13*
X8000000Y-64200000D03*
D12*
X9000000Y-62950000D03*
X9000000Y-65450000D03*
X10500000Y-62950000D03*
X10500000Y-65450000D03*
D13*
X11500000Y-64200000D03*
D12*
X12500000Y-62950000D03*
X12500000Y-65450000D03*
%TD*%
D14*
%TO.C,J5*%
X18060000Y-58420000D03*
D15*
X18060000Y-54920000D03*
X18060000Y-51420000D03*
X18060000Y-47920000D03*
X18060000Y-44420000D03*
X18060000Y-40920000D03*
%TD*%
D16*
%TO.C,J4*%
X4375000Y-4966800D03*
X4375000Y-5766800D03*
D17*
X4375000Y-6916800D03*
X4375000Y-7916800D03*
X4375000Y-8416800D03*
X4375000Y-9416800D03*
D16*
X4375000Y-11366800D03*
X4375000Y-10566800D03*
D17*
X4375000Y-9916800D03*
X4375000Y-8916800D03*
X4375000Y-7416800D03*
X4375000Y-6416800D03*
D18*
X3800000Y-3846800D03*
D19*
X-380000Y-3846800D03*
D18*
X3800000Y-12486800D03*
D19*
X-380000Y-12486800D03*
%TD*%
D20*
%TO.C,D12*%
X13793800Y-51424999D03*
X13793800Y-50425001D03*
X11406200Y-50425001D03*
X11406200Y-51424999D03*
%TD*%
%TO.C,D13*%
X13793800Y-58549999D03*
X13793800Y-57550001D03*
X11406200Y-57550001D03*
X11406200Y-58549999D03*
%TD*%
D21*
%TO.C,J14*%
X1537500Y-26805000D03*
X1537500Y-25705000D03*
X1537500Y-24605000D03*
X1537500Y-23505000D03*
X1537500Y-22405000D03*
X1537500Y-21305000D03*
X1537500Y-20205000D03*
D22*
X1537500Y-19155000D03*
D23*
X7687500Y-29440000D03*
X11387500Y-29440000D03*
D24*
X1662500Y-29265000D03*
D25*
X12362500Y-25940000D03*
X12362500Y-19970000D03*
D26*
X1887500Y-17945000D03*
%TD*%
D27*
%TO.C,H3*%
X19000000Y0D03*
%TD*%
D28*
%TO.C,LS1*%
X1000000Y-35250000D03*
D29*
X6000000Y-35250000D03*
%TD*%
D27*
%TO.C,H4*%
X0Y0D03*
%TD*%
D30*
%TO.C,J8*%
X12750000Y-37250000D03*
X14000000Y-37250000D03*
X15250000Y-37250000D03*
X16500000Y-37250000D03*
X17750000Y-37250000D03*
X19000000Y-37250000D03*
D31*
X10900000Y-33900000D03*
X20850000Y-33900000D03*
%TD*%
D27*
%TO.C,H2*%
X19000000Y-68000000D03*
%TD*%
D32*
%TO.C,C61*%
X5017677Y-42750000D03*
D33*
X17677Y-42750000D03*
%TD*%
D20*
%TO.C,D10*%
X8306200Y499999D03*
X8306200Y-499999D03*
X10693800Y-499999D03*
X10693800Y499999D03*
%TD*%
%TO.C,D11*%
X13793800Y-44299999D03*
X13793800Y-43300001D03*
X11406200Y-43300001D03*
X11406200Y-44299999D03*
%TD*%
D27*
%TO.C,H1*%
X0Y-68000000D03*
%TD*%
D34*
%TO.C,J3*%
X18210000Y-5800000D03*
D35*
X20750000Y-5800000D03*
X18210000Y-8340000D03*
X20750000Y-8340000D03*
%TD*%
D36*
%TO.C,J1*%
X20800000Y-25090000D03*
D37*
X20800000Y-26360000D03*
X20800000Y-27630000D03*
X20800000Y-28900000D03*
X20800000Y-30170000D03*
X20800000Y-31440000D03*
%TD*%
D38*
%TO.C,J7*%
X17175000Y-61925000D03*
D39*
X20415000Y-61925000D03*
%TD*%
M02*
