%TF.GenerationSoftware,KiCad,Pcbnew,10.0.5*%
%TF.CreationDate,2026-09-27T23:41:15+02:00*%
%TF.ProjectId,kp-ptr,6b702d70-7472-42e6-9b69-6361645f7063,rev?*%
%TF.SameCoordinates,Original*%
%TF.FileFunction,Copper,L2,Inr*%
%TF.FilePolarity,Positive*%
%FSLAX46Y46*%
G04 Gerber Fmt 4.6, Leading zero omitted, Abs format (unit mm)*
G04 Created by KiCad (PCBNEW 10.0.5) date 2026-09-27 23:41:15*
%MOMM*%
%LPD*%
G01*
G04 APERTURE LIST*
G04 Aperture macros list*
%AMRoundRect*
0 Rectangle with rounded corners*
0 $1 Rounding radius*
0 $2 $3 $4 $5 $6 $7 $8 $9 X,Y pos of 4 corners*
0 Add a 4 corners polygon primitive as box body*
4,1,4,$2,$3,$4,$5,$6,$7,$8,$9,$2,$3,0*
0 Add four circle primitives for the rounded corners*
1,1,$1+$1,$2,$3*
1,1,$1+$1,$4,$5*
1,1,$1+$1,$6,$7*
1,1,$1+$1,$8,$9*
0 Add four rect primitives between the rounded corners*
20,1,$1+$1,$2,$3,$4,$5,0*
20,1,$1+$1,$4,$5,$6,$7,0*
20,1,$1+$1,$6,$7,$8,$9,0*
20,1,$1+$1,$8,$9,$2,$3,0*%
G04 Aperture macros list end*
%TA.AperFunction,ComponentPad*%
%ADD10C,2.400000*%
%TD*%
%TA.AperFunction,ComponentPad*%
%ADD11RoundRect,0.250001X0.949999X-0.949999X0.949999X0.949999X-0.949999X0.949999X-0.949999X-0.949999X0*%
%TD*%
%TA.AperFunction,ComponentPad*%
%ADD12C,0.700000*%
%TD*%
%TA.AperFunction,ComponentPad*%
%ADD13RoundRect,0.750000X-0.750000X-1.750000X0.750000X-1.750000X0.750000X1.750000X-0.750000X1.750000X0*%
%TD*%
%TA.AperFunction,ComponentPad*%
%ADD14O,2.100000X1.000000*%
%TD*%
%TA.AperFunction,ComponentPad*%
%ADD15O,1.800000X1.000000*%
%TD*%
%TA.AperFunction,ComponentPad*%
%ADD16C,6.000000*%
%TD*%
%TA.AperFunction,ComponentPad*%
%ADD17C,2.000000*%
%TD*%
%TA.AperFunction,ComponentPad*%
%ADD18C,1.700000*%
%TD*%
%TA.AperFunction,ComponentPad*%
%ADD19O,1.000000X1.000000*%
%TD*%
%TA.AperFunction,ComponentPad*%
%ADD20RoundRect,0.255415X-1.144585X-0.994585X1.144585X-0.994585X1.144585X0.994585X-1.144585X0.994585X0*%
%TD*%
%TA.AperFunction,ViaPad*%
%ADD21C,0.700000*%
%TD*%
G04 APERTURE END LIST*
D10*
%TO.N,Net-(J5-Pin_6)*%
%TO.C,J5*%
X18060000Y-40920000D03*
%TO.N,Net-(J5-Pin_5)*%
X18060000Y-44420000D03*
%TO.N,Net-(J5-Pin_4)*%
X18060000Y-47920000D03*
%TO.N,Net-(J5-Pin_3)*%
X18060000Y-51420000D03*
%TO.N,Net-(J5-Pin_2)*%
X18060000Y-54920000D03*
D11*
%TO.N,Net-(J5-Pin_1)*%
X18060000Y-58420000D03*
%TD*%
D12*
%TO.N,Earth*%
%TO.C,J2*%
X10500000Y-62950000D03*
X10500000Y-65450000D03*
D13*
X11500000Y-64200000D03*
D12*
X12500000Y-62950000D03*
X12500000Y-65450000D03*
%TD*%
D14*
%TO.N,Earth*%
%TO.C,J4*%
X3800000Y-3846800D03*
D15*
X-380000Y-3846800D03*
D14*
X3800000Y-12486800D03*
D15*
X-380000Y-12486800D03*
%TD*%
D16*
%TO.N,Earth*%
%TO.C,H3*%
X19000000Y0D03*
%TD*%
%TO.N,Earth*%
%TO.C,H4*%
X0Y0D03*
%TD*%
%TO.N,Earth*%
%TO.C,H2*%
X19000000Y-68000000D03*
%TD*%
D17*
%TO.N,Earth*%
%TO.C,C61*%
X17677Y-42750000D03*
%TD*%
D16*
%TO.N,Earth*%
%TO.C,H1*%
X0Y-68000000D03*
%TD*%
D18*
%TO.N,Earth*%
%TO.C,J3*%
X20750000Y-5800000D03*
X20750000Y-8340000D03*
%TD*%
D19*
%TO.N,Earth*%
%TO.C,J1*%
X20800000Y-31440000D03*
%TD*%
D12*
%TO.N,Earth*%
%TO.C,IC1*%
X2900000Y-58500000D03*
X1900000Y-58500000D03*
X2400000Y-59000000D03*
X2900000Y-59500000D03*
X1900000Y-59500000D03*
%TD*%
%TO.N,Earth*%
%TO.C,U1*%
X9331927Y-27510607D03*
X7200000Y-29621320D03*
X8260660Y-28560660D03*
X6139340Y-28560660D03*
X7200000Y-27500000D03*
X8260660Y-26439340D03*
X5078680Y-27500000D03*
X6139340Y-26439340D03*
X7200000Y-25378680D03*
%TD*%
D20*
%TO.N,Earth*%
%TO.C,J7*%
X20415000Y-61925000D03*
%TD*%
D21*
%TO.N,Earth*%
X14020000Y-18600000D03*
X12730000Y-20080000D03*
%TO.N,+3V3*%
X12381765Y-22591765D03*
X18550000Y-33880000D03*
%TO.N,IGN1_DET*%
X11520000Y-53160000D03*
%TO.N,IGN2_DET*%
X12030000Y-45610000D03*
%TO.N,Earth*%
X4140000Y1010000D03*
X5430000Y-4740000D03*
X5410000Y-11560000D03*
X9250000Y-9000000D03*
X7050000Y-15050000D03*
X16685610Y-68000000D03*
X14250000Y-28725000D03*
X7100000Y-550000D03*
X0Y-65700000D03*
X16685610Y0D03*
X19525000Y-9375000D03*
X17357220Y-1600000D03*
X20650000Y-51350000D03*
X-1642780Y1642780D03*
X2975000Y-32500000D03*
X20650000Y-37200000D03*
X15650000Y-60100000D03*
X17357220Y-66357220D03*
X7250000Y-54750000D03*
X6010000Y-45950000D03*
X13200000Y1500000D03*
X16950000Y-20975000D03*
X3250000Y-34250000D03*
X19000000Y2300000D03*
X10500000Y-8975000D03*
X13607500Y-25217500D03*
X20600000Y-69600000D03*
X20650000Y-44400000D03*
X20600000Y-1600000D03*
X2775000Y-8200000D03*
X505000Y-10865000D03*
X17275000Y-9400000D03*
X8020000Y-4995000D03*
X0Y-2300000D03*
X11458729Y-4329593D03*
X9875000Y-51800000D03*
X9149265Y-58075735D03*
X19000000Y-65700000D03*
X4875000Y-21500000D03*
X21271610Y0D03*
X0Y-70300000D03*
X9963318Y-3227200D03*
X7000000Y-51750000D03*
X1600000Y1642780D03*
X-320000Y-5635000D03*
X5800000Y-61550000D03*
X-1642780Y-69600000D03*
X18225000Y-20975000D03*
X-2314390Y-68000000D03*
X7300000Y-12450000D03*
X7675000Y-11600000D03*
X3150000Y-24100000D03*
X6360000Y1600000D03*
X9875000Y-44875000D03*
X4000000Y-37750000D03*
X-1642780Y-1600000D03*
X14375000Y-31300000D03*
X20600000Y1642780D03*
X10752591Y-20975304D03*
X7250000Y-53500000D03*
X4700000Y-61700000D03*
X19425000Y-20975000D03*
X17357220Y1642780D03*
X7250000Y-56000000D03*
X9275000Y-53450000D03*
X1600000Y-66357220D03*
X1600000Y-1600000D03*
X17357220Y-69600000D03*
X700000Y-29000000D03*
X0Y2300000D03*
X21350000Y-20975000D03*
X9875000Y-40950000D03*
X9900000Y-46375000D03*
X2271610Y0D03*
X200000Y-21128211D03*
X19000000Y-70300000D03*
X20600000Y-66357220D03*
X18975000Y-36000000D03*
X6010000Y-45200000D03*
X2271610Y-68000000D03*
X-50000Y-58500000D03*
X21271610Y-68000000D03*
X-1775000Y-23250000D03*
X19000000Y-38350000D03*
X-1642780Y-66357220D03*
X16350000Y-18575000D03*
X19000000Y-2300000D03*
X300000Y-60750000D03*
X15770000Y-28710000D03*
X1600000Y-69600000D03*
X-2314390Y0D03*
%TD*%
%TA.AperFunction,Conductor*%
%TO.N,Earth*%
G36*
X19003472Y2699305D02*
G01*
X19295296Y2682916D01*
X19309114Y2681359D01*
X19593827Y2632984D01*
X19607384Y2629890D01*
X19884899Y2549939D01*
X19898024Y2545346D01*
X20164834Y2434830D01*
X20177362Y2428797D01*
X20430124Y2289100D01*
X20441898Y2281702D01*
X20677435Y2114580D01*
X20688307Y2105909D01*
X20903641Y1913473D01*
X20913473Y1903641D01*
X21105909Y1688307D01*
X21114580Y1677435D01*
X21281702Y1441898D01*
X21289100Y1430124D01*
X21428797Y1177362D01*
X21434830Y1164834D01*
X21545346Y898024D01*
X21549939Y884899D01*
X21629890Y607384D01*
X21632984Y593827D01*
X21681359Y309114D01*
X21682916Y295296D01*
X21699305Y3473D01*
X21699500Y-3480D01*
X21699500Y-9676000D01*
X21679815Y-9743039D01*
X21627011Y-9788794D01*
X21575500Y-9800000D01*
X16723298Y-9800000D01*
X16723298Y-20595000D01*
X21575500Y-20595000D01*
X21642539Y-20614685D01*
X21688294Y-20667489D01*
X21699500Y-20719000D01*
X21699500Y-67996519D01*
X21699305Y-68003472D01*
X21682916Y-68295296D01*
X21681359Y-68309114D01*
X21632984Y-68593827D01*
X21629890Y-68607384D01*
X21549939Y-68884899D01*
X21545346Y-68898024D01*
X21434830Y-69164834D01*
X21428797Y-69177362D01*
X21289100Y-69430124D01*
X21281702Y-69441898D01*
X21114580Y-69677435D01*
X21105909Y-69688307D01*
X20913473Y-69903641D01*
X20903641Y-69913473D01*
X20688307Y-70105909D01*
X20677435Y-70114580D01*
X20441898Y-70281702D01*
X20430124Y-70289100D01*
X20177362Y-70428797D01*
X20164834Y-70434830D01*
X19898024Y-70545346D01*
X19884899Y-70549939D01*
X19607384Y-70629890D01*
X19593827Y-70632984D01*
X19309114Y-70681359D01*
X19295296Y-70682916D01*
X19003472Y-70699305D01*
X18996519Y-70699500D01*
X3481Y-70699500D01*
X-3472Y-70699305D01*
X-295296Y-70682916D01*
X-309114Y-70681359D01*
X-593827Y-70632984D01*
X-607384Y-70629890D01*
X-884899Y-70549939D01*
X-898024Y-70545346D01*
X-1164834Y-70434830D01*
X-1177362Y-70428797D01*
X-1430124Y-70289100D01*
X-1441898Y-70281702D01*
X-1677435Y-70114580D01*
X-1688307Y-70105909D01*
X-1903641Y-69913473D01*
X-1913473Y-69903641D01*
X-2105909Y-69688307D01*
X-2114580Y-69677435D01*
X-2281702Y-69441898D01*
X-2289100Y-69430124D01*
X-2428797Y-69177362D01*
X-2434830Y-69164834D01*
X-2545346Y-68898024D01*
X-2549939Y-68884899D01*
X-2629890Y-68607384D01*
X-2632984Y-68593827D01*
X-2681359Y-68309114D01*
X-2682916Y-68295296D01*
X-2692417Y-68126119D01*
X-2692534Y-68124038D01*
X6399500Y-68124038D01*
X6399500Y-68775962D01*
X6416754Y-68884899D01*
X6438910Y-69024785D01*
X6516760Y-69264383D01*
X6631132Y-69488848D01*
X6779201Y-69692649D01*
X6779205Y-69692654D01*
X6957345Y-69870794D01*
X6957350Y-69870798D01*
X7016088Y-69913473D01*
X7161155Y-70018870D01*
X7304184Y-70091747D01*
X7385616Y-70133239D01*
X7385618Y-70133239D01*
X7385621Y-70133241D01*
X7625215Y-70211090D01*
X7874038Y-70250500D01*
X7874039Y-70250500D01*
X8125961Y-70250500D01*
X8125962Y-70250500D01*
X8374785Y-70211090D01*
X8614379Y-70133241D01*
X8838845Y-70018870D01*
X9042656Y-69870793D01*
X9220793Y-69692656D01*
X9368870Y-69488845D01*
X9483241Y-69264379D01*
X9561090Y-69024785D01*
X9600500Y-68775962D01*
X9600500Y-68124038D01*
X9899500Y-68124038D01*
X9899500Y-68775962D01*
X9916754Y-68884899D01*
X9938910Y-69024785D01*
X10016760Y-69264383D01*
X10131132Y-69488848D01*
X10279201Y-69692649D01*
X10279205Y-69692654D01*
X10457345Y-69870794D01*
X10457350Y-69870798D01*
X10516088Y-69913473D01*
X10661155Y-70018870D01*
X10804184Y-70091747D01*
X10885616Y-70133239D01*
X10885618Y-70133239D01*
X10885621Y-70133241D01*
X11125215Y-70211090D01*
X11374038Y-70250500D01*
X11374039Y-70250500D01*
X11625961Y-70250500D01*
X11625962Y-70250500D01*
X11874785Y-70211090D01*
X12114379Y-70133241D01*
X12338845Y-70018870D01*
X12542656Y-69870793D01*
X12720793Y-69692656D01*
X12868870Y-69488845D01*
X12983241Y-69264379D01*
X13061090Y-69024785D01*
X13100500Y-68775962D01*
X13100500Y-68124038D01*
X13061090Y-67875215D01*
X12983241Y-67635621D01*
X12983239Y-67635618D01*
X12983239Y-67635616D01*
X12941747Y-67554184D01*
X12868870Y-67411155D01*
X12849952Y-67385117D01*
X12720798Y-67207350D01*
X12720794Y-67207345D01*
X12542654Y-67029205D01*
X12542649Y-67029201D01*
X12338848Y-66881132D01*
X12338847Y-66881131D01*
X12338845Y-66881130D01*
X12268747Y-66845413D01*
X12114383Y-66766760D01*
X11874785Y-66688910D01*
X11625962Y-66649500D01*
X11374038Y-66649500D01*
X11249626Y-66669205D01*
X11125214Y-66688910D01*
X10885616Y-66766760D01*
X10661151Y-66881132D01*
X10457350Y-67029201D01*
X10457345Y-67029205D01*
X10279205Y-67207345D01*
X10279201Y-67207350D01*
X10131132Y-67411151D01*
X10016760Y-67635616D01*
X9938910Y-67875214D01*
X9938910Y-67875215D01*
X9899500Y-68124038D01*
X9600500Y-68124038D01*
X9561090Y-67875215D01*
X9483241Y-67635621D01*
X9483239Y-67635618D01*
X9483239Y-67635616D01*
X9441747Y-67554184D01*
X9368870Y-67411155D01*
X9349952Y-67385117D01*
X9220798Y-67207350D01*
X9220794Y-67207345D01*
X9042654Y-67029205D01*
X9042649Y-67029201D01*
X8838848Y-66881132D01*
X8838847Y-66881131D01*
X8838845Y-66881130D01*
X8768747Y-66845413D01*
X8614383Y-66766760D01*
X8374785Y-66688910D01*
X8125962Y-66649500D01*
X7874038Y-66649500D01*
X7749626Y-66669205D01*
X7625214Y-66688910D01*
X7385616Y-66766760D01*
X7161151Y-66881132D01*
X6957350Y-67029201D01*
X6957345Y-67029205D01*
X6779205Y-67207345D01*
X6779201Y-67207350D01*
X6631132Y-67411151D01*
X6516760Y-67635616D01*
X6438910Y-67875214D01*
X6438910Y-67875215D01*
X6399500Y-68124038D01*
X-2692534Y-68124038D01*
X-2699305Y-68003472D01*
X-2699500Y-67996519D01*
X-2699500Y-65390691D01*
X6549500Y-65390691D01*
X6549500Y-65509309D01*
X6580201Y-65623886D01*
X6639511Y-65726613D01*
X6723387Y-65810489D01*
X6826114Y-65869799D01*
X6940691Y-65900500D01*
X6940694Y-65900500D01*
X7059306Y-65900500D01*
X7059309Y-65900500D01*
X7173886Y-65869799D01*
X7276613Y-65810489D01*
X7360489Y-65726613D01*
X7419799Y-65623886D01*
X7450500Y-65509309D01*
X7450500Y-65390691D01*
X8549500Y-65390691D01*
X8549500Y-65509309D01*
X8580201Y-65623886D01*
X8639511Y-65726613D01*
X8723387Y-65810489D01*
X8826114Y-65869799D01*
X8940691Y-65900500D01*
X8940694Y-65900500D01*
X9059306Y-65900500D01*
X9059309Y-65900500D01*
X9173886Y-65869799D01*
X9276613Y-65810489D01*
X9360489Y-65726613D01*
X9419799Y-65623886D01*
X9450500Y-65509309D01*
X9450500Y-65390691D01*
X9419799Y-65276114D01*
X9360489Y-65173387D01*
X9276613Y-65089511D01*
X9173886Y-65030201D01*
X9059309Y-64999500D01*
X8940691Y-64999500D01*
X8835505Y-65027684D01*
X8826110Y-65030202D01*
X8743994Y-65077612D01*
X8743987Y-65077617D01*
X8723387Y-65089511D01*
X8701630Y-65111267D01*
X8701626Y-65111271D01*
X8639514Y-65173384D01*
X8639511Y-65173387D01*
X8580201Y-65276114D01*
X8549500Y-65390691D01*
X7450500Y-65390691D01*
X7419799Y-65276114D01*
X7360489Y-65173387D01*
X7276613Y-65089511D01*
X7173886Y-65030201D01*
X7059309Y-64999500D01*
X6940691Y-64999500D01*
X6826114Y-65030201D01*
X6826112Y-65030201D01*
X6826112Y-65030202D01*
X6723387Y-65089511D01*
X6723384Y-65089513D01*
X6639513Y-65173384D01*
X6639511Y-65173387D01*
X6580201Y-65276114D01*
X6549500Y-65390691D01*
X-2699500Y-65390691D01*
X-2699500Y-64111304D01*
X7099500Y-64111304D01*
X7099500Y-64288695D01*
X7134103Y-64462658D01*
X7134106Y-64462667D01*
X7201983Y-64626540D01*
X7201990Y-64626553D01*
X7300535Y-64774034D01*
X7300538Y-64774038D01*
X7408626Y-64882126D01*
X7408630Y-64882129D01*
X7425965Y-64899464D01*
X7454184Y-64918319D01*
X7454186Y-64918321D01*
X7573446Y-64998009D01*
X7573459Y-64998016D01*
X7651165Y-65030202D01*
X7737334Y-65065894D01*
X7737336Y-65065894D01*
X7737341Y-65065896D01*
X7911304Y-65100499D01*
X7911307Y-65100500D01*
X7911309Y-65100500D01*
X8088693Y-65100500D01*
X8088694Y-65100499D01*
X8146682Y-65088964D01*
X8262658Y-65065896D01*
X8262661Y-65065894D01*
X8262666Y-65065894D01*
X8426547Y-64998013D01*
X8574035Y-64899464D01*
X8699464Y-64774035D01*
X8798013Y-64626547D01*
X8865894Y-64462666D01*
X8900500Y-64288691D01*
X8900500Y-64111309D01*
X8900500Y-64111306D01*
X8900499Y-64111304D01*
X8865896Y-63937341D01*
X8865893Y-63937332D01*
X8798016Y-63773459D01*
X8798009Y-63773446D01*
X8699464Y-63625965D01*
X8699461Y-63625961D01*
X8591372Y-63517872D01*
X8591367Y-63517868D01*
X8574035Y-63500536D01*
X8545818Y-63481682D01*
X8545812Y-63481677D01*
X8426553Y-63401990D01*
X8426540Y-63401983D01*
X8262667Y-63334106D01*
X8262658Y-63334103D01*
X8088694Y-63299500D01*
X8088691Y-63299500D01*
X7911309Y-63299500D01*
X7911306Y-63299500D01*
X7737341Y-63334103D01*
X7737332Y-63334106D01*
X7573459Y-63401983D01*
X7573446Y-63401990D01*
X7454186Y-63481677D01*
X7454168Y-63481690D01*
X7425965Y-63500536D01*
X7408640Y-63517860D01*
X7408631Y-63517868D01*
X7300534Y-63625965D01*
X7201990Y-63773446D01*
X7201983Y-63773459D01*
X7134106Y-63937332D01*
X7134103Y-63937341D01*
X7099500Y-64111304D01*
X-2699500Y-64111304D01*
X-2699500Y-63040691D01*
X399500Y-63040691D01*
X399500Y-63159309D01*
X430201Y-63273886D01*
X489511Y-63376613D01*
X573387Y-63460489D01*
X676114Y-63519799D01*
X790691Y-63550500D01*
X790694Y-63550500D01*
X909306Y-63550500D01*
X909309Y-63550500D01*
X1023886Y-63519799D01*
X1126613Y-63460489D01*
X1210489Y-63376613D01*
X1269799Y-63273886D01*
X1300500Y-63159309D01*
X1300500Y-63040691D01*
X2199500Y-63040691D01*
X2199500Y-63159309D01*
X2230201Y-63273886D01*
X2289511Y-63376613D01*
X2373387Y-63460489D01*
X2476114Y-63519799D01*
X2590691Y-63550500D01*
X2590694Y-63550500D01*
X2709306Y-63550500D01*
X2709309Y-63550500D01*
X2823886Y-63519799D01*
X2926613Y-63460489D01*
X3010489Y-63376613D01*
X3069799Y-63273886D01*
X3100500Y-63159309D01*
X3100500Y-63040691D01*
X3069799Y-62926114D01*
X3049347Y-62890691D01*
X6549500Y-62890691D01*
X6549500Y-63009309D01*
X6580201Y-63123886D01*
X6639511Y-63226613D01*
X6723387Y-63310489D01*
X6826114Y-63369799D01*
X6940691Y-63400500D01*
X6940694Y-63400500D01*
X7059306Y-63400500D01*
X7059309Y-63400500D01*
X7173886Y-63369799D01*
X7276613Y-63310489D01*
X7360489Y-63226613D01*
X7419799Y-63123886D01*
X7450500Y-63009309D01*
X7450500Y-62890691D01*
X8549500Y-62890691D01*
X8549500Y-63009309D01*
X8580201Y-63123886D01*
X8639511Y-63226613D01*
X8723387Y-63310489D01*
X8743994Y-63322386D01*
X8743996Y-63322388D01*
X8826108Y-63369796D01*
X8826109Y-63369797D01*
X8826111Y-63369797D01*
X8826114Y-63369799D01*
X8940691Y-63400500D01*
X8940694Y-63400500D01*
X9059306Y-63400500D01*
X9059309Y-63400500D01*
X9173886Y-63369799D01*
X9276613Y-63310489D01*
X9360489Y-63226613D01*
X9419799Y-63123886D01*
X9450500Y-63009309D01*
X9450500Y-62890691D01*
X9419799Y-62776114D01*
X9360489Y-62673387D01*
X9276613Y-62589511D01*
X9173886Y-62530201D01*
X9059309Y-62499500D01*
X8940691Y-62499500D01*
X8826114Y-62530201D01*
X8826112Y-62530201D01*
X8826112Y-62530202D01*
X8723387Y-62589511D01*
X8723384Y-62589513D01*
X8639513Y-62673384D01*
X8639511Y-62673387D01*
X8580201Y-62776114D01*
X8549500Y-62890691D01*
X7450500Y-62890691D01*
X7419799Y-62776114D01*
X7360489Y-62673387D01*
X7276613Y-62589511D01*
X7173886Y-62530201D01*
X7059309Y-62499500D01*
X6940691Y-62499500D01*
X6826114Y-62530201D01*
X6826112Y-62530201D01*
X6826112Y-62530202D01*
X6723387Y-62589511D01*
X6723384Y-62589513D01*
X6639513Y-62673384D01*
X6639511Y-62673387D01*
X6580201Y-62776114D01*
X6549500Y-62890691D01*
X3049347Y-62890691D01*
X3010489Y-62823387D01*
X2926613Y-62739511D01*
X2823886Y-62680201D01*
X2709309Y-62649500D01*
X2590691Y-62649500D01*
X2476114Y-62680201D01*
X2476112Y-62680201D01*
X2476112Y-62680202D01*
X2373387Y-62739511D01*
X2373384Y-62739513D01*
X2289513Y-62823384D01*
X2289511Y-62823387D01*
X2250652Y-62890693D01*
X2230201Y-62926114D01*
X2199500Y-63040691D01*
X1300500Y-63040691D01*
X1269799Y-62926114D01*
X1210489Y-62823387D01*
X1126613Y-62739511D01*
X1023886Y-62680201D01*
X909309Y-62649500D01*
X790691Y-62649500D01*
X676114Y-62680201D01*
X676112Y-62680201D01*
X676112Y-62680202D01*
X573387Y-62739511D01*
X573384Y-62739513D01*
X489513Y-62823384D01*
X489511Y-62823387D01*
X450652Y-62890693D01*
X430201Y-62926114D01*
X399500Y-63040691D01*
X-2699500Y-63040691D01*
X-2699500Y-62016156D01*
X16599499Y-62016156D01*
X16635065Y-62194952D01*
X16635068Y-62194962D01*
X16704831Y-62363387D01*
X16704833Y-62363391D01*
X16806113Y-62514967D01*
X16806119Y-62514975D01*
X16935024Y-62643880D01*
X16935032Y-62643886D01*
X17086608Y-62745166D01*
X17086612Y-62745168D01*
X17255037Y-62814931D01*
X17255042Y-62814933D01*
X17255046Y-62814933D01*
X17255047Y-62814934D01*
X17433843Y-62850500D01*
X17433846Y-62850500D01*
X17616156Y-62850500D01*
X17736445Y-62826572D01*
X17794958Y-62814933D01*
X17963389Y-62745167D01*
X17963391Y-62745166D01*
X18070820Y-62673384D01*
X18114972Y-62643883D01*
X18243883Y-62514972D01*
X18345167Y-62363389D01*
X18414933Y-62194958D01*
X18450500Y-62016154D01*
X18450500Y-61833846D01*
X18450500Y-61833843D01*
X18414934Y-61655047D01*
X18414933Y-61655046D01*
X18414933Y-61655042D01*
X18414931Y-61655037D01*
X18345168Y-61486612D01*
X18345166Y-61486608D01*
X18243886Y-61335032D01*
X18243880Y-61335024D01*
X18114975Y-61206119D01*
X18114967Y-61206113D01*
X17963391Y-61104833D01*
X17963387Y-61104831D01*
X17794962Y-61035068D01*
X17794952Y-61035065D01*
X17616156Y-60999500D01*
X17616154Y-60999500D01*
X17433846Y-60999500D01*
X17433844Y-60999500D01*
X17255047Y-61035065D01*
X17255037Y-61035068D01*
X17086612Y-61104831D01*
X17086608Y-61104833D01*
X16935032Y-61206113D01*
X16935024Y-61206119D01*
X16806119Y-61335024D01*
X16806113Y-61335032D01*
X16704833Y-61486608D01*
X16704831Y-61486612D01*
X16635068Y-61655037D01*
X16635065Y-61655047D01*
X16599500Y-61833843D01*
X16599500Y-61833846D01*
X16599500Y-62016154D01*
X16599500Y-62016156D01*
X16599499Y-62016156D01*
X-2699500Y-62016156D01*
X-2699500Y-59440691D01*
X-550500Y-59440691D01*
X-550500Y-59559309D01*
X-519799Y-59673886D01*
X-460489Y-59776613D01*
X-376613Y-59860489D01*
X-273886Y-59919799D01*
X-159309Y-59950500D01*
X-159306Y-59950500D01*
X-40694Y-59950500D01*
X-40691Y-59950500D01*
X73886Y-59919799D01*
X176613Y-59860489D01*
X260489Y-59776613D01*
X319799Y-59673886D01*
X350500Y-59559309D01*
X350500Y-59440691D01*
X319799Y-59326114D01*
X260489Y-59223387D01*
X176613Y-59139511D01*
X73886Y-59080201D01*
X-40691Y-59049500D01*
X-159309Y-59049500D01*
X-273886Y-59080201D01*
X-376613Y-59139511D01*
X-460489Y-59223387D01*
X-519799Y-59326114D01*
X-550500Y-59440691D01*
X-2699500Y-59440691D01*
X-2699500Y-58665691D01*
X5549500Y-58665691D01*
X5549500Y-58784309D01*
X5580201Y-58898886D01*
X5639511Y-59001613D01*
X5723387Y-59085489D01*
X5826114Y-59144799D01*
X5940691Y-59175500D01*
X5940694Y-59175500D01*
X6059306Y-59175500D01*
X6059309Y-59175500D01*
X6173886Y-59144799D01*
X6276613Y-59085489D01*
X6360489Y-59001613D01*
X6419799Y-58898886D01*
X6450500Y-58784309D01*
X6450500Y-58690691D01*
X10349500Y-58690691D01*
X10349500Y-58809309D01*
X10380201Y-58923886D01*
X10439511Y-59026613D01*
X10523387Y-59110489D01*
X10626114Y-59169799D01*
X10740691Y-59200500D01*
X10740694Y-59200500D01*
X10859306Y-59200500D01*
X10859309Y-59200500D01*
X10973886Y-59169799D01*
X11076613Y-59110489D01*
X11160489Y-59026613D01*
X11219799Y-58923886D01*
X11250500Y-58809309D01*
X11250500Y-58690691D01*
X11219799Y-58576114D01*
X11160489Y-58473387D01*
X11076613Y-58389511D01*
X10973886Y-58330201D01*
X10859309Y-58299500D01*
X10740691Y-58299500D01*
X10626114Y-58330201D01*
X10626112Y-58330201D01*
X10626112Y-58330202D01*
X10523387Y-58389511D01*
X10523384Y-58389513D01*
X10439513Y-58473384D01*
X10439511Y-58473387D01*
X10380201Y-58576114D01*
X10349500Y-58690691D01*
X6450500Y-58690691D01*
X6450500Y-58665691D01*
X6419799Y-58551114D01*
X6360489Y-58448387D01*
X6276613Y-58364511D01*
X6173886Y-58305201D01*
X6059309Y-58274500D01*
X5940691Y-58274500D01*
X5826114Y-58305201D01*
X5826112Y-58305201D01*
X5826112Y-58305202D01*
X5723387Y-58364511D01*
X5723384Y-58364513D01*
X5639513Y-58448384D01*
X5639511Y-58448387D01*
X5580201Y-58551114D01*
X5549500Y-58665691D01*
X-2699500Y-58665691D01*
X-2699500Y-57426900D01*
X16559500Y-57426900D01*
X16559500Y-59413091D01*
X16570123Y-59501562D01*
X16625639Y-59642342D01*
X16625640Y-59642344D01*
X16717077Y-59762922D01*
X16837655Y-59854359D01*
X16837658Y-59854361D01*
X16978436Y-59909876D01*
X17066901Y-59920500D01*
X19053098Y-59920499D01*
X19141564Y-59909876D01*
X19282342Y-59854361D01*
X19402922Y-59762922D01*
X19494361Y-59642342D01*
X19549876Y-59501564D01*
X19560500Y-59413099D01*
X19560499Y-57426902D01*
X19549876Y-57338436D01*
X19494361Y-57197658D01*
X19494359Y-57197655D01*
X19402922Y-57077077D01*
X19282344Y-56985640D01*
X19282342Y-56985639D01*
X19141564Y-56930124D01*
X19141561Y-56930123D01*
X19053099Y-56919500D01*
X17066908Y-56919500D01*
X16978437Y-56930123D01*
X16837657Y-56985639D01*
X16837655Y-56985640D01*
X16717077Y-57077077D01*
X16625640Y-57197655D01*
X16570124Y-57338437D01*
X16570123Y-57338438D01*
X16559500Y-57426900D01*
X-2699500Y-57426900D01*
X-2699500Y-55940691D01*
X4549500Y-55940691D01*
X4549500Y-56059309D01*
X4580201Y-56173886D01*
X4639511Y-56276613D01*
X4723387Y-56360489D01*
X4826114Y-56419799D01*
X4940691Y-56450500D01*
X4940694Y-56450500D01*
X5059306Y-56450500D01*
X5059309Y-56450500D01*
X5173886Y-56419799D01*
X5276613Y-56360489D01*
X5360489Y-56276613D01*
X5419799Y-56173886D01*
X5450500Y-56059309D01*
X5450500Y-55940691D01*
X5419799Y-55826114D01*
X5360489Y-55723387D01*
X5276613Y-55639511D01*
X5173886Y-55580201D01*
X5059309Y-55549500D01*
X4940691Y-55549500D01*
X4826114Y-55580201D01*
X4826112Y-55580201D01*
X4826112Y-55580202D01*
X4723387Y-55639511D01*
X4723384Y-55639513D01*
X4639513Y-55723384D01*
X4639511Y-55723387D01*
X4580201Y-55826114D01*
X4549500Y-55940691D01*
X-2699500Y-55940691D01*
X-2699500Y-54690691D01*
X4599500Y-54690691D01*
X4599500Y-54809309D01*
X4630201Y-54923886D01*
X4689511Y-55026613D01*
X4773387Y-55110489D01*
X4876114Y-55169799D01*
X4990691Y-55200500D01*
X4990694Y-55200500D01*
X5109306Y-55200500D01*
X5109309Y-55200500D01*
X5223886Y-55169799D01*
X5326613Y-55110489D01*
X5410489Y-55026613D01*
X5469799Y-54923886D01*
X5500500Y-54809309D01*
X5500500Y-54690691D01*
X5469799Y-54576114D01*
X5410489Y-54473387D01*
X5326613Y-54389511D01*
X5223886Y-54330201D01*
X5109309Y-54299500D01*
X4990691Y-54299500D01*
X4876114Y-54330201D01*
X4876112Y-54330201D01*
X4876112Y-54330202D01*
X4773387Y-54389511D01*
X4773384Y-54389513D01*
X4689513Y-54473384D01*
X4689511Y-54473387D01*
X4666419Y-54513384D01*
X4630201Y-54576114D01*
X4599500Y-54690691D01*
X-2699500Y-54690691D01*
X-2699500Y-53980691D01*
X14569500Y-53980691D01*
X14569500Y-54099309D01*
X14600201Y-54213886D01*
X14659511Y-54316613D01*
X14670219Y-54327321D01*
X14703702Y-54388646D01*
X14698715Y-54458337D01*
X14670219Y-54502679D01*
X14659511Y-54513386D01*
X14659511Y-54513387D01*
X14627616Y-54568631D01*
X14600201Y-54616114D01*
X14569500Y-54730691D01*
X14569500Y-54849309D01*
X14600201Y-54963886D01*
X14659511Y-55066613D01*
X14743387Y-55150489D01*
X14846114Y-55209799D01*
X14960691Y-55240500D01*
X14960694Y-55240500D01*
X15079306Y-55240500D01*
X15079309Y-55240500D01*
X15193886Y-55209799D01*
X15296613Y-55150489D01*
X15380489Y-55066613D01*
X15439799Y-54963886D01*
X15470500Y-54849309D01*
X15470500Y-54801902D01*
X16559500Y-54801902D01*
X16559500Y-55038097D01*
X16596446Y-55271368D01*
X16669433Y-55495996D01*
X16776657Y-55706433D01*
X16915483Y-55897510D01*
X17082490Y-56064517D01*
X17273567Y-56203343D01*
X17372991Y-56254002D01*
X17484003Y-56310566D01*
X17484005Y-56310566D01*
X17484008Y-56310568D01*
X17604412Y-56349689D01*
X17708631Y-56383553D01*
X17941903Y-56420500D01*
X17941908Y-56420500D01*
X18178097Y-56420500D01*
X18411368Y-56383553D01*
X18482351Y-56360489D01*
X18635992Y-56310568D01*
X18846433Y-56203343D01*
X19037510Y-56064517D01*
X19204517Y-55897510D01*
X19343343Y-55706433D01*
X19450568Y-55495992D01*
X19523553Y-55271368D01*
X19528442Y-55240500D01*
X19560500Y-55038097D01*
X19560500Y-54801902D01*
X19523553Y-54568631D01*
X19468920Y-54400489D01*
X19450568Y-54344008D01*
X19450566Y-54344005D01*
X19450566Y-54344003D01*
X19384268Y-54213887D01*
X19343343Y-54133567D01*
X19204517Y-53942490D01*
X19037510Y-53775483D01*
X18846433Y-53636657D01*
X18635996Y-53529433D01*
X18411368Y-53456446D01*
X18178097Y-53419500D01*
X18178092Y-53419500D01*
X17941908Y-53419500D01*
X17941903Y-53419500D01*
X17708631Y-53456446D01*
X17484003Y-53529433D01*
X17273566Y-53636657D01*
X17214581Y-53679513D01*
X17082490Y-53775483D01*
X17082488Y-53775485D01*
X17082487Y-53775485D01*
X16915485Y-53942487D01*
X16915485Y-53942488D01*
X16915483Y-53942490D01*
X16887727Y-53980693D01*
X16776657Y-54133566D01*
X16669433Y-54344003D01*
X16596446Y-54568631D01*
X16559500Y-54801902D01*
X15470500Y-54801902D01*
X15470500Y-54730691D01*
X15439799Y-54616114D01*
X15380489Y-54513387D01*
X15369783Y-54502681D01*
X15336298Y-54441358D01*
X15341282Y-54371666D01*
X15369783Y-54327319D01*
X15380489Y-54316613D01*
X15439799Y-54213886D01*
X15470500Y-54099309D01*
X15470500Y-53980691D01*
X15439799Y-53866114D01*
X15380489Y-53763387D01*
X15296613Y-53679511D01*
X15193886Y-53620201D01*
X15079309Y-53589500D01*
X14960691Y-53589500D01*
X14846114Y-53620201D01*
X14846112Y-53620201D01*
X14846112Y-53620202D01*
X14743387Y-53679511D01*
X14743384Y-53679513D01*
X14659513Y-53763384D01*
X14659511Y-53763387D01*
X14600201Y-53866114D01*
X14569500Y-53980691D01*
X-2699500Y-53980691D01*
X-2699500Y-53390691D01*
X4599500Y-53390691D01*
X4599500Y-53509309D01*
X4630201Y-53623886D01*
X4689511Y-53726613D01*
X4773387Y-53810489D01*
X4876114Y-53869799D01*
X4990691Y-53900500D01*
X4990694Y-53900500D01*
X5109306Y-53900500D01*
X5109309Y-53900500D01*
X5223886Y-53869799D01*
X5326613Y-53810489D01*
X5410489Y-53726613D01*
X5469799Y-53623886D01*
X5500500Y-53509309D01*
X5500500Y-53390691D01*
X5469799Y-53276114D01*
X5439752Y-53224071D01*
X10869499Y-53224071D01*
X10894497Y-53349738D01*
X10894499Y-53349744D01*
X10943533Y-53468124D01*
X10943538Y-53468133D01*
X11014723Y-53574668D01*
X11014726Y-53574672D01*
X11105327Y-53665273D01*
X11105331Y-53665276D01*
X11211866Y-53736461D01*
X11211872Y-53736464D01*
X11211873Y-53736465D01*
X11330256Y-53785501D01*
X11330260Y-53785501D01*
X11330261Y-53785502D01*
X11455928Y-53810500D01*
X11455931Y-53810500D01*
X11584071Y-53810500D01*
X11668615Y-53793682D01*
X11709744Y-53785501D01*
X11828127Y-53736465D01*
X11934669Y-53665276D01*
X12025276Y-53574669D01*
X12096465Y-53468127D01*
X12145501Y-53349744D01*
X12170500Y-53224069D01*
X12170500Y-53095931D01*
X12170500Y-53095928D01*
X12145502Y-52970261D01*
X12145501Y-52970260D01*
X12145501Y-52970256D01*
X12096465Y-52851873D01*
X12096464Y-52851872D01*
X12096461Y-52851866D01*
X12025276Y-52745331D01*
X12025273Y-52745327D01*
X11934672Y-52654726D01*
X11934668Y-52654723D01*
X11828133Y-52583538D01*
X11828124Y-52583533D01*
X11709744Y-52534499D01*
X11709738Y-52534497D01*
X11584071Y-52509500D01*
X11584069Y-52509500D01*
X11455931Y-52509500D01*
X11455929Y-52509500D01*
X11330261Y-52534497D01*
X11330255Y-52534499D01*
X11211875Y-52583533D01*
X11211866Y-52583538D01*
X11105331Y-52654723D01*
X11105327Y-52654726D01*
X11014726Y-52745327D01*
X11014723Y-52745331D01*
X10943538Y-52851866D01*
X10943533Y-52851875D01*
X10894499Y-52970255D01*
X10894497Y-52970261D01*
X10869500Y-53095928D01*
X10869500Y-53095931D01*
X10869500Y-53224069D01*
X10869500Y-53224071D01*
X10869499Y-53224071D01*
X5439752Y-53224071D01*
X5410489Y-53173387D01*
X5326613Y-53089511D01*
X5223886Y-53030201D01*
X5109309Y-52999500D01*
X4990691Y-52999500D01*
X4876114Y-53030201D01*
X4876112Y-53030201D01*
X4876112Y-53030202D01*
X4773387Y-53089511D01*
X4773384Y-53089513D01*
X4689513Y-53173384D01*
X4689511Y-53173387D01*
X4630201Y-53276114D01*
X4599500Y-53390691D01*
X-2699500Y-53390691D01*
X-2699500Y-52140691D01*
X4649500Y-52140691D01*
X4649500Y-52259309D01*
X4680201Y-52373886D01*
X4739511Y-52476613D01*
X4823387Y-52560489D01*
X4926114Y-52619799D01*
X5040691Y-52650500D01*
X5040694Y-52650500D01*
X5159306Y-52650500D01*
X5159309Y-52650500D01*
X5273886Y-52619799D01*
X5376613Y-52560489D01*
X5460489Y-52476613D01*
X5519799Y-52373886D01*
X5550500Y-52259309D01*
X5550500Y-52140691D01*
X5519799Y-52026114D01*
X5460489Y-51923387D01*
X5376613Y-51839511D01*
X5273886Y-51780201D01*
X5159309Y-51749500D01*
X5040691Y-51749500D01*
X4926114Y-51780201D01*
X4926112Y-51780201D01*
X4926112Y-51780202D01*
X4823387Y-51839511D01*
X4823384Y-51839513D01*
X4739513Y-51923384D01*
X4739511Y-51923387D01*
X4710355Y-51973887D01*
X4680201Y-52026114D01*
X4649500Y-52140691D01*
X-2699500Y-52140691D01*
X-2699500Y-51740691D01*
X10399500Y-51740691D01*
X10399500Y-51859309D01*
X10430201Y-51973886D01*
X10489511Y-52076613D01*
X10573387Y-52160489D01*
X10676114Y-52219799D01*
X10790691Y-52250500D01*
X10790694Y-52250500D01*
X10909306Y-52250500D01*
X10909309Y-52250500D01*
X11023886Y-52219799D01*
X11126613Y-52160489D01*
X11210489Y-52076613D01*
X11269799Y-51973886D01*
X11300500Y-51859309D01*
X11300500Y-51740691D01*
X11269799Y-51626114D01*
X11210489Y-51523387D01*
X11126613Y-51439511D01*
X11023886Y-51380201D01*
X10909309Y-51349500D01*
X10790691Y-51349500D01*
X10676114Y-51380201D01*
X10676112Y-51380201D01*
X10676112Y-51380202D01*
X10573387Y-51439511D01*
X10573384Y-51439513D01*
X10489513Y-51523384D01*
X10489511Y-51523387D01*
X10430201Y-51626114D01*
X10399500Y-51740691D01*
X-2699500Y-51740691D01*
X-2699500Y-50871171D01*
X5234931Y-50871171D01*
X5234931Y-50989789D01*
X5265632Y-51104366D01*
X5324942Y-51207093D01*
X5408818Y-51290969D01*
X5511545Y-51350279D01*
X5626122Y-51380980D01*
X5626125Y-51380980D01*
X5744737Y-51380980D01*
X5744740Y-51380980D01*
X5859317Y-51350279D01*
X5943108Y-51301902D01*
X16559500Y-51301902D01*
X16559500Y-51538097D01*
X16596446Y-51771368D01*
X16669433Y-51995996D01*
X16753246Y-52160486D01*
X16776657Y-52206433D01*
X16915483Y-52397510D01*
X17082490Y-52564517D01*
X17273567Y-52703343D01*
X17355965Y-52745327D01*
X17484003Y-52810566D01*
X17484005Y-52810566D01*
X17484008Y-52810568D01*
X17604412Y-52849689D01*
X17708631Y-52883553D01*
X17941903Y-52920500D01*
X17941908Y-52920500D01*
X18178097Y-52920500D01*
X18411368Y-52883553D01*
X18635992Y-52810568D01*
X18846433Y-52703343D01*
X19037510Y-52564517D01*
X19204517Y-52397510D01*
X19343343Y-52206433D01*
X19450568Y-51995992D01*
X19523553Y-51771368D01*
X19527017Y-51749500D01*
X19560500Y-51538097D01*
X19560500Y-51301902D01*
X19523553Y-51068631D01*
X19450566Y-50844003D01*
X19353686Y-50653867D01*
X19343343Y-50633567D01*
X19204517Y-50442490D01*
X19037510Y-50275483D01*
X18846433Y-50136657D01*
X18635996Y-50029433D01*
X18411368Y-49956446D01*
X18178097Y-49919500D01*
X18178092Y-49919500D01*
X17941908Y-49919500D01*
X17941903Y-49919500D01*
X17708631Y-49956446D01*
X17484003Y-50029433D01*
X17273566Y-50136657D01*
X17164550Y-50215862D01*
X17082490Y-50275483D01*
X17082488Y-50275485D01*
X17082487Y-50275485D01*
X16915485Y-50442487D01*
X16915485Y-50442488D01*
X16915483Y-50442490D01*
X16855862Y-50524550D01*
X16776657Y-50633566D01*
X16669433Y-50844003D01*
X16596446Y-51068631D01*
X16559500Y-51301902D01*
X5943108Y-51301902D01*
X5962044Y-51290969D01*
X6045920Y-51207093D01*
X6105230Y-51104366D01*
X6135931Y-50989789D01*
X6135931Y-50871171D01*
X6105230Y-50756594D01*
X6045920Y-50653867D01*
X5962044Y-50569991D01*
X5859317Y-50510681D01*
X5744740Y-50479980D01*
X5626122Y-50479980D01*
X5511545Y-50510681D01*
X5511543Y-50510681D01*
X5511543Y-50510682D01*
X5408818Y-50569991D01*
X5408815Y-50569993D01*
X5324944Y-50653864D01*
X5324942Y-50653867D01*
X5265632Y-50756594D01*
X5234931Y-50871171D01*
X-2699500Y-50871171D01*
X-2699500Y-46995691D01*
X14489500Y-46995691D01*
X14489500Y-47114309D01*
X14520201Y-47228886D01*
X14579511Y-47331613D01*
X14591901Y-47344003D01*
X14602718Y-47354820D01*
X14636202Y-47416144D01*
X14631216Y-47485836D01*
X14602718Y-47530180D01*
X14579511Y-47553387D01*
X14520201Y-47656114D01*
X14489500Y-47770691D01*
X14489500Y-47889309D01*
X14520201Y-48003886D01*
X14579511Y-48106613D01*
X14663387Y-48190489D01*
X14766114Y-48249799D01*
X14880691Y-48280500D01*
X14880694Y-48280500D01*
X14999306Y-48280500D01*
X14999309Y-48280500D01*
X15113886Y-48249799D01*
X15216613Y-48190489D01*
X15300489Y-48106613D01*
X15359799Y-48003886D01*
X15390500Y-47889309D01*
X15390500Y-47801902D01*
X16559500Y-47801902D01*
X16559500Y-48038097D01*
X16596446Y-48271368D01*
X16669433Y-48495996D01*
X16776657Y-48706433D01*
X16915483Y-48897510D01*
X17082490Y-49064517D01*
X17273567Y-49203343D01*
X17372991Y-49254002D01*
X17484003Y-49310566D01*
X17484005Y-49310566D01*
X17484008Y-49310568D01*
X17604412Y-49349689D01*
X17708631Y-49383553D01*
X17941903Y-49420500D01*
X17941908Y-49420500D01*
X18178097Y-49420500D01*
X18411368Y-49383553D01*
X18635992Y-49310568D01*
X18846433Y-49203343D01*
X19037510Y-49064517D01*
X19204517Y-48897510D01*
X19343343Y-48706433D01*
X19450568Y-48495992D01*
X19523553Y-48271368D01*
X19526969Y-48249799D01*
X19560500Y-48038097D01*
X19560500Y-47801902D01*
X19523553Y-47568631D01*
X19454081Y-47354820D01*
X19450568Y-47344008D01*
X19450566Y-47344005D01*
X19450566Y-47344003D01*
X19343342Y-47133566D01*
X19329349Y-47114306D01*
X19204517Y-46942490D01*
X19037510Y-46775483D01*
X18846433Y-46636657D01*
X18843575Y-46635201D01*
X18635996Y-46529433D01*
X18411368Y-46456446D01*
X18178097Y-46419500D01*
X18178092Y-46419500D01*
X17941908Y-46419500D01*
X17941903Y-46419500D01*
X17708631Y-46456446D01*
X17484003Y-46529433D01*
X17273566Y-46636657D01*
X17193938Y-46694511D01*
X17082490Y-46775483D01*
X17082488Y-46775485D01*
X17082487Y-46775485D01*
X16915485Y-46942487D01*
X16915485Y-46942488D01*
X16915483Y-46942490D01*
X16876830Y-46995691D01*
X16776657Y-47133566D01*
X16669433Y-47344003D01*
X16596446Y-47568631D01*
X16559500Y-47801902D01*
X15390500Y-47801902D01*
X15390500Y-47770691D01*
X15359799Y-47656114D01*
X15300489Y-47553387D01*
X15277282Y-47530180D01*
X15243798Y-47468858D01*
X15248782Y-47399166D01*
X15277283Y-47354819D01*
X15288099Y-47344003D01*
X15300489Y-47331613D01*
X15359799Y-47228886D01*
X15390500Y-47114309D01*
X15390500Y-46995691D01*
X15359799Y-46881114D01*
X15300489Y-46778387D01*
X15216613Y-46694511D01*
X15113886Y-46635201D01*
X14999309Y-46604500D01*
X14880691Y-46604500D01*
X14766114Y-46635201D01*
X14766112Y-46635201D01*
X14766112Y-46635202D01*
X14663387Y-46694511D01*
X14663384Y-46694513D01*
X14579513Y-46778384D01*
X14579511Y-46778387D01*
X14520201Y-46881114D01*
X14489500Y-46995691D01*
X-2699500Y-46995691D01*
X-2699500Y-45674071D01*
X11379499Y-45674071D01*
X11404497Y-45799738D01*
X11404499Y-45799744D01*
X11453533Y-45918124D01*
X11453538Y-45918133D01*
X11524723Y-46024668D01*
X11524726Y-46024672D01*
X11615327Y-46115273D01*
X11615331Y-46115276D01*
X11721866Y-46186461D01*
X11721872Y-46186464D01*
X11721873Y-46186465D01*
X11840256Y-46235501D01*
X11840260Y-46235501D01*
X11840261Y-46235502D01*
X11965928Y-46260500D01*
X11965931Y-46260500D01*
X12094071Y-46260500D01*
X12178615Y-46243682D01*
X12219744Y-46235501D01*
X12338127Y-46186465D01*
X12444669Y-46115276D01*
X12535276Y-46024669D01*
X12606465Y-45918127D01*
X12655501Y-45799744D01*
X12680500Y-45674069D01*
X12680500Y-45545931D01*
X12680500Y-45545928D01*
X12655502Y-45420261D01*
X12655501Y-45420260D01*
X12655501Y-45420256D01*
X12606465Y-45301873D01*
X12606464Y-45301872D01*
X12606461Y-45301866D01*
X12535276Y-45195331D01*
X12535273Y-45195327D01*
X12444672Y-45104726D01*
X12444668Y-45104723D01*
X12338133Y-45033538D01*
X12338124Y-45033533D01*
X12219744Y-44984499D01*
X12219738Y-44984497D01*
X12094071Y-44959500D01*
X12094069Y-44959500D01*
X11965931Y-44959500D01*
X11965929Y-44959500D01*
X11840261Y-44984497D01*
X11840255Y-44984499D01*
X11721875Y-45033533D01*
X11721866Y-45033538D01*
X11615331Y-45104723D01*
X11615327Y-45104726D01*
X11524726Y-45195327D01*
X11524723Y-45195331D01*
X11453538Y-45301866D01*
X11453533Y-45301875D01*
X11404499Y-45420255D01*
X11404497Y-45420261D01*
X11379500Y-45545928D01*
X11379500Y-45545931D01*
X11379500Y-45674069D01*
X11379500Y-45674071D01*
X11379499Y-45674071D01*
X-2699500Y-45674071D01*
X-2699500Y-44765691D01*
X10374500Y-44765691D01*
X10374500Y-44884309D01*
X10405201Y-44998886D01*
X10464511Y-45101613D01*
X10548387Y-45185489D01*
X10651114Y-45244799D01*
X10765691Y-45275500D01*
X10765694Y-45275500D01*
X10884306Y-45275500D01*
X10884309Y-45275500D01*
X10998886Y-45244799D01*
X11101613Y-45185489D01*
X11185489Y-45101613D01*
X11244799Y-44998886D01*
X11275500Y-44884309D01*
X11275500Y-44765691D01*
X11244799Y-44651114D01*
X11185489Y-44548387D01*
X11101613Y-44464511D01*
X11050249Y-44434856D01*
X10998887Y-44405201D01*
X10970241Y-44397525D01*
X10884309Y-44374500D01*
X10765691Y-44374500D01*
X10651114Y-44405201D01*
X10651112Y-44405201D01*
X10651112Y-44405202D01*
X10548387Y-44464511D01*
X10548384Y-44464513D01*
X10464513Y-44548384D01*
X10464511Y-44548387D01*
X10405201Y-44651114D01*
X10374500Y-44765691D01*
X-2699500Y-44765691D01*
X-2699500Y-44301902D01*
X16559500Y-44301902D01*
X16559500Y-44538097D01*
X16596446Y-44771368D01*
X16669433Y-44995996D01*
X16770998Y-45195327D01*
X16776657Y-45206433D01*
X16915483Y-45397510D01*
X17082490Y-45564517D01*
X17273567Y-45703343D01*
X17372991Y-45754002D01*
X17484003Y-45810566D01*
X17484005Y-45810566D01*
X17484008Y-45810568D01*
X17604412Y-45849689D01*
X17708631Y-45883553D01*
X17941903Y-45920500D01*
X17941908Y-45920500D01*
X18178097Y-45920500D01*
X18411368Y-45883553D01*
X18635992Y-45810568D01*
X18846433Y-45703343D01*
X19037510Y-45564517D01*
X19204517Y-45397510D01*
X19343343Y-45206433D01*
X19450568Y-44995992D01*
X19523553Y-44771368D01*
X19524452Y-44765691D01*
X19560500Y-44538097D01*
X19560500Y-44301902D01*
X19523553Y-44068631D01*
X19450566Y-43844003D01*
X19343342Y-43633566D01*
X19204517Y-43442490D01*
X19037510Y-43275483D01*
X18846433Y-43136657D01*
X18635996Y-43029433D01*
X18411368Y-42956446D01*
X18178097Y-42919500D01*
X18178092Y-42919500D01*
X17941908Y-42919500D01*
X17941903Y-42919500D01*
X17708631Y-42956446D01*
X17484003Y-43029433D01*
X17273566Y-43136657D01*
X17164550Y-43215862D01*
X17082490Y-43275483D01*
X17082488Y-43275485D01*
X17082487Y-43275485D01*
X16915485Y-43442487D01*
X16915485Y-43442488D01*
X16915483Y-43442490D01*
X16859361Y-43519735D01*
X16776657Y-43633566D01*
X16669433Y-43844003D01*
X16596446Y-44068631D01*
X16559500Y-44301902D01*
X-2699500Y-44301902D01*
X-2699500Y-42671153D01*
X4217177Y-42671153D01*
X4217177Y-42828846D01*
X4247938Y-42983489D01*
X4247941Y-42983501D01*
X4308279Y-43129172D01*
X4308286Y-43129185D01*
X4395887Y-43260288D01*
X4395890Y-43260292D01*
X4507384Y-43371786D01*
X4507388Y-43371789D01*
X4638491Y-43459390D01*
X4638504Y-43459397D01*
X4784175Y-43519735D01*
X4784180Y-43519737D01*
X4938830Y-43550499D01*
X4938833Y-43550500D01*
X4938835Y-43550500D01*
X5096521Y-43550500D01*
X5096522Y-43550499D01*
X5251174Y-43519737D01*
X5396856Y-43459394D01*
X5527966Y-43371789D01*
X5639466Y-43260289D01*
X5727071Y-43129179D01*
X5787414Y-42983497D01*
X5818177Y-42828842D01*
X5818177Y-42671158D01*
X5818177Y-42671155D01*
X5818176Y-42671153D01*
X5802988Y-42594797D01*
X5787414Y-42516503D01*
X5760536Y-42451613D01*
X5727074Y-42370827D01*
X5727067Y-42370814D01*
X5639466Y-42239711D01*
X5639463Y-42239707D01*
X5527969Y-42128213D01*
X5527965Y-42128210D01*
X5509229Y-42115691D01*
X10874500Y-42115691D01*
X10874500Y-42234309D01*
X10905201Y-42348886D01*
X10964511Y-42451613D01*
X11048387Y-42535489D01*
X11151114Y-42594799D01*
X11265691Y-42625500D01*
X11265694Y-42625500D01*
X11384306Y-42625500D01*
X11384309Y-42625500D01*
X11498886Y-42594799D01*
X11601613Y-42535489D01*
X11685489Y-42451613D01*
X11744799Y-42348886D01*
X11775500Y-42234309D01*
X11775500Y-42115691D01*
X11744799Y-42001114D01*
X11685489Y-41898387D01*
X11601613Y-41814511D01*
X11498886Y-41755201D01*
X11384309Y-41724500D01*
X11265691Y-41724500D01*
X11151114Y-41755201D01*
X11151112Y-41755201D01*
X11151112Y-41755202D01*
X11048387Y-41814511D01*
X11048384Y-41814513D01*
X10964513Y-41898384D01*
X10964511Y-41898387D01*
X10917241Y-41980261D01*
X10905201Y-42001114D01*
X10874500Y-42115691D01*
X5509229Y-42115691D01*
X5396862Y-42040609D01*
X5396849Y-42040602D01*
X5251178Y-41980264D01*
X5251166Y-41980261D01*
X5096522Y-41949500D01*
X5096519Y-41949500D01*
X4938835Y-41949500D01*
X4938832Y-41949500D01*
X4784187Y-41980261D01*
X4784175Y-41980264D01*
X4638504Y-42040602D01*
X4638491Y-42040609D01*
X4507388Y-42128210D01*
X4507384Y-42128213D01*
X4395890Y-42239707D01*
X4395887Y-42239711D01*
X4308286Y-42370814D01*
X4308279Y-42370827D01*
X4247941Y-42516498D01*
X4247938Y-42516510D01*
X4217177Y-42671153D01*
X-2699500Y-42671153D01*
X-2699500Y-39940691D01*
X1799500Y-39940691D01*
X1799500Y-40059309D01*
X1830201Y-40173886D01*
X1889511Y-40276613D01*
X1973387Y-40360489D01*
X2076114Y-40419799D01*
X2190691Y-40450500D01*
X2190694Y-40450500D01*
X2309306Y-40450500D01*
X2309309Y-40450500D01*
X2423886Y-40419799D01*
X2526613Y-40360489D01*
X2537319Y-40349783D01*
X2598642Y-40316298D01*
X2668334Y-40321282D01*
X2712681Y-40349783D01*
X2723387Y-40360489D01*
X2826114Y-40419799D01*
X2940691Y-40450500D01*
X2940694Y-40450500D01*
X3059306Y-40450500D01*
X3059309Y-40450500D01*
X3173886Y-40419799D01*
X3276613Y-40360489D01*
X3360489Y-40276613D01*
X3419799Y-40173886D01*
X3450500Y-40059309D01*
X3450500Y-39990691D01*
X14649500Y-39990691D01*
X14649500Y-40109309D01*
X14680201Y-40223886D01*
X14739511Y-40326613D01*
X14750219Y-40337321D01*
X14783702Y-40398646D01*
X14778715Y-40468337D01*
X14750219Y-40512679D01*
X14739511Y-40523386D01*
X14739511Y-40523387D01*
X14713389Y-40568632D01*
X14680201Y-40626114D01*
X14649500Y-40740691D01*
X14649500Y-40859309D01*
X14680201Y-40973886D01*
X14739511Y-41076613D01*
X14823387Y-41160489D01*
X14926114Y-41219799D01*
X15040691Y-41250500D01*
X15040694Y-41250500D01*
X15159306Y-41250500D01*
X15159309Y-41250500D01*
X15273886Y-41219799D01*
X15376613Y-41160489D01*
X15460489Y-41076613D01*
X15519799Y-40973886D01*
X15550500Y-40859309D01*
X15550500Y-40801902D01*
X16559500Y-40801902D01*
X16559500Y-41038097D01*
X16596446Y-41271368D01*
X16669433Y-41495996D01*
X16776657Y-41706433D01*
X16915483Y-41897510D01*
X17082490Y-42064517D01*
X17273567Y-42203343D01*
X17372991Y-42254002D01*
X17484003Y-42310566D01*
X17484005Y-42310566D01*
X17484008Y-42310568D01*
X17601938Y-42348886D01*
X17708631Y-42383553D01*
X17941903Y-42420500D01*
X17941908Y-42420500D01*
X18178097Y-42420500D01*
X18411368Y-42383553D01*
X18450574Y-42370814D01*
X18635992Y-42310568D01*
X18846433Y-42203343D01*
X19037510Y-42064517D01*
X19204517Y-41897510D01*
X19343343Y-41706433D01*
X19450568Y-41495992D01*
X19523553Y-41271368D01*
X19531721Y-41219797D01*
X19560500Y-41038097D01*
X19560500Y-40801902D01*
X19523553Y-40568631D01*
X19455923Y-40360489D01*
X19450568Y-40344008D01*
X19450566Y-40344005D01*
X19450566Y-40344003D01*
X19363887Y-40173887D01*
X19343343Y-40133567D01*
X19204517Y-39942490D01*
X19037510Y-39775483D01*
X18846433Y-39636657D01*
X18833764Y-39630202D01*
X18635996Y-39529433D01*
X18411368Y-39456446D01*
X18178097Y-39419500D01*
X18178092Y-39419500D01*
X17941908Y-39419500D01*
X17941903Y-39419500D01*
X17708631Y-39456446D01*
X17484003Y-39529433D01*
X17273566Y-39636657D01*
X17215679Y-39678715D01*
X17082490Y-39775483D01*
X17082488Y-39775485D01*
X17082487Y-39775485D01*
X16915485Y-39942487D01*
X16915485Y-39942488D01*
X16915483Y-39942490D01*
X16855862Y-40024550D01*
X16776657Y-40133566D01*
X16669433Y-40344003D01*
X16596446Y-40568631D01*
X16559500Y-40801902D01*
X15550500Y-40801902D01*
X15550500Y-40740691D01*
X15519799Y-40626114D01*
X15460489Y-40523387D01*
X15449783Y-40512681D01*
X15416298Y-40451358D01*
X15421282Y-40381666D01*
X15449783Y-40337319D01*
X15460489Y-40326613D01*
X15519799Y-40223886D01*
X15550500Y-40109309D01*
X15550500Y-39990691D01*
X15519799Y-39876114D01*
X15460489Y-39773387D01*
X15376613Y-39689511D01*
X15273886Y-39630201D01*
X15159309Y-39599500D01*
X15040691Y-39599500D01*
X14926114Y-39630201D01*
X14926112Y-39630201D01*
X14926112Y-39630202D01*
X14823387Y-39689511D01*
X14823384Y-39689513D01*
X14739513Y-39773384D01*
X14739511Y-39773387D01*
X14680201Y-39876114D01*
X14649500Y-39990691D01*
X3450500Y-39990691D01*
X3450500Y-39940691D01*
X3419799Y-39826114D01*
X3360489Y-39723387D01*
X3276613Y-39639511D01*
X3173886Y-39580201D01*
X3059309Y-39549500D01*
X2940691Y-39549500D01*
X2826114Y-39580201D01*
X2826112Y-39580201D01*
X2826112Y-39580202D01*
X2723387Y-39639511D01*
X2723386Y-39639511D01*
X2712679Y-39650219D01*
X2651354Y-39683702D01*
X2581663Y-39678715D01*
X2537321Y-39650219D01*
X2526613Y-39639511D01*
X2423886Y-39580201D01*
X2309309Y-39549500D01*
X2190691Y-39549500D01*
X2076114Y-39580201D01*
X2076112Y-39580201D01*
X2076112Y-39580202D01*
X1973387Y-39639511D01*
X1973384Y-39639513D01*
X1889513Y-39723384D01*
X1889511Y-39723387D01*
X1830201Y-39826114D01*
X1799500Y-39940691D01*
X-2699500Y-39940691D01*
X-2699500Y-37890691D01*
X-2100500Y-37890691D01*
X-2100500Y-38009309D01*
X-2069799Y-38123886D01*
X-2010489Y-38226613D01*
X-1974783Y-38262319D01*
X-1941298Y-38323642D01*
X-1946282Y-38393334D01*
X-1974783Y-38437681D01*
X-2010489Y-38473387D01*
X-2069799Y-38576114D01*
X-2100500Y-38690691D01*
X-2100500Y-38809309D01*
X-2069799Y-38923886D01*
X-2010489Y-39026613D01*
X-1926613Y-39110489D01*
X-1823886Y-39169799D01*
X-1709309Y-39200500D01*
X-1709306Y-39200500D01*
X-1590694Y-39200500D01*
X-1590691Y-39200500D01*
X-1476114Y-39169799D01*
X-1425698Y-39140691D01*
X9324500Y-39140691D01*
X9324500Y-39259309D01*
X9355201Y-39373886D01*
X9414511Y-39476613D01*
X9498387Y-39560489D01*
X9601114Y-39619799D01*
X9715691Y-39650500D01*
X9715694Y-39650500D01*
X9834306Y-39650500D01*
X9834309Y-39650500D01*
X9948886Y-39619799D01*
X10051613Y-39560489D01*
X10135489Y-39476613D01*
X10135493Y-39476605D01*
X10139123Y-39471876D01*
X10195550Y-39430673D01*
X10265296Y-39426517D01*
X10326217Y-39460728D01*
X10335877Y-39471876D01*
X10339509Y-39476610D01*
X10339511Y-39476613D01*
X10423387Y-39560489D01*
X10526114Y-39619799D01*
X10640691Y-39650500D01*
X10640694Y-39650500D01*
X10759306Y-39650500D01*
X10759309Y-39650500D01*
X10873886Y-39619799D01*
X10976613Y-39560489D01*
X11060489Y-39476613D01*
X11119799Y-39373886D01*
X11119799Y-39373883D01*
X11122907Y-39366382D01*
X11126189Y-39367741D01*
X11154082Y-39321971D01*
X11216927Y-39291437D01*
X11286303Y-39299726D01*
X11340185Y-39344206D01*
X11350595Y-39367002D01*
X11352093Y-39366382D01*
X11355200Y-39373885D01*
X11380267Y-39417302D01*
X11414511Y-39476613D01*
X11498387Y-39560489D01*
X11601114Y-39619799D01*
X11715691Y-39650500D01*
X11715694Y-39650500D01*
X11834306Y-39650500D01*
X11834309Y-39650500D01*
X11948886Y-39619799D01*
X12051613Y-39560489D01*
X12135489Y-39476613D01*
X12194799Y-39373886D01*
X12225500Y-39259309D01*
X12225500Y-39140691D01*
X12194799Y-39026114D01*
X12135489Y-38923387D01*
X12051613Y-38839511D01*
X11948886Y-38780201D01*
X11834309Y-38749500D01*
X11715691Y-38749500D01*
X11601114Y-38780201D01*
X11601112Y-38780201D01*
X11601112Y-38780202D01*
X11498387Y-38839511D01*
X11498384Y-38839513D01*
X11414513Y-38923384D01*
X11414511Y-38923387D01*
X11355200Y-39026114D01*
X11352093Y-39033618D01*
X11348849Y-39032274D01*
X11320711Y-39078215D01*
X11257798Y-39108608D01*
X11188441Y-39100163D01*
X11134659Y-39055562D01*
X11124362Y-39033015D01*
X11122907Y-39033618D01*
X11119799Y-39026114D01*
X11069657Y-38939267D01*
X11060489Y-38923387D01*
X10976613Y-38839511D01*
X10873886Y-38780201D01*
X10759309Y-38749500D01*
X10640691Y-38749500D01*
X10526114Y-38780201D01*
X10526112Y-38780201D01*
X10526112Y-38780202D01*
X10423387Y-38839511D01*
X10423384Y-38839513D01*
X10339512Y-38923385D01*
X10335874Y-38928127D01*
X10279445Y-38969328D01*
X10209699Y-38973481D01*
X10148779Y-38939267D01*
X10139126Y-38928127D01*
X10135487Y-38923385D01*
X10051615Y-38839513D01*
X10051613Y-38839511D01*
X9948886Y-38780201D01*
X9834309Y-38749500D01*
X9715691Y-38749500D01*
X9601114Y-38780201D01*
X9601112Y-38780201D01*
X9601112Y-38780202D01*
X9498387Y-38839511D01*
X9498384Y-38839513D01*
X9414513Y-38923384D01*
X9414511Y-38923387D01*
X9355201Y-39026114D01*
X9324500Y-39140691D01*
X-1425698Y-39140691D01*
X-1373387Y-39110489D01*
X-1289511Y-39026613D01*
X-1230201Y-38923886D01*
X-1199500Y-38809309D01*
X-1199500Y-38690691D01*
X-1230201Y-38576114D01*
X-1260355Y-38523887D01*
X-1289511Y-38473387D01*
X-1289513Y-38473384D01*
X-1325217Y-38437681D01*
X-1327526Y-38433452D01*
X-1331571Y-38430830D01*
X-1344112Y-38403075D01*
X-1358702Y-38376358D01*
X-1358358Y-38371551D01*
X-1360343Y-38367160D01*
X-1355890Y-38337038D01*
X-1353718Y-38306666D01*
X-1350635Y-38301494D01*
X-1350125Y-38298041D01*
X-1345000Y-38290691D01*
X13549500Y-38290691D01*
X13549500Y-38409309D01*
X13580201Y-38523886D01*
X13639511Y-38626613D01*
X13723387Y-38710489D01*
X13826114Y-38769799D01*
X13940691Y-38800500D01*
X13940694Y-38800500D01*
X14059306Y-38800500D01*
X14059309Y-38800500D01*
X14173886Y-38769799D01*
X14276613Y-38710489D01*
X14360489Y-38626613D01*
X14419799Y-38523886D01*
X14450500Y-38409309D01*
X14450500Y-38290691D01*
X14799500Y-38290691D01*
X14799500Y-38409309D01*
X14830201Y-38523886D01*
X14889511Y-38626613D01*
X14973387Y-38710489D01*
X15076114Y-38769799D01*
X15190691Y-38800500D01*
X15190694Y-38800500D01*
X15309306Y-38800500D01*
X15309309Y-38800500D01*
X15423886Y-38769799D01*
X15526613Y-38710489D01*
X15610489Y-38626613D01*
X15669799Y-38523886D01*
X15700500Y-38409309D01*
X15700500Y-38315691D01*
X16049500Y-38315691D01*
X16049500Y-38434309D01*
X16080201Y-38548886D01*
X16139511Y-38651613D01*
X16223387Y-38735489D01*
X16326114Y-38794799D01*
X16440691Y-38825500D01*
X16440694Y-38825500D01*
X16559306Y-38825500D01*
X16559309Y-38825500D01*
X16673886Y-38794799D01*
X16776613Y-38735489D01*
X16860489Y-38651613D01*
X16919799Y-38548886D01*
X16950500Y-38434309D01*
X16950500Y-38315691D01*
X16943801Y-38290691D01*
X17299500Y-38290691D01*
X17299500Y-38409309D01*
X17330201Y-38523886D01*
X17389511Y-38626613D01*
X17473387Y-38710489D01*
X17576114Y-38769799D01*
X17690691Y-38800500D01*
X17690694Y-38800500D01*
X17809306Y-38800500D01*
X17809309Y-38800500D01*
X17923886Y-38769799D01*
X18026613Y-38710489D01*
X18110489Y-38626613D01*
X18169799Y-38523886D01*
X18200500Y-38409309D01*
X18200500Y-38290691D01*
X18169799Y-38176114D01*
X18110489Y-38073387D01*
X18026613Y-37989511D01*
X17923886Y-37930201D01*
X17809309Y-37899500D01*
X17690691Y-37899500D01*
X17576114Y-37930201D01*
X17576112Y-37930201D01*
X17576112Y-37930202D01*
X17473387Y-37989511D01*
X17473384Y-37989513D01*
X17389513Y-38073384D01*
X17389511Y-38073387D01*
X17360355Y-38123887D01*
X17330201Y-38176114D01*
X17299500Y-38290691D01*
X16943801Y-38290691D01*
X16919799Y-38201114D01*
X16860489Y-38098387D01*
X16776613Y-38014511D01*
X16673886Y-37955201D01*
X16559309Y-37924500D01*
X16440691Y-37924500D01*
X16326114Y-37955201D01*
X16326112Y-37955201D01*
X16326112Y-37955202D01*
X16223387Y-38014511D01*
X16223384Y-38014513D01*
X16139513Y-38098384D01*
X16139511Y-38098387D01*
X16080201Y-38201114D01*
X16049500Y-38315691D01*
X15700500Y-38315691D01*
X15700500Y-38290691D01*
X15669799Y-38176114D01*
X15610489Y-38073387D01*
X15526613Y-37989511D01*
X15423886Y-37930201D01*
X15309309Y-37899500D01*
X15190691Y-37899500D01*
X15076114Y-37930201D01*
X15076112Y-37930201D01*
X15076112Y-37930202D01*
X14973387Y-37989511D01*
X14973384Y-37989513D01*
X14889513Y-38073384D01*
X14889511Y-38073387D01*
X14860355Y-38123887D01*
X14830201Y-38176114D01*
X14799500Y-38290691D01*
X14450500Y-38290691D01*
X14419799Y-38176114D01*
X14360489Y-38073387D01*
X14276613Y-37989511D01*
X14173886Y-37930201D01*
X14059309Y-37899500D01*
X13940691Y-37899500D01*
X13826114Y-37930201D01*
X13826112Y-37930201D01*
X13826112Y-37930202D01*
X13723387Y-37989511D01*
X13723384Y-37989513D01*
X13639513Y-38073384D01*
X13639511Y-38073387D01*
X13610355Y-38123887D01*
X13580201Y-38176114D01*
X13549500Y-38290691D01*
X-1345000Y-38290691D01*
X-1339466Y-38282754D01*
X-1330926Y-38268426D01*
X-1328178Y-38265280D01*
X-1289511Y-38226613D01*
X-1260354Y-38176112D01*
X-1230203Y-38123891D01*
X-1230202Y-38123890D01*
X-1216669Y-38073384D01*
X-1199500Y-38009309D01*
X-1199500Y-37890691D01*
X-1230201Y-37776114D01*
X-1289511Y-37673387D01*
X-1289513Y-37673384D01*
X-1373384Y-37589513D01*
X-1373387Y-37589511D01*
X-1476112Y-37530202D01*
X-1476112Y-37530201D01*
X-1476114Y-37530201D01*
X-1590691Y-37499500D01*
X-1709309Y-37499500D01*
X-1823886Y-37530201D01*
X-1926613Y-37589511D01*
X-2010489Y-37673387D01*
X-2069799Y-37776114D01*
X-2100500Y-37890691D01*
X-2699500Y-37890691D01*
X-2699500Y-36450691D01*
X6469500Y-36450691D01*
X6469500Y-36569309D01*
X6500201Y-36683886D01*
X6559511Y-36786613D01*
X6643387Y-36870489D01*
X6746114Y-36929799D01*
X6860691Y-36960500D01*
X6860694Y-36960500D01*
X6979306Y-36960500D01*
X6979309Y-36960500D01*
X7093886Y-36929799D01*
X7196613Y-36870489D01*
X7280489Y-36786613D01*
X7339799Y-36683886D01*
X7370500Y-36569309D01*
X7370500Y-36450691D01*
X7339799Y-36336114D01*
X7280489Y-36233387D01*
X7196613Y-36149511D01*
X7093886Y-36090201D01*
X6979309Y-36059500D01*
X6860691Y-36059500D01*
X6746114Y-36090201D01*
X6746112Y-36090201D01*
X6746112Y-36090202D01*
X6643387Y-36149511D01*
X6643384Y-36149513D01*
X6559513Y-36233384D01*
X6559511Y-36233387D01*
X6500201Y-36336114D01*
X6469500Y-36450691D01*
X-2699500Y-36450691D01*
X-2699500Y-35323920D01*
X249499Y-35323920D01*
X278340Y-35468907D01*
X278343Y-35468917D01*
X334912Y-35605488D01*
X334919Y-35605501D01*
X417048Y-35728415D01*
X417051Y-35728419D01*
X521580Y-35832948D01*
X521584Y-35832951D01*
X644498Y-35915080D01*
X644511Y-35915087D01*
X781082Y-35971656D01*
X781087Y-35971658D01*
X781091Y-35971658D01*
X781092Y-35971659D01*
X926079Y-36000500D01*
X926082Y-36000500D01*
X1073920Y-36000500D01*
X1207712Y-35973886D01*
X1218913Y-35971658D01*
X1355495Y-35915084D01*
X1478416Y-35832951D01*
X1582951Y-35728416D01*
X1665084Y-35605495D01*
X1721658Y-35468913D01*
X1739304Y-35380202D01*
X1750500Y-35323920D01*
X5249499Y-35323920D01*
X5278340Y-35468907D01*
X5278343Y-35468917D01*
X5334912Y-35605488D01*
X5334919Y-35605501D01*
X5417048Y-35728415D01*
X5417051Y-35728419D01*
X5521580Y-35832948D01*
X5521584Y-35832951D01*
X5644498Y-35915080D01*
X5644511Y-35915087D01*
X5781082Y-35971656D01*
X5781087Y-35971658D01*
X5781091Y-35971658D01*
X5781092Y-35971659D01*
X5926079Y-36000500D01*
X5926082Y-36000500D01*
X6073920Y-36000500D01*
X6207712Y-35973886D01*
X6218913Y-35971658D01*
X6355495Y-35915084D01*
X6478416Y-35832951D01*
X6570676Y-35740691D01*
X11899500Y-35740691D01*
X11899500Y-35859309D01*
X11930201Y-35973886D01*
X11989511Y-36076613D01*
X12073387Y-36160489D01*
X12176114Y-36219799D01*
X12290691Y-36250500D01*
X12290694Y-36250500D01*
X12409306Y-36250500D01*
X12409309Y-36250500D01*
X12523886Y-36219799D01*
X12626613Y-36160489D01*
X12710489Y-36076613D01*
X12769799Y-35973886D01*
X12800500Y-35859309D01*
X12800500Y-35740691D01*
X12769799Y-35626114D01*
X12710489Y-35523387D01*
X12626613Y-35439511D01*
X12523886Y-35380201D01*
X12409309Y-35349500D01*
X12290691Y-35349500D01*
X12176114Y-35380201D01*
X12176112Y-35380201D01*
X12176112Y-35380202D01*
X12073387Y-35439511D01*
X12073384Y-35439513D01*
X11989513Y-35523384D01*
X11989511Y-35523387D01*
X11942110Y-35605488D01*
X11930201Y-35626114D01*
X11899500Y-35740691D01*
X6570676Y-35740691D01*
X6582951Y-35728416D01*
X6595063Y-35710287D01*
X6626211Y-35663674D01*
X6626211Y-35663673D01*
X6665080Y-35605501D01*
X6665080Y-35605500D01*
X6665084Y-35605495D01*
X6721658Y-35468913D01*
X6739304Y-35380202D01*
X6750500Y-35323920D01*
X6750500Y-35176079D01*
X6721659Y-35031092D01*
X6721658Y-35031091D01*
X6721658Y-35031087D01*
X6721656Y-35031082D01*
X6665087Y-34894511D01*
X6665080Y-34894498D01*
X6582951Y-34771584D01*
X6582948Y-34771580D01*
X6478419Y-34667051D01*
X6478415Y-34667048D01*
X6355501Y-34584919D01*
X6355488Y-34584912D01*
X6218917Y-34528343D01*
X6218907Y-34528340D01*
X6073920Y-34499500D01*
X6073918Y-34499500D01*
X5926082Y-34499500D01*
X5926080Y-34499500D01*
X5781092Y-34528340D01*
X5781082Y-34528343D01*
X5644511Y-34584912D01*
X5644498Y-34584919D01*
X5521584Y-34667048D01*
X5521580Y-34667051D01*
X5417051Y-34771580D01*
X5417048Y-34771584D01*
X5334919Y-34894498D01*
X5334912Y-34894511D01*
X5278343Y-35031082D01*
X5278340Y-35031092D01*
X5249500Y-35176079D01*
X5249500Y-35176082D01*
X5249500Y-35323918D01*
X5249500Y-35323920D01*
X5249499Y-35323920D01*
X1750500Y-35323920D01*
X1750500Y-35176079D01*
X1721659Y-35031092D01*
X1721658Y-35031091D01*
X1721658Y-35031087D01*
X1721656Y-35031082D01*
X1665087Y-34894511D01*
X1665080Y-34894498D01*
X1582951Y-34771584D01*
X1582948Y-34771580D01*
X1478419Y-34667051D01*
X1478415Y-34667048D01*
X1355501Y-34584919D01*
X1355488Y-34584912D01*
X1218917Y-34528343D01*
X1218907Y-34528340D01*
X1073920Y-34499500D01*
X1073918Y-34499500D01*
X926082Y-34499500D01*
X926080Y-34499500D01*
X781092Y-34528340D01*
X781082Y-34528343D01*
X644511Y-34584912D01*
X644498Y-34584919D01*
X521584Y-34667048D01*
X521580Y-34667051D01*
X417051Y-34771580D01*
X417048Y-34771584D01*
X334919Y-34894498D01*
X334912Y-34894511D01*
X278343Y-35031082D01*
X278340Y-35031092D01*
X249500Y-35176079D01*
X249500Y-35176082D01*
X249500Y-35323918D01*
X249500Y-35323920D01*
X249499Y-35323920D01*
X-2699500Y-35323920D01*
X-2699500Y-33965691D01*
X13749500Y-33965691D01*
X13749500Y-34084309D01*
X13780201Y-34198886D01*
X13839511Y-34301613D01*
X13923387Y-34385489D01*
X14026114Y-34444799D01*
X14140691Y-34475500D01*
X14140694Y-34475500D01*
X14259306Y-34475500D01*
X14259309Y-34475500D01*
X14373886Y-34444799D01*
X14476613Y-34385489D01*
X14560489Y-34301613D01*
X14619799Y-34198886D01*
X14650500Y-34084309D01*
X14650500Y-33965691D01*
X14644707Y-33944071D01*
X17899499Y-33944071D01*
X17924497Y-34069738D01*
X17924499Y-34069744D01*
X17973533Y-34188124D01*
X17973538Y-34188133D01*
X18044723Y-34294668D01*
X18044726Y-34294672D01*
X18135327Y-34385273D01*
X18135331Y-34385276D01*
X18241866Y-34456461D01*
X18241872Y-34456464D01*
X18241873Y-34456465D01*
X18360256Y-34505501D01*
X18360260Y-34505501D01*
X18360261Y-34505502D01*
X18485928Y-34530500D01*
X18485931Y-34530500D01*
X18614071Y-34530500D01*
X18698615Y-34513682D01*
X18739744Y-34505501D01*
X18858127Y-34456465D01*
X18964669Y-34385276D01*
X19055276Y-34294669D01*
X19126465Y-34188127D01*
X19175501Y-34069744D01*
X19200500Y-33944069D01*
X19200500Y-33815931D01*
X19200500Y-33815928D01*
X19175502Y-33690261D01*
X19175501Y-33690260D01*
X19175501Y-33690256D01*
X19126465Y-33571873D01*
X19126464Y-33571872D01*
X19126461Y-33571866D01*
X19055276Y-33465331D01*
X19055273Y-33465327D01*
X18964672Y-33374726D01*
X18964668Y-33374723D01*
X18858133Y-33303538D01*
X18858124Y-33303533D01*
X18739744Y-33254499D01*
X18739738Y-33254497D01*
X18614071Y-33229500D01*
X18614069Y-33229500D01*
X18485931Y-33229500D01*
X18485929Y-33229500D01*
X18360261Y-33254497D01*
X18360255Y-33254499D01*
X18241875Y-33303533D01*
X18241866Y-33303538D01*
X18135331Y-33374723D01*
X18135327Y-33374726D01*
X18044726Y-33465327D01*
X18044723Y-33465331D01*
X17973538Y-33571866D01*
X17973533Y-33571875D01*
X17924499Y-33690255D01*
X17924497Y-33690261D01*
X17899500Y-33815928D01*
X17899500Y-33815931D01*
X17899500Y-33944069D01*
X17899500Y-33944071D01*
X17899499Y-33944071D01*
X14644707Y-33944071D01*
X14619799Y-33851114D01*
X14560489Y-33748387D01*
X14476613Y-33664511D01*
X14373886Y-33605201D01*
X14259309Y-33574500D01*
X14140691Y-33574500D01*
X14026114Y-33605201D01*
X14026112Y-33605201D01*
X14026112Y-33605202D01*
X13923387Y-33664511D01*
X13923384Y-33664513D01*
X13839513Y-33748384D01*
X13839511Y-33748387D01*
X13780201Y-33851114D01*
X13749500Y-33965691D01*
X-2699500Y-33965691D01*
X-2699500Y-32259963D01*
X-2086200Y-32259963D01*
X-2086200Y-32378581D01*
X-2055499Y-32493158D01*
X-1996189Y-32595885D01*
X-1912313Y-32679761D01*
X-1809586Y-32739071D01*
X-1695009Y-32769772D01*
X-1695006Y-32769772D01*
X-1576394Y-32769772D01*
X-1576391Y-32769772D01*
X-1461814Y-32739071D01*
X-1359087Y-32679761D01*
X-1275211Y-32595885D01*
X-1238246Y-32531861D01*
X975635Y-32531861D01*
X975635Y-32650479D01*
X1006336Y-32765056D01*
X1065646Y-32867783D01*
X1149522Y-32951659D01*
X1252249Y-33010969D01*
X1366826Y-33041670D01*
X1366829Y-33041670D01*
X1485442Y-33041670D01*
X1485444Y-33041670D01*
X1519700Y-33032491D01*
X1589549Y-33034153D01*
X1647412Y-33073314D01*
X1670739Y-33126902D01*
X1672397Y-33126458D01*
X1674500Y-33134306D01*
X1674500Y-33134309D01*
X1705201Y-33248886D01*
X1764511Y-33351613D01*
X1848387Y-33435489D01*
X1951114Y-33494799D01*
X2065691Y-33525500D01*
X2065694Y-33525500D01*
X2184306Y-33525500D01*
X2184309Y-33525500D01*
X2298886Y-33494799D01*
X2401613Y-33435489D01*
X2421411Y-33415691D01*
X11449500Y-33415691D01*
X11449500Y-33534309D01*
X11480201Y-33648886D01*
X11539511Y-33751613D01*
X11623387Y-33835489D01*
X11726114Y-33894799D01*
X11840691Y-33925500D01*
X11840694Y-33925500D01*
X11959306Y-33925500D01*
X11959309Y-33925500D01*
X12073886Y-33894799D01*
X12176613Y-33835489D01*
X12260489Y-33751613D01*
X12319799Y-33648886D01*
X12350500Y-33534309D01*
X12350500Y-33415691D01*
X12319799Y-33301114D01*
X12260489Y-33198387D01*
X12176613Y-33114511D01*
X12073886Y-33055201D01*
X11959309Y-33024500D01*
X11840691Y-33024500D01*
X11726114Y-33055201D01*
X11726112Y-33055201D01*
X11726112Y-33055202D01*
X11623387Y-33114511D01*
X11623384Y-33114513D01*
X11539513Y-33198384D01*
X11539511Y-33198387D01*
X11507116Y-33254497D01*
X11480201Y-33301114D01*
X11449500Y-33415691D01*
X2421411Y-33415691D01*
X2485489Y-33351613D01*
X2544799Y-33248886D01*
X2575500Y-33134309D01*
X2575500Y-33015691D01*
X2544799Y-32901114D01*
X2485489Y-32798387D01*
X2401613Y-32714511D01*
X2298886Y-32655201D01*
X2184309Y-32624500D01*
X2065691Y-32624500D01*
X2065686Y-32624500D01*
X2031431Y-32633679D01*
X1961582Y-32632015D01*
X1903720Y-32592852D01*
X1880398Y-32539267D01*
X1878738Y-32539712D01*
X1876635Y-32531863D01*
X1876635Y-32531861D01*
X1845934Y-32417284D01*
X1786624Y-32314557D01*
X1702748Y-32230681D01*
X1633484Y-32190691D01*
X13999500Y-32190691D01*
X13999500Y-32309309D01*
X14030201Y-32423886D01*
X14089511Y-32526613D01*
X14173387Y-32610489D01*
X14276114Y-32669799D01*
X14390691Y-32700500D01*
X14390694Y-32700500D01*
X14509306Y-32700500D01*
X14509309Y-32700500D01*
X14623886Y-32669799D01*
X14726613Y-32610489D01*
X14810489Y-32526613D01*
X14869799Y-32423886D01*
X14900500Y-32309309D01*
X14900500Y-32190691D01*
X14869799Y-32076114D01*
X14810489Y-31973387D01*
X14726613Y-31889511D01*
X14623886Y-31830201D01*
X14509309Y-31799500D01*
X14390691Y-31799500D01*
X14276114Y-31830201D01*
X14276112Y-31830201D01*
X14276112Y-31830202D01*
X14173387Y-31889511D01*
X14173384Y-31889513D01*
X14089513Y-31973384D01*
X14089511Y-31973387D01*
X14030201Y-32076114D01*
X13999500Y-32190691D01*
X1633484Y-32190691D01*
X1600021Y-32171371D01*
X1485444Y-32140670D01*
X1366826Y-32140670D01*
X1252249Y-32171371D01*
X1252247Y-32171371D01*
X1252247Y-32171372D01*
X1149522Y-32230681D01*
X1149519Y-32230683D01*
X1065648Y-32314554D01*
X1065646Y-32314557D01*
X1006336Y-32417284D01*
X975635Y-32531861D01*
X-1238246Y-32531861D01*
X-1215901Y-32493158D01*
X-1185200Y-32378581D01*
X-1185200Y-32259963D01*
X-1215901Y-32145386D01*
X-1275211Y-32042659D01*
X-1280158Y-32036213D01*
X-1278406Y-32034869D01*
X-1306358Y-31983644D01*
X-1301353Y-31913954D01*
X-1272865Y-31869641D01*
X-1264822Y-31861598D01*
X-1264820Y-31861596D01*
X-1205510Y-31758869D01*
X-1174809Y-31644292D01*
X-1174809Y-31525674D01*
X-1205510Y-31411097D01*
X-1225420Y-31376613D01*
X-1264820Y-31308370D01*
X-1264822Y-31308367D01*
X-1348693Y-31224496D01*
X-1348696Y-31224494D01*
X-1451421Y-31165185D01*
X-1451421Y-31165184D01*
X-1451423Y-31165184D01*
X-1566000Y-31134483D01*
X-1684618Y-31134483D01*
X-1799195Y-31165184D01*
X-1901922Y-31224494D01*
X-1985798Y-31308370D01*
X-2045108Y-31411097D01*
X-2075809Y-31525674D01*
X-2075809Y-31644292D01*
X-2045108Y-31758869D01*
X-1985798Y-31861596D01*
X-1985790Y-31861603D01*
X-1980851Y-31868042D01*
X-1982609Y-31869391D01*
X-1954662Y-31920555D01*
X-1959636Y-31990247D01*
X-1988140Y-32034609D01*
X-1996184Y-32042654D01*
X-1996189Y-32042659D01*
X-2055499Y-32145386D01*
X-2086200Y-32259963D01*
X-2699500Y-32259963D01*
X-2699500Y-30615691D01*
X474500Y-30615691D01*
X474500Y-30734309D01*
X505201Y-30848886D01*
X564511Y-30951613D01*
X648387Y-31035489D01*
X751114Y-31094799D01*
X865691Y-31125500D01*
X865694Y-31125500D01*
X984307Y-31125500D01*
X984309Y-31125500D01*
X997225Y-31122039D01*
X1067073Y-31123700D01*
X1124936Y-31162861D01*
X1152442Y-31227089D01*
X1149094Y-31273905D01*
X1124500Y-31365691D01*
X1124500Y-31484309D01*
X1155201Y-31598886D01*
X1214511Y-31701613D01*
X1298387Y-31785489D01*
X1401114Y-31844799D01*
X1515691Y-31875500D01*
X1515694Y-31875500D01*
X1634306Y-31875500D01*
X1634309Y-31875500D01*
X1748886Y-31844799D01*
X1851613Y-31785489D01*
X1935489Y-31701613D01*
X1994799Y-31598886D01*
X2025500Y-31484309D01*
X2025500Y-31365691D01*
X1994799Y-31251114D01*
X1935489Y-31148387D01*
X1851613Y-31064511D01*
X1842598Y-31059306D01*
X1809077Y-31039951D01*
X1809074Y-31039951D01*
X1748886Y-31005201D01*
X1634309Y-30974500D01*
X1515691Y-30974500D01*
X1515689Y-30974500D01*
X1502769Y-30977962D01*
X1432920Y-30976297D01*
X1380316Y-30940691D01*
X4049500Y-30940691D01*
X4049500Y-31059309D01*
X4080201Y-31173886D01*
X4139511Y-31276613D01*
X4223387Y-31360489D01*
X4326114Y-31419799D01*
X4440691Y-31450500D01*
X4440694Y-31450500D01*
X4559306Y-31450500D01*
X4559309Y-31450500D01*
X4673886Y-31419799D01*
X4776613Y-31360489D01*
X4860489Y-31276613D01*
X4919799Y-31173886D01*
X4950500Y-31059309D01*
X4950500Y-31040691D01*
X16049500Y-31040691D01*
X16049500Y-31159309D01*
X16080201Y-31273886D01*
X16139511Y-31376613D01*
X16223387Y-31460489D01*
X16326114Y-31519799D01*
X16440691Y-31550500D01*
X16440694Y-31550500D01*
X16559306Y-31550500D01*
X16559309Y-31550500D01*
X16673886Y-31519799D01*
X16776613Y-31460489D01*
X16860489Y-31376613D01*
X16919799Y-31273886D01*
X16942091Y-31190691D01*
X17549500Y-31190691D01*
X17549500Y-31309309D01*
X17580201Y-31423886D01*
X17639511Y-31526613D01*
X17723387Y-31610489D01*
X17826114Y-31669799D01*
X17940691Y-31700500D01*
X17940694Y-31700500D01*
X18059306Y-31700500D01*
X18059309Y-31700500D01*
X18173886Y-31669799D01*
X18276613Y-31610489D01*
X18360489Y-31526613D01*
X18419799Y-31423886D01*
X18450500Y-31309309D01*
X18450500Y-31190691D01*
X18419799Y-31076114D01*
X18360489Y-30973387D01*
X18276613Y-30889511D01*
X18173886Y-30830201D01*
X18059309Y-30799500D01*
X17940691Y-30799500D01*
X17826114Y-30830201D01*
X17826112Y-30830201D01*
X17826112Y-30830202D01*
X17723387Y-30889511D01*
X17723384Y-30889513D01*
X17639513Y-30973384D01*
X17639511Y-30973387D01*
X17600652Y-31040693D01*
X17580201Y-31076114D01*
X17549500Y-31190691D01*
X16942091Y-31190691D01*
X16950500Y-31159309D01*
X16950500Y-31040691D01*
X16919799Y-30926114D01*
X16860489Y-30823387D01*
X16776613Y-30739511D01*
X16673886Y-30680201D01*
X16559309Y-30649500D01*
X16440691Y-30649500D01*
X16326114Y-30680201D01*
X16326112Y-30680201D01*
X16326112Y-30680202D01*
X16223387Y-30739511D01*
X16223384Y-30739513D01*
X16139513Y-30823384D01*
X16139511Y-30823387D01*
X16080201Y-30926114D01*
X16049500Y-31040691D01*
X4950500Y-31040691D01*
X4950500Y-30940691D01*
X4919799Y-30826114D01*
X4860489Y-30723387D01*
X4776613Y-30639511D01*
X4673886Y-30580201D01*
X4559309Y-30549500D01*
X4440691Y-30549500D01*
X4326114Y-30580201D01*
X4326112Y-30580201D01*
X4326112Y-30580202D01*
X4223387Y-30639511D01*
X4223384Y-30639513D01*
X4139513Y-30723384D01*
X4139511Y-30723387D01*
X4080201Y-30826114D01*
X4049500Y-30940691D01*
X1380316Y-30940691D01*
X1375058Y-30937132D01*
X1347556Y-30872903D01*
X1350905Y-30826095D01*
X1375500Y-30734309D01*
X1375500Y-30615691D01*
X1344799Y-30501114D01*
X1285489Y-30398387D01*
X1201613Y-30314511D01*
X1098886Y-30255201D01*
X1044734Y-30240691D01*
X5924500Y-30240691D01*
X5924500Y-30359309D01*
X5955201Y-30473886D01*
X6014511Y-30576613D01*
X6098387Y-30660489D01*
X6201114Y-30719799D01*
X6315691Y-30750500D01*
X6315694Y-30750500D01*
X6434306Y-30750500D01*
X6434309Y-30750500D01*
X6548886Y-30719799D01*
X6651613Y-30660489D01*
X6735489Y-30576613D01*
X6794799Y-30473886D01*
X6825500Y-30359309D01*
X6825500Y-30240691D01*
X6794799Y-30126114D01*
X6735489Y-30023387D01*
X6651613Y-29939511D01*
X6548886Y-29880201D01*
X6434309Y-29849500D01*
X6315691Y-29849500D01*
X6201114Y-29880201D01*
X6201112Y-29880201D01*
X6201112Y-29880202D01*
X6098387Y-29939511D01*
X6098384Y-29939513D01*
X6014513Y-30023384D01*
X6014511Y-30023387D01*
X5965435Y-30108389D01*
X5955201Y-30126114D01*
X5924500Y-30240691D01*
X1044734Y-30240691D01*
X984309Y-30224500D01*
X865691Y-30224500D01*
X751114Y-30255201D01*
X751112Y-30255201D01*
X751112Y-30255202D01*
X648387Y-30314511D01*
X648384Y-30314513D01*
X564513Y-30398384D01*
X564511Y-30398387D01*
X505201Y-30501114D01*
X474500Y-30615691D01*
X-2699500Y-30615691D01*
X-2699500Y-28865691D01*
X17199500Y-28865691D01*
X17199500Y-28984309D01*
X17230201Y-29098886D01*
X17289511Y-29201613D01*
X17373387Y-29285489D01*
X17476114Y-29344799D01*
X17590691Y-29375500D01*
X17590694Y-29375500D01*
X17709306Y-29375500D01*
X17709309Y-29375500D01*
X17823886Y-29344799D01*
X17926613Y-29285489D01*
X18010489Y-29201613D01*
X18069799Y-29098886D01*
X18100500Y-28984309D01*
X18100500Y-28865691D01*
X18069799Y-28751114D01*
X18010489Y-28648387D01*
X17926613Y-28564511D01*
X17823886Y-28505201D01*
X17709309Y-28474500D01*
X17590691Y-28474500D01*
X17476114Y-28505201D01*
X17476112Y-28505201D01*
X17476112Y-28505202D01*
X17373387Y-28564511D01*
X17373384Y-28564513D01*
X17289513Y-28648384D01*
X17289511Y-28648387D01*
X17249581Y-28717548D01*
X17230201Y-28751114D01*
X17199500Y-28865691D01*
X-2699500Y-28865691D01*
X-2699500Y-27440691D01*
X-350500Y-27440691D01*
X-350500Y-27559309D01*
X-319799Y-27673886D01*
X-260489Y-27776613D01*
X-176613Y-27860489D01*
X-73886Y-27919799D01*
X40691Y-27950500D01*
X40694Y-27950500D01*
X159306Y-27950500D01*
X159309Y-27950500D01*
X273886Y-27919799D01*
X376613Y-27860489D01*
X460489Y-27776613D01*
X519799Y-27673886D01*
X550500Y-27559309D01*
X550500Y-27440691D01*
X521026Y-27330693D01*
X11749500Y-27330693D01*
X11749500Y-27449311D01*
X11780201Y-27563888D01*
X11839511Y-27666615D01*
X11923387Y-27750491D01*
X12026114Y-27809801D01*
X12140691Y-27840502D01*
X12140694Y-27840502D01*
X12259306Y-27840502D01*
X12259309Y-27840502D01*
X12373886Y-27809801D01*
X12476613Y-27750491D01*
X12560489Y-27666615D01*
X12604324Y-27590691D01*
X16999500Y-27590691D01*
X16999500Y-27709309D01*
X17030201Y-27823886D01*
X17089511Y-27926613D01*
X17173387Y-28010489D01*
X17276114Y-28069799D01*
X17390691Y-28100500D01*
X17390694Y-28100500D01*
X17509306Y-28100500D01*
X17509309Y-28100500D01*
X17623886Y-28069799D01*
X17726613Y-28010489D01*
X17810489Y-27926613D01*
X17869799Y-27823886D01*
X17900500Y-27709309D01*
X17900500Y-27590691D01*
X17869799Y-27476114D01*
X17810489Y-27373387D01*
X17726613Y-27289511D01*
X17623886Y-27230201D01*
X17509309Y-27199500D01*
X17390691Y-27199500D01*
X17276114Y-27230201D01*
X17276112Y-27230201D01*
X17276112Y-27230202D01*
X17173387Y-27289511D01*
X17173384Y-27289513D01*
X17089513Y-27373384D01*
X17089511Y-27373387D01*
X17045678Y-27449308D01*
X17030201Y-27476114D01*
X16999500Y-27590691D01*
X12604324Y-27590691D01*
X12619799Y-27563888D01*
X12650500Y-27449311D01*
X12650500Y-27330693D01*
X12619799Y-27216116D01*
X12560489Y-27113389D01*
X12476613Y-27029513D01*
X12373886Y-26970203D01*
X12259309Y-26939502D01*
X12140691Y-26939502D01*
X12026114Y-26970203D01*
X12026112Y-26970203D01*
X12026112Y-26970204D01*
X11923387Y-27029513D01*
X11923384Y-27029515D01*
X11839513Y-27113386D01*
X11839511Y-27113389D01*
X11780201Y-27216116D01*
X11749500Y-27330693D01*
X521026Y-27330693D01*
X519799Y-27326114D01*
X460489Y-27223387D01*
X376613Y-27139511D01*
X273886Y-27080201D01*
X159309Y-27049500D01*
X40691Y-27049500D01*
X-73886Y-27080201D01*
X-176613Y-27139511D01*
X-260489Y-27223387D01*
X-319799Y-27326114D01*
X-350500Y-27440691D01*
X-2699500Y-27440691D01*
X-2699500Y-26570693D01*
X932574Y-26570693D01*
X932574Y-26689311D01*
X963275Y-26803888D01*
X1022585Y-26906615D01*
X1106461Y-26990491D01*
X1209188Y-27049801D01*
X1323765Y-27080502D01*
X1323768Y-27080502D01*
X1442380Y-27080502D01*
X1442383Y-27080502D01*
X1556960Y-27049801D01*
X1659687Y-26990491D01*
X1743563Y-26906615D01*
X1802873Y-26803888D01*
X1833574Y-26689311D01*
X1833574Y-26570693D01*
X1802873Y-26456116D01*
X1752901Y-26369562D01*
X1743567Y-26353395D01*
X1743564Y-26353392D01*
X1743563Y-26353389D01*
X1705865Y-26315691D01*
X17074500Y-26315691D01*
X17074500Y-26434309D01*
X17105201Y-26548886D01*
X17164511Y-26651613D01*
X17248387Y-26735489D01*
X17351114Y-26794799D01*
X17465691Y-26825500D01*
X17465694Y-26825500D01*
X17584306Y-26825500D01*
X17584309Y-26825500D01*
X17698886Y-26794799D01*
X17801613Y-26735489D01*
X17885489Y-26651613D01*
X17944799Y-26548886D01*
X17975500Y-26434309D01*
X17975500Y-26315691D01*
X17944799Y-26201114D01*
X17885489Y-26098387D01*
X17801613Y-26014511D01*
X17698886Y-25955201D01*
X17584309Y-25924500D01*
X17465691Y-25924500D01*
X17351114Y-25955201D01*
X17351112Y-25955201D01*
X17351112Y-25955202D01*
X17248387Y-26014511D01*
X17248384Y-26014513D01*
X17164513Y-26098384D01*
X17164511Y-26098387D01*
X17105201Y-26201114D01*
X17074500Y-26315691D01*
X1705865Y-26315691D01*
X1659687Y-26269513D01*
X1556960Y-26210203D01*
X1442383Y-26179502D01*
X1323765Y-26179502D01*
X1209188Y-26210203D01*
X1209186Y-26210203D01*
X1209186Y-26210204D01*
X1106461Y-26269513D01*
X1106458Y-26269515D01*
X1022587Y-26353386D01*
X1022585Y-26353389D01*
X983200Y-26421606D01*
X963275Y-26456116D01*
X932574Y-26570693D01*
X-2699500Y-26570693D01*
X-2699500Y-25558469D01*
X-2225500Y-25558469D01*
X-2225500Y-25677087D01*
X-2194799Y-25791664D01*
X-2135489Y-25894391D01*
X-2051613Y-25978267D01*
X-1948886Y-26037577D01*
X-1834309Y-26068278D01*
X-1834306Y-26068278D01*
X-1715694Y-26068278D01*
X-1715691Y-26068278D01*
X-1601114Y-26037577D01*
X-1498387Y-25978267D01*
X-1414511Y-25894391D01*
X-1355201Y-25791664D01*
X-1324500Y-25677087D01*
X-1324500Y-25615691D01*
X233184Y-25615691D01*
X233184Y-25734309D01*
X263885Y-25848886D01*
X323195Y-25951613D01*
X407071Y-26035489D01*
X509798Y-26094799D01*
X624375Y-26125500D01*
X624378Y-26125500D01*
X742990Y-26125500D01*
X742993Y-26125500D01*
X857570Y-26094799D01*
X960297Y-26035489D01*
X1044173Y-25951613D01*
X1103483Y-25848886D01*
X1134184Y-25734309D01*
X1134184Y-25615691D01*
X1103483Y-25501114D01*
X1044173Y-25398387D01*
X960297Y-25314511D01*
X887453Y-25272454D01*
X857569Y-25255200D01*
X856387Y-25254711D01*
X855542Y-25254030D01*
X850531Y-25251137D01*
X850982Y-25250355D01*
X801982Y-25210872D01*
X779914Y-25144579D01*
X797191Y-25076879D01*
X848326Y-25029266D01*
X871741Y-25020373D01*
X873886Y-25019799D01*
X976613Y-24960489D01*
X1060489Y-24876613D01*
X1119799Y-24773886D01*
X1121995Y-24765691D01*
X5849500Y-24765691D01*
X5849500Y-24884309D01*
X5880201Y-24998886D01*
X5939511Y-25101613D01*
X6023387Y-25185489D01*
X6126114Y-25244799D01*
X6240691Y-25275500D01*
X6240694Y-25275500D01*
X6359306Y-25275500D01*
X6359309Y-25275500D01*
X6473886Y-25244799D01*
X6576613Y-25185489D01*
X6660489Y-25101613D01*
X6702765Y-25028389D01*
X20174500Y-25028389D01*
X20174500Y-25151610D01*
X20198535Y-25272444D01*
X20198538Y-25272454D01*
X20245687Y-25386283D01*
X20245692Y-25386292D01*
X20314141Y-25488732D01*
X20314144Y-25488736D01*
X20401263Y-25575855D01*
X20470170Y-25621898D01*
X20514974Y-25675511D01*
X20523681Y-25744836D01*
X20493526Y-25807863D01*
X20470170Y-25828102D01*
X20401263Y-25874144D01*
X20314144Y-25961263D01*
X20314141Y-25961267D01*
X20245692Y-26063707D01*
X20245687Y-26063716D01*
X20198538Y-26177545D01*
X20198535Y-26177555D01*
X20174500Y-26298389D01*
X20174500Y-26421610D01*
X20181364Y-26456116D01*
X20198537Y-26542452D01*
X20207246Y-26563477D01*
X20245687Y-26656283D01*
X20245692Y-26656292D01*
X20314141Y-26758732D01*
X20314144Y-26758736D01*
X20401263Y-26845855D01*
X20470170Y-26891898D01*
X20514974Y-26945511D01*
X20523681Y-27014836D01*
X20493526Y-27077863D01*
X20470170Y-27098102D01*
X20401263Y-27144144D01*
X20314144Y-27231263D01*
X20314141Y-27231267D01*
X20245692Y-27333707D01*
X20245687Y-27333716D01*
X20198538Y-27447545D01*
X20198535Y-27447555D01*
X20174500Y-27568389D01*
X20174500Y-27691610D01*
X20198535Y-27812444D01*
X20198538Y-27812454D01*
X20245687Y-27926283D01*
X20245692Y-27926292D01*
X20314141Y-28028732D01*
X20314144Y-28028736D01*
X20401263Y-28115855D01*
X20470170Y-28161898D01*
X20514974Y-28215511D01*
X20523681Y-28284836D01*
X20493526Y-28347863D01*
X20470170Y-28368102D01*
X20401263Y-28414144D01*
X20314144Y-28501263D01*
X20314141Y-28501267D01*
X20245692Y-28603707D01*
X20245687Y-28603716D01*
X20198538Y-28717545D01*
X20198535Y-28717555D01*
X20174500Y-28838389D01*
X20174500Y-28961610D01*
X20198535Y-29082444D01*
X20198538Y-29082454D01*
X20245687Y-29196283D01*
X20245692Y-29196292D01*
X20314141Y-29298732D01*
X20314144Y-29298736D01*
X20401263Y-29385855D01*
X20470170Y-29431898D01*
X20514974Y-29485511D01*
X20523681Y-29554836D01*
X20493526Y-29617863D01*
X20470170Y-29638102D01*
X20401263Y-29684144D01*
X20314144Y-29771263D01*
X20314141Y-29771267D01*
X20245692Y-29873707D01*
X20245687Y-29873716D01*
X20198538Y-29987545D01*
X20198535Y-29987555D01*
X20174500Y-30108389D01*
X20174500Y-30231610D01*
X20198535Y-30352444D01*
X20198538Y-30352454D01*
X20245687Y-30466283D01*
X20245692Y-30466292D01*
X20314141Y-30568732D01*
X20314144Y-30568736D01*
X20401263Y-30655855D01*
X20401267Y-30655858D01*
X20503707Y-30724307D01*
X20503713Y-30724310D01*
X20503714Y-30724311D01*
X20617548Y-30771463D01*
X20738389Y-30795499D01*
X20738393Y-30795500D01*
X20738394Y-30795500D01*
X20861607Y-30795500D01*
X20861608Y-30795499D01*
X20982452Y-30771463D01*
X21096286Y-30724311D01*
X21198733Y-30655858D01*
X21285858Y-30568733D01*
X21354311Y-30466286D01*
X21401463Y-30352452D01*
X21425500Y-30231606D01*
X21425500Y-30108394D01*
X21401463Y-29987548D01*
X21363020Y-29894739D01*
X21354312Y-29873716D01*
X21354307Y-29873707D01*
X21285858Y-29771267D01*
X21285855Y-29771263D01*
X21198736Y-29684144D01*
X21198732Y-29684141D01*
X21129830Y-29638102D01*
X21085025Y-29584490D01*
X21076318Y-29515165D01*
X21106472Y-29452137D01*
X21129830Y-29431898D01*
X21156345Y-29414180D01*
X21198733Y-29385858D01*
X21285858Y-29298733D01*
X21354311Y-29196286D01*
X21401463Y-29082452D01*
X21425500Y-28961606D01*
X21425500Y-28838394D01*
X21401463Y-28717548D01*
X21354311Y-28603714D01*
X21354310Y-28603713D01*
X21354307Y-28603707D01*
X21285858Y-28501267D01*
X21285855Y-28501263D01*
X21198736Y-28414144D01*
X21198732Y-28414141D01*
X21129830Y-28368102D01*
X21085025Y-28314490D01*
X21076318Y-28245165D01*
X21106472Y-28182137D01*
X21129830Y-28161898D01*
X21156345Y-28144180D01*
X21198733Y-28115858D01*
X21285858Y-28028733D01*
X21354311Y-27926286D01*
X21401463Y-27812452D01*
X21425500Y-27691606D01*
X21425500Y-27568394D01*
X21401463Y-27447548D01*
X21354311Y-27333714D01*
X21354310Y-27333713D01*
X21354307Y-27333707D01*
X21285858Y-27231267D01*
X21285855Y-27231263D01*
X21198736Y-27144144D01*
X21198732Y-27144141D01*
X21129830Y-27098102D01*
X21085025Y-27044490D01*
X21076318Y-26975165D01*
X21106472Y-26912137D01*
X21129830Y-26891898D01*
X21156345Y-26874180D01*
X21198733Y-26845858D01*
X21285858Y-26758733D01*
X21354311Y-26656286D01*
X21401463Y-26542452D01*
X21425500Y-26421606D01*
X21425500Y-26298394D01*
X21401463Y-26177548D01*
X21363020Y-26084739D01*
X21354312Y-26063716D01*
X21354307Y-26063707D01*
X21285858Y-25961267D01*
X21285855Y-25961263D01*
X21198736Y-25874144D01*
X21198732Y-25874141D01*
X21129830Y-25828102D01*
X21085025Y-25774490D01*
X21076318Y-25705165D01*
X21106472Y-25642137D01*
X21129830Y-25621898D01*
X21156345Y-25604180D01*
X21198733Y-25575858D01*
X21285858Y-25488733D01*
X21354311Y-25386286D01*
X21401463Y-25272452D01*
X21425500Y-25151606D01*
X21425500Y-25028394D01*
X21401463Y-24907548D01*
X21354311Y-24793714D01*
X21354310Y-24793713D01*
X21354307Y-24793707D01*
X21285858Y-24691267D01*
X21285855Y-24691263D01*
X21198736Y-24604144D01*
X21198732Y-24604141D01*
X21096292Y-24535692D01*
X21096283Y-24535687D01*
X20982454Y-24488538D01*
X20982455Y-24488538D01*
X20982452Y-24488537D01*
X20982448Y-24488536D01*
X20982444Y-24488535D01*
X20861610Y-24464500D01*
X20861606Y-24464500D01*
X20738394Y-24464500D01*
X20738389Y-24464500D01*
X20617555Y-24488535D01*
X20617545Y-24488538D01*
X20503716Y-24535687D01*
X20503707Y-24535692D01*
X20401267Y-24604141D01*
X20401263Y-24604144D01*
X20314144Y-24691263D01*
X20314141Y-24691267D01*
X20245692Y-24793707D01*
X20245687Y-24793716D01*
X20198538Y-24907545D01*
X20198535Y-24907555D01*
X20174500Y-25028389D01*
X6702765Y-25028389D01*
X6719799Y-24998886D01*
X6750500Y-24884309D01*
X6750500Y-24765691D01*
X6746416Y-24750449D01*
X6748079Y-24680602D01*
X6787241Y-24622739D01*
X6851470Y-24595235D01*
X6891961Y-24598131D01*
X6891980Y-24597992D01*
X6894323Y-24598300D01*
X6898285Y-24598583D01*
X6900036Y-24599053D01*
X6900038Y-24599053D01*
X7018651Y-24599053D01*
X7018654Y-24599053D01*
X7133231Y-24568352D01*
X7235958Y-24509042D01*
X7319834Y-24425166D01*
X7330681Y-24406378D01*
X10349500Y-24406378D01*
X10349500Y-24524996D01*
X10380201Y-24639573D01*
X10439511Y-24742300D01*
X10523387Y-24826176D01*
X10626114Y-24885486D01*
X10740691Y-24916187D01*
X10740694Y-24916187D01*
X10859306Y-24916187D01*
X10859309Y-24916187D01*
X10973886Y-24885486D01*
X11076613Y-24826176D01*
X11160489Y-24742300D01*
X11219799Y-24639573D01*
X11250500Y-24524996D01*
X11250500Y-24406378D01*
X11219799Y-24291801D01*
X11187870Y-24236500D01*
X11171398Y-24168601D01*
X11194250Y-24102574D01*
X11249171Y-24059383D01*
X11281459Y-24053159D01*
X11281249Y-24051561D01*
X11289305Y-24050500D01*
X11289309Y-24050500D01*
X11403886Y-24019799D01*
X11506613Y-23960489D01*
X11590489Y-23876613D01*
X11649799Y-23773886D01*
X11680500Y-23659309D01*
X11680500Y-23540691D01*
X11649799Y-23426114D01*
X11590489Y-23323387D01*
X11525831Y-23258729D01*
X11492346Y-23197406D01*
X11497330Y-23127714D01*
X11539202Y-23071781D01*
X11581419Y-23051273D01*
X11584304Y-23050500D01*
X11584309Y-23050500D01*
X11698886Y-23019799D01*
X11737552Y-22997474D01*
X11805451Y-22981001D01*
X11871478Y-23003852D01*
X11887234Y-23017180D01*
X11967092Y-23097038D01*
X11967096Y-23097041D01*
X12073631Y-23168226D01*
X12073640Y-23168231D01*
X12100020Y-23179158D01*
X12192021Y-23217266D01*
X12192025Y-23217266D01*
X12192026Y-23217267D01*
X12317693Y-23242265D01*
X12317696Y-23242265D01*
X12445836Y-23242265D01*
X12530380Y-23225447D01*
X12571509Y-23217266D01*
X12689892Y-23168230D01*
X12796434Y-23097041D01*
X12887041Y-23006434D01*
X12958230Y-22899892D01*
X13007266Y-22781509D01*
X13015447Y-22740380D01*
X13032265Y-22655836D01*
X13032265Y-22527693D01*
X13007267Y-22402026D01*
X13007266Y-22402025D01*
X13007266Y-22402021D01*
X12958230Y-22283638D01*
X12958229Y-22283637D01*
X12958226Y-22283631D01*
X12887039Y-22177093D01*
X12796437Y-22086491D01*
X12796433Y-22086488D01*
X12689898Y-22015303D01*
X12689889Y-22015298D01*
X12571509Y-21966264D01*
X12571503Y-21966262D01*
X12445836Y-21941265D01*
X12445834Y-21941265D01*
X12317696Y-21941265D01*
X12317694Y-21941265D01*
X12192026Y-21966262D01*
X12192020Y-21966264D01*
X12073640Y-22015298D01*
X12073631Y-22015303D01*
X11967096Y-22086488D01*
X11967092Y-22086491D01*
X11876793Y-22176791D01*
X11815470Y-22210276D01*
X11745778Y-22205292D01*
X11727111Y-22196497D01*
X11726044Y-22195881D01*
X11698886Y-22180201D01*
X11584309Y-22149500D01*
X11465691Y-22149500D01*
X11351114Y-22180201D01*
X11351112Y-22180201D01*
X11351112Y-22180202D01*
X11248387Y-22239511D01*
X11248384Y-22239513D01*
X11164513Y-22323384D01*
X11164511Y-22323387D01*
X11105201Y-22426114D01*
X11074500Y-22540691D01*
X11074500Y-22659309D01*
X11105201Y-22773886D01*
X11164511Y-22876613D01*
X11164513Y-22876615D01*
X11229168Y-22941270D01*
X11262653Y-23002593D01*
X11257669Y-23072285D01*
X11215797Y-23128218D01*
X11173581Y-23148726D01*
X11170692Y-23149500D01*
X11170691Y-23149500D01*
X11056114Y-23180201D01*
X11056112Y-23180201D01*
X11056112Y-23180202D01*
X10953387Y-23239511D01*
X10953384Y-23239513D01*
X10869513Y-23323384D01*
X10869511Y-23323387D01*
X10852390Y-23353042D01*
X10810201Y-23426114D01*
X10779500Y-23540691D01*
X10779500Y-23659309D01*
X10810201Y-23773886D01*
X10827325Y-23803545D01*
X10842129Y-23829186D01*
X10858602Y-23897086D01*
X10835750Y-23963113D01*
X10780829Y-24006304D01*
X10748540Y-24012527D01*
X10748751Y-24014126D01*
X10740694Y-24015186D01*
X10723486Y-24019797D01*
X10626114Y-24045888D01*
X10626112Y-24045888D01*
X10626112Y-24045889D01*
X10523387Y-24105198D01*
X10523384Y-24105200D01*
X10439513Y-24189071D01*
X10439511Y-24189074D01*
X10380201Y-24291801D01*
X10349500Y-24406378D01*
X7330681Y-24406378D01*
X7379144Y-24322439D01*
X7409845Y-24207862D01*
X7409845Y-24089244D01*
X7379144Y-23974667D01*
X7319834Y-23871940D01*
X7235958Y-23788064D01*
X7133231Y-23728754D01*
X7018654Y-23698053D01*
X6900036Y-23698053D01*
X6785459Y-23728754D01*
X6785457Y-23728754D01*
X6785457Y-23728755D01*
X6682732Y-23788064D01*
X6682729Y-23788066D01*
X6598858Y-23871937D01*
X6598856Y-23871940D01*
X6539546Y-23974667D01*
X6508845Y-24089244D01*
X6508845Y-24089246D01*
X6508845Y-24207861D01*
X6512929Y-24223104D01*
X6511264Y-24292954D01*
X6472100Y-24350815D01*
X6407871Y-24378317D01*
X6367383Y-24375422D01*
X6367365Y-24375561D01*
X6365043Y-24375255D01*
X6361067Y-24374971D01*
X6359309Y-24374500D01*
X6240691Y-24374500D01*
X6126114Y-24405201D01*
X6126112Y-24405201D01*
X6126112Y-24405202D01*
X6023387Y-24464511D01*
X6023384Y-24464513D01*
X5939513Y-24548384D01*
X5939511Y-24548387D01*
X5907321Y-24604142D01*
X5880201Y-24651114D01*
X5849500Y-24765691D01*
X1121995Y-24765691D01*
X1150500Y-24659309D01*
X1150500Y-24540691D01*
X1119799Y-24426114D01*
X1060489Y-24323387D01*
X976613Y-24239511D01*
X873886Y-24180201D01*
X759309Y-24149500D01*
X640691Y-24149500D01*
X526114Y-24180201D01*
X526112Y-24180201D01*
X526112Y-24180202D01*
X423387Y-24239511D01*
X423384Y-24239513D01*
X339513Y-24323384D01*
X339511Y-24323387D01*
X291595Y-24406380D01*
X280201Y-24426114D01*
X249500Y-24540691D01*
X249500Y-24659309D01*
X280201Y-24773886D01*
X339511Y-24876613D01*
X423387Y-24960489D01*
X489892Y-24998886D01*
X526110Y-25019797D01*
X526111Y-25019797D01*
X526114Y-25019799D01*
X526116Y-25019799D01*
X527289Y-25020285D01*
X528131Y-25020963D01*
X533153Y-25023863D01*
X532701Y-25024645D01*
X581697Y-25064121D01*
X603769Y-25130413D01*
X586496Y-25198114D01*
X535363Y-25245729D01*
X511954Y-25254622D01*
X509804Y-25255198D01*
X509798Y-25255200D01*
X407071Y-25314511D01*
X407068Y-25314513D01*
X323197Y-25398384D01*
X323195Y-25398387D01*
X271032Y-25488736D01*
X263885Y-25501114D01*
X233184Y-25615691D01*
X-1324500Y-25615691D01*
X-1324500Y-25558469D01*
X-1355201Y-25443892D01*
X-1381474Y-25398387D01*
X-1414511Y-25341165D01*
X-1414513Y-25341162D01*
X-1498384Y-25257291D01*
X-1498387Y-25257289D01*
X-1601112Y-25197980D01*
X-1601112Y-25197979D01*
X-1601114Y-25197979D01*
X-1715691Y-25167278D01*
X-1834309Y-25167278D01*
X-1948886Y-25197979D01*
X-2051613Y-25257289D01*
X-2135489Y-25341165D01*
X-2194799Y-25443892D01*
X-2225500Y-25558469D01*
X-2699500Y-25558469D01*
X-2699500Y-23290691D01*
X-500Y-23290691D01*
X-500Y-23409309D01*
X30201Y-23523886D01*
X89511Y-23626613D01*
X173387Y-23710489D01*
X276114Y-23769799D01*
X390691Y-23800500D01*
X390694Y-23800500D01*
X509306Y-23800500D01*
X509309Y-23800500D01*
X623886Y-23769799D01*
X726613Y-23710489D01*
X810489Y-23626613D01*
X842973Y-23570349D01*
X3444842Y-23570349D01*
X3444842Y-23688967D01*
X3475543Y-23803544D01*
X3534853Y-23906271D01*
X3618729Y-23990147D01*
X3721456Y-24049457D01*
X3836033Y-24080158D01*
X3836036Y-24080158D01*
X3954648Y-24080158D01*
X3954651Y-24080158D01*
X4069228Y-24049457D01*
X4171955Y-23990147D01*
X4255831Y-23906271D01*
X4315141Y-23803544D01*
X4345842Y-23688967D01*
X4345842Y-23570349D01*
X4315141Y-23455772D01*
X4255831Y-23353045D01*
X4171955Y-23269169D01*
X4069228Y-23209859D01*
X3954651Y-23179158D01*
X3836033Y-23179158D01*
X3721456Y-23209859D01*
X3721454Y-23209859D01*
X3721454Y-23209860D01*
X3618729Y-23269169D01*
X3618726Y-23269171D01*
X3534855Y-23353042D01*
X3534853Y-23353045D01*
X3475543Y-23455772D01*
X3444842Y-23570349D01*
X842973Y-23570349D01*
X869799Y-23523886D01*
X900500Y-23409309D01*
X900500Y-23290691D01*
X869799Y-23176114D01*
X810489Y-23073387D01*
X794743Y-23057641D01*
X761258Y-22996318D01*
X766242Y-22926626D01*
X808114Y-22870693D01*
X873578Y-22846276D01*
X907623Y-22849526D01*
X907635Y-22849439D01*
X910088Y-22849762D01*
X914513Y-22850184D01*
X915691Y-22850500D01*
X915694Y-22850500D01*
X1034306Y-22850500D01*
X1034309Y-22850500D01*
X1148886Y-22819799D01*
X1199302Y-22790691D01*
X9074500Y-22790691D01*
X9074500Y-22909309D01*
X9105201Y-23023886D01*
X9164511Y-23126613D01*
X9248387Y-23210489D01*
X9351114Y-23269799D01*
X9465691Y-23300500D01*
X9465694Y-23300500D01*
X9584306Y-23300500D01*
X9584309Y-23300500D01*
X9698886Y-23269799D01*
X9801613Y-23210489D01*
X9885489Y-23126613D01*
X9944799Y-23023886D01*
X9975500Y-22909309D01*
X9975500Y-22790691D01*
X9944799Y-22676114D01*
X9885489Y-22573387D01*
X9801613Y-22489511D01*
X9698886Y-22430201D01*
X9584309Y-22399500D01*
X9465691Y-22399500D01*
X9351114Y-22430201D01*
X9351112Y-22430201D01*
X9351112Y-22430202D01*
X9248387Y-22489511D01*
X9248384Y-22489513D01*
X9164513Y-22573384D01*
X9164511Y-22573387D01*
X9116909Y-22655836D01*
X9105201Y-22676114D01*
X9074500Y-22790691D01*
X1199302Y-22790691D01*
X1251613Y-22760489D01*
X1335489Y-22676613D01*
X1394799Y-22573886D01*
X1425500Y-22459309D01*
X1425500Y-22340691D01*
X1394799Y-22226114D01*
X1335489Y-22123387D01*
X1251613Y-22039511D01*
X1148886Y-21980201D01*
X1034309Y-21949500D01*
X915691Y-21949500D01*
X801114Y-21980201D01*
X801112Y-21980201D01*
X801112Y-21980202D01*
X698387Y-22039511D01*
X698384Y-22039513D01*
X614513Y-22123384D01*
X614511Y-22123387D01*
X572301Y-22196497D01*
X555201Y-22226114D01*
X524500Y-22340691D01*
X524500Y-22459309D01*
X555201Y-22573886D01*
X614511Y-22676613D01*
X614513Y-22676615D01*
X630256Y-22692358D01*
X663741Y-22753681D01*
X658757Y-22823373D01*
X616885Y-22879306D01*
X551421Y-22903723D01*
X517376Y-22900473D01*
X517365Y-22900561D01*
X514914Y-22900238D01*
X510490Y-22899816D01*
X509313Y-22899500D01*
X509309Y-22899500D01*
X390691Y-22899500D01*
X276114Y-22930201D01*
X276112Y-22930201D01*
X276112Y-22930202D01*
X173387Y-22989511D01*
X173384Y-22989513D01*
X89513Y-23073384D01*
X89511Y-23073387D01*
X46014Y-23148726D01*
X30201Y-23176114D01*
X-500Y-23290691D01*
X-2699500Y-23290691D01*
X-2699500Y-21243877D01*
X-2278686Y-21243877D01*
X-2278686Y-21362495D01*
X-2247985Y-21477072D01*
X-2188675Y-21579799D01*
X-2104799Y-21663675D01*
X-2002072Y-21722985D01*
X-1887495Y-21753686D01*
X-1887492Y-21753686D01*
X-1768880Y-21753686D01*
X-1768877Y-21753686D01*
X-1654300Y-21722985D01*
X-1590365Y-21686072D01*
X3446829Y-21686072D01*
X3446829Y-21804690D01*
X3477530Y-21919267D01*
X3536840Y-22021994D01*
X3620716Y-22105870D01*
X3723443Y-22165180D01*
X3838020Y-22195881D01*
X3838023Y-22195881D01*
X3956635Y-22195881D01*
X3956638Y-22195881D01*
X4071215Y-22165180D01*
X4173942Y-22105870D01*
X4257818Y-22021994D01*
X4317128Y-21919267D01*
X4347829Y-21804690D01*
X4347829Y-21686072D01*
X4317128Y-21571495D01*
X4257818Y-21468768D01*
X4173942Y-21384892D01*
X4071215Y-21325582D01*
X3956638Y-21294881D01*
X3838020Y-21294881D01*
X3723443Y-21325582D01*
X3723441Y-21325582D01*
X3723441Y-21325583D01*
X3620716Y-21384892D01*
X3620713Y-21384894D01*
X3536842Y-21468765D01*
X3536840Y-21468768D01*
X3477530Y-21571495D01*
X3446829Y-21686072D01*
X-1590365Y-21686072D01*
X-1551573Y-21663675D01*
X-1467697Y-21579799D01*
X-1408387Y-21477072D01*
X-1377686Y-21362495D01*
X-1377686Y-21243877D01*
X-1407045Y-21134309D01*
X-1408388Y-21129295D01*
X-1408389Y-21129294D01*
X-1442875Y-21069565D01*
X-1442876Y-21069564D01*
X-1467695Y-21026576D01*
X-1467699Y-21026570D01*
X-1478578Y-21015691D01*
X2399500Y-21015691D01*
X2399500Y-21134309D01*
X2430201Y-21248886D01*
X2489511Y-21351613D01*
X2573387Y-21435489D01*
X2676114Y-21494799D01*
X2790691Y-21525500D01*
X2790694Y-21525500D01*
X2909306Y-21525500D01*
X2909309Y-21525500D01*
X3023886Y-21494799D01*
X3126613Y-21435489D01*
X3210489Y-21351613D01*
X3269799Y-21248886D01*
X3300500Y-21134309D01*
X3300500Y-21015691D01*
X3269799Y-20901114D01*
X3210489Y-20798387D01*
X3126613Y-20714511D01*
X3023886Y-20655201D01*
X2909309Y-20624500D01*
X2790691Y-20624500D01*
X2676114Y-20655201D01*
X2676112Y-20655201D01*
X2676112Y-20655202D01*
X2573387Y-20714511D01*
X2573384Y-20714513D01*
X2489513Y-20798384D01*
X2489511Y-20798387D01*
X2430201Y-20901114D01*
X2399500Y-21015691D01*
X-1478578Y-21015691D01*
X-1551570Y-20942699D01*
X-1551573Y-20942697D01*
X-1654298Y-20883388D01*
X-1654298Y-20883387D01*
X-1654300Y-20883387D01*
X-1768877Y-20852686D01*
X-1887495Y-20852686D01*
X-2002072Y-20883387D01*
X-2104799Y-20942697D01*
X-2188675Y-21026573D01*
X-2247985Y-21129300D01*
X-2278686Y-21243877D01*
X-2699500Y-21243877D01*
X-2699500Y-20140691D01*
X349500Y-20140691D01*
X349500Y-20259309D01*
X380201Y-20373886D01*
X439511Y-20476613D01*
X523387Y-20560489D01*
X626114Y-20619799D01*
X740691Y-20650500D01*
X740694Y-20650500D01*
X859306Y-20650500D01*
X859309Y-20650500D01*
X973886Y-20619799D01*
X1076613Y-20560489D01*
X1096411Y-20540691D01*
X5374500Y-20540691D01*
X5374500Y-20659309D01*
X5405201Y-20773886D01*
X5464511Y-20876613D01*
X5548387Y-20960489D01*
X5651114Y-21019799D01*
X5765691Y-21050500D01*
X5765694Y-21050500D01*
X5884306Y-21050500D01*
X5884309Y-21050500D01*
X5998886Y-21019799D01*
X6101613Y-20960489D01*
X6185489Y-20876613D01*
X6244799Y-20773886D01*
X6275500Y-20659309D01*
X6275500Y-20540691D01*
X6244799Y-20426114D01*
X6185489Y-20323387D01*
X6129837Y-20267735D01*
X6096352Y-20206412D01*
X6101336Y-20136720D01*
X6143208Y-20080787D01*
X6155501Y-20072677D01*
X6176613Y-20060489D01*
X6260489Y-19976613D01*
X6319799Y-19873886D01*
X6350500Y-19759309D01*
X6350500Y-19640691D01*
X6319799Y-19526114D01*
X6260489Y-19423387D01*
X6176613Y-19339511D01*
X6073886Y-19280201D01*
X5959309Y-19249500D01*
X5840691Y-19249500D01*
X5726114Y-19280201D01*
X5726112Y-19280201D01*
X5726112Y-19280202D01*
X5623387Y-19339511D01*
X5623384Y-19339513D01*
X5539513Y-19423384D01*
X5539511Y-19423387D01*
X5480201Y-19526114D01*
X5449500Y-19640691D01*
X5449500Y-19759309D01*
X5480201Y-19873886D01*
X5539511Y-19976613D01*
X5539513Y-19976615D01*
X5595162Y-20032264D01*
X5628647Y-20093587D01*
X5623663Y-20163279D01*
X5581791Y-20219212D01*
X5569482Y-20227331D01*
X5548393Y-20239507D01*
X5548384Y-20239513D01*
X5464513Y-20323384D01*
X5464511Y-20323387D01*
X5435355Y-20373887D01*
X5405201Y-20426114D01*
X5374500Y-20540691D01*
X1096411Y-20540691D01*
X1160489Y-20476613D01*
X1219799Y-20373886D01*
X1250500Y-20259309D01*
X1250500Y-20140691D01*
X1219799Y-20026114D01*
X1160489Y-19923387D01*
X1076613Y-19839511D01*
X973886Y-19780201D01*
X859309Y-19749500D01*
X740691Y-19749500D01*
X626114Y-19780201D01*
X626112Y-19780201D01*
X626112Y-19780202D01*
X523387Y-19839511D01*
X523384Y-19839513D01*
X439513Y-19923384D01*
X439511Y-19923387D01*
X408780Y-19976615D01*
X380201Y-20026114D01*
X349500Y-20140691D01*
X-2699500Y-20140691D01*
X-2699500Y-18415691D01*
X-650500Y-18415691D01*
X-650500Y-18534309D01*
X-619799Y-18648886D01*
X-560489Y-18751613D01*
X-476613Y-18835489D01*
X-373886Y-18894799D01*
X-259309Y-18925500D01*
X-259306Y-18925500D01*
X-140694Y-18925500D01*
X-140691Y-18925500D01*
X-26114Y-18894799D01*
X76613Y-18835489D01*
X160489Y-18751613D01*
X166795Y-18740691D01*
X7124500Y-18740691D01*
X7124500Y-18859309D01*
X7155201Y-18973886D01*
X7214511Y-19076613D01*
X7298387Y-19160489D01*
X7401114Y-19219799D01*
X7515691Y-19250500D01*
X7515694Y-19250500D01*
X7634306Y-19250500D01*
X7634309Y-19250500D01*
X7748886Y-19219799D01*
X7851613Y-19160489D01*
X7935489Y-19076613D01*
X7994799Y-18973886D01*
X8025500Y-18859309D01*
X8025500Y-18740691D01*
X7994799Y-18626114D01*
X7935489Y-18523387D01*
X7851613Y-18439511D01*
X7748886Y-18380201D01*
X7634309Y-18349500D01*
X7515691Y-18349500D01*
X7401114Y-18380201D01*
X7401112Y-18380201D01*
X7401112Y-18380202D01*
X7298387Y-18439511D01*
X7298384Y-18439513D01*
X7214513Y-18523384D01*
X7214511Y-18523387D01*
X7155201Y-18626114D01*
X7124500Y-18740691D01*
X166795Y-18740691D01*
X207285Y-18670563D01*
X207285Y-18670562D01*
X219796Y-18648893D01*
X219797Y-18648890D01*
X219798Y-18648887D01*
X219799Y-18648886D01*
X250500Y-18534309D01*
X250500Y-18415691D01*
X219799Y-18301114D01*
X160489Y-18198387D01*
X76613Y-18114511D01*
X-26114Y-18055201D01*
X-140691Y-18024500D01*
X-259309Y-18024500D01*
X-373886Y-18055201D01*
X-476613Y-18114511D01*
X-560489Y-18198387D01*
X-619799Y-18301114D01*
X-650500Y-18415691D01*
X-2699500Y-18415691D01*
X-2699500Y-17465691D01*
X13774500Y-17465691D01*
X13774500Y-17584309D01*
X13805201Y-17698886D01*
X13864511Y-17801613D01*
X13948387Y-17885489D01*
X14051114Y-17944799D01*
X14165691Y-17975500D01*
X14165694Y-17975500D01*
X14284306Y-17975500D01*
X14284309Y-17975500D01*
X14398886Y-17944799D01*
X14501613Y-17885489D01*
X14585489Y-17801613D01*
X14644799Y-17698886D01*
X14675500Y-17584309D01*
X14675500Y-17465691D01*
X14644799Y-17351114D01*
X14585489Y-17248387D01*
X14501613Y-17164511D01*
X14398886Y-17105201D01*
X14284309Y-17074500D01*
X14165691Y-17074500D01*
X14051114Y-17105201D01*
X14051112Y-17105201D01*
X14051112Y-17105202D01*
X13948387Y-17164511D01*
X13948384Y-17164513D01*
X13864513Y-17248384D01*
X13864511Y-17248387D01*
X13805201Y-17351114D01*
X13774500Y-17465691D01*
X-2699500Y-17465691D01*
X-2699500Y-16840691D01*
X7699500Y-16840691D01*
X7699500Y-16959309D01*
X7730201Y-17073886D01*
X7789511Y-17176613D01*
X7873387Y-17260489D01*
X7976114Y-17319799D01*
X8090691Y-17350500D01*
X8090694Y-17350500D01*
X8209306Y-17350500D01*
X8209309Y-17350500D01*
X8323886Y-17319799D01*
X8426613Y-17260489D01*
X8510489Y-17176613D01*
X8569799Y-17073886D01*
X8600500Y-16959309D01*
X8600500Y-16840691D01*
X8597807Y-16830639D01*
X14783082Y-16830639D01*
X14783082Y-16949257D01*
X14813783Y-17063834D01*
X14873093Y-17166561D01*
X14956969Y-17250437D01*
X15059696Y-17309747D01*
X15174273Y-17340448D01*
X15174276Y-17340448D01*
X15292888Y-17340448D01*
X15292891Y-17340448D01*
X15407468Y-17309747D01*
X15510195Y-17250437D01*
X15594071Y-17166561D01*
X15653381Y-17063834D01*
X15684082Y-16949257D01*
X15684082Y-16830639D01*
X15653381Y-16716062D01*
X15594071Y-16613335D01*
X15532500Y-16551764D01*
X15499015Y-16490441D01*
X15503999Y-16420749D01*
X15545286Y-16365596D01*
X15545164Y-16365437D01*
X15545732Y-16365000D01*
X15545871Y-16364816D01*
X15546592Y-16364341D01*
X15551605Y-16360493D01*
X15551613Y-16360489D01*
X15635489Y-16276613D01*
X15694799Y-16173886D01*
X15725500Y-16059309D01*
X15725500Y-15940691D01*
X15694799Y-15826114D01*
X15635489Y-15723387D01*
X15551613Y-15639511D01*
X15448886Y-15580201D01*
X15334309Y-15549500D01*
X15215691Y-15549500D01*
X15101114Y-15580201D01*
X15101112Y-15580201D01*
X15101112Y-15580202D01*
X14998387Y-15639511D01*
X14998384Y-15639513D01*
X14914513Y-15723384D01*
X14914511Y-15723387D01*
X14855201Y-15826114D01*
X14824500Y-15940691D01*
X14824500Y-16059309D01*
X14855201Y-16173886D01*
X14914511Y-16276613D01*
X14914513Y-16276615D01*
X14976081Y-16338183D01*
X15009566Y-16399506D01*
X15004582Y-16469198D01*
X14963294Y-16524350D01*
X14963418Y-16524511D01*
X14962844Y-16524950D01*
X14962710Y-16525131D01*
X14961993Y-16525604D01*
X14956966Y-16529461D01*
X14873095Y-16613332D01*
X14873093Y-16613335D01*
X14813783Y-16716062D01*
X14783082Y-16830639D01*
X8597807Y-16830639D01*
X8569799Y-16726114D01*
X8510489Y-16623387D01*
X8426613Y-16539511D01*
X8323886Y-16480201D01*
X8209309Y-16449500D01*
X8090691Y-16449500D01*
X7976114Y-16480201D01*
X7976112Y-16480201D01*
X7976112Y-16480202D01*
X7873387Y-16539511D01*
X7873384Y-16539513D01*
X7789513Y-16623384D01*
X7789511Y-16623387D01*
X7736005Y-16716062D01*
X7730201Y-16726114D01*
X7699500Y-16840691D01*
X-2699500Y-16840691D01*
X-2699500Y-13815691D01*
X549500Y-13815691D01*
X549500Y-13934309D01*
X580201Y-14048886D01*
X639511Y-14151613D01*
X723387Y-14235489D01*
X826114Y-14294799D01*
X940691Y-14325500D01*
X940694Y-14325500D01*
X1059306Y-14325500D01*
X1059309Y-14325500D01*
X1173886Y-14294799D01*
X1276613Y-14235489D01*
X1360489Y-14151613D01*
X1419799Y-14048886D01*
X1435392Y-13990691D01*
X5149500Y-13990691D01*
X5149500Y-14109309D01*
X5180201Y-14223886D01*
X5239511Y-14326613D01*
X5323387Y-14410489D01*
X5426114Y-14469799D01*
X5540691Y-14500500D01*
X5540694Y-14500500D01*
X5659306Y-14500500D01*
X5659309Y-14500500D01*
X5773886Y-14469799D01*
X5876613Y-14410489D01*
X5960489Y-14326613D01*
X6019799Y-14223886D01*
X6050500Y-14109309D01*
X6050500Y-14040691D01*
X11824500Y-14040691D01*
X11824500Y-14159309D01*
X11855201Y-14273886D01*
X11914511Y-14376613D01*
X11998387Y-14460489D01*
X12101114Y-14519799D01*
X12215691Y-14550500D01*
X12215694Y-14550500D01*
X12334306Y-14550500D01*
X12334309Y-14550500D01*
X12448886Y-14519799D01*
X12551613Y-14460489D01*
X12635489Y-14376613D01*
X12694799Y-14273886D01*
X12725500Y-14159309D01*
X12725500Y-14040691D01*
X14624500Y-14040691D01*
X14624500Y-14159309D01*
X14655201Y-14273886D01*
X14714511Y-14376613D01*
X14798387Y-14460489D01*
X14901114Y-14519799D01*
X15015691Y-14550500D01*
X15015694Y-14550500D01*
X15134306Y-14550500D01*
X15134309Y-14550500D01*
X15248886Y-14519799D01*
X15351613Y-14460489D01*
X15435489Y-14376613D01*
X15494799Y-14273886D01*
X15525500Y-14159309D01*
X15525500Y-14040691D01*
X15494799Y-13926114D01*
X15435489Y-13823387D01*
X15351613Y-13739511D01*
X15248886Y-13680201D01*
X15134309Y-13649500D01*
X15015691Y-13649500D01*
X14901114Y-13680201D01*
X14901112Y-13680201D01*
X14901112Y-13680202D01*
X14798387Y-13739511D01*
X14798384Y-13739513D01*
X14714513Y-13823384D01*
X14714511Y-13823387D01*
X14655201Y-13926114D01*
X14624500Y-14040691D01*
X12725500Y-14040691D01*
X12694799Y-13926114D01*
X12635489Y-13823387D01*
X12551613Y-13739511D01*
X12448886Y-13680201D01*
X12334309Y-13649500D01*
X12215691Y-13649500D01*
X12101114Y-13680201D01*
X12101112Y-13680201D01*
X12101112Y-13680202D01*
X11998387Y-13739511D01*
X11998384Y-13739513D01*
X11914513Y-13823384D01*
X11914511Y-13823387D01*
X11855201Y-13926114D01*
X11824500Y-14040691D01*
X6050500Y-14040691D01*
X6050500Y-13990691D01*
X6019799Y-13876114D01*
X5960489Y-13773387D01*
X5876613Y-13689511D01*
X5773886Y-13630201D01*
X5659309Y-13599500D01*
X5540691Y-13599500D01*
X5426114Y-13630201D01*
X5426112Y-13630201D01*
X5426112Y-13630202D01*
X5323387Y-13689511D01*
X5323384Y-13689513D01*
X5239513Y-13773384D01*
X5239511Y-13773387D01*
X5215087Y-13815691D01*
X5180201Y-13876114D01*
X5149500Y-13990691D01*
X1435392Y-13990691D01*
X1450500Y-13934309D01*
X1450500Y-13815691D01*
X1419799Y-13701114D01*
X1360489Y-13598387D01*
X1276613Y-13514511D01*
X1173886Y-13455201D01*
X1059309Y-13424500D01*
X940691Y-13424500D01*
X826114Y-13455201D01*
X826112Y-13455201D01*
X826112Y-13455202D01*
X723387Y-13514511D01*
X723384Y-13514513D01*
X639513Y-13598384D01*
X639511Y-13598387D01*
X580201Y-13701114D01*
X549500Y-13815691D01*
X-2699500Y-13815691D01*
X-2699500Y-12815691D01*
X11824500Y-12815691D01*
X11824500Y-12934309D01*
X11855201Y-13048886D01*
X11914511Y-13151613D01*
X11998387Y-13235489D01*
X12101114Y-13294799D01*
X12215691Y-13325500D01*
X12215694Y-13325500D01*
X12334306Y-13325500D01*
X12334309Y-13325500D01*
X12448886Y-13294799D01*
X12551613Y-13235489D01*
X12635489Y-13151613D01*
X12694799Y-13048886D01*
X12725500Y-12934309D01*
X12725500Y-12815691D01*
X12718801Y-12790691D01*
X13999500Y-12790691D01*
X13999500Y-12909309D01*
X14030201Y-13023886D01*
X14089511Y-13126613D01*
X14173387Y-13210489D01*
X14276114Y-13269799D01*
X14390691Y-13300500D01*
X14390694Y-13300500D01*
X14509306Y-13300500D01*
X14509309Y-13300500D01*
X14623886Y-13269799D01*
X14726613Y-13210489D01*
X14810489Y-13126613D01*
X14869799Y-13023886D01*
X14900500Y-12909309D01*
X14900500Y-12790691D01*
X14869799Y-12676114D01*
X14810489Y-12573387D01*
X14726613Y-12489511D01*
X14623886Y-12430201D01*
X14509309Y-12399500D01*
X14390691Y-12399500D01*
X14276114Y-12430201D01*
X14276112Y-12430201D01*
X14276112Y-12430202D01*
X14173387Y-12489511D01*
X14173384Y-12489513D01*
X14089513Y-12573384D01*
X14089511Y-12573387D01*
X14030201Y-12676114D01*
X13999500Y-12790691D01*
X12718801Y-12790691D01*
X12694799Y-12701114D01*
X12635489Y-12598387D01*
X12551613Y-12514511D01*
X12448886Y-12455201D01*
X12334309Y-12424500D01*
X12215691Y-12424500D01*
X12101114Y-12455201D01*
X12101112Y-12455201D01*
X12101112Y-12455202D01*
X11998387Y-12514511D01*
X11998384Y-12514513D01*
X11914513Y-12598384D01*
X11914511Y-12598387D01*
X11855201Y-12701114D01*
X11824500Y-12815691D01*
X-2699500Y-12815691D01*
X-2699500Y-10090691D01*
X2459500Y-10090691D01*
X2459500Y-10209309D01*
X2490201Y-10323886D01*
X2549511Y-10426613D01*
X2633387Y-10510489D01*
X2736114Y-10569799D01*
X2736356Y-10569864D01*
X2736538Y-10569974D01*
X2743618Y-10572907D01*
X2743160Y-10574010D01*
X2796017Y-10606226D01*
X2826548Y-10669072D01*
X2818256Y-10738447D01*
X2811653Y-10751639D01*
X2763720Y-10834661D01*
X2763720Y-10834662D01*
X2763720Y-10834663D01*
X2763719Y-10834665D01*
X2724500Y-10981034D01*
X2724500Y-11132566D01*
X2735736Y-11174500D01*
X2763719Y-11278936D01*
X2789382Y-11323384D01*
X2839485Y-11410165D01*
X2946635Y-11517315D01*
X3077865Y-11593081D01*
X3224234Y-11632300D01*
X3224236Y-11632300D01*
X3375764Y-11632300D01*
X3375766Y-11632300D01*
X3522135Y-11593081D01*
X3612877Y-11540691D01*
X11824500Y-11540691D01*
X11824500Y-11659309D01*
X11855201Y-11773886D01*
X11914511Y-11876613D01*
X11998387Y-11960489D01*
X12101114Y-12019799D01*
X12215691Y-12050500D01*
X12215694Y-12050500D01*
X12334306Y-12050500D01*
X12334309Y-12050500D01*
X12448886Y-12019799D01*
X12551613Y-11960489D01*
X12635489Y-11876613D01*
X12694799Y-11773886D01*
X12725500Y-11659309D01*
X12725500Y-11565691D01*
X13399500Y-11565691D01*
X13399500Y-11684309D01*
X13430201Y-11798886D01*
X13489511Y-11901613D01*
X13573387Y-11985489D01*
X13676114Y-12044799D01*
X13790691Y-12075500D01*
X13790694Y-12075500D01*
X13909306Y-12075500D01*
X13909309Y-12075500D01*
X14023886Y-12044799D01*
X14126613Y-11985489D01*
X14210489Y-11901613D01*
X14269799Y-11798886D01*
X14300500Y-11684309D01*
X14300500Y-11565691D01*
X14269799Y-11451114D01*
X14210489Y-11348387D01*
X14126613Y-11264511D01*
X14023886Y-11205201D01*
X13909309Y-11174500D01*
X13790691Y-11174500D01*
X13676114Y-11205201D01*
X13676112Y-11205201D01*
X13676112Y-11205202D01*
X13573387Y-11264511D01*
X13573384Y-11264513D01*
X13489513Y-11348384D01*
X13489511Y-11348387D01*
X13433799Y-11444883D01*
X13430201Y-11451114D01*
X13399500Y-11565691D01*
X12725500Y-11565691D01*
X12725500Y-11540691D01*
X12694799Y-11426114D01*
X12635489Y-11323387D01*
X12551613Y-11239511D01*
X12448886Y-11180201D01*
X12334309Y-11149500D01*
X12215691Y-11149500D01*
X12101114Y-11180201D01*
X12101112Y-11180201D01*
X12101112Y-11180202D01*
X11998387Y-11239511D01*
X11998384Y-11239513D01*
X11914513Y-11323384D01*
X11914511Y-11323387D01*
X11855201Y-11426114D01*
X11824500Y-11540691D01*
X3612877Y-11540691D01*
X3653365Y-11517315D01*
X3760515Y-11410165D01*
X3836281Y-11278935D01*
X3875500Y-11132566D01*
X3875500Y-10981034D01*
X3836281Y-10834665D01*
X3760515Y-10703435D01*
X3653365Y-10596285D01*
X3614569Y-10573886D01*
X3598569Y-10564648D01*
X3598566Y-10564647D01*
X3522135Y-10520519D01*
X3405652Y-10489308D01*
X3399264Y-10486813D01*
X3376830Y-10469477D01*
X3362416Y-10460691D01*
X4919500Y-10460691D01*
X4919500Y-10579309D01*
X4950201Y-10693886D01*
X5009511Y-10796613D01*
X5093387Y-10880489D01*
X5196114Y-10939799D01*
X5310691Y-10970500D01*
X5310694Y-10970500D01*
X5429306Y-10970500D01*
X5429309Y-10970500D01*
X5543886Y-10939799D01*
X5646613Y-10880489D01*
X5730489Y-10796613D01*
X5789799Y-10693886D01*
X5820500Y-10579309D01*
X5820500Y-10460691D01*
X5789799Y-10346114D01*
X5772234Y-10315691D01*
X11824500Y-10315691D01*
X11824500Y-10434309D01*
X11855201Y-10548886D01*
X11914511Y-10651613D01*
X11998387Y-10735489D01*
X12101114Y-10794799D01*
X12215691Y-10825500D01*
X12215694Y-10825500D01*
X12334306Y-10825500D01*
X12334309Y-10825500D01*
X12448886Y-10794799D01*
X12551613Y-10735489D01*
X12635489Y-10651613D01*
X12694799Y-10548886D01*
X12725500Y-10434309D01*
X12725500Y-10340691D01*
X15049500Y-10340691D01*
X15049500Y-10459309D01*
X15080201Y-10573886D01*
X15139511Y-10676613D01*
X15223387Y-10760489D01*
X15326114Y-10819799D01*
X15440691Y-10850500D01*
X15440694Y-10850500D01*
X15559306Y-10850500D01*
X15559309Y-10850500D01*
X15673886Y-10819799D01*
X15776613Y-10760489D01*
X15860489Y-10676613D01*
X15919799Y-10573886D01*
X15950500Y-10459309D01*
X15950500Y-10340691D01*
X15919799Y-10226114D01*
X15860489Y-10123387D01*
X15776613Y-10039511D01*
X15673886Y-9980201D01*
X15559309Y-9949500D01*
X15440691Y-9949500D01*
X15326114Y-9980201D01*
X15326112Y-9980201D01*
X15326112Y-9980202D01*
X15223387Y-10039511D01*
X15223384Y-10039513D01*
X15139513Y-10123384D01*
X15139511Y-10123387D01*
X15080201Y-10226114D01*
X15049500Y-10340691D01*
X12725500Y-10340691D01*
X12725500Y-10315691D01*
X12694799Y-10201114D01*
X12635489Y-10098387D01*
X12551613Y-10014511D01*
X12448886Y-9955201D01*
X12334309Y-9924500D01*
X12215691Y-9924500D01*
X12101114Y-9955201D01*
X12101112Y-9955201D01*
X12101112Y-9955202D01*
X11998387Y-10014511D01*
X11998384Y-10014513D01*
X11914513Y-10098384D01*
X11914511Y-10098387D01*
X11879220Y-10159513D01*
X11855201Y-10201114D01*
X11824500Y-10315691D01*
X5772234Y-10315691D01*
X5730489Y-10243387D01*
X5646613Y-10159511D01*
X5543886Y-10100201D01*
X5429309Y-10069500D01*
X5310691Y-10069500D01*
X5196114Y-10100201D01*
X5196112Y-10100201D01*
X5196112Y-10100202D01*
X5093387Y-10159511D01*
X5093384Y-10159513D01*
X5009513Y-10243384D01*
X5009511Y-10243387D01*
X4950201Y-10346114D01*
X4919500Y-10460691D01*
X3362416Y-10460691D01*
X3352618Y-10454719D01*
X3349544Y-10448391D01*
X3343978Y-10444090D01*
X3334477Y-10417375D01*
X3322089Y-10391872D01*
X3322892Y-10384797D01*
X3320567Y-10378259D01*
X3326534Y-10352719D01*
X3328880Y-10332053D01*
X3327695Y-10331736D01*
X3329797Y-10323887D01*
X3329799Y-10323886D01*
X3360500Y-10209309D01*
X3360500Y-10090691D01*
X3329799Y-9976114D01*
X3270489Y-9873387D01*
X3186613Y-9789511D01*
X3186610Y-9789509D01*
X3186606Y-9789506D01*
X3135972Y-9760272D01*
X3087757Y-9709705D01*
X3074535Y-9641097D01*
X3100503Y-9576233D01*
X3135974Y-9545499D01*
X3145973Y-9539726D01*
X3196613Y-9510489D01*
X3280489Y-9426613D01*
X3339799Y-9323886D01*
X3370500Y-9209309D01*
X3370500Y-9090691D01*
X3339799Y-8976114D01*
X3280489Y-8873387D01*
X3196613Y-8789511D01*
X3093886Y-8730201D01*
X2979309Y-8699500D01*
X2860691Y-8699500D01*
X2746114Y-8730201D01*
X2746112Y-8730201D01*
X2746112Y-8730202D01*
X2643387Y-8789511D01*
X2643384Y-8789513D01*
X2559513Y-8873384D01*
X2559511Y-8873387D01*
X2508472Y-8961789D01*
X2500201Y-8976114D01*
X2469500Y-9090691D01*
X2469500Y-9209309D01*
X2500201Y-9323886D01*
X2559511Y-9426613D01*
X2643387Y-9510489D01*
X2694027Y-9539726D01*
X2742242Y-9590294D01*
X2755464Y-9658901D01*
X2729496Y-9723765D01*
X2694027Y-9754499D01*
X2633393Y-9789506D01*
X2633384Y-9789513D01*
X2549513Y-9873384D01*
X2549511Y-9873387D01*
X2490201Y-9976114D01*
X2459500Y-10090691D01*
X-2699500Y-10090691D01*
X-2699500Y-8140691D01*
X-275500Y-8140691D01*
X-275500Y-8259309D01*
X-244799Y-8373886D01*
X-185489Y-8476613D01*
X-101613Y-8560489D01*
X1114Y-8619799D01*
X102809Y-8647048D01*
X162467Y-8683412D01*
X192996Y-8746259D01*
X184701Y-8815635D01*
X158396Y-8854501D01*
X139514Y-8873383D01*
X139511Y-8873387D01*
X88472Y-8961789D01*
X80201Y-8976114D01*
X49500Y-9090691D01*
X49500Y-9209309D01*
X80201Y-9323886D01*
X139511Y-9426613D01*
X223387Y-9510489D01*
X326114Y-9569799D01*
X440691Y-9600500D01*
X440694Y-9600500D01*
X559306Y-9600500D01*
X559309Y-9600500D01*
X673886Y-9569799D01*
X776613Y-9510489D01*
X860489Y-9426613D01*
X919799Y-9323886D01*
X950500Y-9209309D01*
X950500Y-9090691D01*
X919799Y-8976114D01*
X860489Y-8873387D01*
X776613Y-8789511D01*
X701699Y-8746259D01*
X673887Y-8730201D01*
X572192Y-8702952D01*
X512531Y-8666586D01*
X499952Y-8640691D01*
X6874500Y-8640691D01*
X6874500Y-8759309D01*
X6905201Y-8873886D01*
X6964511Y-8976613D01*
X7048387Y-9060489D01*
X7151114Y-9119799D01*
X7265691Y-9150500D01*
X7265694Y-9150500D01*
X7384306Y-9150500D01*
X7384309Y-9150500D01*
X7498886Y-9119799D01*
X7506001Y-9115691D01*
X12424500Y-9115691D01*
X12424500Y-9234309D01*
X12455201Y-9348886D01*
X12514511Y-9451613D01*
X12598387Y-9535489D01*
X12701114Y-9594799D01*
X12815691Y-9625500D01*
X12815694Y-9625500D01*
X12934306Y-9625500D01*
X12934309Y-9625500D01*
X13048886Y-9594799D01*
X13151613Y-9535489D01*
X13235489Y-9451613D01*
X13294799Y-9348886D01*
X13325500Y-9234309D01*
X13325500Y-9115691D01*
X13294799Y-9001114D01*
X13235489Y-8898387D01*
X13151613Y-8814511D01*
X13048886Y-8755201D01*
X12934309Y-8724500D01*
X12815691Y-8724500D01*
X12701114Y-8755201D01*
X12701112Y-8755201D01*
X12701112Y-8755202D01*
X12598387Y-8814511D01*
X12598384Y-8814513D01*
X12514513Y-8898384D01*
X12514511Y-8898387D01*
X12477906Y-8961789D01*
X12455201Y-9001114D01*
X12424500Y-9115691D01*
X7506001Y-9115691D01*
X7601613Y-9060489D01*
X7685489Y-8976613D01*
X7744799Y-8873886D01*
X7775500Y-8759309D01*
X7775500Y-8640691D01*
X7744799Y-8526114D01*
X7685489Y-8423387D01*
X7601613Y-8339511D01*
X7498886Y-8280201D01*
X7384309Y-8249500D01*
X7265691Y-8249500D01*
X7151114Y-8280201D01*
X7151112Y-8280201D01*
X7151112Y-8280202D01*
X7048387Y-8339511D01*
X7048384Y-8339513D01*
X6964513Y-8423384D01*
X6964511Y-8423387D01*
X6933780Y-8476615D01*
X6905201Y-8526114D01*
X6874500Y-8640691D01*
X499952Y-8640691D01*
X482003Y-8603739D01*
X490298Y-8534364D01*
X516604Y-8495497D01*
X535489Y-8476613D01*
X594799Y-8373886D01*
X625500Y-8259309D01*
X625500Y-8140691D01*
X594799Y-8026114D01*
X535489Y-7923387D01*
X525755Y-7913653D01*
X492270Y-7852330D01*
X497254Y-7782638D01*
X539126Y-7726705D01*
X581340Y-7706198D01*
X623886Y-7694799D01*
X726613Y-7635489D01*
X810489Y-7551613D01*
X869799Y-7448886D01*
X900500Y-7334309D01*
X900500Y-7215691D01*
X896481Y-7200691D01*
X2449500Y-7200691D01*
X2449500Y-7319309D01*
X2480201Y-7433886D01*
X2539511Y-7536613D01*
X2623387Y-7620489D01*
X2726114Y-7679799D01*
X2840691Y-7710500D01*
X2840694Y-7710500D01*
X2959306Y-7710500D01*
X2959309Y-7710500D01*
X3073886Y-7679799D01*
X3176613Y-7620489D01*
X3260489Y-7536613D01*
X3272568Y-7515691D01*
X6124500Y-7515691D01*
X6124500Y-7634309D01*
X6155201Y-7748886D01*
X6214511Y-7851613D01*
X6298387Y-7935489D01*
X6401114Y-7994799D01*
X6515691Y-8025500D01*
X6515694Y-8025500D01*
X6634306Y-8025500D01*
X6634309Y-8025500D01*
X6716447Y-8003491D01*
X11436834Y-8003491D01*
X11436834Y-8122109D01*
X11467535Y-8236686D01*
X11526845Y-8339413D01*
X11610721Y-8423289D01*
X11713448Y-8482599D01*
X11828025Y-8513300D01*
X11828028Y-8513300D01*
X11946640Y-8513300D01*
X11946643Y-8513300D01*
X12061220Y-8482599D01*
X12163947Y-8423289D01*
X12247823Y-8339413D01*
X12293007Y-8261153D01*
X17409500Y-8261153D01*
X17409500Y-8418846D01*
X17440261Y-8573489D01*
X17440264Y-8573501D01*
X17500602Y-8719172D01*
X17500609Y-8719185D01*
X17588210Y-8850288D01*
X17588213Y-8850292D01*
X17699707Y-8961786D01*
X17699711Y-8961789D01*
X17830814Y-9049390D01*
X17830827Y-9049397D01*
X17930526Y-9090693D01*
X17976503Y-9109737D01*
X18131153Y-9140499D01*
X18131156Y-9140500D01*
X18131158Y-9140500D01*
X18288844Y-9140500D01*
X18288845Y-9140499D01*
X18443497Y-9109737D01*
X18589179Y-9049394D01*
X18720289Y-8961789D01*
X18831789Y-8850289D01*
X18919394Y-8719179D01*
X18979737Y-8573497D01*
X19010500Y-8418842D01*
X19010500Y-8261158D01*
X19010500Y-8261155D01*
X19010499Y-8261153D01*
X18982841Y-8122109D01*
X18979737Y-8106503D01*
X18946439Y-8026114D01*
X18919397Y-7960827D01*
X18919390Y-7960814D01*
X18831789Y-7829711D01*
X18831786Y-7829707D01*
X18720292Y-7718213D01*
X18720288Y-7718210D01*
X18589185Y-7630609D01*
X18589172Y-7630602D01*
X18443501Y-7570264D01*
X18443489Y-7570261D01*
X18288845Y-7539500D01*
X18288842Y-7539500D01*
X18131158Y-7539500D01*
X18131155Y-7539500D01*
X17976510Y-7570261D01*
X17976498Y-7570264D01*
X17830827Y-7630602D01*
X17830814Y-7630609D01*
X17699711Y-7718210D01*
X17699707Y-7718213D01*
X17588213Y-7829707D01*
X17588210Y-7829711D01*
X17500609Y-7960814D01*
X17500602Y-7960827D01*
X17440264Y-8106498D01*
X17440261Y-8106510D01*
X17409500Y-8261153D01*
X12293007Y-8261153D01*
X12307133Y-8236686D01*
X12337834Y-8122109D01*
X12337834Y-8003491D01*
X12307133Y-7888914D01*
X12247823Y-7786187D01*
X12163947Y-7702311D01*
X12061220Y-7643001D01*
X11946643Y-7612300D01*
X11828025Y-7612300D01*
X11713448Y-7643001D01*
X11713446Y-7643001D01*
X11713446Y-7643002D01*
X11610721Y-7702311D01*
X11610718Y-7702313D01*
X11526847Y-7786184D01*
X11526845Y-7786187D01*
X11489072Y-7851612D01*
X11467535Y-7888914D01*
X11436834Y-8003491D01*
X6716447Y-8003491D01*
X6748886Y-7994799D01*
X6851613Y-7935489D01*
X6935489Y-7851613D01*
X6994799Y-7748886D01*
X7025500Y-7634309D01*
X7025500Y-7515691D01*
X6994799Y-7401114D01*
X6935489Y-7298387D01*
X6851613Y-7214511D01*
X6748886Y-7155201D01*
X6634309Y-7124500D01*
X6515691Y-7124500D01*
X6401114Y-7155201D01*
X6401112Y-7155201D01*
X6401112Y-7155202D01*
X6298387Y-7214511D01*
X6298384Y-7214513D01*
X6214513Y-7298384D01*
X6214511Y-7298387D01*
X6155201Y-7401114D01*
X6124500Y-7515691D01*
X3272568Y-7515691D01*
X3319799Y-7433886D01*
X3350500Y-7319309D01*
X3350500Y-7200691D01*
X3319799Y-7086114D01*
X3260489Y-6983387D01*
X3176613Y-6899511D01*
X3118036Y-6865691D01*
X13199500Y-6865691D01*
X13199500Y-6984309D01*
X13230201Y-7098886D01*
X13289511Y-7201613D01*
X13373387Y-7285489D01*
X13476114Y-7344799D01*
X13590691Y-7375500D01*
X13590694Y-7375500D01*
X13709306Y-7375500D01*
X13709309Y-7375500D01*
X13823886Y-7344799D01*
X13926613Y-7285489D01*
X14010489Y-7201613D01*
X14069799Y-7098886D01*
X14100500Y-6984309D01*
X14100500Y-6865691D01*
X14069799Y-6751114D01*
X14010489Y-6648387D01*
X13926613Y-6564511D01*
X13885356Y-6540691D01*
X14999500Y-6540691D01*
X14999500Y-6659309D01*
X15030201Y-6773886D01*
X15089511Y-6876613D01*
X15173387Y-6960489D01*
X15276114Y-7019799D01*
X15390691Y-7050500D01*
X15390694Y-7050500D01*
X15509306Y-7050500D01*
X15509309Y-7050500D01*
X15623886Y-7019799D01*
X15726613Y-6960489D01*
X15810489Y-6876613D01*
X15869799Y-6773886D01*
X15900500Y-6659309D01*
X15900500Y-6540691D01*
X15869799Y-6426114D01*
X15810489Y-6323387D01*
X15726613Y-6239511D01*
X15623886Y-6180201D01*
X15509309Y-6149500D01*
X15390691Y-6149500D01*
X15276114Y-6180201D01*
X15276112Y-6180201D01*
X15276112Y-6180202D01*
X15173387Y-6239511D01*
X15173384Y-6239513D01*
X15089513Y-6323384D01*
X15089511Y-6323387D01*
X15030201Y-6426114D01*
X14999500Y-6540691D01*
X13885356Y-6540691D01*
X13823886Y-6505201D01*
X13709309Y-6474500D01*
X13590691Y-6474500D01*
X13476114Y-6505201D01*
X13476112Y-6505201D01*
X13476112Y-6505202D01*
X13373387Y-6564511D01*
X13373384Y-6564513D01*
X13289513Y-6648384D01*
X13289511Y-6648387D01*
X13230201Y-6751114D01*
X13199500Y-6865691D01*
X3118036Y-6865691D01*
X3073886Y-6840201D01*
X2959309Y-6809500D01*
X2840691Y-6809500D01*
X2726114Y-6840201D01*
X2726112Y-6840201D01*
X2726112Y-6840202D01*
X2623387Y-6899511D01*
X2623384Y-6899513D01*
X2539513Y-6983384D01*
X2539511Y-6983387D01*
X2480201Y-7086114D01*
X2449500Y-7200691D01*
X896481Y-7200691D01*
X869799Y-7101114D01*
X810489Y-6998387D01*
X726613Y-6914511D01*
X623886Y-6855201D01*
X509309Y-6824500D01*
X390691Y-6824500D01*
X276114Y-6855201D01*
X276112Y-6855201D01*
X276112Y-6855202D01*
X173387Y-6914511D01*
X173384Y-6914513D01*
X89513Y-6998384D01*
X89511Y-6998387D01*
X30201Y-7101114D01*
X-500Y-7215691D01*
X-500Y-7334309D01*
X30201Y-7448886D01*
X89511Y-7551613D01*
X89513Y-7551615D01*
X99244Y-7561346D01*
X132729Y-7622669D01*
X127745Y-7692361D01*
X85873Y-7748294D01*
X43658Y-7768801D01*
X1114Y-7780201D01*
X-101613Y-7839511D01*
X-185489Y-7923387D01*
X-244799Y-8026114D01*
X-275500Y-8140691D01*
X-2699500Y-8140691D01*
X-2699500Y-5535691D01*
X1704500Y-5535691D01*
X1704500Y-5654309D01*
X1735201Y-5768886D01*
X1794511Y-5871613D01*
X1878387Y-5955489D01*
X1981114Y-6014799D01*
X2095691Y-6045500D01*
X2095694Y-6045500D01*
X2214306Y-6045500D01*
X2214309Y-6045500D01*
X2328886Y-6014799D01*
X2431613Y-5955489D01*
X2515489Y-5871613D01*
X2574799Y-5768886D01*
X2605500Y-5654309D01*
X2605500Y-5654304D01*
X2606607Y-5650173D01*
X2642972Y-5590512D01*
X2705818Y-5559983D01*
X2775194Y-5568277D01*
X2829072Y-5612763D01*
X2833767Y-5620262D01*
X2839482Y-5630161D01*
X2839484Y-5630163D01*
X2839485Y-5630165D01*
X2946635Y-5737315D01*
X3077865Y-5813081D01*
X3224234Y-5852300D01*
X3224236Y-5852300D01*
X3375764Y-5852300D01*
X3375766Y-5852300D01*
X3522135Y-5813081D01*
X3653365Y-5737315D01*
X3689989Y-5700691D01*
X4919500Y-5700691D01*
X4919500Y-5819309D01*
X4950201Y-5933886D01*
X5009511Y-6036613D01*
X5093387Y-6120489D01*
X5196114Y-6179799D01*
X5310691Y-6210500D01*
X5310694Y-6210500D01*
X5429306Y-6210500D01*
X5429309Y-6210500D01*
X5543886Y-6179799D01*
X5646613Y-6120489D01*
X5730489Y-6036613D01*
X5789799Y-5933886D01*
X5820500Y-5819309D01*
X5820500Y-5721153D01*
X17409500Y-5721153D01*
X17409500Y-5878846D01*
X17440261Y-6033489D01*
X17440264Y-6033501D01*
X17500602Y-6179172D01*
X17500609Y-6179185D01*
X17588210Y-6310288D01*
X17588213Y-6310292D01*
X17699707Y-6421786D01*
X17699711Y-6421789D01*
X17830814Y-6509390D01*
X17830827Y-6509397D01*
X17963886Y-6564511D01*
X17976503Y-6569737D01*
X18131153Y-6600499D01*
X18131156Y-6600500D01*
X18131158Y-6600500D01*
X18288844Y-6600500D01*
X18288845Y-6600499D01*
X18443497Y-6569737D01*
X18589179Y-6509394D01*
X18720289Y-6421789D01*
X18831789Y-6310289D01*
X18919394Y-6179179D01*
X18979737Y-6033497D01*
X19010500Y-5878842D01*
X19010500Y-5721158D01*
X19010500Y-5721155D01*
X19010499Y-5721153D01*
X18996380Y-5650173D01*
X18979737Y-5566503D01*
X18966975Y-5535693D01*
X18919397Y-5420827D01*
X18919390Y-5420814D01*
X18831789Y-5289711D01*
X18831786Y-5289707D01*
X18720292Y-5178213D01*
X18720288Y-5178210D01*
X18589185Y-5090609D01*
X18589172Y-5090602D01*
X18443501Y-5030264D01*
X18443489Y-5030261D01*
X18288845Y-4999500D01*
X18288842Y-4999500D01*
X18131158Y-4999500D01*
X18131155Y-4999500D01*
X17976510Y-5030261D01*
X17976498Y-5030264D01*
X17830827Y-5090602D01*
X17830814Y-5090609D01*
X17699711Y-5178210D01*
X17699707Y-5178213D01*
X17588213Y-5289707D01*
X17588210Y-5289711D01*
X17500609Y-5420814D01*
X17500602Y-5420827D01*
X17440264Y-5566498D01*
X17440261Y-5566510D01*
X17409500Y-5721153D01*
X5820500Y-5721153D01*
X5820500Y-5700691D01*
X5789799Y-5586114D01*
X5730489Y-5483387D01*
X5646613Y-5399511D01*
X5543886Y-5340201D01*
X5429309Y-5309500D01*
X5310691Y-5309500D01*
X5196114Y-5340201D01*
X5196112Y-5340201D01*
X5196112Y-5340202D01*
X5093387Y-5399511D01*
X5093384Y-5399513D01*
X5009513Y-5483384D01*
X5009511Y-5483387D01*
X4961524Y-5566503D01*
X4950201Y-5586114D01*
X4919500Y-5700691D01*
X3689989Y-5700691D01*
X3760515Y-5630165D01*
X3836281Y-5498935D01*
X3875500Y-5352566D01*
X3875500Y-5201034D01*
X3836281Y-5054665D01*
X3760515Y-4923435D01*
X3653365Y-4816285D01*
X3587750Y-4778402D01*
X3522136Y-4740519D01*
X3448950Y-4720909D01*
X3375766Y-4701300D01*
X3224234Y-4701300D01*
X3077863Y-4740519D01*
X2946635Y-4816285D01*
X2946632Y-4816287D01*
X2839487Y-4923432D01*
X2839485Y-4923435D01*
X2763719Y-5054663D01*
X2724500Y-5201034D01*
X2724500Y-5228036D01*
X2704815Y-5295075D01*
X2652011Y-5340830D01*
X2582853Y-5350774D01*
X2519297Y-5321749D01*
X2512819Y-5315717D01*
X2431615Y-5234513D01*
X2431613Y-5234511D01*
X2328886Y-5175201D01*
X2214309Y-5144500D01*
X2095691Y-5144500D01*
X1981114Y-5175201D01*
X1981112Y-5175201D01*
X1981112Y-5175202D01*
X1878387Y-5234511D01*
X1878384Y-5234513D01*
X1794513Y-5318384D01*
X1794511Y-5318387D01*
X1747674Y-5399511D01*
X1735201Y-5421114D01*
X1704500Y-5535691D01*
X-2699500Y-5535691D01*
X-2699500Y-2690691D01*
X7324500Y-2690691D01*
X7324500Y-2809309D01*
X7355201Y-2923886D01*
X7414511Y-3026613D01*
X7498387Y-3110489D01*
X7601114Y-3169799D01*
X7715691Y-3200500D01*
X7715694Y-3200500D01*
X7834306Y-3200500D01*
X7834309Y-3200500D01*
X7908237Y-3180691D01*
X8662914Y-3180691D01*
X8662914Y-3299309D01*
X8693615Y-3413886D01*
X8752925Y-3516613D01*
X8836801Y-3600489D01*
X8939528Y-3659799D01*
X9054105Y-3690500D01*
X9054108Y-3690500D01*
X9151459Y-3690500D01*
X9218498Y-3710185D01*
X9264253Y-3762989D01*
X9274197Y-3832147D01*
X9258845Y-3876501D01*
X9230203Y-3926108D01*
X9230202Y-3926109D01*
X9227689Y-3935488D01*
X9199500Y-4040691D01*
X9199500Y-4159309D01*
X9230201Y-4273886D01*
X9289511Y-4376613D01*
X9373387Y-4460489D01*
X9476114Y-4519799D01*
X9590691Y-4550500D01*
X9590694Y-4550500D01*
X9709306Y-4550500D01*
X9709309Y-4550500D01*
X9823886Y-4519799D01*
X9926613Y-4460489D01*
X9926620Y-4460481D01*
X9933059Y-4455542D01*
X9934692Y-4457670D01*
X9984409Y-4430509D01*
X10054102Y-4435478D01*
X10110045Y-4477336D01*
X10118177Y-4489663D01*
X10139511Y-4526613D01*
X10223387Y-4610489D01*
X10326114Y-4669799D01*
X10440691Y-4700500D01*
X10440694Y-4700500D01*
X10559306Y-4700500D01*
X10559309Y-4700500D01*
X10673886Y-4669799D01*
X10776613Y-4610489D01*
X10860489Y-4526613D01*
X10919799Y-4423886D01*
X10950500Y-4309309D01*
X10950500Y-4190691D01*
X10919799Y-4076114D01*
X10860489Y-3973387D01*
X10776613Y-3889511D01*
X10673886Y-3830201D01*
X10559309Y-3799500D01*
X10440691Y-3799500D01*
X10326114Y-3830201D01*
X10326112Y-3830201D01*
X10326112Y-3830202D01*
X10223387Y-3889511D01*
X10216941Y-3894458D01*
X10215313Y-3892336D01*
X10165536Y-3919502D01*
X10095846Y-3914502D01*
X10039921Y-3872618D01*
X10031818Y-3860330D01*
X10010489Y-3823387D01*
X9926613Y-3739511D01*
X9823886Y-3680201D01*
X9709309Y-3649500D01*
X9611955Y-3649500D01*
X9606127Y-3647788D01*
X9600165Y-3648938D01*
X9572992Y-3638059D01*
X9544916Y-3629815D01*
X9540940Y-3625226D01*
X9535301Y-3622969D01*
X9518322Y-3599124D01*
X9499161Y-3577011D01*
X9498296Y-3571000D01*
X9494774Y-3566053D01*
X9493382Y-3536820D01*
X9490344Y-3515691D01*
X11399500Y-3515691D01*
X11399500Y-3634309D01*
X11430201Y-3748886D01*
X11489511Y-3851613D01*
X11573387Y-3935489D01*
X11676114Y-3994799D01*
X11790691Y-4025500D01*
X11790694Y-4025500D01*
X11909306Y-4025500D01*
X11909309Y-4025500D01*
X12023886Y-3994799D01*
X12126613Y-3935489D01*
X12210489Y-3851613D01*
X12269799Y-3748886D01*
X12300500Y-3634309D01*
X12300500Y-3515691D01*
X12269799Y-3401114D01*
X12210489Y-3298387D01*
X12126613Y-3214511D01*
X12023886Y-3155201D01*
X11909309Y-3124500D01*
X11790691Y-3124500D01*
X11676114Y-3155201D01*
X11676112Y-3155201D01*
X11676112Y-3155202D01*
X11573387Y-3214511D01*
X11573384Y-3214513D01*
X11489513Y-3298384D01*
X11489511Y-3298387D01*
X11430201Y-3401114D01*
X11399500Y-3515691D01*
X9490344Y-3515691D01*
X9489217Y-3507853D01*
X9491665Y-3500777D01*
X9491451Y-3496263D01*
X9504570Y-3463497D01*
X9514922Y-3445566D01*
X9514924Y-3445563D01*
X9533213Y-3413886D01*
X9563914Y-3299309D01*
X9563914Y-3180691D01*
X9533213Y-3066114D01*
X9473903Y-2963387D01*
X9390027Y-2879511D01*
X9330177Y-2844956D01*
X13395235Y-2844956D01*
X13395235Y-2963574D01*
X13425936Y-3078151D01*
X13485246Y-3180878D01*
X13569122Y-3264754D01*
X13671849Y-3324064D01*
X13786426Y-3354765D01*
X13786429Y-3354765D01*
X13905041Y-3354765D01*
X13905044Y-3354765D01*
X14019621Y-3324064D01*
X14122348Y-3264754D01*
X14206224Y-3180878D01*
X14265534Y-3078151D01*
X14296235Y-2963574D01*
X14296235Y-2844956D01*
X14265534Y-2730379D01*
X14206224Y-2627652D01*
X14122348Y-2543776D01*
X14019621Y-2484466D01*
X13905044Y-2453765D01*
X13786426Y-2453765D01*
X13671849Y-2484466D01*
X13671847Y-2484466D01*
X13671847Y-2484467D01*
X13569122Y-2543776D01*
X13569119Y-2543778D01*
X13485248Y-2627649D01*
X13485246Y-2627652D01*
X13425936Y-2730379D01*
X13395235Y-2844956D01*
X9330177Y-2844956D01*
X9287300Y-2820201D01*
X9172723Y-2789500D01*
X9054105Y-2789500D01*
X8939528Y-2820201D01*
X8939526Y-2820201D01*
X8939526Y-2820202D01*
X8836801Y-2879511D01*
X8836798Y-2879513D01*
X8752927Y-2963384D01*
X8752925Y-2963387D01*
X8693615Y-3066114D01*
X8662914Y-3180691D01*
X7908237Y-3180691D01*
X7948886Y-3169799D01*
X8051613Y-3110489D01*
X8135489Y-3026613D01*
X8194799Y-2923886D01*
X8225500Y-2809309D01*
X8225500Y-2690691D01*
X8194799Y-2576114D01*
X8135489Y-2473387D01*
X8051613Y-2389511D01*
X7948886Y-2330201D01*
X7834309Y-2299500D01*
X7715691Y-2299500D01*
X7601114Y-2330201D01*
X7601112Y-2330201D01*
X7601112Y-2330202D01*
X7498387Y-2389511D01*
X7498384Y-2389513D01*
X7414513Y-2473384D01*
X7414511Y-2473387D01*
X7373872Y-2543776D01*
X7355201Y-2576114D01*
X7324500Y-2690691D01*
X-2699500Y-2690691D01*
X-2699500Y-3480D01*
X-2699305Y3473D01*
X-2691509Y142288D01*
X6082194Y142288D01*
X6082194Y23670D01*
X6112895Y-90907D01*
X6172205Y-193634D01*
X6256081Y-277510D01*
X6358808Y-336820D01*
X6473385Y-367521D01*
X6473388Y-367521D01*
X6592000Y-367521D01*
X6592003Y-367521D01*
X6706580Y-336820D01*
X6809307Y-277510D01*
X6893183Y-193634D01*
X6952493Y-90907D01*
X6983194Y23670D01*
X6983194Y142288D01*
X6952493Y256865D01*
X6893183Y359592D01*
X6809307Y443468D01*
X6706580Y502778D01*
X6592003Y533479D01*
X6473385Y533479D01*
X6358808Y502778D01*
X6256081Y443468D01*
X6172205Y359592D01*
X6112895Y256865D01*
X6082194Y142288D01*
X-2691509Y142288D01*
X-2690662Y157368D01*
X-2682916Y295296D01*
X-2681359Y309114D01*
X-2632984Y593830D01*
X-2629890Y607386D01*
X-2622134Y634309D01*
X12574500Y634309D01*
X12574500Y515691D01*
X12605201Y401114D01*
X12605202Y401112D01*
X12664511Y298387D01*
X12664513Y298384D01*
X12748384Y214513D01*
X12748387Y214511D01*
X12847360Y157368D01*
X12851114Y155201D01*
X12965691Y124500D01*
X12965694Y124500D01*
X13084306Y124500D01*
X13084309Y124500D01*
X13198886Y155201D01*
X13301613Y214511D01*
X13385489Y298387D01*
X13444799Y401114D01*
X13475500Y515691D01*
X13475500Y634309D01*
X13444799Y748886D01*
X13385489Y851613D01*
X13301613Y935489D01*
X13198886Y994799D01*
X13084309Y1025500D01*
X12965691Y1025500D01*
X12851114Y994799D01*
X12748387Y935489D01*
X12664511Y851613D01*
X12605201Y748886D01*
X12574500Y634309D01*
X-2622134Y634309D01*
X-2549941Y884897D01*
X-2545348Y898023D01*
X-2434831Y1164835D01*
X-2428798Y1177363D01*
X-2289101Y1430125D01*
X-2281703Y1441899D01*
X-2233873Y1509309D01*
X10299500Y1509309D01*
X10299500Y1390691D01*
X10330201Y1276114D01*
X10330202Y1276112D01*
X10389511Y1173387D01*
X10389513Y1173384D01*
X10473384Y1089513D01*
X10473387Y1089511D01*
X10576114Y1030201D01*
X10690691Y999500D01*
X10690694Y999500D01*
X10809306Y999500D01*
X10809309Y999500D01*
X10923886Y1030201D01*
X11026613Y1089511D01*
X11110489Y1173387D01*
X11169799Y1276114D01*
X11200500Y1390691D01*
X11200500Y1509309D01*
X11169799Y1623886D01*
X11110489Y1726613D01*
X11026613Y1810489D01*
X10923886Y1869799D01*
X10809309Y1900500D01*
X10690691Y1900500D01*
X10576114Y1869799D01*
X10473387Y1810489D01*
X10389511Y1726613D01*
X10330201Y1623886D01*
X10299500Y1509309D01*
X-2233873Y1509309D01*
X-2177194Y1589191D01*
X-2114581Y1677436D01*
X-2105910Y1688308D01*
X-1913474Y1903642D01*
X-1903642Y1913474D01*
X-1688308Y2105910D01*
X-1677436Y2114581D01*
X-1441899Y2281703D01*
X-1430125Y2289101D01*
X-1177363Y2428798D01*
X-1164835Y2434831D01*
X-898023Y2545348D01*
X-884897Y2549941D01*
X-607386Y2629890D01*
X-593830Y2632984D01*
X-309114Y2681359D01*
X-295296Y2682916D01*
X-3472Y2699305D01*
X3481Y2699500D01*
X47594Y2699500D01*
X18952405Y2699500D01*
X18996519Y2699500D01*
X19003472Y2699305D01*
G37*
%TD.AperFunction*%
%TD*%
M02*
