M48
; DRILL file KiCad 10.0.5 date 2026-09-27T23:41:15
; FORMAT={-:-/ absolute / inch / decimal}
; #@! TF.CreationDate,2026-09-27T23:41:15+02:00
; #@! TF.GenerationSoftware,Kicad,Pcbnew,10.0.5
; #@! TF.FileFunction,Plated,1,4,PTH
FMAT,2
INCH
; #@! TA.AperFunction,Plated,PTH,ViaDrill
T1C0.0118
; #@! TA.AperFunction,Plated,PTH,ComponentDrill
T2C0.0118
; #@! TA.AperFunction,Plated,PTH,ComponentDrill
T3C0.0236
; #@! TA.AperFunction,Plated,PTH,ComponentDrill
T4C0.0256
; #@! TA.AperFunction,Plated,PTH,ComponentDrill
T5C0.0354
; #@! TA.AperFunction,Plated,PTH,ComponentDrill
T6C0.0394
; #@! TA.AperFunction,Plated,PTH,ComponentDrill
T7C0.0472
; #@! TA.AperFunction,Plated,PTH,ComponentDrill
T8C0.0492
; #@! TA.AperFunction,Plated,PTH,ComponentDrill
T9C0.1260
%
G90
G05
T1
X-0.0911Y0.0
X-0.0911Y-2.6772
X-0.072Y-0.8387
X-0.0699Y-0.9154
X-0.0699Y-1.0086
X-0.065Y-1.4941
X-0.065Y-1.5256
X-0.0647Y0.0647
X-0.0647Y-0.063
X-0.0647Y-2.6125
X-0.0647Y-2.7402
X-0.0644Y-1.2724
X-0.064Y-1.2435
X-0.0126Y-0.2219
X-0.0079Y-0.7274
X-0.0039Y-2.3425
X-0.002Y-2.3031
X0.0Y0.0906
X0.0Y-0.0906
X0.0Y-2.5866
X0.0Y-2.7677
X0.0039Y-1.0827
X0.0069Y-0.3228
X0.0079Y-0.8318
X0.0118Y-2.3917
X0.0177Y-0.2864
X0.0177Y-0.9193
X0.0197Y-0.3602
X0.0199Y-0.4278
X0.0269Y-1.0108
X0.0276Y-0.9685
X0.0276Y-1.1417
X0.0315Y-0.7953
X0.0335Y-2.4843
X0.0364Y-1.2077
X0.0384Y-0.8819
X0.0394Y-0.5463
X0.0545Y-1.0484
X0.0561Y-1.2831
X0.062Y-1.2372
X0.063Y0.0647
X0.063Y-0.063
X0.063Y-2.6125
X0.063Y-2.7402
X0.0837Y-1.3022
X0.0848Y-0.2203
X0.0886Y-1.5748
X0.0894Y0.0
X0.0894Y-2.6772
X0.1043Y-2.4843
X0.1093Y-0.3228
X0.1122Y-0.8297
X0.1142Y-0.2858
X0.1146Y-0.3996
X0.115Y-0.3602
X0.1171Y-1.2795
X0.1181Y-1.5748
X0.124Y-0.9488
X0.128Y-1.3484
X0.1534Y-0.9303
X0.1534Y-0.8561
X0.1575Y-1.4862
X0.163Y0.0398
X0.1772Y-1.2205
X0.185Y-2.4291
X0.1919Y-0.8465
X0.1969Y-2.2047
X0.1988Y-2.1043
X0.1988Y-2.1555
X0.2008Y-2.0551
X0.2114Y-0.2268
X0.2114Y-0.4142
X0.213Y-0.4551
X0.2138Y-0.1866
X0.2205Y-0.5531
X0.2238Y-2.0051
X0.2283Y-2.4232
X0.2293Y-0.811
X0.2323Y-0.7756
X0.2362Y-2.312
X0.2366Y-1.7795
X0.2366Y-1.8091
X0.248Y-0.9774
X0.2504Y0.063
X0.251Y-1.1929
X0.2572Y0.0033
X0.2589Y-0.2982
X0.2724Y-1.4374
X0.274Y-0.9507
X0.2756Y-2.0374
X0.2776Y-0.5925
X0.2795Y-0.0217
X0.2854Y-2.1063
X0.2854Y-2.1555
X0.2854Y-2.2047
X0.2874Y-0.4902
X0.2884Y-0.3425
X0.2982Y-0.7402
X0.3022Y-0.4567
X0.3061Y-0.1083
X0.3157Y-0.1967
X0.3209Y-0.6654
X0.3588Y-0.1276
X0.3602Y-2.2864
X0.3642Y-0.3543
X0.3652Y-2.1043
X0.375Y-0.8996
X0.3799Y-0.1614
X0.3848Y-1.5433
X0.3888Y-1.6122
X0.3888Y-1.7667
X0.3888Y-2.0394
X0.3898Y-1.8258
X0.3923Y-0.1271
X0.4134Y-0.1673
X0.4134Y-0.3533
X0.4213Y-1.5433
X0.4232Y0.0571
X0.4233Y-0.8258
X0.4252Y-0.9632
X0.4252Y-2.313
X0.4262Y-1.7648
X0.4272Y-2.0394
X0.4421Y-0.9291
X0.4459Y-1.6604
X0.4511Y-0.1705
X0.4535Y-2.0929
X0.4537Y-0.8898
X0.4636Y-1.5433
X0.4665Y-0.1407
X0.468Y-0.3174
X0.4685Y-1.3179
X0.4736Y-1.7957
X0.4803Y-1.0783
X0.4833Y-0.4085
X0.4833Y-0.4567
X0.4833Y-0.5069
X0.4833Y-0.5551
X0.4862Y-1.4094
X0.4875Y-0.8894
X0.5012Y-0.7906
X0.5069Y-0.3612
X0.5128Y0.0226
X0.5197Y0.0591
X0.5357Y-0.9928
X0.5374Y-0.2726
X0.5451Y-0.1143
X0.5453Y-0.4577
X0.5512Y-1.5098
X0.552Y-0.7323
X0.5591Y-1.3396
X0.56Y-0.69
X0.561Y-1.1309
X0.5659Y-1.2323
X0.5689Y-0.5059
X0.5689Y-1.2697
X0.5882Y-1.8526
X0.5882Y-1.8831
X0.5913Y-2.1276
X0.5913Y-2.1571
X0.5935Y-0.5551
X0.5945Y-1.5768
X0.5945Y-1.6063
X0.5997Y-0.665
X0.6004Y-1.5098
X0.6014Y-0.6299
X0.6083Y-0.2598
X0.6102Y-0.4094
X0.6161Y-2.3661
X0.6209Y-1.1303
X0.6437Y-0.7313
X0.6496Y-1.2244
X0.6496Y-1.5108
X0.6569Y0.0
X0.6569Y-2.6772
X0.6673Y-0.8258
X0.6801Y-0.3701
X0.6834Y0.0647
X0.6834Y-0.063
X0.6834Y-2.6125
X0.6834Y-2.7402
X0.687Y-1.0886
X0.69Y-1.0384
X0.6949Y-1.1388
X0.6988Y-1.5098
X0.7087Y-1.2303
X0.7175Y-0.8258
X0.7303Y-1.3339
X0.747Y-1.4173
X0.748Y0.0906
X0.748Y-0.0906
X0.748Y-1.5098
X0.748Y-2.5866
X0.748Y-2.7677
X0.7648Y-0.8258
X0.7687Y-0.3691
X0.811Y0.0647
X0.811Y-0.063
X0.811Y-2.6125
X0.811Y-2.7402
X0.813Y-1.4646
X0.813Y-1.748
X0.813Y-2.0217
X0.8375Y0.0
X0.8375Y-2.6772
X0.8406Y-0.8258
T2
X0.0748Y-2.3031
X0.0748Y-2.3425
X0.0945Y-2.3228
X0.1142Y-2.3031
X0.1142Y-2.3425
X0.1999Y-1.0827
X0.2417Y-1.0409
X0.2417Y-1.1244
X0.2756Y-2.4783
X0.2756Y-2.5768
X0.2835Y-0.9992
X0.2835Y-1.0827
X0.2835Y-1.1662
X0.3252Y-1.0409
X0.3252Y-1.1244
X0.3543Y-2.4783
X0.3543Y-2.5768
X0.3674Y-1.0831
X0.4134Y-2.4783
X0.4134Y-2.5768
X0.4921Y-2.4783
X0.4921Y-2.5768
T4
X0.8189Y-0.9878
X0.8189Y-1.0378
X0.8189Y-1.0878
X0.8189Y-1.1378
X0.8189Y-1.1878
X0.8189Y-1.2378
T5
X0.0394Y-1.3878
X0.2362Y-1.3878
T6
X0.0007Y-1.6831
X0.1975Y-1.6831
X0.7169Y-0.2283
X0.7169Y-0.3283
X0.8169Y-0.2283
X0.8169Y-0.3283
T7
X0.315Y-2.5276
X0.4528Y-2.5276
X0.711Y-1.611
X0.711Y-1.7488
X0.711Y-1.8866
X0.711Y-2.0244
X0.711Y-2.1622
X0.711Y-2.3
T8
X0.69Y-2.438
X0.79Y-2.438
T9
X0.0Y0.0
X0.0Y-2.6772
X0.748Y0.0
X0.748Y-2.6772
T3
G00X0.0008Y-0.1514
M15
G01X-0.0307Y-0.1514
M16
G05
G00X0.0008Y-0.4916
M15
G01X-0.0307Y-0.4916
M16
G05
G00X0.1713Y-0.1514
M15
G01X0.128Y-0.1514
M16
G05
G00X0.1713Y-0.4916
M15
G01X0.128Y-0.4916
M16
G05
M30
